G75*
%MOIN*%
%OFA0B0*%
%FSLAX25Y25*%
%IPPOS*%
%LPD*%
%AMOC8*
5,1,8,0,0,1.08239X$1,22.5*
%
%ADD10R,0.05600X0.09600*%
%ADD11R,0.14973X0.09461*%
%ADD12R,0.03162X0.09461*%
%ADD13R,0.06509X0.02375*%
%ADD14C,0.04146*%
%ADD15R,0.06693X0.07874*%
%ADD16R,0.06693X0.10630*%
%ADD17R,0.05131X0.04737*%
%ADD18R,0.04737X0.05131*%
%ADD19R,0.05524X0.03950*%
%ADD20R,0.04343X0.03556*%
%ADD21R,0.03556X0.04343*%
%ADD22R,0.04737X0.03950*%
%ADD23C,0.01421*%
%ADD24C,0.08200*%
%ADD25C,0.00991*%
%ADD26R,0.03950X0.01981*%
%ADD27R,0.01981X0.03950*%
%ADD28R,0.22454X0.22454*%
%ADD29R,0.21800X0.08400*%
%ADD30C,0.05346*%
%ADD31R,0.04343X0.04737*%
%ADD32C,0.02978*%
%ADD33C,0.02800*%
D10*
X0043369Y0032995D03*
X0052469Y0032995D03*
X0061569Y0032995D03*
X0065250Y0081893D03*
X0056150Y0081893D03*
X0047050Y0081893D03*
D11*
X0052469Y0057396D03*
X0056150Y0106294D03*
D12*
X0170480Y0070313D03*
X0175480Y0070313D03*
X0180480Y0070313D03*
X0185480Y0070313D03*
X0185480Y0049841D03*
X0180480Y0049841D03*
X0175480Y0049841D03*
X0170480Y0049841D03*
D13*
X0032075Y0057735D03*
X0032075Y0060294D03*
X0032075Y0062853D03*
X0032075Y0065412D03*
X0032075Y0067971D03*
D14*
X0030008Y0070333D03*
X0030008Y0055373D03*
D15*
X0021346Y0048349D03*
X0021346Y0077357D03*
D16*
X0021346Y0062853D03*
D17*
X0080638Y0074526D03*
X0087331Y0074526D03*
X0158709Y0082991D03*
X0165402Y0082991D03*
X0173177Y0082912D03*
X0179870Y0082912D03*
X0182665Y0025628D03*
X0189358Y0025628D03*
X0089791Y0019900D03*
X0083098Y0019900D03*
D18*
X0027685Y0027695D03*
X0027685Y0034388D03*
X0145736Y0026554D03*
X0154850Y0026199D03*
X0154850Y0019506D03*
X0145736Y0019861D03*
X0157803Y0060353D03*
X0157803Y0067046D03*
D19*
X0113020Y0025412D03*
X0105343Y0025195D03*
X0105343Y0018109D03*
X0113020Y0018325D03*
D20*
X0120343Y0018325D03*
X0126937Y0018325D03*
X0126937Y0023443D03*
X0120343Y0023443D03*
X0146327Y0047065D03*
X0140224Y0047558D03*
X0146327Y0052184D03*
X0140224Y0052676D03*
X0140087Y0060648D03*
X0145992Y0061140D03*
X0145992Y0066258D03*
X0140087Y0065766D03*
X0130244Y0069999D03*
X0130244Y0075117D03*
X0145992Y0079349D03*
X0145992Y0084467D03*
X0171839Y0093916D03*
X0179909Y0093916D03*
X0179909Y0099034D03*
X0171839Y0099034D03*
X0031602Y0095668D03*
X0031602Y0090550D03*
X0023709Y0090648D03*
X0023709Y0095766D03*
D21*
X0032980Y0018247D03*
X0038098Y0018247D03*
X0076012Y0047125D03*
X0081130Y0047125D03*
X0081130Y0053522D03*
X0076012Y0053522D03*
X0076012Y0059762D03*
X0081130Y0059762D03*
X0081130Y0066652D03*
X0076012Y0066652D03*
X0101602Y0082400D03*
X0106720Y0082400D03*
X0115382Y0082400D03*
X0120500Y0082400D03*
D22*
X0175362Y0028306D03*
X0175362Y0021613D03*
D23*
X0180094Y0031963D02*
X0180094Y0035279D01*
X0183410Y0035279D01*
X0183410Y0031963D01*
X0180094Y0031963D01*
X0180094Y0033383D02*
X0183410Y0033383D01*
X0183410Y0034803D02*
X0180094Y0034803D01*
X0186999Y0035279D02*
X0186999Y0031963D01*
X0186999Y0035279D02*
X0190315Y0035279D01*
X0190315Y0031963D01*
X0186999Y0031963D01*
X0186999Y0033383D02*
X0190315Y0033383D01*
X0190315Y0034803D02*
X0186999Y0034803D01*
X0158969Y0050094D02*
X0155653Y0050094D01*
X0158969Y0050094D02*
X0158969Y0046778D01*
X0155653Y0046778D01*
X0155653Y0050094D01*
X0155653Y0048198D02*
X0158969Y0048198D01*
X0158969Y0049618D02*
X0155653Y0049618D01*
X0155653Y0056999D02*
X0158969Y0056999D01*
X0158969Y0053683D01*
X0155653Y0053683D01*
X0155653Y0056999D01*
X0155653Y0055103D02*
X0158969Y0055103D01*
X0158969Y0056523D02*
X0155653Y0056523D01*
X0089587Y0080742D02*
X0089587Y0084058D01*
X0089587Y0080742D02*
X0086271Y0080742D01*
X0086271Y0084058D01*
X0089587Y0084058D01*
X0089587Y0082162D02*
X0086271Y0082162D01*
X0086271Y0083582D02*
X0089587Y0083582D01*
X0082682Y0084058D02*
X0082682Y0080742D01*
X0079366Y0080742D01*
X0079366Y0084058D01*
X0082682Y0084058D01*
X0082682Y0082162D02*
X0079366Y0082162D01*
X0079366Y0083582D02*
X0082682Y0083582D01*
D24*
X0197961Y0084113D03*
X0197961Y0074113D03*
X0197961Y0064113D03*
X0197961Y0054113D03*
X0197961Y0044113D03*
X0221583Y0038365D03*
X0221583Y0028365D03*
X0220795Y0062380D03*
X0220795Y0072380D03*
X0220795Y0082380D03*
X0220795Y0092380D03*
X0220795Y0102380D03*
X0197961Y0094113D03*
D25*
X0128378Y0065173D02*
X0125418Y0065173D01*
X0125418Y0066163D01*
X0128378Y0066163D01*
X0128378Y0065173D01*
X0128378Y0066163D02*
X0125418Y0066163D01*
X0124834Y0066747D02*
X0124834Y0069707D01*
X0124834Y0066747D02*
X0123844Y0066747D01*
X0123844Y0069707D01*
X0124834Y0069707D01*
X0124834Y0067737D02*
X0123844Y0067737D01*
X0123844Y0068727D02*
X0124834Y0068727D01*
X0103180Y0069707D02*
X0103180Y0066747D01*
X0102190Y0066747D01*
X0102190Y0069707D01*
X0103180Y0069707D01*
X0103180Y0067737D02*
X0102190Y0067737D01*
X0102190Y0068727D02*
X0103180Y0068727D01*
X0101606Y0065173D02*
X0098646Y0065173D01*
X0098646Y0066163D01*
X0101606Y0066163D01*
X0101606Y0065173D01*
X0101606Y0066163D02*
X0098646Y0066163D01*
X0098646Y0043519D02*
X0101606Y0043519D01*
X0098646Y0043519D02*
X0098646Y0044509D01*
X0101606Y0044509D01*
X0101606Y0043519D01*
X0101606Y0044509D02*
X0098646Y0044509D01*
X0103180Y0042935D02*
X0103180Y0039975D01*
X0102190Y0039975D01*
X0102190Y0042935D01*
X0103180Y0042935D01*
X0103180Y0040965D02*
X0102190Y0040965D01*
X0102190Y0041955D02*
X0103180Y0041955D01*
X0124834Y0042935D02*
X0124834Y0039975D01*
X0123844Y0039975D01*
X0123844Y0042935D01*
X0124834Y0042935D01*
X0124834Y0040965D02*
X0123844Y0040965D01*
X0123844Y0041955D02*
X0124834Y0041955D01*
X0125418Y0043519D02*
X0128378Y0043519D01*
X0125418Y0043519D02*
X0125418Y0044509D01*
X0128378Y0044509D01*
X0128378Y0043519D01*
X0128378Y0044509D02*
X0125418Y0044509D01*
D26*
X0126898Y0045983D03*
X0126898Y0047951D03*
X0126898Y0049920D03*
X0126898Y0051888D03*
X0126898Y0053857D03*
X0126898Y0055825D03*
X0126898Y0057794D03*
X0126898Y0059762D03*
X0126898Y0061731D03*
X0126898Y0063699D03*
X0100126Y0063699D03*
X0100126Y0061731D03*
X0100126Y0059762D03*
X0100126Y0057794D03*
X0100126Y0055825D03*
X0100126Y0053857D03*
X0100126Y0051888D03*
X0100126Y0049920D03*
X0100126Y0047951D03*
X0100126Y0045983D03*
D27*
X0104654Y0041455D03*
X0106622Y0041455D03*
X0108591Y0041455D03*
X0110559Y0041455D03*
X0112528Y0041455D03*
X0114496Y0041455D03*
X0116465Y0041455D03*
X0118433Y0041455D03*
X0120402Y0041455D03*
X0122370Y0041455D03*
X0122370Y0068227D03*
X0120402Y0068227D03*
X0118433Y0068227D03*
X0116465Y0068227D03*
X0114496Y0068227D03*
X0112528Y0068227D03*
X0110559Y0068227D03*
X0108591Y0068227D03*
X0106622Y0068227D03*
X0104654Y0068227D03*
D28*
X0113512Y0054841D03*
D29*
X0132512Y0098640D03*
X0094512Y0098640D03*
D30*
X0083984Y0098640D03*
X0143039Y0098148D03*
D31*
X0095008Y0035845D03*
X0095008Y0029546D03*
X0078866Y0029546D03*
X0078866Y0035845D03*
D32*
X0068728Y0027282D03*
X0096780Y0016131D03*
X0100224Y0021376D03*
X0116957Y0027178D03*
X0113020Y0033680D03*
X0124831Y0037104D03*
X0134673Y0045983D03*
X0113512Y0047951D03*
X0088413Y0062715D03*
X0071440Y0071573D03*
X0066268Y0069605D03*
X0052488Y0071573D03*
X0049050Y0072564D03*
X0045106Y0067636D03*
X0040185Y0058778D03*
X0068236Y0053857D03*
X0074142Y0079447D03*
X0165185Y0088798D03*
X0167646Y0031711D03*
D33*
X0160923Y0034792D03*
X0162134Y0040417D03*
X0159009Y0043542D03*
X0150259Y0052292D03*
X0153384Y0056042D03*
X0135884Y0062292D03*
X0130259Y0051667D03*
X0120259Y0037292D03*
X0106509Y0033542D03*
X0120259Y0029127D03*
X0116509Y0021667D03*
X0109009Y0021042D03*
X0093384Y0022917D03*
X0091509Y0031042D03*
X0096509Y0048542D03*
X0096509Y0051667D03*
X0096509Y0054792D03*
X0091509Y0055417D03*
X0084634Y0059792D03*
X0063384Y0064167D03*
X0060884Y0077917D03*
X0056509Y0087917D03*
X0056509Y0094167D03*
X0105259Y0071667D03*
X0110259Y0071667D03*
X0061509Y0051042D03*
X0056509Y0022917D03*
X0137134Y0031042D03*
X0141509Y0029792D03*
X0149634Y0027917D03*
X0177759Y0034792D03*
X0191509Y0044792D03*
X0195259Y0037917D03*
X0215259Y0046042D03*
M02*
