G75*
%MOIN*%
%OFA0B0*%
%FSLAX25Y25*%
%IPPOS*%
%LPD*%
%AMOC8*
5,1,8,0,0,1.08239X$1,22.5*
%
%ADD10C,0.00000*%
%ADD11C,0.00100*%
%ADD12C,0.00800*%
%ADD13C,0.00400*%
%ADD14C,0.01200*%
%ADD15C,0.00500*%
%ADD16R,0.01800X0.03000*%
%ADD17R,0.03000X0.01800*%
%ADD18C,0.00300*%
%ADD19C,0.00600*%
%ADD20C,0.00200*%
%ADD21R,0.03050X0.00500*%
D10*
X0012134Y0011042D02*
X0012134Y0117341D01*
X0236543Y0117341D01*
X0236543Y0011042D01*
X0012134Y0011042D01*
X0028335Y0055373D02*
X0028337Y0055454D01*
X0028343Y0055536D01*
X0028353Y0055617D01*
X0028367Y0055697D01*
X0028384Y0055776D01*
X0028406Y0055855D01*
X0028431Y0055932D01*
X0028460Y0056009D01*
X0028493Y0056083D01*
X0028530Y0056156D01*
X0028569Y0056227D01*
X0028613Y0056296D01*
X0028659Y0056363D01*
X0028709Y0056427D01*
X0028762Y0056489D01*
X0028818Y0056549D01*
X0028876Y0056605D01*
X0028938Y0056659D01*
X0029002Y0056710D01*
X0029068Y0056757D01*
X0029136Y0056801D01*
X0029207Y0056842D01*
X0029279Y0056879D01*
X0029354Y0056913D01*
X0029429Y0056943D01*
X0029507Y0056969D01*
X0029585Y0056992D01*
X0029664Y0057010D01*
X0029744Y0057025D01*
X0029825Y0057036D01*
X0029906Y0057043D01*
X0029988Y0057046D01*
X0030069Y0057045D01*
X0030150Y0057040D01*
X0030231Y0057031D01*
X0030312Y0057018D01*
X0030392Y0057001D01*
X0030470Y0056981D01*
X0030548Y0056956D01*
X0030625Y0056928D01*
X0030700Y0056896D01*
X0030773Y0056861D01*
X0030844Y0056822D01*
X0030914Y0056779D01*
X0030981Y0056734D01*
X0031047Y0056685D01*
X0031109Y0056633D01*
X0031169Y0056577D01*
X0031226Y0056519D01*
X0031281Y0056459D01*
X0031332Y0056395D01*
X0031380Y0056330D01*
X0031425Y0056262D01*
X0031467Y0056192D01*
X0031505Y0056120D01*
X0031540Y0056046D01*
X0031571Y0055971D01*
X0031598Y0055894D01*
X0031621Y0055816D01*
X0031641Y0055737D01*
X0031657Y0055657D01*
X0031669Y0055576D01*
X0031677Y0055495D01*
X0031681Y0055414D01*
X0031681Y0055332D01*
X0031677Y0055251D01*
X0031669Y0055170D01*
X0031657Y0055089D01*
X0031641Y0055009D01*
X0031621Y0054930D01*
X0031598Y0054852D01*
X0031571Y0054775D01*
X0031540Y0054700D01*
X0031505Y0054626D01*
X0031467Y0054554D01*
X0031425Y0054484D01*
X0031380Y0054416D01*
X0031332Y0054351D01*
X0031281Y0054287D01*
X0031226Y0054227D01*
X0031169Y0054169D01*
X0031109Y0054113D01*
X0031047Y0054061D01*
X0030981Y0054012D01*
X0030914Y0053967D01*
X0030845Y0053924D01*
X0030773Y0053885D01*
X0030700Y0053850D01*
X0030625Y0053818D01*
X0030548Y0053790D01*
X0030470Y0053765D01*
X0030392Y0053745D01*
X0030312Y0053728D01*
X0030231Y0053715D01*
X0030150Y0053706D01*
X0030069Y0053701D01*
X0029988Y0053700D01*
X0029906Y0053703D01*
X0029825Y0053710D01*
X0029744Y0053721D01*
X0029664Y0053736D01*
X0029585Y0053754D01*
X0029507Y0053777D01*
X0029429Y0053803D01*
X0029354Y0053833D01*
X0029279Y0053867D01*
X0029207Y0053904D01*
X0029136Y0053945D01*
X0029068Y0053989D01*
X0029002Y0054036D01*
X0028938Y0054087D01*
X0028876Y0054141D01*
X0028818Y0054197D01*
X0028762Y0054257D01*
X0028709Y0054319D01*
X0028659Y0054383D01*
X0028613Y0054450D01*
X0028569Y0054519D01*
X0028530Y0054590D01*
X0028493Y0054663D01*
X0028460Y0054737D01*
X0028431Y0054814D01*
X0028406Y0054891D01*
X0028384Y0054970D01*
X0028367Y0055049D01*
X0028353Y0055129D01*
X0028343Y0055210D01*
X0028337Y0055292D01*
X0028335Y0055373D01*
X0028335Y0070333D02*
X0028337Y0070414D01*
X0028343Y0070496D01*
X0028353Y0070577D01*
X0028367Y0070657D01*
X0028384Y0070736D01*
X0028406Y0070815D01*
X0028431Y0070892D01*
X0028460Y0070969D01*
X0028493Y0071043D01*
X0028530Y0071116D01*
X0028569Y0071187D01*
X0028613Y0071256D01*
X0028659Y0071323D01*
X0028709Y0071387D01*
X0028762Y0071449D01*
X0028818Y0071509D01*
X0028876Y0071565D01*
X0028938Y0071619D01*
X0029002Y0071670D01*
X0029068Y0071717D01*
X0029136Y0071761D01*
X0029207Y0071802D01*
X0029279Y0071839D01*
X0029354Y0071873D01*
X0029429Y0071903D01*
X0029507Y0071929D01*
X0029585Y0071952D01*
X0029664Y0071970D01*
X0029744Y0071985D01*
X0029825Y0071996D01*
X0029906Y0072003D01*
X0029988Y0072006D01*
X0030069Y0072005D01*
X0030150Y0072000D01*
X0030231Y0071991D01*
X0030312Y0071978D01*
X0030392Y0071961D01*
X0030470Y0071941D01*
X0030548Y0071916D01*
X0030625Y0071888D01*
X0030700Y0071856D01*
X0030773Y0071821D01*
X0030844Y0071782D01*
X0030914Y0071739D01*
X0030981Y0071694D01*
X0031047Y0071645D01*
X0031109Y0071593D01*
X0031169Y0071537D01*
X0031226Y0071479D01*
X0031281Y0071419D01*
X0031332Y0071355D01*
X0031380Y0071290D01*
X0031425Y0071222D01*
X0031467Y0071152D01*
X0031505Y0071080D01*
X0031540Y0071006D01*
X0031571Y0070931D01*
X0031598Y0070854D01*
X0031621Y0070776D01*
X0031641Y0070697D01*
X0031657Y0070617D01*
X0031669Y0070536D01*
X0031677Y0070455D01*
X0031681Y0070374D01*
X0031681Y0070292D01*
X0031677Y0070211D01*
X0031669Y0070130D01*
X0031657Y0070049D01*
X0031641Y0069969D01*
X0031621Y0069890D01*
X0031598Y0069812D01*
X0031571Y0069735D01*
X0031540Y0069660D01*
X0031505Y0069586D01*
X0031467Y0069514D01*
X0031425Y0069444D01*
X0031380Y0069376D01*
X0031332Y0069311D01*
X0031281Y0069247D01*
X0031226Y0069187D01*
X0031169Y0069129D01*
X0031109Y0069073D01*
X0031047Y0069021D01*
X0030981Y0068972D01*
X0030914Y0068927D01*
X0030845Y0068884D01*
X0030773Y0068845D01*
X0030700Y0068810D01*
X0030625Y0068778D01*
X0030548Y0068750D01*
X0030470Y0068725D01*
X0030392Y0068705D01*
X0030312Y0068688D01*
X0030231Y0068675D01*
X0030150Y0068666D01*
X0030069Y0068661D01*
X0029988Y0068660D01*
X0029906Y0068663D01*
X0029825Y0068670D01*
X0029744Y0068681D01*
X0029664Y0068696D01*
X0029585Y0068714D01*
X0029507Y0068737D01*
X0029429Y0068763D01*
X0029354Y0068793D01*
X0029279Y0068827D01*
X0029207Y0068864D01*
X0029136Y0068905D01*
X0029068Y0068949D01*
X0029002Y0068996D01*
X0028938Y0069047D01*
X0028876Y0069101D01*
X0028818Y0069157D01*
X0028762Y0069217D01*
X0028709Y0069279D01*
X0028659Y0069343D01*
X0028613Y0069410D01*
X0028569Y0069479D01*
X0028530Y0069550D01*
X0028493Y0069623D01*
X0028460Y0069697D01*
X0028431Y0069774D01*
X0028406Y0069851D01*
X0028384Y0069930D01*
X0028367Y0070009D01*
X0028353Y0070089D01*
X0028343Y0070170D01*
X0028337Y0070252D01*
X0028335Y0070333D01*
D11*
X0049269Y0064497D02*
X0049269Y0063246D01*
X0049519Y0062995D01*
X0050019Y0062995D01*
X0050269Y0063246D01*
X0050269Y0064497D01*
X0050742Y0064246D02*
X0050992Y0064497D01*
X0051492Y0064497D01*
X0051743Y0064246D01*
X0051743Y0063996D01*
X0050742Y0062995D01*
X0051743Y0062995D01*
X0022401Y0032129D02*
X0022651Y0031878D01*
X0021650Y0030877D01*
X0021900Y0030627D01*
X0022401Y0030627D01*
X0022651Y0030877D01*
X0022651Y0031878D01*
X0022401Y0032129D02*
X0021900Y0032129D01*
X0021650Y0031878D01*
X0021650Y0030877D01*
X0021178Y0030627D02*
X0020177Y0030627D01*
X0021178Y0031628D01*
X0021178Y0031878D01*
X0020927Y0032129D01*
X0020427Y0032129D01*
X0020177Y0031878D01*
X0019704Y0031878D02*
X0019704Y0031378D01*
X0019454Y0031128D01*
X0018704Y0031128D01*
X0019204Y0031128D02*
X0019704Y0030627D01*
X0018704Y0030627D02*
X0018704Y0032129D01*
X0019454Y0032129D01*
X0019704Y0031878D01*
X0086064Y0014883D02*
X0086064Y0013382D01*
X0086064Y0013882D02*
X0086815Y0013882D01*
X0087065Y0014132D01*
X0087065Y0014633D01*
X0086815Y0014883D01*
X0086064Y0014883D01*
X0086565Y0013882D02*
X0087065Y0013382D01*
X0087537Y0013632D02*
X0087788Y0013382D01*
X0088288Y0013382D01*
X0088538Y0013632D01*
X0088538Y0013882D01*
X0088288Y0014132D01*
X0088038Y0014132D01*
X0088288Y0014132D02*
X0088538Y0014382D01*
X0088538Y0014633D01*
X0088288Y0014883D01*
X0087788Y0014883D01*
X0087537Y0014633D01*
X0108218Y0018919D02*
X0108218Y0019669D01*
X0108469Y0019919D01*
X0108969Y0019919D01*
X0109219Y0019669D01*
X0109219Y0018919D01*
X0109219Y0019419D02*
X0109720Y0019919D01*
X0109469Y0020392D02*
X0108969Y0020392D01*
X0108969Y0021143D01*
X0109219Y0021393D01*
X0109469Y0021393D01*
X0109720Y0021143D01*
X0109720Y0020642D01*
X0109469Y0020392D01*
X0108969Y0020392D02*
X0108469Y0020892D01*
X0108218Y0021393D01*
X0108218Y0018919D02*
X0109720Y0018919D01*
X0183174Y0018626D02*
X0183924Y0018626D01*
X0184174Y0018876D01*
X0184174Y0019377D01*
X0183924Y0019627D01*
X0183174Y0019627D01*
X0183174Y0018126D01*
X0183674Y0018626D02*
X0184174Y0018126D01*
X0184647Y0018126D02*
X0185648Y0018126D01*
X0186120Y0018126D02*
X0187121Y0018126D01*
X0186620Y0018126D02*
X0186620Y0019627D01*
X0186120Y0019127D01*
X0185147Y0019627D02*
X0185147Y0018126D01*
X0184647Y0019127D02*
X0185147Y0019627D01*
X0205097Y0028665D02*
X0205097Y0029916D01*
X0206098Y0029916D02*
X0206098Y0028665D01*
X0205848Y0028415D01*
X0205347Y0028415D01*
X0205097Y0028665D01*
X0206570Y0028415D02*
X0206570Y0029416D01*
X0207071Y0029916D01*
X0207571Y0029416D01*
X0207571Y0028415D01*
X0208044Y0028415D02*
X0208044Y0029916D01*
X0208794Y0029916D01*
X0209045Y0029666D01*
X0209045Y0029165D01*
X0208794Y0028915D01*
X0208044Y0028915D01*
X0208544Y0028915D02*
X0209045Y0028415D01*
X0210017Y0028415D02*
X0210017Y0029916D01*
X0209517Y0029916D02*
X0210518Y0029916D01*
X0212464Y0029916D02*
X0213214Y0029916D01*
X0213464Y0029666D01*
X0213464Y0029165D01*
X0213214Y0028915D01*
X0212464Y0028915D01*
X0212964Y0028915D02*
X0213464Y0028415D01*
X0213937Y0028415D02*
X0214938Y0029916D01*
X0213937Y0029916D02*
X0214938Y0028415D01*
X0212464Y0028415D02*
X0212464Y0029916D01*
X0211991Y0028164D02*
X0210990Y0028164D01*
X0207571Y0029165D02*
X0206570Y0029165D01*
X0206635Y0038651D02*
X0206885Y0038901D01*
X0206885Y0040152D01*
X0207358Y0039652D02*
X0207358Y0038651D01*
X0206635Y0038651D02*
X0206135Y0038651D01*
X0205885Y0038901D01*
X0205885Y0040152D01*
X0207358Y0039652D02*
X0207858Y0040152D01*
X0208359Y0039652D01*
X0208359Y0038651D01*
X0208831Y0038651D02*
X0208831Y0040152D01*
X0209582Y0040152D01*
X0209832Y0039902D01*
X0209832Y0039402D01*
X0209582Y0039151D01*
X0208831Y0039151D01*
X0209332Y0039151D02*
X0209832Y0038651D01*
X0210805Y0038651D02*
X0210805Y0040152D01*
X0211305Y0040152D02*
X0210304Y0040152D01*
X0208359Y0039402D02*
X0207358Y0039402D01*
X0211778Y0038401D02*
X0212779Y0038401D01*
X0213751Y0038651D02*
X0213751Y0040152D01*
X0213251Y0040152D02*
X0214252Y0040152D01*
X0214724Y0040152D02*
X0215725Y0038651D01*
X0214724Y0038651D02*
X0215725Y0040152D01*
X0192891Y0040419D02*
X0191390Y0040419D01*
X0192891Y0041420D01*
X0191390Y0041420D01*
X0191390Y0041893D02*
X0191390Y0042643D01*
X0191640Y0042894D01*
X0192641Y0042894D01*
X0192891Y0042643D01*
X0192891Y0041893D01*
X0191390Y0041893D01*
X0191640Y0039947D02*
X0191390Y0039697D01*
X0191390Y0039196D01*
X0191640Y0038946D01*
X0192641Y0038946D01*
X0192891Y0039196D01*
X0192891Y0039697D01*
X0192641Y0039947D01*
X0192140Y0039947D01*
X0192140Y0039447D01*
X0192149Y0053612D02*
X0192399Y0053862D01*
X0192399Y0054362D01*
X0192149Y0054612D01*
X0191648Y0054612D01*
X0191398Y0054362D01*
X0191398Y0054112D01*
X0191648Y0053612D01*
X0190898Y0053612D01*
X0190898Y0054612D01*
X0190898Y0055085D02*
X0191898Y0055085D01*
X0192399Y0055585D01*
X0191898Y0056086D01*
X0190898Y0056086D01*
X0191148Y0062273D02*
X0192149Y0062273D01*
X0192399Y0062523D01*
X0192399Y0063024D01*
X0192149Y0063274D01*
X0191648Y0063274D01*
X0191648Y0062773D01*
X0191148Y0062273D02*
X0190898Y0062523D01*
X0190898Y0063024D01*
X0191148Y0063274D01*
X0190898Y0063746D02*
X0192399Y0064747D01*
X0190898Y0064747D01*
X0190898Y0065219D02*
X0190898Y0065970D01*
X0191148Y0066220D01*
X0192149Y0066220D01*
X0192399Y0065970D01*
X0192399Y0065219D01*
X0190898Y0065219D01*
X0190898Y0063746D02*
X0192399Y0063746D01*
X0209034Y0062199D02*
X0209034Y0060698D01*
X0210035Y0060698D02*
X0210035Y0062199D01*
X0209535Y0061699D01*
X0209034Y0062199D01*
X0210508Y0062199D02*
X0211008Y0062199D01*
X0210758Y0062199D02*
X0210758Y0060698D01*
X0210508Y0060698D02*
X0211008Y0060698D01*
X0211490Y0060948D02*
X0211740Y0060698D01*
X0212240Y0060698D01*
X0212491Y0060948D01*
X0212491Y0061199D01*
X0212240Y0061449D01*
X0211740Y0061449D01*
X0211490Y0061699D01*
X0211490Y0061949D01*
X0211740Y0062199D01*
X0212240Y0062199D01*
X0212491Y0061949D01*
X0212963Y0061949D02*
X0212963Y0060948D01*
X0213213Y0060698D01*
X0213714Y0060698D01*
X0213964Y0060948D01*
X0213964Y0061949D01*
X0213714Y0062199D01*
X0213213Y0062199D01*
X0212963Y0061949D01*
X0212917Y0070934D02*
X0212917Y0072436D01*
X0212667Y0072436D02*
X0213167Y0072436D01*
X0212194Y0072185D02*
X0211944Y0072436D01*
X0211444Y0072436D01*
X0211193Y0072185D01*
X0211193Y0071935D01*
X0211444Y0071685D01*
X0211944Y0071685D01*
X0212194Y0071435D01*
X0212194Y0071185D01*
X0211944Y0070934D01*
X0211444Y0070934D01*
X0211193Y0071185D01*
X0210721Y0071185D02*
X0210721Y0072185D01*
X0210471Y0072436D01*
X0209970Y0072436D01*
X0209720Y0072185D01*
X0209720Y0071185D01*
X0209970Y0070934D01*
X0210471Y0070934D01*
X0210721Y0071185D01*
X0209248Y0070934D02*
X0209248Y0072436D01*
X0208747Y0071935D01*
X0208247Y0072436D01*
X0208247Y0070934D01*
X0212667Y0070934D02*
X0213167Y0070934D01*
X0192399Y0073547D02*
X0192149Y0073297D01*
X0192399Y0073547D02*
X0192399Y0074047D01*
X0192149Y0074297D01*
X0191648Y0074297D01*
X0191398Y0074047D01*
X0191398Y0073797D01*
X0191648Y0073297D01*
X0190898Y0073297D01*
X0190898Y0074297D01*
X0190898Y0074770D02*
X0191898Y0074770D01*
X0192399Y0075270D01*
X0191898Y0075771D01*
X0190898Y0075771D01*
X0191148Y0081958D02*
X0192149Y0081958D01*
X0192399Y0082208D01*
X0192399Y0082709D01*
X0192149Y0082959D01*
X0191648Y0082959D01*
X0191648Y0082458D01*
X0191148Y0081958D02*
X0190898Y0082208D01*
X0190898Y0082709D01*
X0191148Y0082959D01*
X0190898Y0083431D02*
X0192399Y0084432D01*
X0190898Y0084432D01*
X0190898Y0084904D02*
X0190898Y0085655D01*
X0191148Y0085905D01*
X0192149Y0085905D01*
X0192399Y0085655D01*
X0192399Y0084904D01*
X0190898Y0084904D01*
X0190898Y0083431D02*
X0192399Y0083431D01*
X0192149Y0092982D02*
X0192399Y0093232D01*
X0192399Y0093732D01*
X0192149Y0093982D01*
X0191648Y0093982D01*
X0191398Y0093732D01*
X0191398Y0093482D01*
X0191648Y0092982D01*
X0190898Y0092982D01*
X0190898Y0093982D01*
X0190898Y0094455D02*
X0191898Y0094455D01*
X0192399Y0094955D01*
X0191898Y0095456D01*
X0190898Y0095456D01*
X0207558Y0101401D02*
X0207808Y0101151D01*
X0208309Y0101151D01*
X0208559Y0101401D01*
X0209031Y0101151D02*
X0209031Y0102652D01*
X0209782Y0102652D01*
X0210032Y0102402D01*
X0210032Y0101902D01*
X0209782Y0101651D01*
X0209031Y0101651D01*
X0209532Y0101651D02*
X0210032Y0101151D01*
X0210504Y0101151D02*
X0211505Y0101151D01*
X0211978Y0101401D02*
X0212228Y0101151D01*
X0212728Y0101151D01*
X0212978Y0101401D01*
X0212978Y0101651D01*
X0212728Y0101902D01*
X0212228Y0101902D01*
X0211978Y0102152D01*
X0211978Y0102402D01*
X0212228Y0102652D01*
X0212728Y0102652D01*
X0212978Y0102402D01*
X0213451Y0102652D02*
X0213451Y0101151D01*
X0214452Y0101151D01*
X0213951Y0101902D02*
X0213451Y0101902D01*
X0213451Y0102652D02*
X0214452Y0102652D01*
X0214924Y0102652D02*
X0215925Y0102652D01*
X0215425Y0102652D02*
X0215425Y0101151D01*
X0211505Y0102652D02*
X0210504Y0102652D01*
X0210504Y0101151D01*
X0210504Y0101902D02*
X0211005Y0101902D01*
X0208559Y0102402D02*
X0208309Y0102652D01*
X0207808Y0102652D01*
X0207558Y0102402D01*
X0207558Y0101401D01*
X0211647Y0092908D02*
X0211396Y0092658D01*
X0211396Y0092408D01*
X0211647Y0092157D01*
X0212147Y0092157D01*
X0212397Y0091907D01*
X0212397Y0091657D01*
X0212147Y0091407D01*
X0211647Y0091407D01*
X0211396Y0091657D01*
X0211647Y0092908D02*
X0212147Y0092908D01*
X0212397Y0092658D01*
X0212870Y0092658D02*
X0212870Y0092408D01*
X0213120Y0092157D01*
X0213620Y0092157D01*
X0213871Y0091907D01*
X0213871Y0091657D01*
X0213620Y0091407D01*
X0213120Y0091407D01*
X0212870Y0091657D01*
X0212870Y0092658D02*
X0213120Y0092908D01*
X0213620Y0092908D01*
X0213871Y0092658D01*
X0213556Y0083459D02*
X0213556Y0081958D01*
X0213556Y0082458D02*
X0214556Y0083459D01*
X0213806Y0082709D02*
X0214556Y0081958D01*
X0213083Y0082208D02*
X0212833Y0081958D01*
X0212333Y0081958D01*
X0212082Y0082208D01*
X0212082Y0083209D01*
X0212333Y0083459D01*
X0212833Y0083459D01*
X0213083Y0083209D01*
X0211610Y0083209D02*
X0211360Y0083459D01*
X0210859Y0083459D01*
X0210609Y0083209D01*
X0210609Y0082959D01*
X0210859Y0082709D01*
X0211360Y0082709D01*
X0211610Y0082458D01*
X0211610Y0082208D01*
X0211360Y0081958D01*
X0210859Y0081958D01*
X0210609Y0082208D01*
X0170127Y0082038D02*
X0169627Y0081537D01*
X0169627Y0081787D02*
X0169627Y0081037D01*
X0170127Y0081037D02*
X0168626Y0081037D01*
X0168626Y0081787D01*
X0168876Y0082038D01*
X0169377Y0082038D01*
X0169627Y0081787D01*
X0170127Y0082510D02*
X0170127Y0083511D01*
X0170127Y0083010D02*
X0168626Y0083010D01*
X0169126Y0082510D01*
X0168876Y0083983D02*
X0168626Y0084233D01*
X0168626Y0084734D01*
X0168876Y0084984D01*
X0169126Y0084984D01*
X0169377Y0084734D01*
X0169627Y0084984D01*
X0169877Y0084984D01*
X0170127Y0084734D01*
X0170127Y0084233D01*
X0169877Y0083983D01*
X0169377Y0084484D02*
X0169377Y0084734D01*
X0153277Y0064442D02*
X0151775Y0064442D01*
X0152526Y0063691D01*
X0152526Y0064692D01*
X0152526Y0063219D02*
X0152026Y0063219D01*
X0151775Y0062968D01*
X0151775Y0062218D01*
X0153277Y0062218D01*
X0152776Y0062218D02*
X0152776Y0062968D01*
X0152526Y0063219D01*
X0152776Y0062718D02*
X0153277Y0063219D01*
X0055424Y0111893D02*
X0054423Y0111893D01*
X0054923Y0111893D02*
X0054923Y0113394D01*
X0054423Y0112894D01*
X0053950Y0113394D02*
X0053950Y0112143D01*
X0053700Y0111893D01*
X0053200Y0111893D01*
X0052950Y0112143D01*
X0052950Y0113394D01*
D12*
X0043250Y0100593D02*
X0069050Y0100593D01*
X0069050Y0087593D01*
X0043250Y0087593D01*
X0043250Y0100593D01*
X0039569Y0051695D02*
X0065369Y0051695D01*
X0065369Y0038695D01*
X0039569Y0038695D01*
X0039569Y0051695D01*
X0078669Y0033207D02*
X0078669Y0032184D01*
X0081669Y0027184D02*
X0092205Y0027184D01*
X0095205Y0032184D02*
X0095205Y0033207D01*
X0092205Y0038207D02*
X0081669Y0038207D01*
X0215795Y0059880D02*
X0215795Y0064880D01*
X0218295Y0067380D01*
X0215795Y0069880D01*
X0215795Y0074880D01*
X0218295Y0077380D01*
X0215795Y0079880D01*
X0215795Y0084880D01*
X0218295Y0087380D01*
X0215795Y0089880D01*
X0215795Y0094880D01*
X0218295Y0097380D01*
X0215795Y0099880D01*
X0215795Y0104880D01*
X0218295Y0107380D01*
X0223295Y0107380D01*
X0225795Y0104880D01*
X0225795Y0099880D01*
X0223295Y0097380D01*
X0225795Y0094880D01*
X0225795Y0089880D01*
X0223295Y0087380D01*
X0225795Y0084880D01*
X0225795Y0079880D01*
X0223295Y0077380D01*
X0225795Y0074880D01*
X0225795Y0069880D01*
X0223295Y0067380D01*
X0225795Y0064880D01*
X0225795Y0059880D01*
X0223295Y0057380D01*
X0218295Y0057380D01*
X0215795Y0059880D01*
X0219083Y0043365D02*
X0224083Y0043365D01*
X0226583Y0040865D01*
X0226583Y0035865D01*
X0224083Y0033365D01*
X0226583Y0030865D01*
X0226583Y0025865D01*
X0224083Y0023365D01*
X0219083Y0023365D01*
X0216583Y0025865D01*
X0216583Y0030865D01*
X0219083Y0033365D01*
X0216583Y0035865D01*
X0216583Y0040865D01*
X0219083Y0043365D01*
D13*
X0186606Y0037822D02*
X0186606Y0037522D01*
X0186305Y0037221D01*
X0186606Y0036921D01*
X0186606Y0036621D01*
X0186305Y0036321D01*
X0185705Y0036321D01*
X0185405Y0036621D01*
X0184580Y0036621D02*
X0184580Y0037822D01*
X0184280Y0038122D01*
X0183379Y0038122D01*
X0183379Y0036321D01*
X0184280Y0036321D01*
X0184580Y0036621D01*
X0185405Y0037822D02*
X0185705Y0038122D01*
X0186305Y0038122D01*
X0186606Y0037822D01*
X0186305Y0037221D02*
X0186005Y0037221D01*
X0179618Y0040494D02*
X0179618Y0045098D01*
X0177317Y0042796D01*
X0180386Y0042796D01*
X0175782Y0041261D02*
X0175782Y0045098D01*
X0172713Y0045098D02*
X0172713Y0041261D01*
X0173480Y0040494D01*
X0175015Y0040494D01*
X0175782Y0041261D01*
X0176937Y0026298D02*
X0176937Y0023621D01*
X0173787Y0023621D02*
X0173787Y0026298D01*
X0088338Y0025896D02*
X0088338Y0026197D01*
X0088038Y0026497D01*
X0087437Y0026497D01*
X0087137Y0026197D01*
X0086312Y0026197D02*
X0086012Y0026497D01*
X0085412Y0026497D01*
X0085111Y0026197D01*
X0085111Y0025896D01*
X0085412Y0025596D01*
X0086012Y0025596D01*
X0086312Y0025296D01*
X0086312Y0024996D01*
X0086012Y0024695D01*
X0085412Y0024695D01*
X0085111Y0024996D01*
X0087137Y0024695D02*
X0088338Y0025896D01*
X0088338Y0024695D02*
X0087137Y0024695D01*
X0081640Y0085282D02*
X0081640Y0087084D01*
X0080739Y0086183D01*
X0081940Y0086183D01*
X0079915Y0086783D02*
X0079614Y0087084D01*
X0078714Y0087084D01*
X0078714Y0085282D01*
X0079614Y0085282D01*
X0079915Y0085582D01*
X0079915Y0086783D01*
D14*
X0097763Y0067833D02*
X0097765Y0067872D01*
X0097771Y0067911D01*
X0097781Y0067949D01*
X0097794Y0067986D01*
X0097811Y0068021D01*
X0097831Y0068055D01*
X0097855Y0068086D01*
X0097882Y0068115D01*
X0097911Y0068141D01*
X0097943Y0068164D01*
X0097977Y0068184D01*
X0098013Y0068200D01*
X0098050Y0068212D01*
X0098089Y0068221D01*
X0098128Y0068226D01*
X0098167Y0068227D01*
X0098206Y0068224D01*
X0098245Y0068217D01*
X0098282Y0068206D01*
X0098319Y0068192D01*
X0098354Y0068174D01*
X0098387Y0068153D01*
X0098418Y0068128D01*
X0098446Y0068101D01*
X0098471Y0068071D01*
X0098493Y0068038D01*
X0098512Y0068004D01*
X0098527Y0067968D01*
X0098539Y0067930D01*
X0098547Y0067892D01*
X0098551Y0067853D01*
X0098551Y0067813D01*
X0098547Y0067774D01*
X0098539Y0067736D01*
X0098527Y0067698D01*
X0098512Y0067662D01*
X0098493Y0067628D01*
X0098471Y0067595D01*
X0098446Y0067565D01*
X0098418Y0067538D01*
X0098387Y0067513D01*
X0098354Y0067492D01*
X0098319Y0067474D01*
X0098282Y0067460D01*
X0098245Y0067449D01*
X0098206Y0067442D01*
X0098167Y0067439D01*
X0098128Y0067440D01*
X0098089Y0067445D01*
X0098050Y0067454D01*
X0098013Y0067466D01*
X0097977Y0067482D01*
X0097943Y0067502D01*
X0097911Y0067525D01*
X0097882Y0067551D01*
X0097855Y0067580D01*
X0097831Y0067611D01*
X0097811Y0067645D01*
X0097794Y0067680D01*
X0097781Y0067717D01*
X0097771Y0067755D01*
X0097765Y0067794D01*
X0097763Y0067833D01*
X0033157Y0074664D02*
X0033157Y0078601D01*
X0033086Y0078573D02*
X0029220Y0078573D01*
X0029220Y0078601D01*
X0017409Y0078601D02*
X0013472Y0078601D01*
X0033157Y0051042D02*
X0033157Y0047105D01*
X0029220Y0047105D01*
X0017409Y0047105D02*
X0013472Y0047105D01*
D15*
X0078226Y0080525D02*
X0078226Y0084275D01*
X0099732Y0067439D02*
X0100913Y0068621D01*
X0101701Y0068621D01*
X0099732Y0067439D02*
X0099732Y0066652D01*
X0125717Y0068621D02*
X0127291Y0068621D01*
X0127291Y0067046D01*
X0160552Y0049644D02*
X0160868Y0049961D01*
X0161185Y0049961D01*
X0162453Y0048693D01*
X0162453Y0049961D01*
X0160552Y0049644D02*
X0160552Y0049010D01*
X0160868Y0048693D01*
X0160868Y0047751D02*
X0160552Y0047434D01*
X0160552Y0046484D01*
X0162453Y0046484D01*
X0162453Y0047434D01*
X0162136Y0047751D01*
X0160868Y0047751D01*
X0159186Y0045638D02*
X0155436Y0045638D01*
X0127291Y0042636D02*
X0127291Y0041062D01*
X0125717Y0041062D01*
X0101307Y0041062D02*
X0099732Y0041062D01*
X0099732Y0042636D01*
X0083768Y0032695D02*
X0083770Y0032807D01*
X0083776Y0032920D01*
X0083786Y0033032D01*
X0083800Y0033143D01*
X0083818Y0033255D01*
X0083840Y0033365D01*
X0083865Y0033474D01*
X0083895Y0033583D01*
X0083928Y0033690D01*
X0083966Y0033796D01*
X0084007Y0033901D01*
X0084051Y0034004D01*
X0084099Y0034106D01*
X0084151Y0034206D01*
X0084207Y0034304D01*
X0084266Y0034400D01*
X0084328Y0034493D01*
X0084393Y0034585D01*
X0084462Y0034674D01*
X0084534Y0034761D01*
X0084609Y0034845D01*
X0084686Y0034926D01*
X0084767Y0035004D01*
X0084850Y0035080D01*
X0084936Y0035152D01*
X0085025Y0035222D01*
X0085115Y0035288D01*
X0085209Y0035351D01*
X0085304Y0035411D01*
X0085401Y0035467D01*
X0085501Y0035520D01*
X0085602Y0035569D01*
X0085705Y0035615D01*
X0085809Y0035657D01*
X0085915Y0035695D01*
X0086022Y0035729D01*
X0086130Y0035760D01*
X0086240Y0035786D01*
X0086350Y0035809D01*
X0086461Y0035828D01*
X0086572Y0035843D01*
X0086684Y0035854D01*
X0086796Y0035861D01*
X0086909Y0035864D01*
X0087021Y0035863D01*
X0087134Y0035858D01*
X0087246Y0035849D01*
X0087358Y0035836D01*
X0087469Y0035819D01*
X0087579Y0035798D01*
X0087689Y0035773D01*
X0087798Y0035745D01*
X0087906Y0035712D01*
X0088012Y0035676D01*
X0088117Y0035636D01*
X0088221Y0035592D01*
X0088323Y0035545D01*
X0088423Y0035494D01*
X0088521Y0035439D01*
X0088618Y0035381D01*
X0088712Y0035320D01*
X0088804Y0035255D01*
X0088894Y0035188D01*
X0088981Y0035117D01*
X0089066Y0035042D01*
X0089148Y0034965D01*
X0089227Y0034886D01*
X0089303Y0034803D01*
X0089377Y0034718D01*
X0089447Y0034630D01*
X0089514Y0034539D01*
X0089578Y0034447D01*
X0089638Y0034352D01*
X0089695Y0034255D01*
X0089749Y0034156D01*
X0089799Y0034055D01*
X0089846Y0033953D01*
X0089888Y0033849D01*
X0089928Y0033744D01*
X0089963Y0033637D01*
X0089994Y0033529D01*
X0090022Y0033420D01*
X0090046Y0033310D01*
X0090066Y0033199D01*
X0090082Y0033088D01*
X0090094Y0032976D01*
X0090102Y0032864D01*
X0090106Y0032751D01*
X0090106Y0032639D01*
X0090102Y0032526D01*
X0090094Y0032414D01*
X0090082Y0032302D01*
X0090066Y0032191D01*
X0090046Y0032080D01*
X0090022Y0031970D01*
X0089994Y0031861D01*
X0089963Y0031753D01*
X0089928Y0031646D01*
X0089888Y0031541D01*
X0089846Y0031437D01*
X0089799Y0031335D01*
X0089749Y0031234D01*
X0089695Y0031135D01*
X0089638Y0031038D01*
X0089578Y0030943D01*
X0089514Y0030851D01*
X0089447Y0030760D01*
X0089377Y0030672D01*
X0089303Y0030587D01*
X0089227Y0030504D01*
X0089148Y0030425D01*
X0089066Y0030348D01*
X0088981Y0030273D01*
X0088894Y0030202D01*
X0088804Y0030135D01*
X0088712Y0030070D01*
X0088618Y0030009D01*
X0088522Y0029951D01*
X0088423Y0029896D01*
X0088323Y0029845D01*
X0088221Y0029798D01*
X0088117Y0029754D01*
X0088012Y0029714D01*
X0087906Y0029678D01*
X0087798Y0029645D01*
X0087689Y0029617D01*
X0087579Y0029592D01*
X0087469Y0029571D01*
X0087358Y0029554D01*
X0087246Y0029541D01*
X0087134Y0029532D01*
X0087021Y0029527D01*
X0086909Y0029526D01*
X0086796Y0029529D01*
X0086684Y0029536D01*
X0086572Y0029547D01*
X0086461Y0029562D01*
X0086350Y0029581D01*
X0086240Y0029604D01*
X0086130Y0029630D01*
X0086022Y0029661D01*
X0085915Y0029695D01*
X0085809Y0029733D01*
X0085705Y0029775D01*
X0085602Y0029821D01*
X0085501Y0029870D01*
X0085401Y0029923D01*
X0085304Y0029979D01*
X0085209Y0030039D01*
X0085115Y0030102D01*
X0085025Y0030168D01*
X0084936Y0030238D01*
X0084850Y0030310D01*
X0084767Y0030386D01*
X0084686Y0030464D01*
X0084609Y0030545D01*
X0084534Y0030629D01*
X0084462Y0030716D01*
X0084393Y0030805D01*
X0084328Y0030897D01*
X0084266Y0030990D01*
X0084207Y0031086D01*
X0084151Y0031184D01*
X0084099Y0031284D01*
X0084051Y0031386D01*
X0084007Y0031489D01*
X0083966Y0031594D01*
X0083928Y0031700D01*
X0083895Y0031807D01*
X0083865Y0031916D01*
X0083840Y0032025D01*
X0083818Y0032135D01*
X0083800Y0032247D01*
X0083786Y0032358D01*
X0083776Y0032470D01*
X0083770Y0032583D01*
X0083768Y0032695D01*
X0020074Y0081603D02*
X0018806Y0081603D01*
X0019440Y0081603D02*
X0019440Y0083504D01*
X0018806Y0082871D01*
X0017864Y0083504D02*
X0017230Y0083504D01*
X0017547Y0083504D02*
X0017547Y0081920D01*
X0017230Y0081603D01*
X0016913Y0081603D01*
X0016596Y0081920D01*
X0191455Y0035496D02*
X0191455Y0031746D01*
X0213931Y0026775D02*
X0214248Y0027092D01*
X0214565Y0027092D01*
X0214882Y0026775D01*
X0215199Y0027092D01*
X0215516Y0027092D01*
X0215833Y0026775D01*
X0215833Y0026141D01*
X0215516Y0025825D01*
X0214882Y0026458D02*
X0214882Y0026775D01*
X0213931Y0026775D02*
X0213931Y0026141D01*
X0214248Y0025825D01*
X0213931Y0024882D02*
X0213931Y0024249D01*
X0213931Y0024565D02*
X0215516Y0024565D01*
X0215833Y0024249D01*
X0215833Y0023932D01*
X0215516Y0023615D01*
X0205181Y0048221D02*
X0205498Y0048538D01*
X0205498Y0048855D01*
X0205181Y0049172D01*
X0203596Y0049172D01*
X0203596Y0048855D02*
X0203596Y0049489D01*
X0203913Y0050431D02*
X0203596Y0050748D01*
X0203596Y0051382D01*
X0203913Y0051699D01*
X0204230Y0051699D01*
X0205498Y0050431D01*
X0205498Y0051699D01*
X0228020Y0100400D02*
X0228020Y0101034D01*
X0228020Y0100717D02*
X0229605Y0100717D01*
X0229922Y0100400D01*
X0229922Y0100083D01*
X0229605Y0099766D01*
X0229605Y0101976D02*
X0229922Y0102293D01*
X0229922Y0102926D01*
X0229605Y0103243D01*
X0228971Y0103243D01*
X0228654Y0102926D01*
X0228654Y0102610D01*
X0228971Y0101976D01*
X0228020Y0101976D01*
X0228020Y0103243D01*
D16*
X0176524Y0082912D03*
X0162055Y0082991D03*
X0083984Y0074526D03*
X0186012Y0025628D03*
X0086445Y0019900D03*
D17*
X0145736Y0023207D03*
X0154850Y0022853D03*
X0157803Y0063699D03*
X0027685Y0031042D03*
D18*
X0095945Y0063652D02*
X0097880Y0063652D01*
X0096913Y0063652D02*
X0096913Y0066555D01*
X0095945Y0065587D01*
X0144484Y0034763D02*
X0144484Y0033495D01*
X0145435Y0033495D01*
X0145118Y0034129D01*
X0145118Y0034446D01*
X0145435Y0034763D01*
X0146069Y0034763D01*
X0146385Y0034446D01*
X0146385Y0033812D01*
X0146069Y0033495D01*
X0146385Y0032737D02*
X0146385Y0031470D01*
X0146385Y0032103D02*
X0144484Y0032103D01*
X0145118Y0031470D01*
X0144801Y0030712D02*
X0145435Y0030712D01*
X0145752Y0030395D01*
X0145752Y0029444D01*
X0146385Y0029444D02*
X0144484Y0029444D01*
X0144484Y0030395D01*
X0144801Y0030712D01*
X0145752Y0030078D02*
X0146385Y0030712D01*
X0153257Y0030021D02*
X0153257Y0029070D01*
X0155159Y0029070D01*
X0154525Y0029070D02*
X0154525Y0030021D01*
X0154208Y0030338D01*
X0153574Y0030338D01*
X0153257Y0030021D01*
X0153891Y0031096D02*
X0153257Y0031729D01*
X0155159Y0031729D01*
X0155159Y0031096D02*
X0155159Y0032363D01*
X0154208Y0033121D02*
X0154208Y0034389D01*
X0153257Y0034072D02*
X0154208Y0033121D01*
X0155159Y0034072D02*
X0153257Y0034072D01*
X0155159Y0030338D02*
X0154525Y0029704D01*
X0169398Y0026365D02*
X0170032Y0025731D01*
X0169715Y0024973D02*
X0169398Y0024656D01*
X0169398Y0023705D01*
X0171300Y0023705D01*
X0171300Y0024656D01*
X0170983Y0024973D01*
X0169715Y0024973D01*
X0169398Y0026365D02*
X0171300Y0026365D01*
X0171300Y0025731D02*
X0171300Y0026999D01*
X0160570Y0089028D02*
X0158668Y0089028D01*
X0158668Y0089979D01*
X0158985Y0090296D01*
X0159619Y0090296D01*
X0159936Y0089979D01*
X0159936Y0089028D01*
X0159936Y0089662D02*
X0160570Y0090296D01*
X0160570Y0091054D02*
X0160570Y0092322D01*
X0160570Y0091688D02*
X0158668Y0091688D01*
X0159302Y0091054D01*
X0159619Y0093079D02*
X0158985Y0093713D01*
X0158668Y0094347D01*
X0159619Y0094030D02*
X0159619Y0093079D01*
X0160253Y0093079D01*
X0160570Y0093396D01*
X0160570Y0094030D01*
X0160253Y0094347D01*
X0159936Y0094347D01*
X0159619Y0094030D01*
D19*
X0136012Y0094140D02*
X0136012Y0090140D01*
X0136010Y0090080D01*
X0136005Y0090019D01*
X0135996Y0089960D01*
X0135983Y0089901D01*
X0135967Y0089842D01*
X0135947Y0089785D01*
X0135924Y0089730D01*
X0135897Y0089675D01*
X0135868Y0089623D01*
X0135835Y0089572D01*
X0135799Y0089523D01*
X0135761Y0089477D01*
X0135719Y0089433D01*
X0135675Y0089391D01*
X0135629Y0089353D01*
X0135580Y0089317D01*
X0135529Y0089284D01*
X0135477Y0089255D01*
X0135422Y0089228D01*
X0135367Y0089205D01*
X0135310Y0089185D01*
X0135251Y0089169D01*
X0135192Y0089156D01*
X0135133Y0089147D01*
X0135072Y0089142D01*
X0135012Y0089140D01*
X0092012Y0089140D01*
X0091952Y0089142D01*
X0091891Y0089147D01*
X0091832Y0089156D01*
X0091773Y0089169D01*
X0091714Y0089185D01*
X0091657Y0089205D01*
X0091602Y0089228D01*
X0091547Y0089255D01*
X0091495Y0089284D01*
X0091444Y0089317D01*
X0091395Y0089353D01*
X0091349Y0089391D01*
X0091305Y0089433D01*
X0091263Y0089477D01*
X0091225Y0089523D01*
X0091189Y0089572D01*
X0091156Y0089623D01*
X0091127Y0089675D01*
X0091100Y0089730D01*
X0091077Y0089785D01*
X0091057Y0089842D01*
X0091041Y0089901D01*
X0091028Y0089960D01*
X0091019Y0090019D01*
X0091014Y0090080D01*
X0091012Y0090140D01*
X0091012Y0094140D01*
X0091012Y0103140D02*
X0091012Y0107140D01*
X0091014Y0107200D01*
X0091019Y0107261D01*
X0091028Y0107320D01*
X0091041Y0107379D01*
X0091057Y0107438D01*
X0091077Y0107495D01*
X0091100Y0107550D01*
X0091127Y0107605D01*
X0091156Y0107657D01*
X0091189Y0107708D01*
X0091225Y0107757D01*
X0091263Y0107803D01*
X0091305Y0107847D01*
X0091349Y0107889D01*
X0091395Y0107927D01*
X0091444Y0107963D01*
X0091495Y0107996D01*
X0091547Y0108025D01*
X0091602Y0108052D01*
X0091657Y0108075D01*
X0091714Y0108095D01*
X0091773Y0108111D01*
X0091832Y0108124D01*
X0091891Y0108133D01*
X0091952Y0108138D01*
X0092012Y0108140D01*
X0135012Y0108140D01*
X0135072Y0108138D01*
X0135133Y0108133D01*
X0135192Y0108124D01*
X0135251Y0108111D01*
X0135310Y0108095D01*
X0135367Y0108075D01*
X0135422Y0108052D01*
X0135477Y0108025D01*
X0135529Y0107996D01*
X0135580Y0107963D01*
X0135629Y0107927D01*
X0135675Y0107889D01*
X0135719Y0107847D01*
X0135761Y0107803D01*
X0135799Y0107757D01*
X0135835Y0107708D01*
X0135868Y0107657D01*
X0135897Y0107605D01*
X0135924Y0107550D01*
X0135947Y0107495D01*
X0135967Y0107438D01*
X0135983Y0107379D01*
X0135996Y0107320D01*
X0136005Y0107261D01*
X0136010Y0107200D01*
X0136012Y0107140D01*
X0136012Y0103140D01*
X0116012Y0101140D02*
X0116012Y0098640D01*
X0116012Y0096140D01*
X0114512Y0096140D02*
X0114512Y0101140D01*
X0112512Y0101140D01*
X0112512Y0096140D01*
X0114512Y0096140D01*
X0111012Y0096140D02*
X0111012Y0098640D01*
X0111012Y0101140D01*
X0110657Y0023050D02*
X0110657Y0020688D01*
X0107705Y0020471D02*
X0107705Y0022833D01*
X0102980Y0022833D02*
X0102980Y0020471D01*
X0115382Y0020688D02*
X0115382Y0023050D01*
D20*
X0115559Y0017872D02*
X0115893Y0017205D01*
X0116560Y0016537D01*
X0116560Y0017538D01*
X0116893Y0017872D01*
X0117227Y0017872D01*
X0117561Y0017538D01*
X0117561Y0016871D01*
X0117227Y0016537D01*
X0116560Y0016537D01*
X0117227Y0015846D02*
X0117561Y0015512D01*
X0117561Y0014845D01*
X0117227Y0014512D01*
X0115893Y0014512D01*
X0115559Y0014845D01*
X0115559Y0015512D01*
X0115893Y0015846D01*
X0130027Y0015709D02*
X0130027Y0015042D01*
X0130361Y0014709D01*
X0131696Y0014709D01*
X0132029Y0015042D01*
X0132029Y0015709D01*
X0131696Y0016043D01*
X0131696Y0016734D02*
X0132029Y0016734D01*
X0131696Y0016734D02*
X0130361Y0018069D01*
X0130027Y0018069D01*
X0130027Y0016734D01*
X0130361Y0016043D02*
X0130027Y0015709D01*
X0101688Y0024549D02*
X0101355Y0024215D01*
X0100687Y0024215D01*
X0100354Y0024549D01*
X0100354Y0025216D02*
X0101021Y0025550D01*
X0101355Y0025550D01*
X0101688Y0025216D01*
X0101688Y0024549D01*
X0100354Y0025216D02*
X0100354Y0026217D01*
X0101688Y0026217D01*
X0099663Y0025884D02*
X0099663Y0025216D01*
X0099329Y0024883D01*
X0098328Y0024883D01*
X0098995Y0024883D02*
X0099663Y0024215D01*
X0098328Y0024215D02*
X0098328Y0026217D01*
X0099329Y0026217D01*
X0099663Y0025884D01*
X0089496Y0045477D02*
X0088829Y0045477D01*
X0088496Y0045811D01*
X0088496Y0046478D02*
X0089163Y0046812D01*
X0089496Y0046812D01*
X0089830Y0046478D01*
X0089830Y0045811D01*
X0089496Y0045477D01*
X0088496Y0046478D02*
X0088496Y0047479D01*
X0089830Y0047479D01*
X0087137Y0047479D02*
X0087137Y0045477D01*
X0086470Y0045477D02*
X0087804Y0045477D01*
X0086470Y0046812D02*
X0087137Y0047479D01*
X0085779Y0047145D02*
X0085445Y0047479D01*
X0084778Y0047479D01*
X0084444Y0047145D01*
X0084444Y0045811D01*
X0084778Y0045477D01*
X0085445Y0045477D01*
X0085779Y0045811D01*
X0085978Y0051875D02*
X0087312Y0051875D01*
X0086645Y0051875D02*
X0086645Y0053877D01*
X0085978Y0053209D01*
X0085286Y0053543D02*
X0084953Y0053877D01*
X0084286Y0053877D01*
X0083952Y0053543D01*
X0083952Y0052209D01*
X0084286Y0051875D01*
X0084953Y0051875D01*
X0085286Y0052209D01*
X0088003Y0052209D02*
X0088003Y0052876D01*
X0089004Y0052876D01*
X0089338Y0052542D01*
X0089338Y0052209D01*
X0089004Y0051875D01*
X0088337Y0051875D01*
X0088003Y0052209D01*
X0088003Y0052876D02*
X0088671Y0053543D01*
X0089338Y0053877D01*
X0072113Y0059116D02*
X0070779Y0059116D01*
X0071780Y0060117D01*
X0071780Y0058115D01*
X0070088Y0058115D02*
X0068753Y0058115D01*
X0069420Y0058115D02*
X0069420Y0060117D01*
X0068753Y0059450D01*
X0068062Y0059783D02*
X0067728Y0060117D01*
X0067061Y0060117D01*
X0066728Y0059783D01*
X0066728Y0058449D01*
X0067061Y0058115D01*
X0067728Y0058115D01*
X0068062Y0058449D01*
X0067728Y0064513D02*
X0068062Y0064846D01*
X0067728Y0064513D02*
X0067061Y0064513D01*
X0066728Y0064846D01*
X0066728Y0066181D01*
X0067061Y0066514D01*
X0067728Y0066514D01*
X0068062Y0066181D01*
X0068753Y0065847D02*
X0069420Y0066514D01*
X0069420Y0064513D01*
X0068753Y0064513D02*
X0070088Y0064513D01*
X0070779Y0064513D02*
X0070779Y0064846D01*
X0072113Y0066181D01*
X0072113Y0066514D01*
X0070779Y0066514D01*
X0083533Y0069426D02*
X0083533Y0071428D01*
X0084534Y0071428D01*
X0084867Y0071094D01*
X0084867Y0070427D01*
X0084534Y0070093D01*
X0083533Y0070093D01*
X0084200Y0070093D02*
X0084867Y0069426D01*
X0085559Y0069426D02*
X0085559Y0069760D01*
X0086893Y0071094D01*
X0086893Y0071428D01*
X0085559Y0071428D01*
X0096683Y0072040D02*
X0097050Y0071673D01*
X0097784Y0071673D01*
X0098151Y0072040D01*
X0098151Y0073875D01*
X0098893Y0073508D02*
X0099260Y0073875D01*
X0099993Y0073875D01*
X0100360Y0073508D01*
X0101102Y0073508D02*
X0101102Y0073141D01*
X0101469Y0072774D01*
X0102203Y0072774D01*
X0102570Y0072407D01*
X0102570Y0072040D01*
X0102203Y0071673D01*
X0101469Y0071673D01*
X0101102Y0072040D01*
X0101102Y0072407D01*
X0101469Y0072774D01*
X0102203Y0072774D02*
X0102570Y0073141D01*
X0102570Y0073508D01*
X0102203Y0073875D01*
X0101469Y0073875D01*
X0101102Y0073508D01*
X0100360Y0072407D02*
X0099993Y0072774D01*
X0099260Y0072774D01*
X0098893Y0073141D01*
X0098893Y0073508D01*
X0099627Y0074242D02*
X0099627Y0071306D01*
X0099993Y0071673D02*
X0099260Y0071673D01*
X0098893Y0072040D01*
X0099993Y0071673D02*
X0100360Y0072040D01*
X0100360Y0072407D01*
X0096683Y0072040D02*
X0096683Y0073875D01*
X0100684Y0078134D02*
X0101018Y0077800D01*
X0101685Y0077800D01*
X0102019Y0078134D01*
X0102710Y0077800D02*
X0104044Y0077800D01*
X0103377Y0077800D02*
X0103377Y0079802D01*
X0102710Y0079135D01*
X0102019Y0079468D02*
X0101685Y0079802D01*
X0101018Y0079802D01*
X0100684Y0079468D01*
X0100684Y0078134D01*
X0104736Y0078134D02*
X0105069Y0077800D01*
X0105737Y0077800D01*
X0106070Y0078134D01*
X0106070Y0078467D01*
X0105737Y0078801D01*
X0105403Y0078801D01*
X0105737Y0078801D02*
X0106070Y0079135D01*
X0106070Y0079468D01*
X0105737Y0079802D01*
X0105069Y0079802D01*
X0104736Y0079468D01*
X0114464Y0079468D02*
X0114464Y0078134D01*
X0114797Y0077800D01*
X0115465Y0077800D01*
X0115798Y0078134D01*
X0116489Y0077800D02*
X0117824Y0077800D01*
X0117157Y0077800D02*
X0117157Y0079802D01*
X0116489Y0079135D01*
X0115798Y0079468D02*
X0115465Y0079802D01*
X0114797Y0079802D01*
X0114464Y0079468D01*
X0118515Y0079468D02*
X0118849Y0079802D01*
X0119516Y0079802D01*
X0119850Y0079468D01*
X0119850Y0079135D01*
X0118515Y0077800D01*
X0119850Y0077800D01*
X0132842Y0073799D02*
X0134844Y0073799D01*
X0134844Y0073132D02*
X0134844Y0074466D01*
X0133510Y0073132D02*
X0132842Y0073799D01*
X0133176Y0072441D02*
X0133843Y0072441D01*
X0134177Y0072107D01*
X0134177Y0071106D01*
X0134844Y0071106D02*
X0132842Y0071106D01*
X0132842Y0072107D01*
X0133176Y0072441D01*
X0134177Y0071773D02*
X0134844Y0072441D01*
X0138438Y0072851D02*
X0139105Y0072183D01*
X0138771Y0071492D02*
X0138438Y0071158D01*
X0138438Y0070491D01*
X0138771Y0070158D01*
X0140106Y0070158D01*
X0140439Y0070491D01*
X0140439Y0071158D01*
X0140106Y0071492D01*
X0140439Y0072183D02*
X0140439Y0073518D01*
X0140439Y0072851D02*
X0138438Y0072851D01*
X0138771Y0074209D02*
X0138438Y0074543D01*
X0138438Y0075210D01*
X0138771Y0075544D01*
X0140106Y0074209D01*
X0140439Y0074543D01*
X0140439Y0075210D01*
X0140106Y0075544D01*
X0138771Y0075544D01*
X0138771Y0074209D02*
X0140106Y0074209D01*
X0143359Y0073676D02*
X0143359Y0073009D01*
X0143693Y0072675D01*
X0143693Y0071984D02*
X0143359Y0071651D01*
X0143359Y0070983D01*
X0143693Y0070650D01*
X0145027Y0070650D01*
X0145361Y0070983D01*
X0145361Y0071651D01*
X0145027Y0071984D01*
X0145361Y0072675D02*
X0144026Y0074010D01*
X0143693Y0074010D01*
X0143359Y0073676D01*
X0145361Y0074010D02*
X0145361Y0072675D01*
X0145146Y0087838D02*
X0145146Y0088839D01*
X0145479Y0089173D01*
X0146146Y0089173D01*
X0146480Y0088839D01*
X0146480Y0087838D01*
X0147147Y0087838D02*
X0145146Y0087838D01*
X0146480Y0088506D02*
X0147147Y0089173D01*
X0147147Y0089864D02*
X0145813Y0091199D01*
X0145479Y0091199D01*
X0145146Y0090865D01*
X0145146Y0090198D01*
X0145479Y0089864D01*
X0147147Y0089864D02*
X0147147Y0091199D01*
X0127012Y0090640D02*
X0100012Y0090640D01*
X0100012Y0093640D02*
X0127012Y0093640D01*
X0127145Y0093642D01*
X0127277Y0093647D01*
X0127409Y0093656D01*
X0127542Y0093668D01*
X0127673Y0093684D01*
X0127805Y0093703D01*
X0127935Y0093726D01*
X0128065Y0093752D01*
X0128195Y0093782D01*
X0128323Y0093815D01*
X0128451Y0093851D01*
X0128577Y0093891D01*
X0128703Y0093934D01*
X0128827Y0093981D01*
X0128950Y0094031D01*
X0129071Y0094084D01*
X0129191Y0094140D01*
X0133626Y0103140D02*
X0133515Y0103300D01*
X0133400Y0103456D01*
X0133281Y0103610D01*
X0133158Y0103762D01*
X0133031Y0103910D01*
X0132901Y0104054D01*
X0132768Y0104196D01*
X0132631Y0104335D01*
X0132491Y0104470D01*
X0132347Y0104601D01*
X0132201Y0104729D01*
X0132051Y0104854D01*
X0131898Y0104974D01*
X0131743Y0105091D01*
X0131584Y0105205D01*
X0131423Y0105314D01*
X0131259Y0105419D01*
X0131093Y0105521D01*
X0130925Y0105618D01*
X0130754Y0105711D01*
X0130580Y0105800D01*
X0130405Y0105885D01*
X0130228Y0105965D01*
X0130049Y0106041D01*
X0129868Y0106113D01*
X0129685Y0106180D01*
X0129501Y0106243D01*
X0129315Y0106301D01*
X0129128Y0106355D01*
X0128939Y0106404D01*
X0128750Y0106449D01*
X0128559Y0106489D01*
X0128368Y0106524D01*
X0128176Y0106555D01*
X0127983Y0106581D01*
X0127789Y0106602D01*
X0127595Y0106619D01*
X0127401Y0106631D01*
X0127206Y0106638D01*
X0127012Y0106640D01*
X0100012Y0106640D01*
X0100012Y0103640D02*
X0127012Y0103640D01*
X0133626Y0094140D02*
X0133514Y0093981D01*
X0133399Y0093824D01*
X0133280Y0093670D01*
X0133157Y0093519D01*
X0133031Y0093371D01*
X0132901Y0093226D01*
X0132767Y0093084D01*
X0132630Y0092946D01*
X0132490Y0092811D01*
X0132347Y0092679D01*
X0132200Y0092551D01*
X0132050Y0092427D01*
X0131898Y0092306D01*
X0131742Y0092189D01*
X0131584Y0092076D01*
X0131423Y0091966D01*
X0131259Y0091861D01*
X0131093Y0091760D01*
X0130924Y0091662D01*
X0130753Y0091569D01*
X0130580Y0091480D01*
X0130405Y0091395D01*
X0130227Y0091315D01*
X0130048Y0091239D01*
X0129867Y0091167D01*
X0129685Y0091100D01*
X0129500Y0091037D01*
X0129315Y0090979D01*
X0129127Y0090925D01*
X0128939Y0090876D01*
X0128750Y0090831D01*
X0128559Y0090791D01*
X0128368Y0090756D01*
X0128175Y0090725D01*
X0127982Y0090699D01*
X0127789Y0090678D01*
X0127595Y0090661D01*
X0127401Y0090649D01*
X0127206Y0090642D01*
X0127011Y0090640D01*
X0129191Y0103140D02*
X0129071Y0103196D01*
X0128950Y0103249D01*
X0128827Y0103299D01*
X0128703Y0103346D01*
X0128577Y0103389D01*
X0128451Y0103429D01*
X0128323Y0103465D01*
X0128195Y0103498D01*
X0128065Y0103528D01*
X0127935Y0103554D01*
X0127805Y0103577D01*
X0127673Y0103596D01*
X0127542Y0103612D01*
X0127409Y0103624D01*
X0127277Y0103633D01*
X0127145Y0103638D01*
X0127012Y0103640D01*
X0117512Y0098640D02*
X0116012Y0098640D01*
X0111012Y0098640D02*
X0109512Y0098640D01*
X0100012Y0106640D02*
X0099817Y0106638D01*
X0099623Y0106631D01*
X0099428Y0106619D01*
X0099234Y0106602D01*
X0099041Y0106581D01*
X0098848Y0106555D01*
X0098656Y0106524D01*
X0098464Y0106489D01*
X0098274Y0106449D01*
X0098084Y0106404D01*
X0097896Y0106355D01*
X0097709Y0106301D01*
X0097523Y0106243D01*
X0097339Y0106180D01*
X0097156Y0106113D01*
X0096975Y0106041D01*
X0096796Y0105965D01*
X0096619Y0105885D01*
X0096443Y0105800D01*
X0096270Y0105711D01*
X0096099Y0105618D01*
X0095931Y0105521D01*
X0095764Y0105419D01*
X0095601Y0105314D01*
X0095440Y0105204D01*
X0095281Y0105091D01*
X0095126Y0104974D01*
X0094973Y0104853D01*
X0094823Y0104729D01*
X0094677Y0104601D01*
X0094533Y0104469D01*
X0094393Y0104334D01*
X0094256Y0104196D01*
X0094123Y0104054D01*
X0093993Y0103909D01*
X0093866Y0103761D01*
X0093743Y0103610D01*
X0093624Y0103456D01*
X0093509Y0103299D01*
X0093397Y0103140D01*
X0093398Y0094140D02*
X0093509Y0093980D01*
X0093624Y0093824D01*
X0093743Y0093670D01*
X0093866Y0093518D01*
X0093993Y0093370D01*
X0094123Y0093226D01*
X0094256Y0093084D01*
X0094393Y0092945D01*
X0094533Y0092810D01*
X0094677Y0092679D01*
X0094823Y0092551D01*
X0094973Y0092426D01*
X0095126Y0092306D01*
X0095281Y0092189D01*
X0095440Y0092075D01*
X0095601Y0091966D01*
X0095765Y0091861D01*
X0095931Y0091759D01*
X0096099Y0091662D01*
X0096270Y0091569D01*
X0096444Y0091480D01*
X0096619Y0091395D01*
X0096796Y0091315D01*
X0096975Y0091239D01*
X0097156Y0091167D01*
X0097339Y0091100D01*
X0097523Y0091037D01*
X0097709Y0090979D01*
X0097896Y0090925D01*
X0098085Y0090876D01*
X0098274Y0090831D01*
X0098465Y0090791D01*
X0098656Y0090756D01*
X0098848Y0090725D01*
X0099041Y0090699D01*
X0099235Y0090678D01*
X0099429Y0090661D01*
X0099623Y0090649D01*
X0099818Y0090642D01*
X0100012Y0090640D01*
X0100012Y0093640D02*
X0099879Y0093642D01*
X0099747Y0093647D01*
X0099615Y0093656D01*
X0099482Y0093668D01*
X0099351Y0093684D01*
X0099219Y0093703D01*
X0099089Y0093726D01*
X0098959Y0093752D01*
X0098829Y0093782D01*
X0098701Y0093815D01*
X0098573Y0093851D01*
X0098447Y0093891D01*
X0098321Y0093934D01*
X0098197Y0093981D01*
X0098074Y0094031D01*
X0097953Y0094084D01*
X0097833Y0094140D01*
X0097833Y0103140D02*
X0097953Y0103196D01*
X0098074Y0103249D01*
X0098197Y0103299D01*
X0098321Y0103346D01*
X0098447Y0103389D01*
X0098573Y0103429D01*
X0098701Y0103465D01*
X0098829Y0103498D01*
X0098959Y0103528D01*
X0099089Y0103554D01*
X0099219Y0103577D01*
X0099351Y0103596D01*
X0099482Y0103612D01*
X0099615Y0103624D01*
X0099747Y0103633D01*
X0099879Y0103638D01*
X0100012Y0103640D01*
X0112273Y0112042D02*
X0112607Y0111709D01*
X0113274Y0111709D01*
X0113608Y0112042D01*
X0113608Y0113377D01*
X0113274Y0113710D01*
X0112607Y0113710D01*
X0112273Y0113377D01*
X0112273Y0112042D01*
X0112940Y0112376D02*
X0113608Y0111709D01*
X0114299Y0111709D02*
X0115633Y0111709D01*
X0114966Y0111709D02*
X0114966Y0113710D01*
X0114299Y0113043D01*
X0167237Y0097101D02*
X0167237Y0096434D01*
X0167570Y0096101D01*
X0167904Y0096101D01*
X0168238Y0096434D01*
X0168238Y0097435D01*
X0168905Y0097435D02*
X0167570Y0097435D01*
X0167237Y0097101D01*
X0168905Y0097435D02*
X0169239Y0097101D01*
X0169239Y0096434D01*
X0168905Y0096101D01*
X0168905Y0095409D02*
X0169239Y0095076D01*
X0169239Y0094409D01*
X0168905Y0094075D01*
X0167570Y0094075D01*
X0167237Y0094409D01*
X0167237Y0095076D01*
X0167570Y0095409D01*
X0179245Y0103857D02*
X0179578Y0103524D01*
X0180913Y0103524D01*
X0181246Y0103857D01*
X0181246Y0104525D01*
X0180913Y0104858D01*
X0181246Y0105549D02*
X0181246Y0106884D01*
X0181246Y0106217D02*
X0179245Y0106217D01*
X0179912Y0105549D01*
X0179578Y0104858D02*
X0179245Y0104525D01*
X0179245Y0103857D01*
X0179912Y0107575D02*
X0179245Y0108242D01*
X0181246Y0108242D01*
X0181246Y0107575D02*
X0181246Y0108910D01*
X0147148Y0042675D02*
X0147482Y0042341D01*
X0147482Y0041674D01*
X0147148Y0041341D01*
X0146481Y0041341D02*
X0146147Y0042008D01*
X0146147Y0042341D01*
X0146481Y0042675D01*
X0147148Y0042675D01*
X0146481Y0041341D02*
X0145480Y0041341D01*
X0145480Y0042675D01*
X0145814Y0040649D02*
X0145480Y0040316D01*
X0145480Y0039648D01*
X0145814Y0039315D01*
X0147148Y0039315D01*
X0147482Y0039648D01*
X0147482Y0040316D01*
X0147148Y0040649D01*
X0142364Y0040316D02*
X0142030Y0040649D01*
X0142364Y0040316D02*
X0142364Y0039648D01*
X0142030Y0039315D01*
X0140696Y0039315D01*
X0140362Y0039648D01*
X0140362Y0040316D01*
X0140696Y0040649D01*
X0140696Y0041341D02*
X0141029Y0041341D01*
X0141363Y0041674D01*
X0141363Y0042341D01*
X0141697Y0042675D01*
X0142030Y0042675D01*
X0142364Y0042341D01*
X0142364Y0041674D01*
X0142030Y0041341D01*
X0141697Y0041341D01*
X0141363Y0041674D01*
X0141363Y0042341D02*
X0141029Y0042675D01*
X0140696Y0042675D01*
X0140362Y0042341D01*
X0140362Y0041674D01*
X0140696Y0041341D01*
X0029610Y0018578D02*
X0029610Y0018244D01*
X0029276Y0017910D01*
X0029610Y0017577D01*
X0029610Y0017243D01*
X0029276Y0016910D01*
X0028609Y0016910D01*
X0028275Y0017243D01*
X0027584Y0017243D02*
X0027250Y0016910D01*
X0026583Y0016910D01*
X0026250Y0017243D01*
X0026250Y0018578D01*
X0026583Y0018911D01*
X0027250Y0018911D01*
X0027584Y0018578D01*
X0028275Y0018578D02*
X0028609Y0018911D01*
X0029276Y0018911D01*
X0029610Y0018578D01*
X0029276Y0017910D02*
X0028943Y0017910D01*
X0028669Y0090709D02*
X0027334Y0090709D01*
X0027001Y0091042D01*
X0027001Y0091710D01*
X0027334Y0092043D01*
X0028002Y0092734D02*
X0028002Y0094069D01*
X0029002Y0093735D02*
X0027001Y0093735D01*
X0028002Y0092734D01*
X0028669Y0092043D02*
X0029002Y0091710D01*
X0029002Y0091042D01*
X0028669Y0090709D01*
X0021109Y0091141D02*
X0021109Y0091808D01*
X0020775Y0092142D01*
X0021109Y0092833D02*
X0021109Y0094167D01*
X0021109Y0093500D02*
X0019107Y0093500D01*
X0019774Y0092833D01*
X0019441Y0092142D02*
X0019107Y0091808D01*
X0019107Y0091141D01*
X0019441Y0090807D01*
X0020775Y0090807D01*
X0021109Y0091141D01*
D21*
X0175337Y0025456D03*
M02*
