%
M48
M72
T01C0.01200
T02C0.01378
T03C0.03346
T04C0.04000
%
T01
X56509Y22917
X91509Y31042
X106509Y33542
X120259Y37292
X120259Y29127
X116509Y21667
X109009Y21042
X93384Y22917
X137134Y31042
X141509Y29792
X149634Y27917
X160923Y34792
X162134Y40417
X159009Y43542
X150259Y52292
X153384Y56042
X135884Y62292
X130259Y51667
X96509Y51667
X96509Y54792
X91509Y55417
X84634Y59792
X63384Y64167
X60884Y77917
X56509Y87917
X56509Y94167
X105259Y71667
X110259Y71667
X96509Y48542
X61509Y51042
X177759Y34792
X191509Y44792
X195259Y37917
X215259Y46042
T02
X167646Y31711
X134673Y45983
X124831Y37104
X113020Y33680
X116957Y27178
X100224Y21376
X96780Y16131
X68728Y27282
X113512Y47951
X88413Y62715
X71440Y71573
X66268Y69605
X52488Y71573
X49050Y72564
X45106Y67636
X40185Y58778
X68236Y53857
X74142Y79447
X165185Y88798
T03
X143039Y98148
X83984Y98640
X30008Y70333
X30008Y55373
T04
X197961Y54113
X197961Y64113
X197961Y74113
X197961Y84113
X197961Y94113
X220795Y92380
X220795Y82380
X220795Y72380
X220795Y62380
X197961Y44113
X221583Y38365
X221583Y28365
X220795Y102380
M30
