G75*
%MOIN*%
%OFA0B0*%
%FSLAX25Y25*%
%IPPOS*%
%LPD*%
%AMOC8*
5,1,8,0,0,1.08239X$1,22.5*
%
%ADD10C,0.07400*%
%ADD11C,0.04546*%
%ADD12C,0.00787*%
%ADD13C,0.02178*%
%ADD14C,0.00600*%
%ADD15C,0.01200*%
%ADD16C,0.02000*%
D10*
X0197961Y0044113D03*
X0197961Y0054113D03*
X0197961Y0064113D03*
X0197961Y0074113D03*
X0197961Y0084113D03*
X0197961Y0094113D03*
X0220795Y0092380D03*
X0220795Y0082380D03*
X0220795Y0072380D03*
X0220795Y0062380D03*
X0221583Y0038365D03*
X0221583Y0028365D03*
X0220795Y0102380D03*
D11*
X0143039Y0098148D03*
X0083984Y0098640D03*
D12*
X0016528Y0112947D02*
X0016528Y0015436D01*
X0232150Y0015436D01*
X0232150Y0112947D01*
X0016528Y0112947D01*
X0016528Y0112425D02*
X0232150Y0112425D01*
X0232150Y0111639D02*
X0016528Y0111639D01*
X0016528Y0110853D02*
X0232150Y0110853D01*
X0232150Y0110067D02*
X0016528Y0110067D01*
X0016528Y0109281D02*
X0232150Y0109281D01*
X0232150Y0108495D02*
X0016528Y0108495D01*
X0016528Y0107709D02*
X0232150Y0107709D01*
X0232150Y0106923D02*
X0222093Y0106923D01*
X0221729Y0107074D02*
X0219862Y0107074D01*
X0218137Y0106360D01*
X0216816Y0105039D01*
X0216473Y0104211D01*
X0130973Y0104211D01*
X0090973Y0064211D01*
X0090418Y0063656D01*
X0089276Y0064798D01*
X0087551Y0064798D01*
X0086762Y0064009D01*
X0070741Y0064009D01*
X0068054Y0066696D01*
X0068054Y0068445D01*
X0068350Y0068742D01*
X0068350Y0070468D01*
X0067130Y0071688D01*
X0065405Y0071688D01*
X0064185Y0070468D01*
X0064185Y0068742D01*
X0065405Y0067522D01*
X0065466Y0067522D01*
X0065466Y0065624D01*
X0066224Y0064866D01*
X0069669Y0061421D01*
X0083444Y0061421D01*
X0083108Y0061086D01*
X0068295Y0061086D01*
X0065378Y0064003D01*
X0065378Y0064993D01*
X0064210Y0066161D01*
X0062778Y0066161D01*
X0062778Y0076991D01*
X0062878Y0077091D01*
X0062878Y0078743D01*
X0061710Y0079911D01*
X0060058Y0079911D01*
X0058890Y0078743D01*
X0058890Y0077091D01*
X0059590Y0076391D01*
X0059590Y0062595D01*
X0059915Y0062270D01*
X0059915Y0052268D01*
X0059515Y0051868D01*
X0059515Y0050216D01*
X0060683Y0049048D01*
X0062335Y0049048D01*
X0063503Y0050216D01*
X0063503Y0051868D01*
X0063103Y0052268D01*
X0063103Y0062173D01*
X0063548Y0062173D01*
X0066465Y0059256D01*
X0067223Y0058498D01*
X0083108Y0058498D01*
X0083808Y0057798D01*
X0085460Y0057798D01*
X0086628Y0058966D01*
X0086628Y0060618D01*
X0085824Y0061421D01*
X0086762Y0061421D01*
X0087551Y0060632D01*
X0089276Y0060632D01*
X0090215Y0061572D01*
X0090215Y0056943D01*
X0089515Y0056243D01*
X0089515Y0054591D01*
X0090683Y0053423D01*
X0092335Y0053423D01*
X0093503Y0054591D01*
X0093503Y0056243D01*
X0092803Y0056943D01*
X0092803Y0062381D01*
X0132045Y0101623D01*
X0216102Y0101623D01*
X0216102Y0101447D01*
X0216816Y0099722D01*
X0218137Y0098401D01*
X0219862Y0097687D01*
X0221729Y0097687D01*
X0223454Y0098401D01*
X0224774Y0099722D01*
X0225489Y0101447D01*
X0225489Y0103314D01*
X0224774Y0105039D01*
X0223454Y0106360D01*
X0221729Y0107074D01*
X0223676Y0106137D02*
X0232150Y0106137D01*
X0232150Y0105351D02*
X0224462Y0105351D01*
X0224971Y0104565D02*
X0232150Y0104565D01*
X0232150Y0103780D02*
X0225296Y0103780D01*
X0225489Y0102994D02*
X0232150Y0102994D01*
X0232150Y0102208D02*
X0225489Y0102208D01*
X0225479Y0101422D02*
X0232150Y0101422D01*
X0232150Y0100636D02*
X0225153Y0100636D01*
X0224828Y0099850D02*
X0232150Y0099850D01*
X0232150Y0099064D02*
X0224117Y0099064D01*
X0223157Y0098278D02*
X0232150Y0098278D01*
X0232150Y0097492D02*
X0201219Y0097492D01*
X0200619Y0098092D02*
X0198894Y0098806D01*
X0197027Y0098806D01*
X0195302Y0098092D01*
X0193981Y0096771D01*
X0193267Y0095046D01*
X0193267Y0093179D01*
X0193981Y0091454D01*
X0195302Y0090134D01*
X0197027Y0089419D01*
X0198894Y0089419D01*
X0200619Y0090134D01*
X0201940Y0091454D01*
X0202654Y0093179D01*
X0202654Y0095046D01*
X0201940Y0096771D01*
X0200619Y0098092D01*
X0200170Y0098278D02*
X0218434Y0098278D01*
X0217474Y0099064D02*
X0146196Y0099064D01*
X0146306Y0098798D02*
X0145809Y0099999D01*
X0144890Y0100918D01*
X0143689Y0101415D01*
X0142390Y0101415D01*
X0141189Y0100918D01*
X0140270Y0099999D01*
X0139772Y0098798D01*
X0139772Y0097498D01*
X0140270Y0096298D01*
X0141189Y0095379D01*
X0142390Y0094881D01*
X0143689Y0094881D01*
X0144890Y0095379D01*
X0145809Y0096298D01*
X0146306Y0097498D01*
X0146306Y0098798D01*
X0146306Y0098278D02*
X0195752Y0098278D01*
X0194702Y0097492D02*
X0146304Y0097492D01*
X0145978Y0096706D02*
X0193955Y0096706D01*
X0193629Y0095920D02*
X0145432Y0095920D01*
X0144301Y0095135D02*
X0193303Y0095135D01*
X0193267Y0094349D02*
X0124770Y0094349D01*
X0125556Y0095135D02*
X0141778Y0095135D01*
X0140647Y0095920D02*
X0126342Y0095920D01*
X0127128Y0096706D02*
X0140100Y0096706D01*
X0139775Y0097492D02*
X0127914Y0097492D01*
X0128700Y0098278D02*
X0139772Y0098278D01*
X0139883Y0099064D02*
X0129486Y0099064D01*
X0130272Y0099850D02*
X0140208Y0099850D01*
X0140907Y0100636D02*
X0131057Y0100636D01*
X0131843Y0101422D02*
X0216112Y0101422D01*
X0216437Y0100636D02*
X0145172Y0100636D01*
X0145871Y0099850D02*
X0216763Y0099850D01*
X0218137Y0096360D02*
X0216816Y0095039D01*
X0216102Y0093314D01*
X0216102Y0091447D01*
X0216816Y0089722D01*
X0218137Y0088401D01*
X0219862Y0087687D01*
X0221729Y0087687D01*
X0222652Y0088069D01*
X0225215Y0085506D01*
X0225215Y0083975D01*
X0224774Y0085039D01*
X0223454Y0086360D01*
X0221729Y0087074D01*
X0219862Y0087074D01*
X0218137Y0086360D01*
X0216816Y0085039D01*
X0216251Y0083674D01*
X0203048Y0083674D01*
X0203054Y0083712D01*
X0203054Y0083719D01*
X0198354Y0083719D01*
X0198354Y0084506D01*
X0203054Y0084506D01*
X0203054Y0084514D01*
X0202929Y0085305D01*
X0202681Y0086068D01*
X0202317Y0086782D01*
X0201846Y0087431D01*
X0201279Y0087998D01*
X0200630Y0088469D01*
X0199916Y0088833D01*
X0199153Y0089081D01*
X0198362Y0089206D01*
X0198354Y0089206D01*
X0198354Y0084506D01*
X0197567Y0084506D01*
X0197567Y0083719D01*
X0192867Y0083719D01*
X0192867Y0083712D01*
X0192992Y0082920D01*
X0193240Y0082157D01*
X0193604Y0081443D01*
X0194067Y0080806D01*
X0175006Y0080806D01*
X0167268Y0088545D01*
X0167268Y0089660D01*
X0166048Y0090880D01*
X0164322Y0090880D01*
X0163102Y0089660D01*
X0163102Y0087935D01*
X0164322Y0086715D01*
X0165438Y0086715D01*
X0173934Y0078219D01*
X0195609Y0078219D01*
X0195302Y0078092D01*
X0193981Y0076771D01*
X0193267Y0075046D01*
X0193267Y0073179D01*
X0193981Y0071454D01*
X0195302Y0070134D01*
X0197027Y0069419D01*
X0198894Y0069419D01*
X0200619Y0070134D01*
X0201940Y0071454D01*
X0202654Y0073179D01*
X0202654Y0075046D01*
X0201940Y0076771D01*
X0200619Y0078092D01*
X0200312Y0078219D01*
X0200402Y0078219D01*
X0203270Y0081087D01*
X0216251Y0081087D01*
X0216816Y0079722D01*
X0218137Y0078401D01*
X0219862Y0077687D01*
X0221729Y0077687D01*
X0223454Y0078401D01*
X0224774Y0079722D01*
X0225215Y0080786D01*
X0225215Y0073975D01*
X0224774Y0075039D01*
X0223454Y0076360D01*
X0221729Y0077074D01*
X0219862Y0077074D01*
X0218137Y0076360D01*
X0216816Y0075039D01*
X0216102Y0073314D01*
X0216102Y0071447D01*
X0216536Y0070398D01*
X0213965Y0067828D01*
X0213965Y0053453D01*
X0202687Y0042174D01*
X0202929Y0042920D01*
X0203054Y0043712D01*
X0203054Y0043719D01*
X0198354Y0043719D01*
X0198354Y0039019D01*
X0198362Y0039019D01*
X0199153Y0039144D01*
X0199899Y0039387D01*
X0194098Y0033586D01*
X0179372Y0033586D01*
X0179753Y0033966D01*
X0179753Y0035618D01*
X0178585Y0036786D01*
X0176933Y0036786D01*
X0176233Y0036086D01*
X0172045Y0036086D01*
X0154082Y0054048D01*
X0154210Y0054048D01*
X0155378Y0055216D01*
X0155378Y0056868D01*
X0154210Y0058036D01*
X0153220Y0058036D01*
X0147757Y0063498D01*
X0167848Y0063498D01*
X0193265Y0038081D01*
X0193265Y0037091D01*
X0194433Y0035923D01*
X0196085Y0035923D01*
X0197253Y0037091D01*
X0197253Y0038743D01*
X0196866Y0039129D01*
X0197560Y0039019D01*
X0197567Y0039019D01*
X0197567Y0043719D01*
X0198354Y0043719D01*
X0198354Y0044506D01*
X0203054Y0044506D01*
X0203054Y0044514D01*
X0202929Y0045305D01*
X0202681Y0046068D01*
X0202317Y0046782D01*
X0201846Y0047431D01*
X0201279Y0047998D01*
X0200630Y0048469D01*
X0199916Y0048833D01*
X0199153Y0049081D01*
X0198362Y0049206D01*
X0198354Y0049206D01*
X0198354Y0044506D01*
X0197567Y0044506D01*
X0197567Y0049206D01*
X0197560Y0049206D01*
X0196768Y0049081D01*
X0196005Y0048833D01*
X0195291Y0048469D01*
X0194642Y0047998D01*
X0194075Y0047431D01*
X0193604Y0046782D01*
X0193240Y0046068D01*
X0193194Y0045926D01*
X0192335Y0046786D01*
X0191345Y0046786D01*
X0165170Y0072961D01*
X0111785Y0072961D01*
X0111085Y0073661D01*
X0109433Y0073661D01*
X0108265Y0072493D01*
X0108265Y0072365D01*
X0107670Y0072961D01*
X0106785Y0072961D01*
X0106085Y0073661D01*
X0104433Y0073661D01*
X0103265Y0072493D01*
X0103265Y0070841D01*
X0104433Y0069673D01*
X0106085Y0069673D01*
X0106691Y0070280D01*
X0112715Y0064256D01*
X0113473Y0063498D01*
X0134271Y0063498D01*
X0133890Y0063118D01*
X0133890Y0061466D01*
X0135058Y0060298D01*
X0136710Y0060298D01*
X0137410Y0060998D01*
X0146598Y0060998D01*
X0151390Y0056206D01*
X0151390Y0056086D01*
X0098035Y0056086D01*
X0097335Y0056786D01*
X0095683Y0056786D01*
X0094515Y0055618D01*
X0094515Y0053966D01*
X0095252Y0053229D01*
X0094515Y0052493D01*
X0094515Y0051503D01*
X0090973Y0047961D01*
X0090215Y0047203D01*
X0090215Y0032568D01*
X0089515Y0031868D01*
X0089515Y0030216D01*
X0090683Y0029048D01*
X0091673Y0029048D01*
X0092090Y0028631D01*
X0092090Y0024443D01*
X0091390Y0023743D01*
X0091390Y0022091D01*
X0092558Y0020923D01*
X0094210Y0020923D01*
X0095378Y0022091D01*
X0095378Y0023743D01*
X0094678Y0024443D01*
X0094678Y0029703D01*
X0093503Y0030878D01*
X0093503Y0031868D01*
X0092803Y0032568D01*
X0092803Y0046131D01*
X0094515Y0047844D01*
X0094515Y0047716D01*
X0095683Y0046548D01*
X0097335Y0046548D01*
X0098503Y0047716D01*
X0098503Y0048706D01*
X0100170Y0050373D01*
X0128733Y0050373D01*
X0129433Y0049673D01*
X0131085Y0049673D01*
X0132253Y0050841D01*
X0132253Y0052493D01*
X0131247Y0053498D01*
X0148646Y0053498D01*
X0148265Y0053118D01*
X0148265Y0051466D01*
X0149433Y0050298D01*
X0149690Y0050298D01*
X0149723Y0050265D01*
X0151096Y0048892D01*
X0151096Y0047995D01*
X0149885Y0046784D01*
X0141519Y0046784D01*
X0140761Y0046027D01*
X0135122Y0040387D01*
X0121524Y0040387D01*
X0120766Y0039629D01*
X0120423Y0039286D01*
X0119433Y0039286D01*
X0118265Y0038118D01*
X0118265Y0036466D01*
X0118965Y0035766D01*
X0118965Y0030653D01*
X0118265Y0029953D01*
X0118265Y0028815D01*
X0117819Y0029261D01*
X0116094Y0029261D01*
X0114874Y0028041D01*
X0114874Y0026315D01*
X0116094Y0025095D01*
X0117819Y0025095D01*
X0118305Y0025581D01*
X0119108Y0024778D01*
X0119866Y0024020D01*
X0123282Y0024020D01*
X0122223Y0022961D01*
X0118035Y0022961D01*
X0117335Y0023661D01*
X0115683Y0023661D01*
X0114515Y0022493D01*
X0114515Y0022336D01*
X0110535Y0022336D01*
X0109835Y0023036D01*
X0108183Y0023036D01*
X0107803Y0022655D01*
X0107803Y0032016D01*
X0108503Y0032716D01*
X0108503Y0034368D01*
X0108024Y0034847D01*
X0108773Y0034847D01*
X0108773Y0033144D01*
X0109531Y0032386D01*
X0111368Y0032386D01*
X0112157Y0031597D01*
X0113882Y0031597D01*
X0115102Y0032817D01*
X0115102Y0034542D01*
X0113882Y0035762D01*
X0112157Y0035762D01*
X0111368Y0034973D01*
X0111361Y0034973D01*
X0111361Y0036676D01*
X0110603Y0037434D01*
X0104610Y0037434D01*
X0103852Y0036676D01*
X0098931Y0031755D01*
X0098931Y0023028D01*
X0098142Y0022239D01*
X0098142Y0020514D01*
X0099362Y0019294D01*
X0101087Y0019294D01*
X0102307Y0020514D01*
X0102307Y0022239D01*
X0101518Y0023028D01*
X0101518Y0030683D01*
X0104515Y0033680D01*
X0104515Y0032716D01*
X0105215Y0032016D01*
X0105215Y0019881D01*
X0107715Y0017381D01*
X0108473Y0016623D01*
X0187670Y0016623D01*
X0215095Y0044048D01*
X0216085Y0044048D01*
X0217253Y0045216D01*
X0217253Y0046868D01*
X0216085Y0048036D01*
X0215957Y0048036D01*
X0227045Y0059123D01*
X0227803Y0059881D01*
X0227803Y0086578D01*
X0224716Y0089664D01*
X0224774Y0089722D01*
X0225489Y0091447D01*
X0225489Y0093314D01*
X0224774Y0095039D01*
X0223454Y0096360D01*
X0221729Y0097074D01*
X0219862Y0097074D01*
X0218137Y0096360D01*
X0217697Y0095920D02*
X0202292Y0095920D01*
X0202618Y0095135D02*
X0216911Y0095135D01*
X0216530Y0094349D02*
X0202654Y0094349D01*
X0202654Y0093563D02*
X0216205Y0093563D01*
X0216102Y0092777D02*
X0202488Y0092777D01*
X0202162Y0091991D02*
X0216102Y0091991D01*
X0216202Y0091205D02*
X0201691Y0091205D01*
X0200905Y0090419D02*
X0216527Y0090419D01*
X0216905Y0089633D02*
X0199411Y0089633D01*
X0199873Y0088847D02*
X0217691Y0088847D01*
X0218957Y0088061D02*
X0201192Y0088061D01*
X0201959Y0087275D02*
X0223446Y0087275D01*
X0223140Y0086489D02*
X0224232Y0086489D01*
X0224110Y0085704D02*
X0225018Y0085704D01*
X0224825Y0084918D02*
X0225215Y0084918D01*
X0225215Y0084132D02*
X0225150Y0084132D01*
X0227803Y0084132D02*
X0232150Y0084132D01*
X0232150Y0084918D02*
X0227803Y0084918D01*
X0227803Y0085704D02*
X0232150Y0085704D01*
X0232150Y0086489D02*
X0227803Y0086489D01*
X0227105Y0087275D02*
X0232150Y0087275D01*
X0232150Y0088061D02*
X0226319Y0088061D01*
X0225533Y0088847D02*
X0232150Y0088847D01*
X0232150Y0089633D02*
X0224747Y0089633D01*
X0225063Y0090419D02*
X0232150Y0090419D01*
X0232150Y0091205D02*
X0225389Y0091205D01*
X0225489Y0091991D02*
X0232150Y0091991D01*
X0232150Y0092777D02*
X0225489Y0092777D01*
X0225386Y0093563D02*
X0232150Y0093563D01*
X0232150Y0094349D02*
X0225060Y0094349D01*
X0224679Y0095135D02*
X0232150Y0095135D01*
X0232150Y0095920D02*
X0223893Y0095920D01*
X0222617Y0096706D02*
X0232150Y0096706D01*
X0218974Y0096706D02*
X0201967Y0096706D01*
X0193267Y0093563D02*
X0123984Y0093563D01*
X0123198Y0092777D02*
X0193434Y0092777D01*
X0193759Y0091991D02*
X0122412Y0091991D01*
X0121627Y0091205D02*
X0194230Y0091205D01*
X0195016Y0090419D02*
X0166509Y0090419D01*
X0167268Y0089633D02*
X0196510Y0089633D01*
X0196768Y0089081D02*
X0196005Y0088833D01*
X0195291Y0088469D01*
X0194642Y0087998D01*
X0194075Y0087431D01*
X0193604Y0086782D01*
X0193240Y0086068D01*
X0192992Y0085305D01*
X0192867Y0084514D01*
X0192867Y0084506D01*
X0197567Y0084506D01*
X0197567Y0089206D01*
X0197560Y0089206D01*
X0196768Y0089081D01*
X0196048Y0088847D02*
X0167268Y0088847D01*
X0167751Y0088061D02*
X0194730Y0088061D01*
X0193962Y0087275D02*
X0168537Y0087275D01*
X0169323Y0086489D02*
X0193455Y0086489D01*
X0193122Y0085704D02*
X0170109Y0085704D01*
X0170895Y0084918D02*
X0192931Y0084918D01*
X0192925Y0083346D02*
X0172467Y0083346D01*
X0173252Y0082560D02*
X0193109Y0082560D01*
X0193435Y0081774D02*
X0174038Y0081774D01*
X0174824Y0080988D02*
X0193935Y0080988D01*
X0197567Y0084132D02*
X0171681Y0084132D01*
X0169593Y0082560D02*
X0112981Y0082560D01*
X0112196Y0081774D02*
X0170379Y0081774D01*
X0171165Y0080988D02*
X0111410Y0080988D01*
X0110624Y0080202D02*
X0171951Y0080202D01*
X0172737Y0079416D02*
X0109838Y0079416D01*
X0109052Y0078630D02*
X0173523Y0078630D01*
X0168807Y0083346D02*
X0113767Y0083346D01*
X0114553Y0084132D02*
X0168021Y0084132D01*
X0167236Y0084918D02*
X0115339Y0084918D01*
X0116125Y0085704D02*
X0166450Y0085704D01*
X0165664Y0086489D02*
X0116911Y0086489D01*
X0117697Y0087275D02*
X0163762Y0087275D01*
X0163102Y0088061D02*
X0118483Y0088061D01*
X0119269Y0088847D02*
X0163102Y0088847D01*
X0163102Y0089633D02*
X0120055Y0089633D01*
X0120841Y0090419D02*
X0163861Y0090419D01*
X0193775Y0076273D02*
X0106694Y0076273D01*
X0107480Y0077059D02*
X0194269Y0077059D01*
X0195054Y0077844D02*
X0108266Y0077844D01*
X0106179Y0079416D02*
X0062204Y0079416D01*
X0062878Y0078630D02*
X0105393Y0078630D01*
X0104607Y0077844D02*
X0062878Y0077844D01*
X0062845Y0077059D02*
X0103821Y0077059D01*
X0103035Y0076273D02*
X0062778Y0076273D01*
X0062778Y0075487D02*
X0102249Y0075487D01*
X0101463Y0074701D02*
X0062778Y0074701D01*
X0062778Y0073915D02*
X0100677Y0073915D01*
X0099891Y0073129D02*
X0062778Y0073129D01*
X0062778Y0072343D02*
X0099105Y0072343D01*
X0098320Y0071557D02*
X0067261Y0071557D01*
X0068047Y0070771D02*
X0097534Y0070771D01*
X0096748Y0069985D02*
X0068350Y0069985D01*
X0068350Y0069199D02*
X0095962Y0069199D01*
X0095176Y0068413D02*
X0068054Y0068413D01*
X0068054Y0067628D02*
X0094390Y0067628D01*
X0093604Y0066842D02*
X0068054Y0066842D01*
X0068694Y0066056D02*
X0092818Y0066056D01*
X0092032Y0065270D02*
X0069480Y0065270D01*
X0070265Y0064484D02*
X0087237Y0064484D01*
X0089590Y0064484D02*
X0091246Y0064484D01*
X0090460Y0063698D02*
X0090376Y0063698D01*
X0090215Y0061340D02*
X0089984Y0061340D01*
X0090215Y0060554D02*
X0086628Y0060554D01*
X0086628Y0059768D02*
X0090215Y0059768D01*
X0090215Y0058983D02*
X0086628Y0058983D01*
X0085858Y0058197D02*
X0090215Y0058197D01*
X0090215Y0057411D02*
X0063103Y0057411D01*
X0063103Y0058197D02*
X0083410Y0058197D01*
X0083363Y0061340D02*
X0068040Y0061340D01*
X0067254Y0062126D02*
X0068964Y0062126D01*
X0068178Y0062912D02*
X0066468Y0062912D01*
X0065682Y0063698D02*
X0067392Y0063698D01*
X0066606Y0064484D02*
X0065378Y0064484D01*
X0065100Y0065270D02*
X0065820Y0065270D01*
X0065466Y0066056D02*
X0064314Y0066056D01*
X0065466Y0066842D02*
X0062778Y0066842D01*
X0062778Y0067628D02*
X0065300Y0067628D01*
X0064514Y0068413D02*
X0062778Y0068413D01*
X0062778Y0069199D02*
X0064185Y0069199D01*
X0064185Y0069985D02*
X0062778Y0069985D01*
X0062778Y0070771D02*
X0064489Y0070771D01*
X0065275Y0071557D02*
X0062778Y0071557D01*
X0059590Y0071557D02*
X0058103Y0071557D01*
X0058103Y0070771D02*
X0059590Y0070771D01*
X0059590Y0069985D02*
X0058103Y0069985D01*
X0058103Y0069199D02*
X0059590Y0069199D01*
X0059590Y0068413D02*
X0058103Y0068413D01*
X0058103Y0067628D02*
X0059590Y0067628D01*
X0059590Y0066842D02*
X0058103Y0066842D01*
X0058103Y0066056D02*
X0059590Y0066056D01*
X0059590Y0065270D02*
X0058103Y0065270D01*
X0058103Y0064484D02*
X0059590Y0064484D01*
X0059590Y0063698D02*
X0058103Y0063698D01*
X0058103Y0062912D02*
X0059590Y0062912D01*
X0059915Y0062126D02*
X0058103Y0062126D01*
X0058103Y0061340D02*
X0059915Y0061340D01*
X0059915Y0060554D02*
X0058103Y0060554D01*
X0058103Y0059768D02*
X0059915Y0059768D01*
X0059915Y0058983D02*
X0058103Y0058983D01*
X0058103Y0058197D02*
X0059915Y0058197D01*
X0059915Y0057411D02*
X0058103Y0057411D01*
X0058103Y0056625D02*
X0059915Y0056625D01*
X0059915Y0055839D02*
X0058103Y0055839D01*
X0058103Y0055053D02*
X0059915Y0055053D01*
X0059915Y0054267D02*
X0058103Y0054267D01*
X0058103Y0053481D02*
X0059915Y0053481D01*
X0059915Y0052695D02*
X0058103Y0052695D01*
X0058103Y0051909D02*
X0059557Y0051909D01*
X0059515Y0051123D02*
X0058103Y0051123D01*
X0058103Y0050337D02*
X0059515Y0050337D01*
X0060180Y0049552D02*
X0058103Y0049552D01*
X0058103Y0048766D02*
X0091778Y0048766D01*
X0092564Y0049552D02*
X0062838Y0049552D01*
X0063503Y0050337D02*
X0093350Y0050337D01*
X0094136Y0051123D02*
X0063503Y0051123D01*
X0063461Y0051909D02*
X0094515Y0051909D01*
X0094718Y0052695D02*
X0063103Y0052695D01*
X0063103Y0053481D02*
X0090625Y0053481D01*
X0089839Y0054267D02*
X0063103Y0054267D01*
X0063103Y0055053D02*
X0089515Y0055053D01*
X0089515Y0055839D02*
X0063103Y0055839D01*
X0063103Y0056625D02*
X0089897Y0056625D01*
X0092803Y0057411D02*
X0150185Y0057411D01*
X0149400Y0058197D02*
X0092803Y0058197D01*
X0092803Y0058983D02*
X0148614Y0058983D01*
X0147828Y0059768D02*
X0092803Y0059768D01*
X0092803Y0060554D02*
X0134802Y0060554D01*
X0134016Y0061340D02*
X0092803Y0061340D01*
X0092803Y0062126D02*
X0133890Y0062126D01*
X0133890Y0062912D02*
X0093334Y0062912D01*
X0094120Y0063698D02*
X0113273Y0063698D01*
X0112487Y0064484D02*
X0094905Y0064484D01*
X0095691Y0065270D02*
X0111701Y0065270D01*
X0110915Y0066056D02*
X0096477Y0066056D01*
X0097263Y0066842D02*
X0110129Y0066842D01*
X0109344Y0067628D02*
X0098049Y0067628D01*
X0098835Y0068413D02*
X0108558Y0068413D01*
X0107772Y0069199D02*
X0099621Y0069199D01*
X0100407Y0069985D02*
X0104121Y0069985D01*
X0103335Y0070771D02*
X0101193Y0070771D01*
X0101979Y0071557D02*
X0103265Y0071557D01*
X0103265Y0072343D02*
X0102765Y0072343D01*
X0103551Y0073129D02*
X0103901Y0073129D01*
X0104336Y0073915D02*
X0193267Y0073915D01*
X0193267Y0074701D02*
X0105122Y0074701D01*
X0105908Y0075487D02*
X0193449Y0075487D01*
X0193288Y0073129D02*
X0111616Y0073129D01*
X0108901Y0073129D02*
X0106616Y0073129D01*
X0106397Y0069985D02*
X0106986Y0069985D01*
X0086843Y0061340D02*
X0085905Y0061340D01*
X0093120Y0056625D02*
X0095522Y0056625D01*
X0094736Y0055839D02*
X0093503Y0055839D01*
X0093503Y0055053D02*
X0094515Y0055053D01*
X0094515Y0054267D02*
X0093179Y0054267D01*
X0092393Y0053481D02*
X0095000Y0053481D01*
X0097495Y0056625D02*
X0150971Y0056625D01*
X0153059Y0058197D02*
X0173150Y0058197D01*
X0173935Y0057411D02*
X0154834Y0057411D01*
X0155378Y0056625D02*
X0174721Y0056625D01*
X0175507Y0055839D02*
X0155378Y0055839D01*
X0155214Y0055053D02*
X0176293Y0055053D01*
X0177079Y0054267D02*
X0154429Y0054267D01*
X0154649Y0053481D02*
X0177865Y0053481D01*
X0178651Y0052695D02*
X0155435Y0052695D01*
X0156221Y0051909D02*
X0179437Y0051909D01*
X0180223Y0051123D02*
X0157007Y0051123D01*
X0157793Y0050337D02*
X0181009Y0050337D01*
X0181795Y0049552D02*
X0158579Y0049552D01*
X0159365Y0048766D02*
X0182580Y0048766D01*
X0183366Y0047980D02*
X0160151Y0047980D01*
X0160936Y0047194D02*
X0184152Y0047194D01*
X0184938Y0046408D02*
X0161722Y0046408D01*
X0162508Y0045622D02*
X0185724Y0045622D01*
X0186510Y0044836D02*
X0163294Y0044836D01*
X0164080Y0044050D02*
X0187296Y0044050D01*
X0188082Y0043264D02*
X0164866Y0043264D01*
X0165652Y0042478D02*
X0188868Y0042478D01*
X0189654Y0041692D02*
X0166438Y0041692D01*
X0167224Y0040907D02*
X0190440Y0040907D01*
X0191226Y0040121D02*
X0168010Y0040121D01*
X0168796Y0039335D02*
X0192011Y0039335D01*
X0192797Y0038549D02*
X0169581Y0038549D01*
X0170367Y0037763D02*
X0193265Y0037763D01*
X0193379Y0036977D02*
X0171153Y0036977D01*
X0171939Y0036191D02*
X0176339Y0036191D01*
X0179179Y0036191D02*
X0194165Y0036191D01*
X0195132Y0034619D02*
X0179753Y0034619D01*
X0179753Y0035405D02*
X0195918Y0035405D01*
X0196353Y0036191D02*
X0196704Y0036191D01*
X0197138Y0036977D02*
X0197489Y0036977D01*
X0197253Y0037763D02*
X0198275Y0037763D01*
X0199061Y0038549D02*
X0197253Y0038549D01*
X0197567Y0039335D02*
X0198354Y0039335D01*
X0198354Y0040121D02*
X0197567Y0040121D01*
X0197567Y0040907D02*
X0198354Y0040907D01*
X0198354Y0041692D02*
X0197567Y0041692D01*
X0197567Y0042478D02*
X0198354Y0042478D01*
X0198354Y0043264D02*
X0197567Y0043264D01*
X0198354Y0044050D02*
X0204563Y0044050D01*
X0205349Y0044836D02*
X0203003Y0044836D01*
X0202826Y0045622D02*
X0206134Y0045622D01*
X0206920Y0046408D02*
X0202508Y0046408D01*
X0202018Y0047194D02*
X0207706Y0047194D01*
X0208492Y0047980D02*
X0201297Y0047980D01*
X0200049Y0048766D02*
X0209278Y0048766D01*
X0210064Y0049552D02*
X0199214Y0049552D01*
X0198894Y0049419D02*
X0200619Y0050134D01*
X0201940Y0051454D01*
X0202654Y0053179D01*
X0202654Y0055046D01*
X0201940Y0056771D01*
X0200619Y0058092D01*
X0198894Y0058806D01*
X0197027Y0058806D01*
X0195302Y0058092D01*
X0193981Y0056771D01*
X0193267Y0055046D01*
X0193267Y0053179D01*
X0193981Y0051454D01*
X0195302Y0050134D01*
X0197027Y0049419D01*
X0198894Y0049419D01*
X0198354Y0048766D02*
X0197567Y0048766D01*
X0197567Y0047980D02*
X0198354Y0047980D01*
X0198354Y0047194D02*
X0197567Y0047194D01*
X0197567Y0046408D02*
X0198354Y0046408D01*
X0198354Y0045622D02*
X0197567Y0045622D01*
X0197567Y0044836D02*
X0198354Y0044836D01*
X0202983Y0043264D02*
X0203777Y0043264D01*
X0202991Y0042478D02*
X0202785Y0042478D01*
X0199847Y0039335D02*
X0199739Y0039335D01*
X0205666Y0034619D02*
X0218690Y0034619D01*
X0218924Y0034386D02*
X0217604Y0035706D01*
X0216889Y0037431D01*
X0216889Y0039298D01*
X0217604Y0041023D01*
X0218924Y0042344D01*
X0220649Y0043058D01*
X0222516Y0043058D01*
X0224241Y0042344D01*
X0225562Y0041023D01*
X0226276Y0039298D01*
X0226276Y0037431D01*
X0225562Y0035706D01*
X0224241Y0034386D01*
X0222516Y0033671D01*
X0220649Y0033671D01*
X0218924Y0034386D01*
X0217904Y0035405D02*
X0206452Y0035405D01*
X0207238Y0036191D02*
X0217403Y0036191D01*
X0217077Y0036977D02*
X0208024Y0036977D01*
X0208809Y0037763D02*
X0216889Y0037763D01*
X0216889Y0038549D02*
X0209595Y0038549D01*
X0210381Y0039335D02*
X0216904Y0039335D01*
X0217230Y0040121D02*
X0211167Y0040121D01*
X0211953Y0040907D02*
X0217555Y0040907D01*
X0218273Y0041692D02*
X0212739Y0041692D01*
X0213525Y0042478D02*
X0219249Y0042478D01*
X0216873Y0044836D02*
X0232150Y0044836D01*
X0232150Y0044050D02*
X0216087Y0044050D01*
X0214311Y0043264D02*
X0232150Y0043264D01*
X0232150Y0042478D02*
X0223917Y0042478D01*
X0224893Y0041692D02*
X0232150Y0041692D01*
X0232150Y0040907D02*
X0225610Y0040907D01*
X0225936Y0040121D02*
X0232150Y0040121D01*
X0232150Y0039335D02*
X0226261Y0039335D01*
X0226276Y0038549D02*
X0232150Y0038549D01*
X0232150Y0037763D02*
X0226276Y0037763D01*
X0226088Y0036977D02*
X0232150Y0036977D01*
X0232150Y0036191D02*
X0225763Y0036191D01*
X0225261Y0035405D02*
X0232150Y0035405D01*
X0232150Y0034619D02*
X0224475Y0034619D01*
X0222908Y0033833D02*
X0232150Y0033833D01*
X0232150Y0033047D02*
X0222543Y0033047D01*
X0222516Y0033058D02*
X0220649Y0033058D01*
X0218924Y0032344D01*
X0217604Y0031023D01*
X0216889Y0029298D01*
X0216889Y0027431D01*
X0217604Y0025706D01*
X0218924Y0024386D01*
X0220649Y0023671D01*
X0222516Y0023671D01*
X0224241Y0024386D01*
X0225562Y0025706D01*
X0226276Y0027431D01*
X0226276Y0029298D01*
X0225562Y0031023D01*
X0224241Y0032344D01*
X0222516Y0033058D01*
X0220623Y0033047D02*
X0204094Y0033047D01*
X0203308Y0032261D02*
X0218842Y0032261D01*
X0218056Y0031476D02*
X0202522Y0031476D01*
X0201736Y0030690D02*
X0217465Y0030690D01*
X0217140Y0029904D02*
X0200950Y0029904D01*
X0200164Y0029118D02*
X0216889Y0029118D01*
X0216889Y0028332D02*
X0199379Y0028332D01*
X0198593Y0027546D02*
X0216889Y0027546D01*
X0217167Y0026760D02*
X0197807Y0026760D01*
X0197021Y0025974D02*
X0217492Y0025974D01*
X0218121Y0025188D02*
X0196235Y0025188D01*
X0195449Y0024402D02*
X0218907Y0024402D01*
X0224258Y0024402D02*
X0232150Y0024402D01*
X0232150Y0023616D02*
X0194663Y0023616D01*
X0193877Y0022831D02*
X0232150Y0022831D01*
X0232150Y0022045D02*
X0193091Y0022045D01*
X0192305Y0021259D02*
X0232150Y0021259D01*
X0232150Y0020473D02*
X0191519Y0020473D01*
X0190733Y0019687D02*
X0232150Y0019687D01*
X0232150Y0018901D02*
X0189948Y0018901D01*
X0189162Y0018115D02*
X0232150Y0018115D01*
X0232150Y0017329D02*
X0188376Y0017329D01*
X0194346Y0033833D02*
X0179620Y0033833D01*
X0190936Y0047194D02*
X0193903Y0047194D01*
X0193413Y0046408D02*
X0192712Y0046408D01*
X0194624Y0047980D02*
X0190151Y0047980D01*
X0189365Y0048766D02*
X0195873Y0048766D01*
X0196707Y0049552D02*
X0188579Y0049552D01*
X0187793Y0050337D02*
X0195098Y0050337D01*
X0194312Y0051123D02*
X0187007Y0051123D01*
X0186221Y0051909D02*
X0193793Y0051909D01*
X0193467Y0052695D02*
X0185435Y0052695D01*
X0184649Y0053481D02*
X0193267Y0053481D01*
X0193267Y0054267D02*
X0183863Y0054267D01*
X0183077Y0055053D02*
X0193270Y0055053D01*
X0193595Y0055839D02*
X0182291Y0055839D01*
X0181505Y0056625D02*
X0193921Y0056625D01*
X0194621Y0057411D02*
X0180720Y0057411D01*
X0179934Y0058197D02*
X0195555Y0058197D01*
X0196005Y0059392D02*
X0196768Y0059144D01*
X0197560Y0059019D01*
X0197567Y0059019D01*
X0197567Y0063719D01*
X0198354Y0063719D01*
X0198354Y0059019D01*
X0198362Y0059019D01*
X0199153Y0059144D01*
X0199916Y0059392D01*
X0200630Y0059756D01*
X0201279Y0060227D01*
X0201846Y0060794D01*
X0202317Y0061443D01*
X0202681Y0062157D01*
X0202929Y0062920D01*
X0203054Y0063712D01*
X0203054Y0063719D01*
X0198354Y0063719D01*
X0198354Y0064506D01*
X0203054Y0064506D01*
X0203054Y0064514D01*
X0202929Y0065305D01*
X0202681Y0066068D01*
X0202317Y0066782D01*
X0201846Y0067431D01*
X0201279Y0067998D01*
X0200630Y0068469D01*
X0199916Y0068833D01*
X0199153Y0069081D01*
X0198362Y0069206D01*
X0198354Y0069206D01*
X0198354Y0064506D01*
X0197567Y0064506D01*
X0197567Y0063719D01*
X0192867Y0063719D01*
X0192867Y0063712D01*
X0192992Y0062920D01*
X0193240Y0062157D01*
X0193604Y0061443D01*
X0194075Y0060794D01*
X0194642Y0060227D01*
X0195291Y0059756D01*
X0196005Y0059392D01*
X0195274Y0059768D02*
X0178362Y0059768D01*
X0179148Y0058983D02*
X0213965Y0058983D01*
X0213965Y0059768D02*
X0200647Y0059768D01*
X0201606Y0060554D02*
X0213965Y0060554D01*
X0213965Y0061340D02*
X0202242Y0061340D01*
X0202665Y0062126D02*
X0213965Y0062126D01*
X0213965Y0062912D02*
X0202926Y0062912D01*
X0203052Y0063698D02*
X0213965Y0063698D01*
X0213965Y0064484D02*
X0198354Y0064484D01*
X0198354Y0065270D02*
X0197567Y0065270D01*
X0197567Y0064506D02*
X0197567Y0069206D01*
X0197560Y0069206D01*
X0196768Y0069081D01*
X0196005Y0068833D01*
X0195291Y0068469D01*
X0194642Y0067998D01*
X0194075Y0067431D01*
X0193604Y0066782D01*
X0193240Y0066068D01*
X0192992Y0065305D01*
X0192867Y0064514D01*
X0192867Y0064506D01*
X0197567Y0064506D01*
X0197567Y0064484D02*
X0173646Y0064484D01*
X0172860Y0065270D02*
X0192987Y0065270D01*
X0193236Y0066056D02*
X0172075Y0066056D01*
X0171289Y0066842D02*
X0193647Y0066842D01*
X0194272Y0067628D02*
X0170503Y0067628D01*
X0169717Y0068413D02*
X0195214Y0068413D01*
X0195660Y0069985D02*
X0168145Y0069985D01*
X0168931Y0069199D02*
X0197516Y0069199D01*
X0197567Y0069199D02*
X0198354Y0069199D01*
X0198406Y0069199D02*
X0215337Y0069199D01*
X0214551Y0068413D02*
X0200707Y0068413D01*
X0201649Y0067628D02*
X0213965Y0067628D01*
X0213965Y0066842D02*
X0202274Y0066842D01*
X0202685Y0066056D02*
X0213965Y0066056D01*
X0213965Y0065270D02*
X0202935Y0065270D01*
X0198354Y0066056D02*
X0197567Y0066056D01*
X0197567Y0066842D02*
X0198354Y0066842D01*
X0198354Y0067628D02*
X0197567Y0067628D01*
X0197567Y0068413D02*
X0198354Y0068413D01*
X0200261Y0069985D02*
X0216123Y0069985D01*
X0216381Y0070771D02*
X0201257Y0070771D01*
X0201982Y0071557D02*
X0216102Y0071557D01*
X0216102Y0072343D02*
X0202308Y0072343D01*
X0202634Y0073129D02*
X0216102Y0073129D01*
X0216350Y0073915D02*
X0202654Y0073915D01*
X0202654Y0074701D02*
X0216676Y0074701D01*
X0217264Y0075487D02*
X0202472Y0075487D01*
X0202146Y0076273D02*
X0218050Y0076273D01*
X0219824Y0077059D02*
X0201653Y0077059D01*
X0200867Y0077844D02*
X0219481Y0077844D01*
X0217907Y0078630D02*
X0200813Y0078630D01*
X0201599Y0079416D02*
X0217122Y0079416D01*
X0216617Y0080202D02*
X0202385Y0080202D01*
X0203171Y0080988D02*
X0216292Y0080988D01*
X0216440Y0084132D02*
X0198354Y0084132D01*
X0198354Y0084918D02*
X0197567Y0084918D01*
X0197567Y0085704D02*
X0198354Y0085704D01*
X0198354Y0086489D02*
X0197567Y0086489D01*
X0197567Y0087275D02*
X0198354Y0087275D01*
X0198354Y0088061D02*
X0197567Y0088061D01*
X0197567Y0088847D02*
X0198354Y0088847D01*
X0202466Y0086489D02*
X0218450Y0086489D01*
X0217481Y0085704D02*
X0202800Y0085704D01*
X0202990Y0084918D02*
X0216766Y0084918D01*
X0222633Y0088061D02*
X0222660Y0088061D01*
X0227803Y0083346D02*
X0232150Y0083346D01*
X0232150Y0082560D02*
X0227803Y0082560D01*
X0227803Y0081774D02*
X0232150Y0081774D01*
X0232150Y0080988D02*
X0227803Y0080988D01*
X0227803Y0080202D02*
X0232150Y0080202D01*
X0232150Y0079416D02*
X0227803Y0079416D01*
X0227803Y0078630D02*
X0232150Y0078630D01*
X0232150Y0077844D02*
X0227803Y0077844D01*
X0227803Y0077059D02*
X0232150Y0077059D01*
X0232150Y0076273D02*
X0227803Y0076273D01*
X0227803Y0075487D02*
X0232150Y0075487D01*
X0232150Y0074701D02*
X0227803Y0074701D01*
X0227803Y0073915D02*
X0232150Y0073915D01*
X0232150Y0073129D02*
X0227803Y0073129D01*
X0227803Y0072343D02*
X0232150Y0072343D01*
X0232150Y0071557D02*
X0227803Y0071557D01*
X0227803Y0070771D02*
X0232150Y0070771D01*
X0232150Y0069985D02*
X0227803Y0069985D01*
X0227803Y0069199D02*
X0232150Y0069199D01*
X0232150Y0068413D02*
X0227803Y0068413D01*
X0227803Y0067628D02*
X0232150Y0067628D01*
X0232150Y0066842D02*
X0227803Y0066842D01*
X0227803Y0066056D02*
X0232150Y0066056D01*
X0232150Y0065270D02*
X0227803Y0065270D01*
X0227803Y0064484D02*
X0232150Y0064484D01*
X0232150Y0063698D02*
X0227803Y0063698D01*
X0227803Y0062912D02*
X0232150Y0062912D01*
X0232150Y0062126D02*
X0227803Y0062126D01*
X0227803Y0061340D02*
X0232150Y0061340D01*
X0232150Y0060554D02*
X0227803Y0060554D01*
X0227690Y0059768D02*
X0232150Y0059768D01*
X0232150Y0058983D02*
X0226904Y0058983D01*
X0226118Y0058197D02*
X0232150Y0058197D01*
X0232150Y0057411D02*
X0225332Y0057411D01*
X0224546Y0056625D02*
X0232150Y0056625D01*
X0232150Y0055839D02*
X0223760Y0055839D01*
X0222975Y0055053D02*
X0232150Y0055053D01*
X0232150Y0054267D02*
X0222189Y0054267D01*
X0221403Y0053481D02*
X0232150Y0053481D01*
X0232150Y0052695D02*
X0220617Y0052695D01*
X0219831Y0051909D02*
X0232150Y0051909D01*
X0232150Y0051123D02*
X0219045Y0051123D01*
X0218259Y0050337D02*
X0232150Y0050337D01*
X0232150Y0049552D02*
X0217473Y0049552D01*
X0216687Y0048766D02*
X0232150Y0048766D01*
X0232150Y0047980D02*
X0216140Y0047980D01*
X0216926Y0047194D02*
X0232150Y0047194D01*
X0232150Y0046408D02*
X0217253Y0046408D01*
X0217253Y0045622D02*
X0232150Y0045622D01*
X0213965Y0053481D02*
X0202654Y0053481D01*
X0202654Y0054267D02*
X0213965Y0054267D01*
X0213965Y0055053D02*
X0202652Y0055053D01*
X0202326Y0055839D02*
X0213965Y0055839D01*
X0213965Y0056625D02*
X0202001Y0056625D01*
X0201301Y0057411D02*
X0213965Y0057411D01*
X0213965Y0058197D02*
X0200366Y0058197D01*
X0198354Y0059768D02*
X0197567Y0059768D01*
X0197567Y0060554D02*
X0198354Y0060554D01*
X0198354Y0061340D02*
X0197567Y0061340D01*
X0197567Y0062126D02*
X0198354Y0062126D01*
X0198354Y0062912D02*
X0197567Y0062912D01*
X0197567Y0063698D02*
X0198354Y0063698D01*
X0194315Y0060554D02*
X0177576Y0060554D01*
X0176790Y0061340D02*
X0193679Y0061340D01*
X0193256Y0062126D02*
X0176004Y0062126D01*
X0175218Y0062912D02*
X0192995Y0062912D01*
X0192869Y0063698D02*
X0174432Y0063698D01*
X0170792Y0060554D02*
X0150701Y0060554D01*
X0151487Y0059768D02*
X0171578Y0059768D01*
X0172364Y0058983D02*
X0152273Y0058983D01*
X0149915Y0061340D02*
X0170006Y0061340D01*
X0169220Y0062126D02*
X0149129Y0062126D01*
X0148343Y0062912D02*
X0168434Y0062912D01*
X0167359Y0070771D02*
X0194664Y0070771D01*
X0193939Y0071557D02*
X0166573Y0071557D01*
X0165787Y0072343D02*
X0193613Y0072343D01*
X0221767Y0077059D02*
X0225215Y0077059D01*
X0225215Y0077844D02*
X0222110Y0077844D01*
X0223683Y0078630D02*
X0225215Y0078630D01*
X0225215Y0079416D02*
X0224469Y0079416D01*
X0224973Y0080202D02*
X0225215Y0080202D01*
X0225215Y0076273D02*
X0223541Y0076273D01*
X0224327Y0075487D02*
X0225215Y0075487D01*
X0225215Y0074701D02*
X0224915Y0074701D01*
X0213208Y0052695D02*
X0202454Y0052695D01*
X0202128Y0051909D02*
X0212422Y0051909D01*
X0211636Y0051123D02*
X0201609Y0051123D01*
X0200823Y0050337D02*
X0210850Y0050337D01*
X0204880Y0033833D02*
X0220257Y0033833D01*
X0224324Y0032261D02*
X0232150Y0032261D01*
X0232150Y0031476D02*
X0225110Y0031476D01*
X0225700Y0030690D02*
X0232150Y0030690D01*
X0232150Y0029904D02*
X0226026Y0029904D01*
X0226276Y0029118D02*
X0232150Y0029118D01*
X0232150Y0028332D02*
X0226276Y0028332D01*
X0226276Y0027546D02*
X0232150Y0027546D01*
X0232150Y0026760D02*
X0225998Y0026760D01*
X0225673Y0025974D02*
X0232150Y0025974D01*
X0232150Y0025188D02*
X0225044Y0025188D01*
X0232150Y0016543D02*
X0016528Y0016543D01*
X0016528Y0015757D02*
X0232150Y0015757D01*
X0151081Y0047980D02*
X0098503Y0047980D01*
X0098562Y0048766D02*
X0151096Y0048766D01*
X0150436Y0049552D02*
X0099348Y0049552D01*
X0100134Y0050337D02*
X0128769Y0050337D01*
X0131749Y0050337D02*
X0149394Y0050337D01*
X0148608Y0051123D02*
X0132253Y0051123D01*
X0132253Y0051909D02*
X0148265Y0051909D01*
X0148265Y0052695D02*
X0132050Y0052695D01*
X0131264Y0053481D02*
X0148629Y0053481D01*
X0150295Y0047194D02*
X0097980Y0047194D01*
X0095037Y0047194D02*
X0093865Y0047194D01*
X0093079Y0046408D02*
X0141143Y0046408D01*
X0140357Y0045622D02*
X0092803Y0045622D01*
X0092803Y0044836D02*
X0139571Y0044836D01*
X0138785Y0044050D02*
X0092803Y0044050D01*
X0092803Y0043264D02*
X0137999Y0043264D01*
X0137213Y0042478D02*
X0092803Y0042478D01*
X0092803Y0041692D02*
X0136427Y0041692D01*
X0135641Y0040907D02*
X0092803Y0040907D01*
X0092803Y0040121D02*
X0121258Y0040121D01*
X0120472Y0039335D02*
X0092803Y0039335D01*
X0092803Y0038549D02*
X0118696Y0038549D01*
X0118265Y0037763D02*
X0092803Y0037763D01*
X0092803Y0036977D02*
X0104153Y0036977D01*
X0103367Y0036191D02*
X0092803Y0036191D01*
X0092803Y0035405D02*
X0102581Y0035405D01*
X0101795Y0034619D02*
X0092803Y0034619D01*
X0092803Y0033833D02*
X0101009Y0033833D01*
X0100223Y0033047D02*
X0092803Y0033047D01*
X0093109Y0032261D02*
X0099437Y0032261D01*
X0098931Y0031476D02*
X0093503Y0031476D01*
X0093691Y0030690D02*
X0098931Y0030690D01*
X0098931Y0029904D02*
X0094477Y0029904D01*
X0094678Y0029118D02*
X0098931Y0029118D01*
X0098931Y0028332D02*
X0094678Y0028332D01*
X0094678Y0027546D02*
X0098931Y0027546D01*
X0098931Y0026760D02*
X0094678Y0026760D01*
X0094678Y0025974D02*
X0098931Y0025974D01*
X0098931Y0025188D02*
X0094678Y0025188D01*
X0094718Y0024402D02*
X0098931Y0024402D01*
X0098931Y0023616D02*
X0095378Y0023616D01*
X0095378Y0022831D02*
X0098733Y0022831D01*
X0098142Y0022045D02*
X0095331Y0022045D01*
X0094545Y0021259D02*
X0098142Y0021259D01*
X0098183Y0020473D02*
X0016528Y0020473D01*
X0016528Y0021259D02*
X0055347Y0021259D01*
X0055683Y0020923D02*
X0057335Y0020923D01*
X0058503Y0022091D01*
X0058503Y0023743D01*
X0058103Y0024143D01*
X0058103Y0086691D01*
X0058503Y0087091D01*
X0058503Y0088743D01*
X0058103Y0089143D01*
X0058103Y0092941D01*
X0058503Y0093341D01*
X0058503Y0094993D01*
X0057335Y0096161D01*
X0055683Y0096161D01*
X0054515Y0094993D01*
X0054515Y0093341D01*
X0054915Y0092941D01*
X0054915Y0089143D01*
X0054515Y0088743D01*
X0054515Y0087091D01*
X0054915Y0086691D01*
X0054915Y0024143D01*
X0054515Y0023743D01*
X0054515Y0022091D01*
X0055683Y0020923D01*
X0054562Y0022045D02*
X0016528Y0022045D01*
X0016528Y0022831D02*
X0054515Y0022831D01*
X0054515Y0023616D02*
X0016528Y0023616D01*
X0016528Y0024402D02*
X0054915Y0024402D01*
X0054915Y0025188D02*
X0016528Y0025188D01*
X0016528Y0025974D02*
X0054915Y0025974D01*
X0054915Y0026760D02*
X0016528Y0026760D01*
X0016528Y0027546D02*
X0054915Y0027546D01*
X0054915Y0028332D02*
X0016528Y0028332D01*
X0016528Y0029118D02*
X0054915Y0029118D01*
X0054915Y0029904D02*
X0016528Y0029904D01*
X0016528Y0030690D02*
X0054915Y0030690D01*
X0054915Y0031476D02*
X0016528Y0031476D01*
X0016528Y0032261D02*
X0054915Y0032261D01*
X0054915Y0033047D02*
X0016528Y0033047D01*
X0016528Y0033833D02*
X0054915Y0033833D01*
X0054915Y0034619D02*
X0016528Y0034619D01*
X0016528Y0035405D02*
X0054915Y0035405D01*
X0054915Y0036191D02*
X0016528Y0036191D01*
X0016528Y0036977D02*
X0054915Y0036977D01*
X0054915Y0037763D02*
X0016528Y0037763D01*
X0016528Y0038549D02*
X0054915Y0038549D01*
X0054915Y0039335D02*
X0016528Y0039335D01*
X0016528Y0040121D02*
X0054915Y0040121D01*
X0054915Y0040907D02*
X0016528Y0040907D01*
X0016528Y0041692D02*
X0054915Y0041692D01*
X0054915Y0042478D02*
X0016528Y0042478D01*
X0016528Y0043264D02*
X0054915Y0043264D01*
X0054915Y0044050D02*
X0016528Y0044050D01*
X0016528Y0044836D02*
X0054915Y0044836D01*
X0054915Y0045622D02*
X0016528Y0045622D01*
X0016528Y0046408D02*
X0054915Y0046408D01*
X0054915Y0047194D02*
X0016528Y0047194D01*
X0016528Y0047980D02*
X0054915Y0047980D01*
X0054915Y0048766D02*
X0016528Y0048766D01*
X0016528Y0049552D02*
X0028207Y0049552D01*
X0028801Y0049306D02*
X0026571Y0050229D01*
X0024865Y0051936D01*
X0023941Y0054166D01*
X0023941Y0056579D01*
X0024865Y0058809D01*
X0026571Y0060516D01*
X0028801Y0061439D01*
X0031215Y0061439D01*
X0033445Y0060516D01*
X0035151Y0058809D01*
X0036075Y0056579D01*
X0036075Y0054166D01*
X0035151Y0051936D01*
X0033445Y0050229D01*
X0031215Y0049306D01*
X0028801Y0049306D01*
X0026463Y0050337D02*
X0016528Y0050337D01*
X0016528Y0051123D02*
X0025677Y0051123D01*
X0024891Y0051909D02*
X0016528Y0051909D01*
X0016528Y0052695D02*
X0024550Y0052695D01*
X0024225Y0053481D02*
X0016528Y0053481D01*
X0016528Y0054267D02*
X0023941Y0054267D01*
X0023941Y0055053D02*
X0016528Y0055053D01*
X0016528Y0055839D02*
X0023941Y0055839D01*
X0023960Y0056625D02*
X0016528Y0056625D01*
X0016528Y0057411D02*
X0024285Y0057411D01*
X0024611Y0058197D02*
X0016528Y0058197D01*
X0016528Y0058983D02*
X0025038Y0058983D01*
X0025824Y0059768D02*
X0016528Y0059768D01*
X0016528Y0060554D02*
X0026664Y0060554D01*
X0028562Y0061340D02*
X0016528Y0061340D01*
X0016528Y0062126D02*
X0054915Y0062126D01*
X0054915Y0061340D02*
X0031454Y0061340D01*
X0033352Y0060554D02*
X0054915Y0060554D01*
X0054915Y0059768D02*
X0034192Y0059768D01*
X0034978Y0058983D02*
X0054915Y0058983D01*
X0054915Y0058197D02*
X0035405Y0058197D01*
X0035730Y0057411D02*
X0054915Y0057411D01*
X0054915Y0056625D02*
X0036056Y0056625D01*
X0036075Y0055839D02*
X0054915Y0055839D01*
X0054915Y0055053D02*
X0036075Y0055053D01*
X0036075Y0054267D02*
X0054915Y0054267D01*
X0054915Y0053481D02*
X0035791Y0053481D01*
X0035466Y0052695D02*
X0054915Y0052695D01*
X0054915Y0051909D02*
X0035125Y0051909D01*
X0034339Y0051123D02*
X0054915Y0051123D01*
X0054915Y0050337D02*
X0033553Y0050337D01*
X0031808Y0049552D02*
X0054915Y0049552D01*
X0058103Y0047980D02*
X0090992Y0047980D01*
X0090215Y0047194D02*
X0058103Y0047194D01*
X0058103Y0046408D02*
X0090215Y0046408D01*
X0090215Y0045622D02*
X0058103Y0045622D01*
X0058103Y0044836D02*
X0090215Y0044836D01*
X0090215Y0044050D02*
X0058103Y0044050D01*
X0058103Y0043264D02*
X0090215Y0043264D01*
X0090215Y0042478D02*
X0058103Y0042478D01*
X0058103Y0041692D02*
X0090215Y0041692D01*
X0090215Y0040907D02*
X0058103Y0040907D01*
X0058103Y0040121D02*
X0090215Y0040121D01*
X0090215Y0039335D02*
X0058103Y0039335D01*
X0058103Y0038549D02*
X0090215Y0038549D01*
X0090215Y0037763D02*
X0058103Y0037763D01*
X0058103Y0036977D02*
X0090215Y0036977D01*
X0090215Y0036191D02*
X0058103Y0036191D01*
X0058103Y0035405D02*
X0090215Y0035405D01*
X0090215Y0034619D02*
X0058103Y0034619D01*
X0058103Y0033833D02*
X0090215Y0033833D01*
X0090215Y0033047D02*
X0058103Y0033047D01*
X0058103Y0032261D02*
X0089909Y0032261D01*
X0089515Y0031476D02*
X0058103Y0031476D01*
X0058103Y0030690D02*
X0089515Y0030690D01*
X0089827Y0029904D02*
X0058103Y0029904D01*
X0058103Y0029118D02*
X0090613Y0029118D01*
X0092090Y0028332D02*
X0058103Y0028332D01*
X0058103Y0027546D02*
X0092090Y0027546D01*
X0092090Y0026760D02*
X0058103Y0026760D01*
X0058103Y0025974D02*
X0092090Y0025974D01*
X0092090Y0025188D02*
X0058103Y0025188D01*
X0058103Y0024402D02*
X0092050Y0024402D01*
X0091390Y0023616D02*
X0058503Y0023616D01*
X0058503Y0022831D02*
X0091390Y0022831D01*
X0091437Y0022045D02*
X0058456Y0022045D01*
X0057670Y0021259D02*
X0092222Y0021259D01*
X0098969Y0019687D02*
X0016528Y0019687D01*
X0016528Y0018901D02*
X0106195Y0018901D01*
X0105409Y0019687D02*
X0101480Y0019687D01*
X0102266Y0020473D02*
X0105215Y0020473D01*
X0105215Y0021259D02*
X0102307Y0021259D01*
X0102307Y0022045D02*
X0105215Y0022045D01*
X0105215Y0022831D02*
X0101716Y0022831D01*
X0101518Y0023616D02*
X0105215Y0023616D01*
X0105215Y0024402D02*
X0101518Y0024402D01*
X0101518Y0025188D02*
X0105215Y0025188D01*
X0105215Y0025974D02*
X0101518Y0025974D01*
X0101518Y0026760D02*
X0105215Y0026760D01*
X0105215Y0027546D02*
X0101518Y0027546D01*
X0101518Y0028332D02*
X0105215Y0028332D01*
X0105215Y0029118D02*
X0101518Y0029118D01*
X0101518Y0029904D02*
X0105215Y0029904D01*
X0105215Y0030690D02*
X0101525Y0030690D01*
X0102311Y0031476D02*
X0105215Y0031476D01*
X0104970Y0032261D02*
X0103096Y0032261D01*
X0103882Y0033047D02*
X0104515Y0033047D01*
X0108048Y0032261D02*
X0111492Y0032261D01*
X0108870Y0033047D02*
X0108503Y0033047D01*
X0108503Y0033833D02*
X0108773Y0033833D01*
X0108773Y0034619D02*
X0108251Y0034619D01*
X0111361Y0035405D02*
X0111800Y0035405D01*
X0111361Y0036191D02*
X0118540Y0036191D01*
X0118265Y0036977D02*
X0111060Y0036977D01*
X0114240Y0035405D02*
X0118965Y0035405D01*
X0118965Y0034619D02*
X0115025Y0034619D01*
X0115102Y0033833D02*
X0118965Y0033833D01*
X0118965Y0033047D02*
X0115102Y0033047D01*
X0114547Y0032261D02*
X0118965Y0032261D01*
X0118965Y0031476D02*
X0107803Y0031476D01*
X0107803Y0030690D02*
X0118965Y0030690D01*
X0118265Y0029904D02*
X0107803Y0029904D01*
X0107803Y0029118D02*
X0115951Y0029118D01*
X0115165Y0028332D02*
X0107803Y0028332D01*
X0107803Y0027546D02*
X0114874Y0027546D01*
X0114874Y0026760D02*
X0107803Y0026760D01*
X0107803Y0025974D02*
X0115215Y0025974D01*
X0116001Y0025188D02*
X0107803Y0025188D01*
X0107803Y0024402D02*
X0119483Y0024402D01*
X0118697Y0025188D02*
X0117912Y0025188D01*
X0117379Y0023616D02*
X0122879Y0023616D01*
X0115639Y0023616D02*
X0107803Y0023616D01*
X0107803Y0022831D02*
X0107978Y0022831D01*
X0110040Y0022831D02*
X0114853Y0022831D01*
X0106981Y0018115D02*
X0016528Y0018115D01*
X0016528Y0017329D02*
X0107767Y0017329D01*
X0117962Y0029118D02*
X0118265Y0029118D01*
X0066739Y0058983D02*
X0063103Y0058983D01*
X0063103Y0059768D02*
X0065953Y0059768D01*
X0065167Y0060554D02*
X0063103Y0060554D01*
X0063103Y0061340D02*
X0064381Y0061340D01*
X0063595Y0062126D02*
X0063103Y0062126D01*
X0054915Y0062912D02*
X0016528Y0062912D01*
X0016528Y0063698D02*
X0054915Y0063698D01*
X0054915Y0064484D02*
X0031740Y0064484D01*
X0031215Y0064266D02*
X0033445Y0065190D01*
X0035151Y0066897D01*
X0036075Y0069126D01*
X0036075Y0071540D01*
X0035151Y0073770D01*
X0033445Y0075476D01*
X0031215Y0076400D01*
X0028801Y0076400D01*
X0026571Y0075476D01*
X0024865Y0073770D01*
X0023941Y0071540D01*
X0023941Y0069126D01*
X0024865Y0066897D01*
X0026571Y0065190D01*
X0028801Y0064266D01*
X0031215Y0064266D01*
X0033524Y0065270D02*
X0054915Y0065270D01*
X0054915Y0066056D02*
X0046471Y0066056D01*
X0046758Y0066343D02*
X0049087Y0066343D01*
X0052235Y0069491D01*
X0053351Y0069491D01*
X0054571Y0070711D01*
X0054571Y0072436D01*
X0053351Y0073656D01*
X0051626Y0073656D01*
X0050406Y0072436D01*
X0050406Y0071320D01*
X0048015Y0068930D01*
X0046758Y0068930D01*
X0045969Y0069719D01*
X0044244Y0069719D01*
X0043024Y0068499D01*
X0043024Y0066774D01*
X0044244Y0065554D01*
X0045969Y0065554D01*
X0046758Y0066343D01*
X0049586Y0066842D02*
X0054915Y0066842D01*
X0054915Y0067628D02*
X0050372Y0067628D01*
X0051158Y0068413D02*
X0054915Y0068413D01*
X0054915Y0069199D02*
X0051944Y0069199D01*
X0053846Y0069985D02*
X0054915Y0069985D01*
X0054915Y0070771D02*
X0054571Y0070771D01*
X0054571Y0071557D02*
X0054915Y0071557D01*
X0054915Y0072343D02*
X0054571Y0072343D01*
X0054915Y0073129D02*
X0053878Y0073129D01*
X0054915Y0073915D02*
X0035006Y0073915D01*
X0035417Y0073129D02*
X0051098Y0073129D01*
X0050406Y0072343D02*
X0035742Y0072343D01*
X0036068Y0071557D02*
X0050406Y0071557D01*
X0049857Y0070771D02*
X0036075Y0070771D01*
X0036075Y0069985D02*
X0049071Y0069985D01*
X0048285Y0069199D02*
X0046489Y0069199D01*
X0043724Y0069199D02*
X0036075Y0069199D01*
X0035779Y0068413D02*
X0043024Y0068413D01*
X0043024Y0067628D02*
X0035454Y0067628D01*
X0035096Y0066842D02*
X0043024Y0066842D01*
X0043742Y0066056D02*
X0034310Y0066056D01*
X0028276Y0064484D02*
X0016528Y0064484D01*
X0016528Y0065270D02*
X0026491Y0065270D01*
X0025705Y0066056D02*
X0016528Y0066056D01*
X0016528Y0066842D02*
X0024919Y0066842D01*
X0024562Y0067628D02*
X0016528Y0067628D01*
X0016528Y0068413D02*
X0024236Y0068413D01*
X0023941Y0069199D02*
X0016528Y0069199D01*
X0016528Y0069985D02*
X0023941Y0069985D01*
X0023941Y0070771D02*
X0016528Y0070771D01*
X0016528Y0071557D02*
X0023948Y0071557D01*
X0024274Y0072343D02*
X0016528Y0072343D01*
X0016528Y0073129D02*
X0024599Y0073129D01*
X0025010Y0073915D02*
X0016528Y0073915D01*
X0016528Y0074701D02*
X0025796Y0074701D01*
X0026596Y0075487D02*
X0016528Y0075487D01*
X0016528Y0076273D02*
X0028493Y0076273D01*
X0031522Y0076273D02*
X0054915Y0076273D01*
X0054915Y0077059D02*
X0016528Y0077059D01*
X0016528Y0077844D02*
X0054915Y0077844D01*
X0054915Y0078630D02*
X0016528Y0078630D01*
X0016528Y0079416D02*
X0054915Y0079416D01*
X0054915Y0080202D02*
X0016528Y0080202D01*
X0016528Y0080988D02*
X0054915Y0080988D01*
X0054915Y0081774D02*
X0016528Y0081774D01*
X0016528Y0082560D02*
X0054915Y0082560D01*
X0054915Y0083346D02*
X0016528Y0083346D01*
X0016528Y0084132D02*
X0054915Y0084132D01*
X0054915Y0084918D02*
X0016528Y0084918D01*
X0016528Y0085704D02*
X0054915Y0085704D01*
X0054915Y0086489D02*
X0016528Y0086489D01*
X0016528Y0087275D02*
X0054515Y0087275D01*
X0054515Y0088061D02*
X0016528Y0088061D01*
X0016528Y0088847D02*
X0054620Y0088847D01*
X0054915Y0089633D02*
X0016528Y0089633D01*
X0016528Y0090419D02*
X0054915Y0090419D01*
X0054915Y0091205D02*
X0016528Y0091205D01*
X0016528Y0091991D02*
X0054915Y0091991D01*
X0054915Y0092777D02*
X0016528Y0092777D01*
X0016528Y0093563D02*
X0054515Y0093563D01*
X0054515Y0094349D02*
X0016528Y0094349D01*
X0016528Y0095135D02*
X0054657Y0095135D01*
X0055443Y0095920D02*
X0016528Y0095920D01*
X0016528Y0096706D02*
X0081298Y0096706D01*
X0081215Y0096790D02*
X0082134Y0095871D01*
X0083334Y0095373D01*
X0084634Y0095373D01*
X0085835Y0095871D01*
X0086754Y0096790D01*
X0087251Y0097990D01*
X0087251Y0099290D01*
X0086754Y0100491D01*
X0085835Y0101410D01*
X0084634Y0101907D01*
X0083334Y0101907D01*
X0082134Y0101410D01*
X0081215Y0100491D01*
X0080717Y0099290D01*
X0080717Y0097990D01*
X0081215Y0096790D01*
X0080924Y0097492D02*
X0016528Y0097492D01*
X0016528Y0098278D02*
X0080717Y0098278D01*
X0080717Y0099064D02*
X0016528Y0099064D01*
X0016528Y0099850D02*
X0080949Y0099850D01*
X0081360Y0100636D02*
X0016528Y0100636D01*
X0016528Y0101422D02*
X0082163Y0101422D01*
X0085806Y0101422D02*
X0128184Y0101422D01*
X0127398Y0100636D02*
X0086609Y0100636D01*
X0087019Y0099850D02*
X0126612Y0099850D01*
X0125827Y0099064D02*
X0087251Y0099064D01*
X0087251Y0098278D02*
X0125041Y0098278D01*
X0124255Y0097492D02*
X0087045Y0097492D01*
X0086670Y0096706D02*
X0123469Y0096706D01*
X0122683Y0095920D02*
X0085885Y0095920D01*
X0082084Y0095920D02*
X0057575Y0095920D01*
X0058361Y0095135D02*
X0121897Y0095135D01*
X0121111Y0094349D02*
X0058503Y0094349D01*
X0058503Y0093563D02*
X0120325Y0093563D01*
X0119539Y0092777D02*
X0058103Y0092777D01*
X0058103Y0091991D02*
X0118753Y0091991D01*
X0117967Y0091205D02*
X0058103Y0091205D01*
X0058103Y0090419D02*
X0117181Y0090419D01*
X0116396Y0089633D02*
X0058103Y0089633D01*
X0058398Y0088847D02*
X0115610Y0088847D01*
X0114824Y0088061D02*
X0058503Y0088061D01*
X0058503Y0087275D02*
X0114038Y0087275D01*
X0113252Y0086489D02*
X0058103Y0086489D01*
X0058103Y0085704D02*
X0112466Y0085704D01*
X0111680Y0084918D02*
X0058103Y0084918D01*
X0058103Y0084132D02*
X0110894Y0084132D01*
X0110108Y0083346D02*
X0058103Y0083346D01*
X0058103Y0082560D02*
X0109322Y0082560D01*
X0108536Y0081774D02*
X0058103Y0081774D01*
X0058103Y0080988D02*
X0107751Y0080988D01*
X0106965Y0080202D02*
X0058103Y0080202D01*
X0058103Y0079416D02*
X0059564Y0079416D01*
X0058890Y0078630D02*
X0058103Y0078630D01*
X0058103Y0077844D02*
X0058890Y0077844D01*
X0058923Y0077059D02*
X0058103Y0077059D01*
X0058103Y0076273D02*
X0059590Y0076273D01*
X0059590Y0075487D02*
X0058103Y0075487D01*
X0058103Y0074701D02*
X0059590Y0074701D01*
X0059590Y0073915D02*
X0058103Y0073915D01*
X0058103Y0073129D02*
X0059590Y0073129D01*
X0059590Y0072343D02*
X0058103Y0072343D01*
X0054915Y0074701D02*
X0034220Y0074701D01*
X0033420Y0075487D02*
X0054915Y0075487D01*
X0016528Y0102208D02*
X0128970Y0102208D01*
X0129756Y0102994D02*
X0016528Y0102994D01*
X0016528Y0103780D02*
X0130542Y0103780D01*
X0136966Y0060554D02*
X0147042Y0060554D01*
X0216620Y0104565D02*
X0016528Y0104565D01*
X0016528Y0105351D02*
X0217128Y0105351D01*
X0217914Y0106137D02*
X0016528Y0106137D01*
X0016528Y0106923D02*
X0219497Y0106923D01*
D13*
X0165185Y0088798D03*
X0088413Y0062715D03*
X0071440Y0071573D03*
X0066268Y0069605D03*
X0052488Y0071573D03*
X0049050Y0072564D03*
X0045106Y0067636D03*
X0040185Y0058778D03*
X0068236Y0053857D03*
X0113512Y0047951D03*
X0124831Y0037104D03*
X0113020Y0033680D03*
X0116957Y0027178D03*
X0100224Y0021376D03*
X0096780Y0016131D03*
X0068728Y0027282D03*
X0134673Y0045983D03*
X0167646Y0031711D03*
X0074142Y0079447D03*
D14*
X0071440Y0076745D01*
X0071440Y0071573D01*
X0066760Y0069605D02*
X0066268Y0069605D01*
X0066760Y0069605D02*
X0066760Y0066160D01*
X0070205Y0062715D01*
X0088413Y0062715D01*
X0091509Y0062917D02*
X0091509Y0055417D01*
X0096509Y0054792D02*
X0151509Y0054792D01*
X0171509Y0034792D01*
X0177759Y0034792D01*
X0172134Y0032292D02*
X0194634Y0032292D01*
X0215259Y0052917D01*
X0215259Y0067292D01*
X0220259Y0072292D01*
X0220795Y0072380D01*
X0220795Y0062380D02*
X0220259Y0062292D01*
X0220259Y0056042D01*
X0189634Y0025417D01*
X0167684Y0025417D01*
X0167646Y0025455D01*
X0167646Y0031711D01*
X0169634Y0034792D02*
X0172134Y0032292D01*
X0169634Y0034792D02*
X0160923Y0034792D01*
X0162134Y0040417D02*
X0149634Y0027917D01*
X0144009Y0033542D01*
X0136509Y0033542D01*
X0122134Y0019167D01*
X0115884Y0019167D01*
X0114009Y0021042D01*
X0109009Y0021042D01*
X0106509Y0020417D02*
X0109009Y0017917D01*
X0187134Y0017917D01*
X0215259Y0046042D01*
X0195259Y0037917D02*
X0168384Y0064792D01*
X0114009Y0064792D01*
X0107134Y0071667D01*
X0105259Y0071667D01*
X0110259Y0071667D02*
X0164634Y0071667D01*
X0191509Y0044792D01*
X0159009Y0043542D02*
X0144634Y0043542D01*
X0122759Y0021667D01*
X0116509Y0021667D01*
X0120402Y0025313D02*
X0123846Y0025313D01*
X0125815Y0027282D01*
X0125815Y0036140D01*
X0124831Y0037125D01*
X0124831Y0037104D01*
X0122060Y0039093D02*
X0135657Y0039093D01*
X0142055Y0045491D01*
X0150421Y0045491D01*
X0152390Y0047459D01*
X0152390Y0049428D01*
X0150259Y0051559D01*
X0150259Y0052292D01*
X0153384Y0056042D02*
X0147134Y0062292D01*
X0135884Y0062292D01*
X0130259Y0051667D02*
X0099634Y0051667D01*
X0096509Y0048542D01*
X0096509Y0051667D02*
X0091509Y0046667D01*
X0091509Y0031042D01*
X0093384Y0029167D01*
X0093384Y0022917D01*
X0100224Y0021376D02*
X0100224Y0031219D01*
X0105146Y0036140D01*
X0110067Y0036140D01*
X0110067Y0033680D01*
X0113020Y0033680D01*
X0106509Y0033542D02*
X0106509Y0020417D01*
X0096780Y0016131D02*
X0096780Y0031219D01*
X0113512Y0047951D01*
X0132705Y0047951D01*
X0134673Y0045983D01*
X0122060Y0039093D02*
X0120259Y0037292D01*
X0120259Y0029127D01*
X0118537Y0027178D02*
X0120402Y0025313D01*
X0118537Y0027178D02*
X0116957Y0027178D01*
X0137134Y0031042D02*
X0139634Y0031042D01*
X0140884Y0032292D01*
X0142134Y0032292D01*
X0149009Y0025417D01*
X0167684Y0025417D01*
X0148384Y0024167D02*
X0190259Y0024167D01*
X0226509Y0060417D01*
X0226509Y0086042D01*
X0220259Y0092292D01*
X0220795Y0092380D01*
X0220795Y0082380D02*
X0202734Y0082380D01*
X0199866Y0079513D01*
X0174470Y0079513D01*
X0165185Y0088798D01*
X0131509Y0102917D02*
X0091509Y0062917D01*
X0084634Y0059792D02*
X0067759Y0059792D01*
X0063384Y0064167D01*
X0052488Y0071573D02*
X0048551Y0067636D01*
X0045106Y0067636D01*
X0068236Y0053857D02*
X0068728Y0053365D01*
X0068728Y0027282D01*
X0068728Y0026589D01*
X0068728Y0015963D01*
X0068730Y0015987D01*
X0068735Y0016010D01*
X0068743Y0016033D01*
X0068755Y0016054D01*
X0068769Y0016073D01*
X0068786Y0016090D01*
X0068805Y0016104D01*
X0068826Y0016116D01*
X0068849Y0016124D01*
X0068872Y0016129D01*
X0068896Y0016131D01*
X0096780Y0016131D01*
X0141509Y0029792D02*
X0142759Y0029792D01*
X0148384Y0024167D01*
X0056509Y0087902D02*
X0056509Y0087917D01*
X0131509Y0102917D02*
X0220259Y0102917D01*
X0220795Y0102380D01*
D15*
X0061184Y0077617D02*
X0061184Y0063256D01*
X0061509Y0062931D01*
X0061509Y0051042D01*
X0040185Y0058778D02*
X0040185Y0072558D01*
X0049043Y0072558D01*
X0049050Y0072564D01*
X0060884Y0077917D02*
X0061184Y0077617D01*
X0056509Y0087902D02*
X0056509Y0022917D01*
X0056509Y0087917D02*
X0056509Y0094167D01*
D16*
X0056509Y0094167D03*
X0056509Y0087917D03*
X0060884Y0077917D03*
X0063384Y0064167D03*
X0084634Y0059792D03*
X0091509Y0055417D03*
X0096509Y0054792D03*
X0096509Y0051667D03*
X0096509Y0048542D03*
X0120259Y0037292D03*
X0106509Y0033542D03*
X0120259Y0029127D03*
X0116509Y0021667D03*
X0109009Y0021042D03*
X0093384Y0022917D03*
X0091509Y0031042D03*
X0056509Y0022917D03*
X0061509Y0051042D03*
X0105259Y0071667D03*
X0110259Y0071667D03*
X0135884Y0062292D03*
X0153384Y0056042D03*
X0150259Y0052292D03*
X0159009Y0043542D03*
X0162134Y0040417D03*
X0160923Y0034792D03*
X0149634Y0027917D03*
X0141509Y0029792D03*
X0137134Y0031042D03*
X0130259Y0051667D03*
X0177759Y0034792D03*
X0191509Y0044792D03*
X0195259Y0037917D03*
X0215259Y0046042D03*
M02*
