%
M48
M72
T01C0.0120
T02C0.0335
T03C0.0400
%
T01
X5977Y2715
X6292Y3306
X6883Y2715
X7788Y3581
X7135Y5129
X6497Y5129
X6540Y5599
X7474Y5599
X8939Y5113
X11699Y4046
X12580Y4445
X13308Y5113
X13308Y5125
X13603Y5562
X14052Y5125
X14107Y4707
X13681Y4445
X13849Y3974
X14619Y3479
X15013Y3479
X14985Y3003
X15572Y2758
X15423Y2525
X15022Y2371
X14678Y2321
X13103Y2164
X12237Y2243
X12080Y2833
X11686Y2794
X13849Y3295
X15855Y4123
X16089Y4016
X16107Y4466
X15963Y4825
X15640Y5111
X15283Y5413
X15061Y5565
X14680Y5562
X15623Y5865
X15957Y5478
X16944Y5472
X17192Y5218
X16532Y4799
X15479Y4645
X17161Y4012
X18104Y4251
X18875Y4251
X20401Y3717
X21246Y2871
X22185Y1971
X22185Y917
X19673Y2315
X18071Y2315
X17394Y2400
X16818Y2169
X16770Y2528
X16409Y2703
X16473Y2995
X16152Y3478
X16502Y1385
X16678Y810
X14523Y6264
X17394Y6416
X18511Y7021
X18893Y7354
X18893Y7875
X21109Y7021
X5269Y5195
X4402Y4951
X4104Y5188
X4104Y5492
X3772Y5668
X4402Y5825
X3615Y7794
T02
X8725Y9181
X14632Y9162
X3001Y6203
X3001Y4707
T03
X19796Y6581
X19796Y5581
X19796Y4581
X19796Y3581
X22158Y3006
X22158Y2006
X22080Y5408
X22080Y6408
X22080Y7408
X22080Y8408
X22080Y9408
X19796Y8581
X19796Y7581
M30
