G75*
G70*
%OFA0B0*%
%FSLAX24Y24*%
%IPPOS*%
%LPD*%
%AMOC8*
5,1,8,0,0,1.08239X$1,22.5*
%
%ADD10C,0.0000*%
%ADD11C,0.0455*%
%ADD12C,0.0740*%
%ADD13C,0.0060*%
%ADD14C,0.0200*%
%ADD15C,0.0030*%
%ADD16C,0.0050*%
%ADD17C,0.0041*%
D10*
X001213Y000274D02*
X001213Y010904D01*
X023654Y010904D01*
X023654Y000274D01*
X001213Y000274D01*
X002834Y004707D02*
X002836Y004732D01*
X002842Y004757D01*
X002851Y004781D01*
X002864Y004803D01*
X002881Y004823D01*
X002900Y004840D01*
X002921Y004854D01*
X002945Y004864D01*
X002969Y004871D01*
X002995Y004874D01*
X003020Y004873D01*
X003045Y004868D01*
X003069Y004859D01*
X003092Y004847D01*
X003112Y004832D01*
X003130Y004813D01*
X003145Y004792D01*
X003156Y004769D01*
X003164Y004745D01*
X003168Y004720D01*
X003168Y004694D01*
X003164Y004669D01*
X003156Y004645D01*
X003145Y004622D01*
X003130Y004601D01*
X003112Y004582D01*
X003092Y004567D01*
X003069Y004555D01*
X003045Y004546D01*
X003020Y004541D01*
X002995Y004540D01*
X002969Y004543D01*
X002945Y004550D01*
X002921Y004560D01*
X002900Y004574D01*
X002881Y004591D01*
X002864Y004611D01*
X002851Y004633D01*
X002842Y004657D01*
X002836Y004682D01*
X002834Y004707D01*
X002834Y006203D02*
X002836Y006228D01*
X002842Y006253D01*
X002851Y006277D01*
X002864Y006299D01*
X002881Y006319D01*
X002900Y006336D01*
X002921Y006350D01*
X002945Y006360D01*
X002969Y006367D01*
X002995Y006370D01*
X003020Y006369D01*
X003045Y006364D01*
X003069Y006355D01*
X003092Y006343D01*
X003112Y006328D01*
X003130Y006309D01*
X003145Y006288D01*
X003156Y006265D01*
X003164Y006241D01*
X003168Y006216D01*
X003168Y006190D01*
X003164Y006165D01*
X003156Y006141D01*
X003145Y006118D01*
X003130Y006097D01*
X003112Y006078D01*
X003092Y006063D01*
X003069Y006051D01*
X003045Y006042D01*
X003020Y006037D01*
X002995Y006036D01*
X002969Y006039D01*
X002945Y006046D01*
X002921Y006056D01*
X002900Y006070D01*
X002881Y006087D01*
X002864Y006107D01*
X002851Y006129D01*
X002842Y006153D01*
X002836Y006178D01*
X002834Y006203D01*
D11*
X008725Y009181D03*
X014632Y009162D03*
D12*
X019796Y008581D03*
X019796Y007581D03*
X019796Y006581D03*
X019796Y005581D03*
X019796Y004581D03*
X019796Y003581D03*
X022158Y003006D03*
X022158Y002006D03*
X022080Y005408D03*
X022080Y006408D03*
X022080Y007408D03*
X022080Y008408D03*
X022080Y009408D03*
D13*
X019914Y009408D01*
X016371Y005865D01*
X015623Y005865D01*
X014639Y006495D02*
X014639Y009132D01*
X014632Y009162D01*
X017394Y006416D02*
X017394Y003454D01*
X017394Y002400D01*
X017237Y001888D02*
X007709Y001888D01*
X006883Y002715D01*
X006627Y002971D01*
X006095Y002440D01*
X005898Y002440D01*
X003772Y004566D01*
X003772Y005668D01*
X004402Y005825D02*
X004402Y004951D01*
X005269Y005195D02*
X005269Y006140D01*
X005977Y005432D01*
X005977Y003581D01*
X007788Y003581D01*
X006627Y002971D02*
X006292Y003306D01*
X005977Y003581D02*
X005977Y002715D01*
X011686Y002794D02*
X012237Y002243D01*
X012749Y002164D02*
X012080Y002833D01*
X012749Y002164D02*
X013103Y002164D01*
X017237Y001888D02*
X019796Y004447D01*
X019796Y004581D01*
X008733Y009172D02*
X008725Y009181D01*
X005269Y006140D02*
X003615Y007794D01*
D14*
X003615Y007794D03*
X004402Y005825D03*
X004104Y005492D03*
X003772Y005668D03*
X004104Y005188D03*
X004402Y004951D03*
X005269Y005195D03*
X006497Y005129D03*
X007135Y005129D03*
X007474Y005599D03*
X006540Y005599D03*
X008939Y005113D03*
X007788Y003581D03*
X006883Y002715D03*
X006292Y003306D03*
X005977Y002715D03*
X011686Y002794D03*
X012080Y002833D03*
X012237Y002243D03*
X013103Y002164D03*
X014678Y002321D03*
X015022Y002371D03*
X015423Y002525D03*
X015572Y002758D03*
X014985Y003003D03*
X015013Y003479D03*
X014619Y003479D03*
X013849Y003295D03*
X013849Y003974D03*
X013681Y004445D03*
X014107Y004707D03*
X014052Y005125D03*
X013603Y005562D03*
X013308Y005125D03*
X013308Y005113D03*
X012580Y004445D03*
X011699Y004046D03*
X014680Y005562D03*
X015061Y005565D03*
X015283Y005413D03*
X015640Y005111D03*
X015963Y004825D03*
X016107Y004466D03*
X015855Y004123D03*
X016089Y004016D03*
X016152Y003478D03*
X016473Y002995D03*
X016409Y002703D03*
X016770Y002528D03*
X016818Y002169D03*
X017394Y002400D03*
X018071Y002315D03*
X019673Y002315D03*
X021246Y002871D03*
X020401Y003717D03*
X018875Y004251D03*
X018104Y004251D03*
X017161Y004012D03*
X016532Y004799D03*
X017192Y005218D03*
X016944Y005472D03*
X015957Y005478D03*
X015623Y005865D03*
X014523Y006264D03*
X015479Y004645D03*
X017394Y006416D03*
X018511Y007021D03*
X018893Y007354D03*
X018893Y007875D03*
X021109Y007021D03*
X022185Y001971D03*
X022185Y000917D03*
X016678Y000810D03*
X016502Y001385D03*
D15*
X016502Y000985D01*
X016678Y000810D01*
X016873Y000816D02*
X022011Y000816D01*
X021990Y000837D02*
X022105Y000722D01*
X022266Y000722D01*
X022380Y000837D01*
X022380Y000998D01*
X022295Y001083D01*
X022295Y001560D01*
X022422Y001612D01*
X022552Y001743D01*
X022623Y001914D01*
X022623Y002099D01*
X022552Y002270D01*
X022422Y002401D01*
X022251Y002471D01*
X022066Y002471D01*
X021895Y002401D01*
X021764Y002270D01*
X021693Y002099D01*
X021693Y001914D01*
X021764Y001743D01*
X021895Y001612D01*
X022066Y001541D01*
X022075Y001541D01*
X022075Y001083D01*
X021990Y000998D01*
X021990Y000837D01*
X021990Y000844D02*
X016873Y000844D01*
X016873Y000873D02*
X021990Y000873D01*
X021990Y000901D02*
X016862Y000901D01*
X016873Y000890D02*
X016758Y001005D01*
X016638Y001005D01*
X016612Y001031D01*
X016612Y001219D01*
X016697Y001304D01*
X016697Y001466D01*
X016583Y001580D01*
X016421Y001580D01*
X016307Y001466D01*
X016307Y001304D01*
X016392Y001219D01*
X016392Y001031D01*
X016392Y000940D01*
X016483Y000849D01*
X016483Y000729D01*
X016522Y000689D01*
X001628Y000689D01*
X001628Y010489D01*
X023239Y010489D01*
X023239Y000689D01*
X016833Y000689D01*
X016873Y000729D01*
X016873Y000890D01*
X016833Y000930D02*
X021990Y000930D01*
X021990Y000958D02*
X016805Y000958D01*
X016776Y000987D02*
X021990Y000987D01*
X022007Y001015D02*
X016628Y001015D01*
X016612Y001044D02*
X022036Y001044D01*
X022064Y001072D02*
X016612Y001072D01*
X016612Y001101D02*
X022075Y001101D01*
X022075Y001129D02*
X016612Y001129D01*
X016612Y001158D02*
X022075Y001158D01*
X022075Y001186D02*
X016612Y001186D01*
X016612Y001215D02*
X022075Y001215D01*
X022075Y001243D02*
X016636Y001243D01*
X016664Y001272D02*
X022075Y001272D01*
X022075Y001300D02*
X016693Y001300D01*
X016697Y001329D02*
X022075Y001329D01*
X022075Y001357D02*
X016697Y001357D01*
X016697Y001386D02*
X022075Y001386D01*
X022075Y001414D02*
X016697Y001414D01*
X016697Y001443D02*
X022075Y001443D01*
X022075Y001471D02*
X016692Y001471D01*
X016663Y001500D02*
X022075Y001500D01*
X022075Y001528D02*
X016635Y001528D01*
X016606Y001557D02*
X022029Y001557D01*
X021960Y001585D02*
X001628Y001585D01*
X001628Y001557D02*
X016398Y001557D01*
X016369Y001528D02*
X001628Y001528D01*
X001628Y001500D02*
X016341Y001500D01*
X016312Y001471D02*
X001628Y001471D01*
X001628Y001443D02*
X016307Y001443D01*
X016307Y001414D02*
X001628Y001414D01*
X001628Y001386D02*
X016307Y001386D01*
X016307Y001357D02*
X001628Y001357D01*
X001628Y001329D02*
X016307Y001329D01*
X016311Y001300D02*
X001628Y001300D01*
X001628Y001272D02*
X016340Y001272D01*
X016368Y001243D02*
X001628Y001243D01*
X001628Y001215D02*
X016392Y001215D01*
X016392Y001186D02*
X001628Y001186D01*
X001628Y001158D02*
X016392Y001158D01*
X016392Y001129D02*
X001628Y001129D01*
X001628Y001101D02*
X016392Y001101D01*
X016392Y001072D02*
X001628Y001072D01*
X001628Y001044D02*
X016392Y001044D01*
X016392Y001015D02*
X001628Y001015D01*
X001628Y000987D02*
X016392Y000987D01*
X016392Y000958D02*
X001628Y000958D01*
X001628Y000930D02*
X016402Y000930D01*
X016430Y000901D02*
X001628Y000901D01*
X001628Y000873D02*
X016459Y000873D01*
X016483Y000844D02*
X001628Y000844D01*
X001628Y000816D02*
X016483Y000816D01*
X016483Y000787D02*
X001628Y000787D01*
X001628Y000759D02*
X016483Y000759D01*
X016483Y000730D02*
X001628Y000730D01*
X001628Y000702D02*
X016510Y000702D01*
X016845Y000702D02*
X023239Y000702D01*
X023239Y000730D02*
X022274Y000730D01*
X022302Y000759D02*
X023239Y000759D01*
X023239Y000787D02*
X022331Y000787D01*
X022359Y000816D02*
X023239Y000816D01*
X023239Y000844D02*
X022380Y000844D01*
X022380Y000873D02*
X023239Y000873D01*
X023239Y000901D02*
X022380Y000901D01*
X022380Y000930D02*
X023239Y000930D01*
X023239Y000958D02*
X022380Y000958D01*
X022380Y000987D02*
X023239Y000987D01*
X023239Y001015D02*
X022364Y001015D01*
X022335Y001044D02*
X023239Y001044D01*
X023239Y001072D02*
X022307Y001072D01*
X022295Y001101D02*
X023239Y001101D01*
X023239Y001129D02*
X022295Y001129D01*
X022295Y001158D02*
X023239Y001158D01*
X023239Y001186D02*
X022295Y001186D01*
X022295Y001215D02*
X023239Y001215D01*
X023239Y001243D02*
X022295Y001243D01*
X022295Y001272D02*
X023239Y001272D01*
X023239Y001300D02*
X022295Y001300D01*
X022295Y001329D02*
X023239Y001329D01*
X023239Y001357D02*
X022295Y001357D01*
X022295Y001386D02*
X023239Y001386D01*
X023239Y001414D02*
X022295Y001414D01*
X022295Y001443D02*
X023239Y001443D01*
X023239Y001471D02*
X022295Y001471D01*
X022295Y001500D02*
X023239Y001500D01*
X023239Y001528D02*
X022295Y001528D01*
X022295Y001557D02*
X023239Y001557D01*
X023239Y001585D02*
X022356Y001585D01*
X022423Y001614D02*
X023239Y001614D01*
X023239Y001642D02*
X022452Y001642D01*
X022480Y001671D02*
X023239Y001671D01*
X023239Y001699D02*
X022509Y001699D01*
X022537Y001728D02*
X023239Y001728D01*
X023239Y001756D02*
X022558Y001756D01*
X022570Y001785D02*
X023239Y001785D01*
X023239Y001813D02*
X022582Y001813D01*
X022593Y001842D02*
X023239Y001842D01*
X023239Y001870D02*
X022605Y001870D01*
X022617Y001899D02*
X023239Y001899D01*
X023239Y001927D02*
X022623Y001927D01*
X022623Y001956D02*
X023239Y001956D01*
X023239Y001984D02*
X022623Y001984D01*
X022623Y002013D02*
X023239Y002013D01*
X023239Y002041D02*
X022623Y002041D01*
X022623Y002070D02*
X023239Y002070D01*
X023239Y002098D02*
X022623Y002098D01*
X022612Y002127D02*
X023239Y002127D01*
X023239Y002155D02*
X022600Y002155D01*
X022588Y002184D02*
X023239Y002184D01*
X023239Y002212D02*
X022576Y002212D01*
X022565Y002241D02*
X023239Y002241D01*
X023239Y002269D02*
X022553Y002269D01*
X022525Y002298D02*
X023239Y002298D01*
X023239Y002326D02*
X022496Y002326D01*
X022468Y002355D02*
X023239Y002355D01*
X023239Y002383D02*
X022439Y002383D01*
X022395Y002412D02*
X023239Y002412D01*
X023239Y002440D02*
X022326Y002440D01*
X022257Y002469D02*
X023239Y002469D01*
X023239Y002497D02*
X019767Y002497D01*
X019754Y002510D02*
X019592Y002510D01*
X019507Y002425D01*
X018237Y002425D01*
X018152Y002510D01*
X018036Y002510D01*
X019660Y004134D01*
X019704Y004116D01*
X019889Y004116D01*
X020059Y004187D01*
X020190Y004318D01*
X020261Y004489D01*
X020261Y004674D01*
X020190Y004845D01*
X020059Y004975D01*
X019889Y005046D01*
X019704Y005046D01*
X019533Y004975D01*
X019402Y004845D01*
X019331Y004674D01*
X019331Y004489D01*
X019402Y004318D01*
X019446Y004274D01*
X017589Y002418D01*
X017589Y002481D01*
X017519Y002551D01*
X017519Y006265D01*
X017589Y006335D01*
X017589Y006497D01*
X017475Y006611D01*
X017314Y006611D01*
X017199Y006497D01*
X017199Y006335D01*
X017269Y006265D01*
X017269Y005413D01*
X017139Y005413D01*
X017139Y005553D01*
X017025Y005667D01*
X016864Y005667D01*
X016780Y005583D01*
X016124Y005587D01*
X016038Y005673D01*
X015876Y005673D01*
X015762Y005559D01*
X015762Y005397D01*
X015876Y005283D01*
X016038Y005283D01*
X016122Y005367D01*
X016778Y005363D01*
X016812Y005328D01*
X016715Y005328D01*
X016650Y005264D01*
X016607Y005221D01*
X015806Y005221D01*
X015721Y005306D01*
X015559Y005306D01*
X015558Y005304D01*
X015561Y005636D01*
X015562Y005636D01*
X015562Y005670D01*
X015704Y005670D01*
X015774Y005740D01*
X016423Y005740D01*
X019331Y008648D01*
X019331Y008489D01*
X019402Y008318D01*
X019533Y008187D01*
X019704Y008116D01*
X019889Y008116D01*
X020059Y008187D01*
X020190Y008318D01*
X020261Y008489D01*
X020261Y008674D01*
X020190Y008845D01*
X020059Y008975D01*
X019889Y009046D01*
X019729Y009046D01*
X019966Y009283D01*
X021628Y009283D01*
X021685Y009145D01*
X021816Y009014D01*
X021987Y008943D01*
X022172Y008943D01*
X022343Y009014D01*
X022474Y009145D01*
X022545Y009316D01*
X022545Y009501D01*
X022474Y009671D01*
X022343Y009802D01*
X022172Y009873D01*
X021987Y009873D01*
X021816Y009802D01*
X021685Y009671D01*
X021628Y009533D01*
X019862Y009533D01*
X019789Y009460D01*
X016319Y005990D01*
X015774Y005990D01*
X015704Y006060D01*
X015542Y006060D01*
X015428Y005946D01*
X015343Y005946D01*
X015315Y005974D02*
X015457Y005974D01*
X015485Y006003D02*
X015286Y006003D01*
X015258Y006031D02*
X015514Y006031D01*
X015428Y005946D02*
X015428Y005861D01*
X014764Y006525D01*
X014764Y008867D01*
X014815Y008889D01*
X014906Y008979D01*
X014955Y009098D01*
X014955Y009226D01*
X014906Y009345D01*
X014815Y009435D01*
X014697Y009484D01*
X014568Y009484D01*
X014450Y009435D01*
X014359Y009345D01*
X014310Y009226D01*
X014310Y009098D01*
X014359Y008979D01*
X014450Y008889D01*
X014514Y008862D01*
X014514Y006459D01*
X014442Y006459D01*
X008246Y006459D01*
X008246Y006487D02*
X014514Y006487D01*
X014514Y006516D02*
X008246Y006516D01*
X008246Y006544D02*
X014514Y006544D01*
X014514Y006573D02*
X008246Y006573D01*
X008246Y006601D02*
X014514Y006601D01*
X014514Y006630D02*
X008246Y006630D01*
X008246Y006658D02*
X014514Y006658D01*
X014514Y006687D02*
X008246Y006687D01*
X008246Y006715D02*
X014514Y006715D01*
X014514Y006744D02*
X008246Y006744D01*
X008246Y006772D02*
X014514Y006772D01*
X014514Y006801D02*
X008246Y006801D01*
X008246Y006829D02*
X014514Y006829D01*
X014514Y006858D02*
X008246Y006858D01*
X008246Y006886D02*
X014514Y006886D01*
X014514Y006915D02*
X008246Y006915D01*
X008246Y006943D02*
X014514Y006943D01*
X014514Y006972D02*
X008246Y006972D01*
X008246Y007000D02*
X014514Y007000D01*
X014514Y007029D02*
X008246Y007029D01*
X008246Y007057D02*
X014514Y007057D01*
X014514Y007086D02*
X008246Y007086D01*
X008246Y007114D02*
X014514Y007114D01*
X014514Y007143D02*
X008246Y007143D01*
X008246Y007171D02*
X014514Y007171D01*
X014514Y007200D02*
X008246Y007200D01*
X008246Y007228D02*
X014514Y007228D01*
X014514Y007257D02*
X008246Y007257D01*
X008246Y007285D02*
X014514Y007285D01*
X014514Y007314D02*
X008246Y007314D01*
X008246Y007342D02*
X014514Y007342D01*
X014514Y007371D02*
X008246Y007371D01*
X008246Y007399D02*
X014514Y007399D01*
X014514Y007428D02*
X008246Y007428D01*
X008246Y007456D02*
X014514Y007456D01*
X014514Y007485D02*
X008246Y007485D01*
X008246Y007513D02*
X014514Y007513D01*
X014514Y007542D02*
X008246Y007542D01*
X008246Y007570D02*
X014514Y007570D01*
X014514Y007599D02*
X008246Y007599D01*
X008246Y007627D02*
X014514Y007627D01*
X014514Y007656D02*
X008246Y007656D01*
X008246Y007684D02*
X014514Y007684D01*
X014514Y007713D02*
X008246Y007713D01*
X008246Y007741D02*
X014514Y007741D01*
X014514Y007770D02*
X008246Y007770D01*
X008246Y007798D02*
X014514Y007798D01*
X014514Y007827D02*
X008246Y007827D01*
X008246Y007855D02*
X014514Y007855D01*
X014514Y007884D02*
X008246Y007884D01*
X008246Y007912D02*
X014514Y007912D01*
X014514Y007941D02*
X008246Y007941D01*
X008246Y007969D02*
X014514Y007969D01*
X014514Y007998D02*
X008246Y007998D01*
X008246Y008026D02*
X014514Y008026D01*
X014514Y008055D02*
X008246Y008055D01*
X008246Y008083D02*
X014514Y008083D01*
X014514Y008112D02*
X008246Y008112D01*
X008246Y008140D02*
X014514Y008140D01*
X014514Y008169D02*
X008246Y008169D01*
X008246Y008197D02*
X014514Y008197D01*
X014514Y008226D02*
X008246Y008226D01*
X008246Y008254D02*
X014514Y008254D01*
X014514Y008283D02*
X008246Y008283D01*
X008246Y008311D02*
X014514Y008311D01*
X014514Y008340D02*
X008246Y008340D01*
X008246Y008368D02*
X014514Y008368D01*
X014514Y008397D02*
X008246Y008397D01*
X008246Y008425D02*
X014514Y008425D01*
X014514Y008454D02*
X008246Y008454D01*
X008246Y008482D02*
X014514Y008482D01*
X014514Y008511D02*
X008246Y008511D01*
X008246Y008539D02*
X014514Y008539D01*
X014514Y008568D02*
X008246Y008568D01*
X008246Y008577D02*
X008567Y008898D01*
X008661Y008859D01*
X008789Y008859D01*
X008907Y008908D01*
X008998Y008999D01*
X009047Y009117D01*
X009047Y009245D01*
X008998Y009364D01*
X008907Y009455D01*
X008789Y009504D01*
X008661Y009504D01*
X008542Y009455D01*
X008451Y009364D01*
X008402Y009245D01*
X008402Y009117D01*
X008419Y009076D01*
X008015Y008672D01*
X008015Y004215D01*
X008083Y004147D01*
X009083Y003147D01*
X012229Y003147D01*
X013020Y002356D01*
X012952Y002289D01*
X012801Y002289D01*
X012275Y002815D01*
X012275Y002914D01*
X012160Y003028D01*
X011999Y003028D01*
X011885Y002914D01*
X011885Y002772D01*
X011881Y002776D01*
X011881Y002875D01*
X011767Y002989D01*
X011605Y002989D01*
X011491Y002875D01*
X011491Y002713D01*
X011605Y002599D01*
X011704Y002599D01*
X012042Y002261D01*
X012042Y002162D01*
X012156Y002048D01*
X012318Y002048D01*
X012432Y002162D01*
X012432Y002304D01*
X012697Y002039D01*
X012952Y002039D01*
X012978Y002013D01*
X007761Y002013D01*
X007078Y002697D01*
X011507Y002697D01*
X011491Y002725D02*
X007078Y002725D01*
X007078Y002697D02*
X007078Y002796D01*
X006963Y002910D01*
X006864Y002910D01*
X006752Y003023D01*
X006679Y003096D01*
X012280Y003096D01*
X012252Y003124D02*
X006650Y003124D01*
X006679Y003096D02*
X006487Y003287D01*
X006487Y003386D01*
X006417Y003456D01*
X007637Y003456D01*
X007707Y003386D01*
X007869Y003386D01*
X007983Y003500D01*
X007983Y003662D01*
X007869Y003776D01*
X007707Y003776D01*
X007637Y003706D01*
X006102Y003706D01*
X006102Y005483D01*
X005320Y006265D01*
X003810Y007776D01*
X003810Y007875D01*
X003696Y007989D01*
X003534Y007989D01*
X003420Y007875D01*
X003420Y007713D01*
X003534Y007599D01*
X003633Y007599D01*
X005144Y006089D01*
X005144Y005346D01*
X005074Y005276D01*
X005074Y005115D01*
X005188Y005000D01*
X005349Y005000D01*
X005464Y005115D01*
X005464Y005276D01*
X005394Y005346D01*
X005394Y005839D01*
X005852Y005380D01*
X005852Y002866D01*
X005782Y002796D01*
X005782Y002733D01*
X003897Y004617D01*
X003897Y005517D01*
X003909Y005529D01*
X003909Y005411D01*
X003981Y005340D01*
X003909Y005268D01*
X003909Y005107D01*
X004024Y004993D01*
X004185Y004993D01*
X004299Y005107D01*
X004299Y005268D01*
X004228Y005340D01*
X004299Y005411D01*
X004299Y005573D01*
X004185Y005687D01*
X004024Y005687D01*
X003967Y005631D01*
X003967Y005749D01*
X003853Y005863D01*
X003692Y005863D01*
X003577Y005749D01*
X003577Y005587D01*
X003647Y005517D01*
X003647Y004514D01*
X005773Y002388D01*
X005847Y002315D01*
X006147Y002315D01*
X006627Y002794D01*
X006688Y002733D01*
X006688Y002634D01*
X006802Y002520D01*
X006901Y002520D01*
X007658Y001763D01*
X017289Y001763D01*
X017362Y001837D01*
X017876Y002350D01*
X017876Y002234D01*
X017990Y002120D01*
X018152Y002120D01*
X018237Y002205D01*
X019507Y002205D01*
X019592Y002120D01*
X019754Y002120D01*
X019868Y002234D01*
X019868Y002396D01*
X019754Y002510D01*
X019795Y002469D02*
X022059Y002469D01*
X022066Y002541D02*
X021895Y002612D01*
X021764Y002743D01*
X021693Y002914D01*
X021693Y003099D01*
X021764Y003270D01*
X021895Y003401D01*
X022066Y003471D01*
X022251Y003471D01*
X022422Y003401D01*
X022552Y003270D01*
X022623Y003099D01*
X022623Y002914D01*
X022552Y002743D01*
X022422Y002612D01*
X022251Y002541D01*
X022066Y002541D01*
X022035Y002554D02*
X018080Y002554D01*
X018108Y002583D02*
X021966Y002583D01*
X021897Y002611D02*
X018137Y002611D01*
X018165Y002640D02*
X021867Y002640D01*
X021839Y002668D02*
X018194Y002668D01*
X018222Y002697D02*
X021145Y002697D01*
X021166Y002676D02*
X021051Y002791D01*
X021051Y002911D01*
X020440Y003522D01*
X020320Y003522D01*
X020281Y003561D01*
X020281Y003543D01*
X020269Y003468D01*
X020246Y003395D01*
X020211Y003327D01*
X020166Y003265D01*
X020112Y003211D01*
X020050Y003166D01*
X019982Y003132D01*
X019910Y003108D01*
X019834Y003096D01*
X019811Y003096D01*
X019811Y003566D01*
X019781Y003566D01*
X019781Y003096D01*
X019758Y003096D01*
X019682Y003108D01*
X019610Y003132D01*
X019542Y003166D01*
X019480Y003211D01*
X019426Y003265D01*
X019381Y003327D01*
X019347Y003395D01*
X019323Y003468D01*
X019311Y003543D01*
X019311Y003566D01*
X019781Y003566D01*
X019781Y003596D01*
X019311Y003596D01*
X019311Y003619D01*
X019323Y003695D01*
X019347Y003767D01*
X019381Y003835D01*
X019426Y003897D01*
X019480Y003951D01*
X019542Y003996D01*
X019610Y004031D01*
X019682Y004054D01*
X019758Y004066D01*
X019781Y004066D01*
X019781Y003596D01*
X019811Y003596D01*
X019811Y004066D01*
X019834Y004066D01*
X019910Y004054D01*
X019982Y004031D01*
X020050Y003996D01*
X020112Y003951D01*
X020166Y003897D01*
X020211Y003835D01*
X020222Y003814D01*
X020320Y003912D01*
X020482Y003912D01*
X020596Y003798D01*
X020596Y003678D01*
X021207Y003066D01*
X021327Y003066D01*
X021441Y002952D01*
X021441Y002791D01*
X021327Y002676D01*
X021166Y002676D01*
X021117Y002725D02*
X018251Y002725D01*
X018279Y002754D02*
X021088Y002754D01*
X021060Y002782D02*
X018308Y002782D01*
X018336Y002811D02*
X021051Y002811D01*
X021051Y002839D02*
X018365Y002839D01*
X018393Y002868D02*
X021051Y002868D01*
X021051Y002896D02*
X018422Y002896D01*
X018450Y002925D02*
X021038Y002925D01*
X021009Y002953D02*
X018479Y002953D01*
X018507Y002982D02*
X020981Y002982D01*
X020952Y003010D02*
X018536Y003010D01*
X018564Y003039D02*
X020924Y003039D01*
X020895Y003067D02*
X018593Y003067D01*
X018621Y003096D02*
X020867Y003096D01*
X020838Y003124D02*
X019959Y003124D01*
X020023Y003153D02*
X020810Y003153D01*
X020781Y003181D02*
X020071Y003181D01*
X020110Y003210D02*
X020753Y003210D01*
X020724Y003238D02*
X020139Y003238D01*
X020167Y003267D02*
X020696Y003267D01*
X020667Y003295D02*
X020188Y003295D01*
X020208Y003324D02*
X020639Y003324D01*
X020610Y003352D02*
X020224Y003352D01*
X020238Y003381D02*
X020582Y003381D01*
X020553Y003409D02*
X020250Y003409D01*
X020259Y003438D02*
X020525Y003438D01*
X020496Y003466D02*
X020269Y003466D01*
X020273Y003495D02*
X020468Y003495D01*
X020319Y003523D02*
X020278Y003523D01*
X020281Y003552D02*
X020290Y003552D01*
X020401Y003717D02*
X021246Y002871D01*
X021376Y002725D02*
X021782Y002725D01*
X021760Y002754D02*
X021405Y002754D01*
X021433Y002782D02*
X021748Y002782D01*
X021736Y002811D02*
X021441Y002811D01*
X021441Y002839D02*
X021724Y002839D01*
X021712Y002868D02*
X021441Y002868D01*
X021441Y002896D02*
X021701Y002896D01*
X021693Y002925D02*
X021441Y002925D01*
X021440Y002953D02*
X021693Y002953D01*
X021693Y002982D02*
X021412Y002982D01*
X021383Y003010D02*
X021693Y003010D01*
X021693Y003039D02*
X021355Y003039D01*
X021206Y003067D02*
X021693Y003067D01*
X021693Y003096D02*
X021178Y003096D01*
X021149Y003124D02*
X021704Y003124D01*
X021716Y003153D02*
X021121Y003153D01*
X021092Y003181D02*
X021727Y003181D01*
X021739Y003210D02*
X021064Y003210D01*
X021035Y003238D02*
X021751Y003238D01*
X021763Y003267D02*
X021007Y003267D01*
X020978Y003295D02*
X021789Y003295D01*
X021818Y003324D02*
X020950Y003324D01*
X020921Y003352D02*
X021846Y003352D01*
X021875Y003381D02*
X020893Y003381D01*
X020864Y003409D02*
X021915Y003409D01*
X021984Y003438D02*
X020836Y003438D01*
X020807Y003466D02*
X022053Y003466D01*
X022263Y003466D02*
X023239Y003466D01*
X023239Y003438D02*
X022332Y003438D01*
X022401Y003409D02*
X023239Y003409D01*
X023239Y003381D02*
X022442Y003381D01*
X022470Y003352D02*
X023239Y003352D01*
X023239Y003324D02*
X022499Y003324D01*
X022527Y003295D02*
X023239Y003295D01*
X023239Y003267D02*
X022554Y003267D01*
X022566Y003238D02*
X023239Y003238D01*
X023239Y003210D02*
X022577Y003210D01*
X022589Y003181D02*
X023239Y003181D01*
X023239Y003153D02*
X022601Y003153D01*
X022613Y003124D02*
X023239Y003124D01*
X023239Y003096D02*
X022623Y003096D01*
X022623Y003067D02*
X023239Y003067D01*
X023239Y003039D02*
X022623Y003039D01*
X022623Y003010D02*
X023239Y003010D01*
X023239Y002982D02*
X022623Y002982D01*
X022623Y002953D02*
X023239Y002953D01*
X023239Y002925D02*
X022623Y002925D01*
X022616Y002896D02*
X023239Y002896D01*
X023239Y002868D02*
X022604Y002868D01*
X022592Y002839D02*
X023239Y002839D01*
X023239Y002811D02*
X022580Y002811D01*
X022569Y002782D02*
X023239Y002782D01*
X023239Y002754D02*
X022557Y002754D01*
X022535Y002725D02*
X023239Y002725D01*
X023239Y002697D02*
X022506Y002697D01*
X022478Y002668D02*
X023239Y002668D01*
X023239Y002640D02*
X022449Y002640D01*
X022419Y002611D02*
X023239Y002611D01*
X023239Y002583D02*
X022350Y002583D01*
X022282Y002554D02*
X023239Y002554D01*
X023239Y002526D02*
X018051Y002526D01*
X018165Y002497D02*
X019580Y002497D01*
X019551Y002469D02*
X018193Y002469D01*
X018222Y002440D02*
X019523Y002440D01*
X019673Y002315D02*
X018071Y002315D01*
X018215Y002184D02*
X019529Y002184D01*
X019557Y002155D02*
X018187Y002155D01*
X018158Y002127D02*
X019586Y002127D01*
X019761Y002127D02*
X021705Y002127D01*
X021717Y002155D02*
X019789Y002155D01*
X019818Y002184D02*
X021728Y002184D01*
X021740Y002212D02*
X019846Y002212D01*
X019868Y002241D02*
X021752Y002241D01*
X021764Y002269D02*
X019868Y002269D01*
X019868Y002298D02*
X021792Y002298D01*
X021820Y002326D02*
X019868Y002326D01*
X019868Y002355D02*
X021849Y002355D01*
X021877Y002383D02*
X019868Y002383D01*
X019852Y002412D02*
X021921Y002412D01*
X021990Y002440D02*
X019824Y002440D01*
X019811Y003124D02*
X019781Y003124D01*
X019781Y003153D02*
X019811Y003153D01*
X019811Y003181D02*
X019781Y003181D01*
X019781Y003210D02*
X019811Y003210D01*
X019811Y003238D02*
X019781Y003238D01*
X019781Y003267D02*
X019811Y003267D01*
X019811Y003295D02*
X019781Y003295D01*
X019781Y003324D02*
X019811Y003324D01*
X019811Y003352D02*
X019781Y003352D01*
X019781Y003381D02*
X019811Y003381D01*
X019811Y003409D02*
X019781Y003409D01*
X019781Y003438D02*
X019811Y003438D01*
X019811Y003466D02*
X019781Y003466D01*
X019781Y003495D02*
X019811Y003495D01*
X019811Y003523D02*
X019781Y003523D01*
X019781Y003552D02*
X019811Y003552D01*
X019781Y003580D02*
X019106Y003580D01*
X019134Y003609D02*
X019311Y003609D01*
X019314Y003637D02*
X019163Y003637D01*
X019191Y003666D02*
X019318Y003666D01*
X019323Y003694D02*
X019220Y003694D01*
X019248Y003723D02*
X019332Y003723D01*
X019341Y003751D02*
X019277Y003751D01*
X019305Y003780D02*
X019353Y003780D01*
X019367Y003808D02*
X019334Y003808D01*
X019362Y003837D02*
X019382Y003837D01*
X019391Y003865D02*
X019403Y003865D01*
X019419Y003894D02*
X019424Y003894D01*
X019448Y003922D02*
X019451Y003922D01*
X019476Y003951D02*
X019480Y003951D01*
X019505Y003979D02*
X019519Y003979D01*
X019533Y004008D02*
X019565Y004008D01*
X019562Y004036D02*
X019627Y004036D01*
X019590Y004065D02*
X019748Y004065D01*
X019781Y004065D02*
X019811Y004065D01*
X019811Y004036D02*
X019781Y004036D01*
X019781Y004008D02*
X019811Y004008D01*
X019811Y003979D02*
X019781Y003979D01*
X019781Y003951D02*
X019811Y003951D01*
X019811Y003922D02*
X019781Y003922D01*
X019781Y003894D02*
X019811Y003894D01*
X019811Y003865D02*
X019781Y003865D01*
X019781Y003837D02*
X019811Y003837D01*
X019811Y003808D02*
X019781Y003808D01*
X019781Y003780D02*
X019811Y003780D01*
X019811Y003751D02*
X019781Y003751D01*
X019781Y003723D02*
X019811Y003723D01*
X019811Y003694D02*
X019781Y003694D01*
X019781Y003666D02*
X019811Y003666D01*
X019811Y003637D02*
X019781Y003637D01*
X019781Y003609D02*
X019811Y003609D01*
X020141Y003922D02*
X023239Y003922D01*
X023239Y003894D02*
X020500Y003894D01*
X020528Y003865D02*
X023239Y003865D01*
X023239Y003837D02*
X020557Y003837D01*
X020585Y003808D02*
X023239Y003808D01*
X023239Y003780D02*
X020596Y003780D01*
X020596Y003751D02*
X023239Y003751D01*
X023239Y003723D02*
X020596Y003723D01*
X020596Y003694D02*
X023239Y003694D01*
X023239Y003666D02*
X020608Y003666D01*
X020636Y003637D02*
X023239Y003637D01*
X023239Y003609D02*
X020665Y003609D01*
X020693Y003580D02*
X023239Y003580D01*
X023239Y003552D02*
X020722Y003552D01*
X020750Y003523D02*
X023239Y003523D01*
X023239Y003495D02*
X020779Y003495D01*
X020302Y003894D02*
X020169Y003894D01*
X020189Y003865D02*
X020273Y003865D01*
X020245Y003837D02*
X020210Y003837D01*
X020113Y003951D02*
X023239Y003951D01*
X023239Y003979D02*
X020073Y003979D01*
X020027Y004008D02*
X023239Y004008D01*
X023239Y004036D02*
X019965Y004036D01*
X019902Y004122D02*
X023239Y004122D01*
X023239Y004150D02*
X019971Y004150D01*
X020039Y004179D02*
X023239Y004179D01*
X023239Y004207D02*
X020080Y004207D01*
X020108Y004236D02*
X023239Y004236D01*
X023239Y004264D02*
X020137Y004264D01*
X020165Y004293D02*
X023239Y004293D01*
X023239Y004321D02*
X020192Y004321D01*
X020203Y004350D02*
X023239Y004350D01*
X023239Y004378D02*
X020215Y004378D01*
X020227Y004407D02*
X023239Y004407D01*
X023239Y004435D02*
X020239Y004435D01*
X020251Y004464D02*
X023239Y004464D01*
X023239Y004492D02*
X020261Y004492D01*
X020261Y004521D02*
X023239Y004521D01*
X023239Y004549D02*
X020261Y004549D01*
X020261Y004578D02*
X023239Y004578D01*
X023239Y004606D02*
X020261Y004606D01*
X020261Y004635D02*
X023239Y004635D01*
X023239Y004663D02*
X020261Y004663D01*
X020254Y004692D02*
X023239Y004692D01*
X023239Y004720D02*
X020242Y004720D01*
X020230Y004749D02*
X023239Y004749D01*
X023239Y004777D02*
X020218Y004777D01*
X020206Y004806D02*
X023239Y004806D01*
X023239Y004834D02*
X020195Y004834D01*
X020172Y004863D02*
X023239Y004863D01*
X023239Y004891D02*
X020144Y004891D01*
X020115Y004920D02*
X023239Y004920D01*
X023239Y004948D02*
X022185Y004948D01*
X022172Y004943D02*
X022343Y005014D01*
X022474Y005145D01*
X022545Y005316D01*
X022545Y005501D01*
X022474Y005671D01*
X022343Y005802D01*
X022172Y005873D01*
X021987Y005873D01*
X021816Y005802D01*
X021685Y005671D01*
X021615Y005501D01*
X021615Y005316D01*
X021685Y005145D01*
X021816Y005014D01*
X021987Y004943D01*
X022172Y004943D01*
X022253Y004977D02*
X023239Y004977D01*
X023239Y005005D02*
X022322Y005005D01*
X022363Y005034D02*
X023239Y005034D01*
X023239Y005062D02*
X022391Y005062D01*
X022420Y005091D02*
X023239Y005091D01*
X023239Y005119D02*
X022448Y005119D01*
X022475Y005148D02*
X023239Y005148D01*
X023239Y005176D02*
X022487Y005176D01*
X022499Y005205D02*
X023239Y005205D01*
X023239Y005233D02*
X022510Y005233D01*
X022522Y005262D02*
X023239Y005262D01*
X023239Y005290D02*
X022534Y005290D01*
X022545Y005319D02*
X023239Y005319D01*
X023239Y005347D02*
X022545Y005347D01*
X022545Y005376D02*
X023239Y005376D01*
X023239Y005404D02*
X022545Y005404D01*
X022545Y005433D02*
X023239Y005433D01*
X023239Y005461D02*
X022545Y005461D01*
X022545Y005490D02*
X023239Y005490D01*
X023239Y005518D02*
X022537Y005518D01*
X022525Y005547D02*
X023239Y005547D01*
X023239Y005575D02*
X022514Y005575D01*
X022502Y005604D02*
X023239Y005604D01*
X023239Y005632D02*
X022490Y005632D01*
X022478Y005661D02*
X023239Y005661D01*
X023239Y005689D02*
X022456Y005689D01*
X022427Y005718D02*
X023239Y005718D01*
X023239Y005746D02*
X022399Y005746D01*
X022370Y005775D02*
X023239Y005775D01*
X023239Y005803D02*
X022341Y005803D01*
X022272Y005832D02*
X023239Y005832D01*
X023239Y005860D02*
X022203Y005860D01*
X022172Y005943D02*
X022343Y006014D01*
X022474Y006145D01*
X023239Y006145D01*
X023239Y006117D02*
X022446Y006117D01*
X022474Y006145D02*
X022545Y006316D01*
X023239Y006316D01*
X023239Y006288D02*
X022533Y006288D01*
X022545Y006316D02*
X022545Y006501D01*
X022474Y006671D01*
X022343Y006802D01*
X022172Y006873D01*
X021987Y006873D01*
X021816Y006802D01*
X021685Y006671D01*
X021615Y006501D01*
X021615Y006316D01*
X020189Y006316D01*
X020190Y006318D02*
X020261Y006489D01*
X020261Y006674D01*
X020190Y006845D01*
X020124Y006911D01*
X020944Y006911D01*
X021029Y006826D01*
X021190Y006826D01*
X021304Y006940D01*
X021304Y007101D01*
X021190Y007216D01*
X021029Y007216D01*
X020944Y007131D01*
X019979Y007131D01*
X019982Y007132D01*
X020050Y007166D01*
X020112Y007211D01*
X020166Y007265D01*
X020211Y007327D01*
X020246Y007395D01*
X020269Y007468D01*
X020281Y007543D01*
X020281Y007566D01*
X019811Y007566D01*
X019811Y007596D01*
X020281Y007596D01*
X020281Y007619D01*
X020269Y007695D01*
X020246Y007767D01*
X020211Y007835D01*
X020166Y007897D01*
X020112Y007951D01*
X020050Y007996D01*
X019982Y008031D01*
X019910Y008054D01*
X019834Y008066D01*
X019811Y008066D01*
X019811Y007596D01*
X019781Y007596D01*
X019781Y007566D01*
X019311Y007566D01*
X019311Y007543D01*
X019323Y007468D01*
X019347Y007395D01*
X019381Y007327D01*
X019426Y007265D01*
X019480Y007211D01*
X019542Y007166D01*
X019610Y007132D01*
X019613Y007131D01*
X018676Y007131D01*
X018591Y007216D01*
X018430Y007216D01*
X018316Y007101D01*
X018316Y006940D01*
X018430Y006826D01*
X018591Y006826D01*
X018676Y006911D01*
X019468Y006911D01*
X019402Y006845D01*
X019331Y006674D01*
X019331Y006489D01*
X019402Y006318D01*
X019533Y006187D01*
X019704Y006116D01*
X019889Y006116D01*
X020059Y006187D01*
X020190Y006318D01*
X020201Y006345D02*
X021615Y006345D01*
X021615Y006373D02*
X020213Y006373D01*
X020225Y006402D02*
X021615Y006402D01*
X021615Y006430D02*
X020237Y006430D01*
X020249Y006459D02*
X021615Y006459D01*
X021615Y006487D02*
X020260Y006487D01*
X020261Y006516D02*
X021621Y006516D01*
X021633Y006544D02*
X020261Y006544D01*
X020261Y006573D02*
X021644Y006573D01*
X021656Y006601D02*
X020261Y006601D01*
X020261Y006630D02*
X021668Y006630D01*
X021680Y006658D02*
X020261Y006658D01*
X020256Y006687D02*
X021701Y006687D01*
X021729Y006715D02*
X020244Y006715D01*
X020232Y006744D02*
X021758Y006744D01*
X021786Y006772D02*
X020220Y006772D01*
X020208Y006801D02*
X021815Y006801D01*
X021881Y006829D02*
X021194Y006829D01*
X021222Y006858D02*
X021950Y006858D01*
X021987Y006943D02*
X021304Y006943D01*
X021304Y006972D02*
X021918Y006972D01*
X021849Y007000D02*
X021304Y007000D01*
X021304Y007029D02*
X021801Y007029D01*
X021816Y007014D02*
X021987Y006943D01*
X022172Y006943D01*
X022343Y007014D01*
X022474Y007145D01*
X022545Y007316D01*
X022545Y007501D01*
X022474Y007671D01*
X022343Y007802D01*
X022172Y007873D01*
X021987Y007873D01*
X021816Y007802D01*
X021685Y007671D01*
X021615Y007501D01*
X021615Y007316D01*
X021685Y007145D01*
X021816Y007014D01*
X021773Y007057D02*
X021304Y007057D01*
X021304Y007086D02*
X021744Y007086D01*
X021716Y007114D02*
X021292Y007114D01*
X021263Y007143D02*
X021687Y007143D01*
X021674Y007171D02*
X021235Y007171D01*
X021206Y007200D02*
X021662Y007200D01*
X021651Y007228D02*
X020129Y007228D01*
X020157Y007257D02*
X021639Y007257D01*
X021627Y007285D02*
X020180Y007285D01*
X020201Y007314D02*
X021615Y007314D01*
X021615Y007342D02*
X020219Y007342D01*
X020233Y007371D02*
X021615Y007371D01*
X021615Y007399D02*
X020247Y007399D01*
X020256Y007428D02*
X021615Y007428D01*
X021615Y007456D02*
X020265Y007456D01*
X020272Y007485D02*
X021615Y007485D01*
X021620Y007513D02*
X020276Y007513D01*
X020281Y007542D02*
X021632Y007542D01*
X021643Y007570D02*
X019811Y007570D01*
X019811Y007599D02*
X019781Y007599D01*
X019781Y007596D02*
X019781Y008066D01*
X019758Y008066D01*
X019682Y008054D01*
X019610Y008031D01*
X019542Y007996D01*
X019480Y007951D01*
X019426Y007897D01*
X019381Y007835D01*
X019347Y007767D01*
X019323Y007695D01*
X019311Y007619D01*
X019311Y007596D01*
X019781Y007596D01*
X019781Y007570D02*
X019003Y007570D01*
X019003Y007542D02*
X019311Y007542D01*
X019316Y007513D02*
X019009Y007513D01*
X019003Y007519D02*
X019003Y007710D01*
X019088Y007795D01*
X019088Y007956D01*
X018974Y008070D01*
X018812Y008070D01*
X018698Y007956D01*
X018698Y007795D01*
X018783Y007710D01*
X018783Y007519D01*
X018698Y007434D01*
X018698Y007273D01*
X018812Y007159D01*
X018974Y007159D01*
X019088Y007273D01*
X019088Y007434D01*
X019003Y007519D01*
X019038Y007485D02*
X019320Y007485D01*
X019327Y007456D02*
X019066Y007456D01*
X019088Y007428D02*
X019336Y007428D01*
X019345Y007399D02*
X019088Y007399D01*
X019088Y007371D02*
X019359Y007371D01*
X019374Y007342D02*
X019088Y007342D01*
X019088Y007314D02*
X019391Y007314D01*
X019412Y007285D02*
X019088Y007285D01*
X019072Y007257D02*
X019435Y007257D01*
X019463Y007228D02*
X019043Y007228D01*
X019015Y007200D02*
X019496Y007200D01*
X019535Y007171D02*
X018986Y007171D01*
X018800Y007171D02*
X018636Y007171D01*
X018664Y007143D02*
X019588Y007143D01*
X019443Y006886D02*
X018652Y006886D01*
X018624Y006858D02*
X019415Y006858D01*
X019395Y006829D02*
X018595Y006829D01*
X018426Y006829D02*
X017512Y006829D01*
X017484Y006801D02*
X019384Y006801D01*
X019372Y006772D02*
X017455Y006772D01*
X017427Y006744D02*
X019360Y006744D01*
X019348Y006715D02*
X017398Y006715D01*
X017370Y006687D02*
X019336Y006687D01*
X019331Y006658D02*
X017341Y006658D01*
X017313Y006630D02*
X019331Y006630D01*
X019331Y006601D02*
X017485Y006601D01*
X017513Y006573D02*
X019331Y006573D01*
X019331Y006544D02*
X017542Y006544D01*
X017570Y006516D02*
X019331Y006516D01*
X019332Y006487D02*
X017589Y006487D01*
X017589Y006459D02*
X019344Y006459D01*
X019355Y006430D02*
X017589Y006430D01*
X017589Y006402D02*
X019367Y006402D01*
X019379Y006373D02*
X017589Y006373D01*
X017589Y006345D02*
X019391Y006345D01*
X019403Y006316D02*
X017571Y006316D01*
X017542Y006288D02*
X019432Y006288D01*
X019460Y006259D02*
X017519Y006259D01*
X017519Y006231D02*
X019489Y006231D01*
X019517Y006202D02*
X017519Y006202D01*
X017519Y006174D02*
X019565Y006174D01*
X019634Y006145D02*
X017519Y006145D01*
X017519Y006117D02*
X019702Y006117D01*
X019717Y006060D02*
X017519Y006060D01*
X017519Y006088D02*
X021742Y006088D01*
X021770Y006060D02*
X019875Y006060D01*
X019910Y006054D02*
X019834Y006066D01*
X019811Y006066D01*
X019811Y005596D01*
X020281Y005596D01*
X020281Y005619D01*
X020269Y005695D01*
X020246Y005767D01*
X020211Y005835D01*
X020166Y005897D01*
X020112Y005951D01*
X020050Y005996D01*
X019982Y006031D01*
X019910Y006054D01*
X019890Y006117D02*
X021713Y006117D01*
X021685Y006145D02*
X021816Y006014D01*
X021987Y005943D01*
X022172Y005943D01*
X022179Y005946D02*
X023239Y005946D01*
X023239Y005974D02*
X022247Y005974D01*
X022316Y006003D02*
X023239Y006003D01*
X023239Y006031D02*
X022360Y006031D01*
X022389Y006060D02*
X023239Y006060D01*
X023239Y006088D02*
X022417Y006088D01*
X022486Y006174D02*
X023239Y006174D01*
X023239Y006202D02*
X022498Y006202D01*
X022509Y006231D02*
X023239Y006231D01*
X023239Y006259D02*
X022521Y006259D01*
X022545Y006345D02*
X023239Y006345D01*
X023239Y006373D02*
X022545Y006373D01*
X022545Y006402D02*
X023239Y006402D01*
X023239Y006430D02*
X022545Y006430D01*
X022545Y006459D02*
X023239Y006459D01*
X023239Y006487D02*
X022545Y006487D01*
X022538Y006516D02*
X023239Y006516D01*
X023239Y006544D02*
X022526Y006544D01*
X022515Y006573D02*
X023239Y006573D01*
X023239Y006601D02*
X022503Y006601D01*
X022491Y006630D02*
X023239Y006630D01*
X023239Y006658D02*
X022479Y006658D01*
X022458Y006687D02*
X023239Y006687D01*
X023239Y006715D02*
X022430Y006715D01*
X022401Y006744D02*
X023239Y006744D01*
X023239Y006772D02*
X022373Y006772D01*
X022344Y006801D02*
X023239Y006801D01*
X023239Y006829D02*
X022278Y006829D01*
X022209Y006858D02*
X023239Y006858D01*
X023239Y006886D02*
X021251Y006886D01*
X021279Y006915D02*
X023239Y006915D01*
X023239Y006943D02*
X022173Y006943D01*
X022241Y006972D02*
X023239Y006972D01*
X023239Y007000D02*
X022310Y007000D01*
X022358Y007029D02*
X023239Y007029D01*
X023239Y007057D02*
X022386Y007057D01*
X022415Y007086D02*
X023239Y007086D01*
X023239Y007114D02*
X022443Y007114D01*
X022472Y007143D02*
X023239Y007143D01*
X023239Y007171D02*
X022485Y007171D01*
X022497Y007200D02*
X023239Y007200D01*
X023239Y007228D02*
X022508Y007228D01*
X022520Y007257D02*
X023239Y007257D01*
X023239Y007285D02*
X022532Y007285D01*
X022544Y007314D02*
X023239Y007314D01*
X023239Y007342D02*
X022545Y007342D01*
X022545Y007371D02*
X023239Y007371D01*
X023239Y007399D02*
X022545Y007399D01*
X022545Y007428D02*
X023239Y007428D01*
X023239Y007456D02*
X022545Y007456D01*
X022545Y007485D02*
X023239Y007485D01*
X023239Y007513D02*
X022539Y007513D01*
X022527Y007542D02*
X023239Y007542D01*
X023239Y007570D02*
X022516Y007570D01*
X022504Y007599D02*
X023239Y007599D01*
X023239Y007627D02*
X022492Y007627D01*
X022480Y007656D02*
X023239Y007656D01*
X023239Y007684D02*
X022461Y007684D01*
X022432Y007713D02*
X023239Y007713D01*
X023239Y007741D02*
X022404Y007741D01*
X022375Y007770D02*
X023239Y007770D01*
X023239Y007798D02*
X022347Y007798D01*
X022284Y007827D02*
X023239Y007827D01*
X023239Y007855D02*
X022215Y007855D01*
X022172Y007943D02*
X021987Y007943D01*
X021816Y008014D01*
X021685Y008145D01*
X021615Y008316D01*
X021615Y008501D01*
X021685Y008671D01*
X021816Y008802D01*
X021987Y008873D01*
X022172Y008873D01*
X022343Y008802D01*
X022474Y008671D01*
X022545Y008501D01*
X022545Y008316D01*
X022474Y008145D01*
X022343Y008014D01*
X022172Y007943D01*
X022235Y007969D02*
X023239Y007969D01*
X023239Y007941D02*
X020122Y007941D01*
X020151Y007912D02*
X023239Y007912D01*
X023239Y007884D02*
X020176Y007884D01*
X020196Y007855D02*
X021944Y007855D01*
X021875Y007827D02*
X020215Y007827D01*
X020230Y007798D02*
X021812Y007798D01*
X021784Y007770D02*
X020244Y007770D01*
X020254Y007741D02*
X021755Y007741D01*
X021727Y007713D02*
X020263Y007713D01*
X020271Y007684D02*
X021698Y007684D01*
X021679Y007656D02*
X020275Y007656D01*
X020280Y007627D02*
X021667Y007627D01*
X021655Y007599D02*
X020281Y007599D01*
X019811Y007627D02*
X019781Y007627D01*
X019781Y007656D02*
X019811Y007656D01*
X019811Y007684D02*
X019781Y007684D01*
X019781Y007713D02*
X019811Y007713D01*
X019811Y007741D02*
X019781Y007741D01*
X019781Y007770D02*
X019811Y007770D01*
X019811Y007798D02*
X019781Y007798D01*
X019781Y007827D02*
X019811Y007827D01*
X019811Y007855D02*
X019781Y007855D01*
X019781Y007884D02*
X019811Y007884D01*
X019811Y007912D02*
X019781Y007912D01*
X019781Y007941D02*
X019811Y007941D01*
X019811Y007969D02*
X019781Y007969D01*
X019781Y007998D02*
X019811Y007998D01*
X019811Y008026D02*
X019781Y008026D01*
X019781Y008055D02*
X019811Y008055D01*
X019907Y008055D02*
X021775Y008055D01*
X021747Y008083D02*
X018766Y008083D01*
X018738Y008055D02*
X018797Y008055D01*
X018768Y008026D02*
X018709Y008026D01*
X018681Y007998D02*
X018740Y007998D01*
X018711Y007969D02*
X018652Y007969D01*
X018624Y007941D02*
X018698Y007941D01*
X018698Y007912D02*
X018595Y007912D01*
X018567Y007884D02*
X018698Y007884D01*
X018698Y007855D02*
X018538Y007855D01*
X018510Y007827D02*
X018698Y007827D01*
X018698Y007798D02*
X018481Y007798D01*
X018453Y007770D02*
X018723Y007770D01*
X018751Y007741D02*
X018424Y007741D01*
X018396Y007713D02*
X018780Y007713D01*
X018783Y007684D02*
X018367Y007684D01*
X018339Y007656D02*
X018783Y007656D01*
X018783Y007627D02*
X018310Y007627D01*
X018282Y007599D02*
X018783Y007599D01*
X018783Y007570D02*
X018253Y007570D01*
X018225Y007542D02*
X018783Y007542D01*
X018777Y007513D02*
X018196Y007513D01*
X018168Y007485D02*
X018748Y007485D01*
X018720Y007456D02*
X018139Y007456D01*
X018111Y007428D02*
X018698Y007428D01*
X018698Y007399D02*
X018082Y007399D01*
X018054Y007371D02*
X018698Y007371D01*
X018698Y007342D02*
X018025Y007342D01*
X017997Y007314D02*
X018698Y007314D01*
X018698Y007285D02*
X017968Y007285D01*
X017940Y007257D02*
X018714Y007257D01*
X018743Y007228D02*
X017911Y007228D01*
X017883Y007200D02*
X018414Y007200D01*
X018385Y007171D02*
X017854Y007171D01*
X017826Y007143D02*
X018357Y007143D01*
X018328Y007114D02*
X017797Y007114D01*
X017769Y007086D02*
X018316Y007086D01*
X018316Y007057D02*
X017740Y007057D01*
X017712Y007029D02*
X018316Y007029D01*
X018316Y007000D02*
X017683Y007000D01*
X017655Y006972D02*
X018316Y006972D01*
X018316Y006943D02*
X017626Y006943D01*
X017598Y006915D02*
X018341Y006915D01*
X018369Y006886D02*
X017569Y006886D01*
X017541Y006858D02*
X018398Y006858D01*
X018511Y007021D02*
X021109Y007021D01*
X020968Y006886D02*
X020149Y006886D01*
X020177Y006858D02*
X020997Y006858D01*
X021025Y006829D02*
X020197Y006829D01*
X020004Y007143D02*
X020956Y007143D01*
X020984Y007171D02*
X020057Y007171D01*
X020096Y007200D02*
X021013Y007200D01*
X021615Y006316D02*
X021685Y006145D01*
X019958Y006145D01*
X020027Y006174D02*
X021673Y006174D01*
X021661Y006202D02*
X020075Y006202D01*
X020103Y006231D02*
X021650Y006231D01*
X021638Y006259D02*
X020132Y006259D01*
X020160Y006288D02*
X021626Y006288D01*
X021799Y006031D02*
X019981Y006031D01*
X020037Y006003D02*
X021843Y006003D01*
X021912Y005974D02*
X020080Y005974D01*
X020117Y005946D02*
X021981Y005946D01*
X021956Y005860D02*
X020193Y005860D01*
X020213Y005832D02*
X021887Y005832D01*
X021818Y005803D02*
X020227Y005803D01*
X020242Y005775D02*
X021789Y005775D01*
X021760Y005746D02*
X020252Y005746D01*
X020262Y005718D02*
X021732Y005718D01*
X021703Y005689D02*
X020270Y005689D01*
X020275Y005661D02*
X021681Y005661D01*
X021669Y005632D02*
X020279Y005632D01*
X020281Y005604D02*
X021657Y005604D01*
X021645Y005575D02*
X019811Y005575D01*
X019811Y005566D02*
X019811Y005596D01*
X019781Y005596D01*
X019781Y005566D01*
X019811Y005566D01*
X019811Y005096D01*
X019834Y005096D01*
X019910Y005108D01*
X019982Y005132D01*
X020050Y005166D01*
X020112Y005211D01*
X020166Y005265D01*
X020211Y005327D01*
X020246Y005395D01*
X020269Y005468D01*
X020281Y005543D01*
X020281Y005566D01*
X019811Y005566D01*
X019811Y005547D02*
X019781Y005547D01*
X019781Y005566D02*
X019781Y005096D01*
X019758Y005096D01*
X019682Y005108D01*
X019610Y005132D01*
X019542Y005166D01*
X019480Y005211D01*
X019426Y005265D01*
X019381Y005327D01*
X019347Y005395D01*
X019323Y005468D01*
X019311Y005543D01*
X019311Y005566D01*
X019781Y005566D01*
X019781Y005575D02*
X017519Y005575D01*
X017519Y005547D02*
X019311Y005547D01*
X019315Y005518D02*
X017519Y005518D01*
X017519Y005490D02*
X019320Y005490D01*
X019325Y005461D02*
X017519Y005461D01*
X017519Y005433D02*
X019334Y005433D01*
X019344Y005404D02*
X017519Y005404D01*
X017519Y005376D02*
X019356Y005376D01*
X019371Y005347D02*
X017519Y005347D01*
X017519Y005319D02*
X019387Y005319D01*
X019408Y005290D02*
X017519Y005290D01*
X017519Y005262D02*
X019430Y005262D01*
X019458Y005233D02*
X017519Y005233D01*
X017519Y005205D02*
X019489Y005205D01*
X019528Y005176D02*
X017519Y005176D01*
X017519Y005148D02*
X019579Y005148D01*
X019649Y005119D02*
X017519Y005119D01*
X017519Y005091D02*
X021739Y005091D01*
X021711Y005119D02*
X019944Y005119D01*
X020013Y005148D02*
X021684Y005148D01*
X021672Y005176D02*
X020064Y005176D01*
X020103Y005205D02*
X021660Y005205D01*
X021649Y005233D02*
X020134Y005233D01*
X020162Y005262D02*
X021637Y005262D01*
X021625Y005290D02*
X020184Y005290D01*
X020205Y005319D02*
X021615Y005319D01*
X021615Y005347D02*
X020221Y005347D01*
X020236Y005376D02*
X021615Y005376D01*
X021615Y005404D02*
X020248Y005404D01*
X020258Y005433D02*
X021615Y005433D01*
X021615Y005461D02*
X020267Y005461D01*
X020273Y005490D02*
X021615Y005490D01*
X021622Y005518D02*
X020277Y005518D01*
X020281Y005547D02*
X021634Y005547D01*
X021768Y005062D02*
X017519Y005062D01*
X017519Y005034D02*
X019673Y005034D01*
X019604Y005005D02*
X017519Y005005D01*
X017519Y004977D02*
X019536Y004977D01*
X019505Y004948D02*
X017519Y004948D01*
X017519Y004920D02*
X019477Y004920D01*
X019448Y004891D02*
X017519Y004891D01*
X017519Y004863D02*
X019420Y004863D01*
X019398Y004834D02*
X017519Y004834D01*
X017519Y004806D02*
X019386Y004806D01*
X019374Y004777D02*
X017519Y004777D01*
X017519Y004749D02*
X019362Y004749D01*
X019350Y004720D02*
X017519Y004720D01*
X017519Y004692D02*
X019339Y004692D01*
X019331Y004663D02*
X017519Y004663D01*
X017519Y004635D02*
X019331Y004635D01*
X019331Y004606D02*
X017519Y004606D01*
X017519Y004578D02*
X019331Y004578D01*
X019331Y004549D02*
X017519Y004549D01*
X017519Y004521D02*
X019331Y004521D01*
X019331Y004492D02*
X017519Y004492D01*
X017519Y004464D02*
X019341Y004464D01*
X019353Y004435D02*
X018966Y004435D01*
X018956Y004446D02*
X018794Y004446D01*
X018709Y004361D01*
X018270Y004361D01*
X018185Y004446D01*
X018024Y004446D01*
X017909Y004331D01*
X017909Y004170D01*
X018024Y004056D01*
X018185Y004056D01*
X018270Y004141D01*
X018709Y004141D01*
X018794Y004056D01*
X018956Y004056D01*
X019070Y004170D01*
X019070Y004331D01*
X018956Y004446D01*
X018994Y004407D02*
X019365Y004407D01*
X019377Y004378D02*
X019023Y004378D01*
X019051Y004350D02*
X019389Y004350D01*
X019400Y004321D02*
X019070Y004321D01*
X019070Y004293D02*
X019427Y004293D01*
X019436Y004264D02*
X019070Y004264D01*
X019070Y004236D02*
X019408Y004236D01*
X019379Y004207D02*
X019070Y004207D01*
X019070Y004179D02*
X019351Y004179D01*
X019322Y004150D02*
X019050Y004150D01*
X019022Y004122D02*
X019294Y004122D01*
X019265Y004093D02*
X018993Y004093D01*
X018965Y004065D02*
X019237Y004065D01*
X019208Y004036D02*
X017519Y004036D01*
X017519Y004008D02*
X019180Y004008D01*
X019151Y003979D02*
X017519Y003979D01*
X017519Y003951D02*
X019123Y003951D01*
X019094Y003922D02*
X017519Y003922D01*
X017519Y003894D02*
X019066Y003894D01*
X019037Y003865D02*
X017519Y003865D01*
X017519Y003837D02*
X019009Y003837D01*
X018980Y003808D02*
X017519Y003808D01*
X017519Y003780D02*
X018952Y003780D01*
X018923Y003751D02*
X017519Y003751D01*
X017519Y003723D02*
X018895Y003723D01*
X018866Y003694D02*
X017519Y003694D01*
X017519Y003666D02*
X018838Y003666D01*
X018809Y003637D02*
X017519Y003637D01*
X017519Y003609D02*
X018781Y003609D01*
X018752Y003580D02*
X017519Y003580D01*
X017519Y003552D02*
X018724Y003552D01*
X018695Y003523D02*
X017519Y003523D01*
X017519Y003495D02*
X018667Y003495D01*
X018638Y003466D02*
X017519Y003466D01*
X017519Y003438D02*
X018610Y003438D01*
X018581Y003409D02*
X017519Y003409D01*
X017519Y003381D02*
X018553Y003381D01*
X018524Y003352D02*
X017519Y003352D01*
X017519Y003324D02*
X018496Y003324D01*
X018467Y003295D02*
X017519Y003295D01*
X017519Y003267D02*
X018439Y003267D01*
X018410Y003238D02*
X017519Y003238D01*
X017519Y003210D02*
X018382Y003210D01*
X018353Y003181D02*
X017519Y003181D01*
X017519Y003153D02*
X018325Y003153D01*
X018296Y003124D02*
X017519Y003124D01*
X017519Y003096D02*
X018268Y003096D01*
X018239Y003067D02*
X017519Y003067D01*
X017519Y003039D02*
X018211Y003039D01*
X018182Y003010D02*
X017519Y003010D01*
X017519Y002982D02*
X018154Y002982D01*
X018125Y002953D02*
X017519Y002953D01*
X017519Y002925D02*
X018097Y002925D01*
X018068Y002896D02*
X017519Y002896D01*
X017519Y002868D02*
X018040Y002868D01*
X018011Y002839D02*
X017519Y002839D01*
X017519Y002811D02*
X017983Y002811D01*
X017954Y002782D02*
X017519Y002782D01*
X017519Y002754D02*
X017926Y002754D01*
X017897Y002725D02*
X017519Y002725D01*
X017519Y002697D02*
X017869Y002697D01*
X017840Y002668D02*
X017519Y002668D01*
X017519Y002640D02*
X017812Y002640D01*
X017783Y002611D02*
X017519Y002611D01*
X017519Y002583D02*
X017755Y002583D01*
X017726Y002554D02*
X017519Y002554D01*
X017545Y002526D02*
X017698Y002526D01*
X017669Y002497D02*
X017573Y002497D01*
X017589Y002469D02*
X017641Y002469D01*
X017612Y002440D02*
X017589Y002440D01*
X017766Y002241D02*
X017876Y002241D01*
X017876Y002269D02*
X017795Y002269D01*
X017823Y002298D02*
X017876Y002298D01*
X017876Y002326D02*
X017852Y002326D01*
X017898Y002212D02*
X017738Y002212D01*
X017709Y002184D02*
X017927Y002184D01*
X017955Y002155D02*
X017681Y002155D01*
X017652Y002127D02*
X017984Y002127D01*
X017624Y002098D02*
X021693Y002098D01*
X021693Y002070D02*
X017595Y002070D01*
X017567Y002041D02*
X021693Y002041D01*
X021693Y002013D02*
X017538Y002013D01*
X017510Y001984D02*
X021693Y001984D01*
X021693Y001956D02*
X017481Y001956D01*
X017453Y001927D02*
X021693Y001927D01*
X021700Y001899D02*
X017424Y001899D01*
X017396Y001870D02*
X021711Y001870D01*
X021723Y001842D02*
X017367Y001842D01*
X017339Y001813D02*
X021735Y001813D01*
X021747Y001785D02*
X017310Y001785D01*
X017185Y002013D02*
X016938Y002013D01*
X017013Y002088D01*
X017013Y002250D01*
X016898Y002364D01*
X016882Y002364D01*
X016965Y002447D01*
X016965Y002608D01*
X016851Y002723D01*
X016689Y002723D01*
X016604Y002637D01*
X016604Y002784D01*
X016571Y002817D01*
X016668Y002914D01*
X016668Y003075D01*
X016554Y003190D01*
X016392Y003190D01*
X016308Y003106D01*
X015152Y003112D01*
X015066Y003198D01*
X014904Y003198D01*
X014790Y003083D01*
X014790Y002922D01*
X014904Y002808D01*
X015066Y002808D01*
X015150Y002892D01*
X015429Y002890D01*
X015377Y002838D01*
X015377Y002720D01*
X015342Y002720D01*
X015228Y002606D01*
X015228Y002481D01*
X015188Y002481D01*
X015103Y002566D01*
X014941Y002566D01*
X014827Y002451D01*
X014827Y002448D01*
X014759Y002516D01*
X014597Y002516D01*
X014517Y002437D01*
X013265Y002437D01*
X012392Y003310D01*
X012324Y003378D01*
X009178Y003378D01*
X008246Y004310D01*
X008246Y008577D01*
X008265Y008596D02*
X014514Y008596D01*
X014514Y008625D02*
X008294Y008625D01*
X008322Y008653D02*
X014514Y008653D01*
X014514Y008682D02*
X008351Y008682D01*
X008379Y008710D02*
X014514Y008710D01*
X014514Y008739D02*
X008408Y008739D01*
X008436Y008767D02*
X014514Y008767D01*
X014514Y008796D02*
X008465Y008796D01*
X008493Y008824D02*
X014514Y008824D01*
X014514Y008853D02*
X008522Y008853D01*
X008550Y008881D02*
X008607Y008881D01*
X008843Y008881D02*
X014468Y008881D01*
X014429Y008910D02*
X008909Y008910D01*
X008937Y008938D02*
X014400Y008938D01*
X014372Y008967D02*
X008966Y008967D01*
X008994Y008995D02*
X014353Y008995D01*
X014341Y009024D02*
X009008Y009024D01*
X009020Y009052D02*
X014329Y009052D01*
X014317Y009081D02*
X009032Y009081D01*
X009044Y009109D02*
X014310Y009109D01*
X014310Y009138D02*
X009047Y009138D01*
X009047Y009166D02*
X014310Y009166D01*
X014310Y009195D02*
X009047Y009195D01*
X009047Y009223D02*
X014310Y009223D01*
X014321Y009252D02*
X009044Y009252D01*
X009033Y009280D02*
X014333Y009280D01*
X014344Y009309D02*
X009021Y009309D01*
X009009Y009337D02*
X014356Y009337D01*
X014380Y009366D02*
X008996Y009366D01*
X008968Y009394D02*
X014409Y009394D01*
X014437Y009423D02*
X008939Y009423D01*
X008911Y009451D02*
X014489Y009451D01*
X014557Y009480D02*
X008846Y009480D01*
X008603Y009480D02*
X001628Y009480D01*
X001628Y009508D02*
X019838Y009508D01*
X019809Y009480D02*
X014707Y009480D01*
X014776Y009451D02*
X019781Y009451D01*
X019752Y009423D02*
X014827Y009423D01*
X014856Y009394D02*
X019724Y009394D01*
X019695Y009366D02*
X014884Y009366D01*
X014909Y009337D02*
X019667Y009337D01*
X019638Y009309D02*
X014920Y009309D01*
X014932Y009280D02*
X019610Y009280D01*
X019581Y009252D02*
X014944Y009252D01*
X014955Y009223D02*
X019553Y009223D01*
X019524Y009195D02*
X014955Y009195D01*
X014955Y009166D02*
X019496Y009166D01*
X019467Y009138D02*
X014955Y009138D01*
X014955Y009109D02*
X019439Y009109D01*
X019410Y009081D02*
X014948Y009081D01*
X014936Y009052D02*
X019382Y009052D01*
X019353Y009024D02*
X014924Y009024D01*
X014912Y008995D02*
X019325Y008995D01*
X019296Y008967D02*
X014893Y008967D01*
X014865Y008938D02*
X019268Y008938D01*
X019239Y008910D02*
X014836Y008910D01*
X014797Y008881D02*
X019211Y008881D01*
X019182Y008853D02*
X014764Y008853D01*
X014764Y008824D02*
X019154Y008824D01*
X019125Y008796D02*
X014764Y008796D01*
X014764Y008767D02*
X019097Y008767D01*
X019068Y008739D02*
X014764Y008739D01*
X014764Y008710D02*
X019040Y008710D01*
X019011Y008682D02*
X014764Y008682D01*
X014764Y008653D02*
X018983Y008653D01*
X018954Y008625D02*
X014764Y008625D01*
X014764Y008596D02*
X018926Y008596D01*
X018897Y008568D02*
X014764Y008568D01*
X014764Y008539D02*
X018869Y008539D01*
X018840Y008511D02*
X014764Y008511D01*
X014764Y008482D02*
X018812Y008482D01*
X018783Y008454D02*
X014764Y008454D01*
X014764Y008425D02*
X018755Y008425D01*
X018726Y008397D02*
X014764Y008397D01*
X014764Y008368D02*
X018698Y008368D01*
X018669Y008340D02*
X014764Y008340D01*
X014764Y008311D02*
X018641Y008311D01*
X018612Y008283D02*
X014764Y008283D01*
X014764Y008254D02*
X018584Y008254D01*
X018555Y008226D02*
X014764Y008226D01*
X014764Y008197D02*
X018527Y008197D01*
X018498Y008169D02*
X014764Y008169D01*
X014764Y008140D02*
X018470Y008140D01*
X018441Y008112D02*
X014764Y008112D01*
X014764Y008083D02*
X018413Y008083D01*
X018384Y008055D02*
X014764Y008055D01*
X014764Y008026D02*
X018356Y008026D01*
X018327Y007998D02*
X014764Y007998D01*
X014764Y007969D02*
X018299Y007969D01*
X018270Y007941D02*
X014764Y007941D01*
X014764Y007912D02*
X018242Y007912D01*
X018213Y007884D02*
X014764Y007884D01*
X014764Y007855D02*
X018185Y007855D01*
X018156Y007827D02*
X014764Y007827D01*
X014764Y007798D02*
X018128Y007798D01*
X018099Y007770D02*
X014764Y007770D01*
X014764Y007741D02*
X018071Y007741D01*
X018042Y007713D02*
X014764Y007713D01*
X014764Y007684D02*
X018014Y007684D01*
X017985Y007656D02*
X014764Y007656D01*
X014764Y007627D02*
X017957Y007627D01*
X017928Y007599D02*
X014764Y007599D01*
X014764Y007570D02*
X017900Y007570D01*
X017871Y007542D02*
X014764Y007542D01*
X014764Y007513D02*
X017843Y007513D01*
X017814Y007485D02*
X014764Y007485D01*
X014764Y007456D02*
X017786Y007456D01*
X017757Y007428D02*
X014764Y007428D01*
X014764Y007399D02*
X017729Y007399D01*
X017700Y007371D02*
X014764Y007371D01*
X014764Y007342D02*
X017672Y007342D01*
X017643Y007314D02*
X014764Y007314D01*
X014764Y007285D02*
X017615Y007285D01*
X017586Y007257D02*
X014764Y007257D01*
X014764Y007228D02*
X017558Y007228D01*
X017529Y007200D02*
X014764Y007200D01*
X014764Y007171D02*
X017501Y007171D01*
X017472Y007143D02*
X014764Y007143D01*
X014764Y007114D02*
X017444Y007114D01*
X017415Y007086D02*
X014764Y007086D01*
X014764Y007057D02*
X017387Y007057D01*
X017358Y007029D02*
X014764Y007029D01*
X014764Y007000D02*
X017330Y007000D01*
X017301Y006972D02*
X014764Y006972D01*
X014764Y006943D02*
X017273Y006943D01*
X017244Y006915D02*
X014764Y006915D01*
X014764Y006886D02*
X017216Y006886D01*
X017187Y006858D02*
X014764Y006858D01*
X014764Y006829D02*
X017159Y006829D01*
X017130Y006801D02*
X014764Y006801D01*
X014764Y006772D02*
X017102Y006772D01*
X017073Y006744D02*
X014764Y006744D01*
X014764Y006715D02*
X017045Y006715D01*
X017016Y006687D02*
X014764Y006687D01*
X014764Y006658D02*
X016988Y006658D01*
X016959Y006630D02*
X014764Y006630D01*
X014764Y006601D02*
X016931Y006601D01*
X016902Y006573D02*
X014764Y006573D01*
X014764Y006544D02*
X016874Y006544D01*
X016845Y006516D02*
X014773Y006516D01*
X014802Y006487D02*
X016817Y006487D01*
X016788Y006459D02*
X014830Y006459D01*
X014859Y006430D02*
X016760Y006430D01*
X016731Y006402D02*
X014887Y006402D01*
X014916Y006373D02*
X016703Y006373D01*
X016674Y006345D02*
X014944Y006345D01*
X014973Y006316D02*
X016646Y006316D01*
X016617Y006288D02*
X015001Y006288D01*
X015030Y006259D02*
X016589Y006259D01*
X016560Y006231D02*
X015058Y006231D01*
X015087Y006202D02*
X016532Y006202D01*
X016503Y006174D02*
X015115Y006174D01*
X015144Y006145D02*
X016475Y006145D01*
X016446Y006117D02*
X015172Y006117D01*
X015201Y006088D02*
X016418Y006088D01*
X016389Y006060D02*
X015229Y006060D01*
X015372Y005917D02*
X015428Y005917D01*
X015428Y005889D02*
X015400Y005889D01*
X015452Y005682D02*
X015445Y005081D01*
X015849Y004677D01*
X015855Y004123D01*
X015874Y004190D01*
X015875Y004190D01*
X015879Y004194D01*
X015879Y004198D01*
X015743Y004287D02*
X015660Y004203D01*
X015660Y004042D01*
X015774Y003928D01*
X015902Y003928D01*
X016009Y003821D01*
X016170Y003821D01*
X016255Y003905D01*
X016995Y003903D01*
X017081Y003817D01*
X017242Y003817D01*
X017269Y003845D01*
X017269Y003588D01*
X016318Y003588D01*
X016233Y003673D01*
X016072Y003673D01*
X015957Y003559D01*
X015957Y003397D01*
X016072Y003283D01*
X016233Y003283D01*
X016318Y003368D01*
X017188Y003368D01*
X017208Y003349D01*
X017269Y003349D01*
X017269Y002551D01*
X017199Y002481D01*
X017199Y002319D01*
X017314Y002205D01*
X017377Y002205D01*
X017185Y002013D01*
X017213Y002041D02*
X016966Y002041D01*
X016994Y002070D02*
X017242Y002070D01*
X017270Y002098D02*
X017013Y002098D01*
X017013Y002127D02*
X017299Y002127D01*
X017327Y002155D02*
X017013Y002155D01*
X017013Y002184D02*
X017356Y002184D01*
X017307Y002212D02*
X017013Y002212D01*
X017013Y002241D02*
X017278Y002241D01*
X017250Y002269D02*
X016993Y002269D01*
X016965Y002298D02*
X017221Y002298D01*
X017199Y002326D02*
X016936Y002326D01*
X016908Y002355D02*
X017199Y002355D01*
X017199Y002383D02*
X016901Y002383D01*
X016930Y002412D02*
X017199Y002412D01*
X017199Y002440D02*
X016958Y002440D01*
X016965Y002469D02*
X017199Y002469D01*
X017216Y002497D02*
X016965Y002497D01*
X016965Y002526D02*
X017244Y002526D01*
X017269Y002554D02*
X016965Y002554D01*
X016965Y002583D02*
X017269Y002583D01*
X017269Y002611D02*
X016962Y002611D01*
X016934Y002640D02*
X017269Y002640D01*
X017269Y002668D02*
X016905Y002668D01*
X016877Y002697D02*
X017269Y002697D01*
X017269Y002725D02*
X016604Y002725D01*
X016604Y002697D02*
X016663Y002697D01*
X016635Y002668D02*
X016604Y002668D01*
X016604Y002640D02*
X016606Y002640D01*
X016604Y002754D02*
X017269Y002754D01*
X017269Y002782D02*
X016604Y002782D01*
X016577Y002811D02*
X017269Y002811D01*
X017269Y002839D02*
X016594Y002839D01*
X016622Y002868D02*
X017269Y002868D01*
X017269Y002896D02*
X016651Y002896D01*
X016668Y002925D02*
X017269Y002925D01*
X017269Y002953D02*
X016668Y002953D01*
X016668Y002982D02*
X017269Y002982D01*
X017269Y003010D02*
X016668Y003010D01*
X016668Y003039D02*
X017269Y003039D01*
X017269Y003067D02*
X016668Y003067D01*
X016648Y003096D02*
X017269Y003096D01*
X017269Y003124D02*
X016619Y003124D01*
X016591Y003153D02*
X017269Y003153D01*
X017269Y003181D02*
X016562Y003181D01*
X016384Y003181D02*
X015082Y003181D01*
X015111Y003153D02*
X016356Y003153D01*
X016327Y003124D02*
X015139Y003124D01*
X015093Y003284D02*
X014932Y003284D01*
X014847Y003369D01*
X014785Y003369D01*
X014700Y003284D01*
X014538Y003284D01*
X014424Y003398D01*
X014424Y003560D01*
X014538Y003674D01*
X014700Y003674D01*
X014785Y003589D01*
X014847Y003589D01*
X014932Y003674D01*
X015093Y003674D01*
X015208Y003560D01*
X015208Y003398D01*
X015093Y003284D01*
X015105Y003295D02*
X016060Y003295D01*
X016031Y003324D02*
X015133Y003324D01*
X015162Y003352D02*
X016003Y003352D01*
X015974Y003381D02*
X015190Y003381D01*
X015208Y003409D02*
X015957Y003409D01*
X015957Y003438D02*
X015208Y003438D01*
X015208Y003466D02*
X015957Y003466D01*
X015957Y003495D02*
X015208Y003495D01*
X015208Y003523D02*
X015957Y003523D01*
X015957Y003552D02*
X015208Y003552D01*
X015187Y003580D02*
X015979Y003580D01*
X016007Y003609D02*
X015159Y003609D01*
X015130Y003637D02*
X016036Y003637D01*
X016064Y003666D02*
X015102Y003666D01*
X014924Y003666D02*
X014708Y003666D01*
X014736Y003637D02*
X014895Y003637D01*
X014867Y003609D02*
X014765Y003609D01*
X014619Y003479D02*
X015013Y003479D01*
X014864Y003352D02*
X014768Y003352D01*
X014739Y003324D02*
X014892Y003324D01*
X014921Y003295D02*
X014711Y003295D01*
X014527Y003295D02*
X014044Y003295D01*
X014044Y003267D02*
X017269Y003267D01*
X017269Y003295D02*
X016245Y003295D01*
X016274Y003324D02*
X017269Y003324D01*
X017204Y003352D02*
X016302Y003352D01*
X016152Y003478D02*
X017234Y003478D01*
X017253Y003459D01*
X017389Y003459D01*
X017394Y003454D01*
X017394Y003454D01*
X017269Y003609D02*
X016298Y003609D01*
X016269Y003637D02*
X017269Y003637D01*
X017269Y003666D02*
X016241Y003666D01*
X016186Y003837D02*
X017061Y003837D01*
X017033Y003865D02*
X016215Y003865D01*
X016243Y003894D02*
X017004Y003894D01*
X017161Y004012D02*
X016089Y004016D01*
X015964Y003865D02*
X014016Y003865D01*
X014044Y003893D02*
X014044Y004055D01*
X013930Y004169D01*
X013768Y004169D01*
X013654Y004055D01*
X013654Y003893D01*
X013739Y003808D01*
X008748Y003808D01*
X008776Y003780D02*
X013739Y003780D01*
X013739Y003808D02*
X013739Y003461D01*
X013654Y003376D01*
X013654Y003214D01*
X013768Y003100D01*
X013930Y003100D01*
X014044Y003214D01*
X014044Y003376D01*
X013959Y003461D01*
X013959Y003808D01*
X017269Y003808D01*
X017269Y003780D02*
X013959Y003780D01*
X013959Y003808D02*
X014044Y003893D01*
X014044Y003894D02*
X015935Y003894D01*
X015907Y003922D02*
X014044Y003922D01*
X014044Y003951D02*
X015751Y003951D01*
X015723Y003979D02*
X014044Y003979D01*
X014044Y004008D02*
X015694Y004008D01*
X015666Y004036D02*
X014044Y004036D01*
X014034Y004065D02*
X015660Y004065D01*
X015660Y004093D02*
X014006Y004093D01*
X013977Y004122D02*
X015660Y004122D01*
X015660Y004150D02*
X013949Y004150D01*
X013749Y004150D02*
X011871Y004150D01*
X011894Y004127D02*
X011809Y004212D01*
X011809Y004597D01*
X012457Y004597D01*
X012385Y004525D01*
X012385Y004364D01*
X012500Y004250D01*
X012661Y004250D01*
X012746Y004335D01*
X013515Y004335D01*
X013600Y004250D01*
X013761Y004250D01*
X013876Y004364D01*
X013876Y004525D01*
X013804Y004597D01*
X013942Y004597D01*
X014027Y004512D01*
X014188Y004512D01*
X014302Y004626D01*
X014302Y004788D01*
X014188Y004902D01*
X014027Y004902D01*
X013942Y004817D01*
X011695Y004817D01*
X011654Y004775D01*
X011589Y004711D01*
X011589Y004212D01*
X011504Y004127D01*
X011504Y003965D01*
X011618Y003851D01*
X011780Y003851D01*
X011894Y003965D01*
X011894Y004127D01*
X011894Y004122D02*
X013721Y004122D01*
X013692Y004093D02*
X011894Y004093D01*
X011894Y004065D02*
X013664Y004065D01*
X013654Y004036D02*
X011894Y004036D01*
X011894Y004008D02*
X013654Y004008D01*
X013654Y003979D02*
X011894Y003979D01*
X011880Y003951D02*
X013654Y003951D01*
X013654Y003922D02*
X011851Y003922D01*
X011823Y003894D02*
X013654Y003894D01*
X013682Y003865D02*
X011794Y003865D01*
X011604Y003865D02*
X008691Y003865D01*
X008719Y003837D02*
X013711Y003837D01*
X013739Y003751D02*
X008805Y003751D01*
X008833Y003723D02*
X013739Y003723D01*
X013739Y003694D02*
X008862Y003694D01*
X008890Y003666D02*
X013739Y003666D01*
X013739Y003637D02*
X008919Y003637D01*
X008947Y003609D02*
X013739Y003609D01*
X013739Y003580D02*
X008976Y003580D01*
X009004Y003552D02*
X013739Y003552D01*
X013739Y003523D02*
X009033Y003523D01*
X009061Y003495D02*
X013739Y003495D01*
X013739Y003466D02*
X009090Y003466D01*
X009118Y003438D02*
X013716Y003438D01*
X013688Y003409D02*
X009147Y003409D01*
X009175Y003381D02*
X013659Y003381D01*
X013654Y003352D02*
X012350Y003352D01*
X012378Y003324D02*
X013654Y003324D01*
X013654Y003295D02*
X012407Y003295D01*
X012392Y003310D02*
X012392Y003310D01*
X012435Y003267D02*
X013654Y003267D01*
X013654Y003238D02*
X012464Y003238D01*
X012492Y003210D02*
X013659Y003210D01*
X013687Y003181D02*
X012521Y003181D01*
X012549Y003153D02*
X013716Y003153D01*
X013744Y003124D02*
X012578Y003124D01*
X012606Y003096D02*
X014802Y003096D01*
X014790Y003067D02*
X012635Y003067D01*
X012663Y003039D02*
X014790Y003039D01*
X014790Y003010D02*
X012692Y003010D01*
X012720Y002982D02*
X014790Y002982D01*
X014790Y002953D02*
X012749Y002953D01*
X012777Y002925D02*
X014790Y002925D01*
X014816Y002896D02*
X012806Y002896D01*
X012834Y002868D02*
X014844Y002868D01*
X014873Y002839D02*
X012863Y002839D01*
X012891Y002811D02*
X014901Y002811D01*
X015069Y002811D02*
X015377Y002811D01*
X015378Y002839D02*
X015097Y002839D01*
X015126Y002868D02*
X015406Y002868D01*
X015377Y002782D02*
X012920Y002782D01*
X012948Y002754D02*
X015377Y002754D01*
X015377Y002725D02*
X012977Y002725D01*
X013005Y002697D02*
X015319Y002697D01*
X015290Y002668D02*
X013034Y002668D01*
X013062Y002640D02*
X015262Y002640D01*
X015233Y002611D02*
X013091Y002611D01*
X013119Y002583D02*
X015228Y002583D01*
X015228Y002554D02*
X015114Y002554D01*
X015143Y002526D02*
X015228Y002526D01*
X015228Y002497D02*
X015171Y002497D01*
X015226Y002371D02*
X015427Y002169D01*
X016818Y002169D01*
X016770Y002528D02*
X015423Y002525D01*
X015226Y002371D02*
X015022Y002371D01*
X014873Y002497D02*
X014778Y002497D01*
X014806Y002469D02*
X014844Y002469D01*
X014901Y002526D02*
X013176Y002526D01*
X013148Y002554D02*
X014930Y002554D01*
X014578Y002497D02*
X013205Y002497D01*
X013233Y002469D02*
X014549Y002469D01*
X014521Y002440D02*
X013262Y002440D01*
X013018Y002355D02*
X012735Y002355D01*
X012706Y002383D02*
X012993Y002383D01*
X012964Y002412D02*
X012678Y002412D01*
X012649Y002440D02*
X012936Y002440D01*
X012907Y002469D02*
X012621Y002469D01*
X012592Y002497D02*
X012879Y002497D01*
X012850Y002526D02*
X012564Y002526D01*
X012535Y002554D02*
X012822Y002554D01*
X012793Y002583D02*
X012507Y002583D01*
X012478Y002611D02*
X012765Y002611D01*
X012736Y002640D02*
X012450Y002640D01*
X012421Y002668D02*
X012708Y002668D01*
X012679Y002697D02*
X012393Y002697D01*
X012364Y002725D02*
X012651Y002725D01*
X012622Y002754D02*
X012336Y002754D01*
X012307Y002782D02*
X012594Y002782D01*
X012565Y002811D02*
X012279Y002811D01*
X012275Y002839D02*
X012537Y002839D01*
X012508Y002868D02*
X012275Y002868D01*
X012275Y002896D02*
X012480Y002896D01*
X012451Y002925D02*
X012264Y002925D01*
X012235Y002953D02*
X012423Y002953D01*
X012394Y002982D02*
X012207Y002982D01*
X012178Y003010D02*
X012366Y003010D01*
X012337Y003039D02*
X006736Y003039D01*
X006707Y003067D02*
X012309Y003067D01*
X011981Y003010D02*
X006764Y003010D01*
X006793Y002982D02*
X011598Y002982D01*
X011569Y002953D02*
X006821Y002953D01*
X006850Y002925D02*
X011541Y002925D01*
X011512Y002896D02*
X006977Y002896D01*
X007006Y002868D02*
X011491Y002868D01*
X011491Y002839D02*
X007034Y002839D01*
X007063Y002811D02*
X011491Y002811D01*
X011491Y002782D02*
X007078Y002782D01*
X007078Y002754D02*
X011491Y002754D01*
X011536Y002668D02*
X007106Y002668D01*
X007135Y002640D02*
X011564Y002640D01*
X011593Y002611D02*
X007163Y002611D01*
X007192Y002583D02*
X011720Y002583D01*
X011749Y002554D02*
X007220Y002554D01*
X007249Y002526D02*
X011777Y002526D01*
X011806Y002497D02*
X007277Y002497D01*
X007306Y002469D02*
X011834Y002469D01*
X011863Y002440D02*
X007334Y002440D01*
X007363Y002412D02*
X011891Y002412D01*
X011920Y002383D02*
X007391Y002383D01*
X007420Y002355D02*
X011948Y002355D01*
X011977Y002326D02*
X007448Y002326D01*
X007477Y002298D02*
X012005Y002298D01*
X012034Y002269D02*
X007505Y002269D01*
X007534Y002241D02*
X012042Y002241D01*
X012042Y002212D02*
X007562Y002212D01*
X007591Y002184D02*
X012042Y002184D01*
X012049Y002155D02*
X007619Y002155D01*
X007648Y002127D02*
X012077Y002127D01*
X012106Y002098D02*
X007676Y002098D01*
X007705Y002070D02*
X012134Y002070D01*
X012340Y002070D02*
X012666Y002070D01*
X012638Y002098D02*
X012368Y002098D01*
X012397Y002127D02*
X012609Y002127D01*
X012581Y002155D02*
X012425Y002155D01*
X012432Y002184D02*
X012552Y002184D01*
X012524Y002212D02*
X012432Y002212D01*
X012432Y002241D02*
X012495Y002241D01*
X012467Y002269D02*
X012432Y002269D01*
X012432Y002298D02*
X012438Y002298D01*
X012763Y002326D02*
X012990Y002326D01*
X012961Y002298D02*
X012792Y002298D01*
X012695Y002041D02*
X007733Y002041D01*
X007551Y001870D02*
X001628Y001870D01*
X001628Y001842D02*
X007579Y001842D01*
X007608Y001813D02*
X001628Y001813D01*
X001628Y001785D02*
X007636Y001785D01*
X007522Y001899D02*
X001628Y001899D01*
X001628Y001927D02*
X007494Y001927D01*
X007465Y001956D02*
X001628Y001956D01*
X001628Y001984D02*
X007437Y001984D01*
X007408Y002013D02*
X001628Y002013D01*
X001628Y002041D02*
X007380Y002041D01*
X007351Y002070D02*
X001628Y002070D01*
X001628Y002098D02*
X007323Y002098D01*
X007294Y002127D02*
X001628Y002127D01*
X001628Y002155D02*
X007266Y002155D01*
X007237Y002184D02*
X001628Y002184D01*
X001628Y002212D02*
X007209Y002212D01*
X007180Y002241D02*
X001628Y002241D01*
X001628Y002269D02*
X007152Y002269D01*
X007123Y002298D02*
X001628Y002298D01*
X001628Y002326D02*
X005835Y002326D01*
X005806Y002355D02*
X001628Y002355D01*
X001628Y002383D02*
X005778Y002383D01*
X005749Y002412D02*
X001628Y002412D01*
X001628Y002440D02*
X005721Y002440D01*
X005692Y002469D02*
X001628Y002469D01*
X001628Y002497D02*
X005664Y002497D01*
X005635Y002526D02*
X001628Y002526D01*
X001628Y002554D02*
X005607Y002554D01*
X005578Y002583D02*
X001628Y002583D01*
X001628Y002611D02*
X005550Y002611D01*
X005521Y002640D02*
X001628Y002640D01*
X001628Y002668D02*
X005493Y002668D01*
X005464Y002697D02*
X001628Y002697D01*
X001628Y002725D02*
X005436Y002725D01*
X005407Y002754D02*
X001628Y002754D01*
X001628Y002782D02*
X005379Y002782D01*
X005350Y002811D02*
X001628Y002811D01*
X001628Y002839D02*
X005322Y002839D01*
X005293Y002868D02*
X001628Y002868D01*
X001628Y002896D02*
X005265Y002896D01*
X005236Y002925D02*
X001628Y002925D01*
X001628Y002953D02*
X005208Y002953D01*
X005179Y002982D02*
X001628Y002982D01*
X001628Y003010D02*
X005151Y003010D01*
X005122Y003039D02*
X001628Y003039D01*
X001628Y003067D02*
X005094Y003067D01*
X005065Y003096D02*
X001628Y003096D01*
X001628Y003124D02*
X005037Y003124D01*
X005008Y003153D02*
X001628Y003153D01*
X001628Y003181D02*
X004980Y003181D01*
X004951Y003210D02*
X001628Y003210D01*
X001628Y003238D02*
X004923Y003238D01*
X004894Y003267D02*
X001628Y003267D01*
X001628Y003295D02*
X004866Y003295D01*
X004837Y003324D02*
X001628Y003324D01*
X001628Y003352D02*
X004809Y003352D01*
X004780Y003381D02*
X001628Y003381D01*
X001628Y003409D02*
X004752Y003409D01*
X004723Y003438D02*
X001628Y003438D01*
X001628Y003466D02*
X004695Y003466D01*
X004666Y003495D02*
X001628Y003495D01*
X001628Y003523D02*
X004638Y003523D01*
X004609Y003552D02*
X001628Y003552D01*
X001628Y003580D02*
X004581Y003580D01*
X004552Y003609D02*
X001628Y003609D01*
X001628Y003637D02*
X004524Y003637D01*
X004495Y003666D02*
X001628Y003666D01*
X001628Y003694D02*
X004467Y003694D01*
X004438Y003723D02*
X001628Y003723D01*
X001628Y003751D02*
X004410Y003751D01*
X004381Y003780D02*
X001628Y003780D01*
X001628Y003808D02*
X004353Y003808D01*
X004324Y003837D02*
X001628Y003837D01*
X001628Y003865D02*
X004296Y003865D01*
X004267Y003894D02*
X001628Y003894D01*
X001628Y003922D02*
X004239Y003922D01*
X004210Y003951D02*
X001628Y003951D01*
X001628Y003979D02*
X004182Y003979D01*
X004153Y004008D02*
X001628Y004008D01*
X001628Y004036D02*
X004125Y004036D01*
X004096Y004065D02*
X001628Y004065D01*
X001628Y004093D02*
X004068Y004093D01*
X004039Y004122D02*
X001628Y004122D01*
X001628Y004150D02*
X002824Y004150D01*
X002885Y004125D02*
X003117Y004125D01*
X003331Y004214D01*
X003494Y004377D01*
X003583Y004591D01*
X003583Y004823D01*
X003494Y005037D01*
X003331Y005201D01*
X003117Y005290D01*
X002885Y005290D01*
X002671Y005201D01*
X002507Y005037D01*
X002418Y004823D01*
X002418Y004591D01*
X002507Y004377D01*
X002671Y004214D01*
X002885Y004125D01*
X002755Y004179D02*
X001628Y004179D01*
X001628Y004207D02*
X002686Y004207D01*
X002649Y004236D02*
X001628Y004236D01*
X001628Y004264D02*
X002620Y004264D01*
X002592Y004293D02*
X001628Y004293D01*
X001628Y004321D02*
X002563Y004321D01*
X002535Y004350D02*
X001628Y004350D01*
X001628Y004378D02*
X002507Y004378D01*
X002495Y004407D02*
X001628Y004407D01*
X001628Y004435D02*
X002483Y004435D01*
X002471Y004464D02*
X001628Y004464D01*
X001628Y004492D02*
X002460Y004492D01*
X002448Y004521D02*
X001628Y004521D01*
X001628Y004549D02*
X002436Y004549D01*
X002424Y004578D02*
X001628Y004578D01*
X001628Y004606D02*
X002418Y004606D01*
X002418Y004635D02*
X001628Y004635D01*
X001628Y004663D02*
X002418Y004663D01*
X002418Y004692D02*
X001628Y004692D01*
X001628Y004720D02*
X002418Y004720D01*
X002418Y004749D02*
X001628Y004749D01*
X001628Y004777D02*
X002418Y004777D01*
X002418Y004806D02*
X001628Y004806D01*
X001628Y004834D02*
X002423Y004834D01*
X002435Y004863D02*
X001628Y004863D01*
X001628Y004891D02*
X002447Y004891D01*
X002458Y004920D02*
X001628Y004920D01*
X001628Y004948D02*
X002470Y004948D01*
X002482Y004977D02*
X001628Y004977D01*
X001628Y005005D02*
X002494Y005005D01*
X002506Y005034D02*
X001628Y005034D01*
X001628Y005062D02*
X002532Y005062D01*
X002561Y005091D02*
X001628Y005091D01*
X001628Y005119D02*
X002589Y005119D01*
X002618Y005148D02*
X001628Y005148D01*
X001628Y005176D02*
X002646Y005176D01*
X002680Y005205D02*
X001628Y005205D01*
X001628Y005233D02*
X002749Y005233D01*
X002818Y005262D02*
X001628Y005262D01*
X001628Y005290D02*
X003647Y005290D01*
X003647Y005262D02*
X003184Y005262D01*
X003253Y005233D02*
X003647Y005233D01*
X003647Y005205D02*
X003321Y005205D01*
X003355Y005176D02*
X003647Y005176D01*
X003647Y005148D02*
X003384Y005148D01*
X003412Y005119D02*
X003647Y005119D01*
X003647Y005091D02*
X003441Y005091D01*
X003469Y005062D02*
X003647Y005062D01*
X003647Y005034D02*
X003496Y005034D01*
X003508Y005005D02*
X003647Y005005D01*
X003647Y004977D02*
X003519Y004977D01*
X003531Y004948D02*
X003647Y004948D01*
X003647Y004920D02*
X003543Y004920D01*
X003555Y004891D02*
X003647Y004891D01*
X003647Y004863D02*
X003567Y004863D01*
X003578Y004834D02*
X003647Y004834D01*
X003647Y004806D02*
X003583Y004806D01*
X003583Y004777D02*
X003647Y004777D01*
X003647Y004749D02*
X003583Y004749D01*
X003583Y004720D02*
X003647Y004720D01*
X003647Y004692D02*
X003583Y004692D01*
X003583Y004663D02*
X003647Y004663D01*
X003647Y004635D02*
X003583Y004635D01*
X003583Y004606D02*
X003647Y004606D01*
X003647Y004578D02*
X003577Y004578D01*
X003566Y004549D02*
X003647Y004549D01*
X003647Y004521D02*
X003554Y004521D01*
X003542Y004492D02*
X003669Y004492D01*
X003697Y004464D02*
X003530Y004464D01*
X003518Y004435D02*
X003726Y004435D01*
X003754Y004407D02*
X003507Y004407D01*
X003495Y004378D02*
X003783Y004378D01*
X003811Y004350D02*
X003467Y004350D01*
X003438Y004321D02*
X003840Y004321D01*
X003868Y004293D02*
X003410Y004293D01*
X003381Y004264D02*
X003897Y004264D01*
X003925Y004236D02*
X003353Y004236D01*
X003315Y004207D02*
X003954Y004207D01*
X003982Y004179D02*
X003246Y004179D01*
X003178Y004150D02*
X004011Y004150D01*
X004194Y004321D02*
X005852Y004321D01*
X005852Y004293D02*
X004222Y004293D01*
X004251Y004264D02*
X005852Y004264D01*
X005852Y004236D02*
X004279Y004236D01*
X004308Y004207D02*
X005852Y004207D01*
X005852Y004179D02*
X004336Y004179D01*
X004365Y004150D02*
X005852Y004150D01*
X005852Y004122D02*
X004393Y004122D01*
X004422Y004093D02*
X005852Y004093D01*
X005852Y004065D02*
X004450Y004065D01*
X004479Y004036D02*
X005852Y004036D01*
X005852Y004008D02*
X004507Y004008D01*
X004536Y003979D02*
X005852Y003979D01*
X005852Y003951D02*
X004564Y003951D01*
X004593Y003922D02*
X005852Y003922D01*
X005852Y003894D02*
X004621Y003894D01*
X004650Y003865D02*
X005852Y003865D01*
X005852Y003837D02*
X004678Y003837D01*
X004707Y003808D02*
X005852Y003808D01*
X005852Y003780D02*
X004735Y003780D01*
X004764Y003751D02*
X005852Y003751D01*
X005852Y003723D02*
X004792Y003723D01*
X004821Y003694D02*
X005852Y003694D01*
X005852Y003666D02*
X004849Y003666D01*
X004878Y003637D02*
X005852Y003637D01*
X005852Y003609D02*
X004906Y003609D01*
X004935Y003580D02*
X005852Y003580D01*
X005852Y003552D02*
X004963Y003552D01*
X004992Y003523D02*
X005852Y003523D01*
X005852Y003495D02*
X005020Y003495D01*
X005049Y003466D02*
X005852Y003466D01*
X005852Y003438D02*
X005077Y003438D01*
X005106Y003409D02*
X005852Y003409D01*
X005852Y003381D02*
X005134Y003381D01*
X005163Y003352D02*
X005852Y003352D01*
X005852Y003324D02*
X005191Y003324D01*
X005220Y003295D02*
X005852Y003295D01*
X005852Y003267D02*
X005248Y003267D01*
X005277Y003238D02*
X005852Y003238D01*
X005852Y003210D02*
X005305Y003210D01*
X005334Y003181D02*
X005852Y003181D01*
X005852Y003153D02*
X005362Y003153D01*
X005391Y003124D02*
X005852Y003124D01*
X005852Y003096D02*
X005419Y003096D01*
X005448Y003067D02*
X005852Y003067D01*
X005852Y003039D02*
X005476Y003039D01*
X005505Y003010D02*
X005852Y003010D01*
X005852Y002982D02*
X005533Y002982D01*
X005562Y002953D02*
X005852Y002953D01*
X005852Y002925D02*
X005590Y002925D01*
X005619Y002896D02*
X005852Y002896D01*
X005852Y002868D02*
X005647Y002868D01*
X005676Y002839D02*
X005825Y002839D01*
X005797Y002811D02*
X005704Y002811D01*
X005733Y002782D02*
X005782Y002782D01*
X005782Y002754D02*
X005761Y002754D01*
X006216Y002383D02*
X007038Y002383D01*
X007066Y002355D02*
X006187Y002355D01*
X006159Y002326D02*
X007095Y002326D01*
X007009Y002412D02*
X006244Y002412D01*
X006273Y002440D02*
X006981Y002440D01*
X006952Y002469D02*
X006301Y002469D01*
X006330Y002497D02*
X006924Y002497D01*
X006796Y002526D02*
X006358Y002526D01*
X006387Y002554D02*
X006768Y002554D01*
X006739Y002583D02*
X006415Y002583D01*
X006444Y002611D02*
X006711Y002611D01*
X006688Y002640D02*
X006472Y002640D01*
X006501Y002668D02*
X006688Y002668D01*
X006688Y002697D02*
X006529Y002697D01*
X006558Y002725D02*
X006688Y002725D01*
X006667Y002754D02*
X006586Y002754D01*
X006615Y002782D02*
X006639Y002782D01*
X006679Y003096D02*
X006679Y003096D01*
X006622Y003153D02*
X009077Y003153D01*
X009049Y003181D02*
X006593Y003181D01*
X006565Y003210D02*
X009020Y003210D01*
X008992Y003238D02*
X006536Y003238D01*
X006508Y003267D02*
X008963Y003267D01*
X008935Y003295D02*
X006487Y003295D01*
X006487Y003324D02*
X008906Y003324D01*
X008878Y003352D02*
X006487Y003352D01*
X006487Y003381D02*
X008849Y003381D01*
X008821Y003409D02*
X007892Y003409D01*
X007920Y003438D02*
X008792Y003438D01*
X008764Y003466D02*
X007949Y003466D01*
X007977Y003495D02*
X008735Y003495D01*
X008707Y003523D02*
X007983Y003523D01*
X007983Y003552D02*
X008678Y003552D01*
X008650Y003580D02*
X007983Y003580D01*
X007983Y003609D02*
X008621Y003609D01*
X008593Y003637D02*
X007983Y003637D01*
X007980Y003666D02*
X008564Y003666D01*
X008536Y003694D02*
X007951Y003694D01*
X007923Y003723D02*
X008507Y003723D01*
X008479Y003751D02*
X007894Y003751D01*
X007682Y003751D02*
X006102Y003751D01*
X006102Y003723D02*
X007654Y003723D01*
X007656Y003438D02*
X006436Y003438D01*
X006464Y003409D02*
X007684Y003409D01*
X008308Y003922D02*
X006102Y003922D01*
X006102Y003894D02*
X008336Y003894D01*
X008365Y003865D02*
X006102Y003865D01*
X006102Y003837D02*
X008393Y003837D01*
X008422Y003808D02*
X006102Y003808D01*
X006102Y003780D02*
X008450Y003780D01*
X008634Y003922D02*
X011547Y003922D01*
X011576Y003894D02*
X008662Y003894D01*
X008605Y003951D02*
X011519Y003951D01*
X011504Y003979D02*
X008577Y003979D01*
X008548Y004008D02*
X011504Y004008D01*
X011504Y004036D02*
X008520Y004036D01*
X008491Y004065D02*
X011504Y004065D01*
X011504Y004093D02*
X008463Y004093D01*
X008434Y004122D02*
X011504Y004122D01*
X011528Y004150D02*
X008406Y004150D01*
X008377Y004179D02*
X011556Y004179D01*
X011585Y004207D02*
X008349Y004207D01*
X008320Y004236D02*
X011589Y004236D01*
X011589Y004264D02*
X008292Y004264D01*
X008263Y004293D02*
X011589Y004293D01*
X011589Y004321D02*
X008246Y004321D01*
X008246Y004350D02*
X011589Y004350D01*
X011589Y004378D02*
X008246Y004378D01*
X008246Y004407D02*
X011589Y004407D01*
X011589Y004435D02*
X008246Y004435D01*
X008246Y004464D02*
X011589Y004464D01*
X011589Y004492D02*
X008246Y004492D01*
X008246Y004521D02*
X011589Y004521D01*
X011589Y004549D02*
X008246Y004549D01*
X008246Y004578D02*
X011589Y004578D01*
X011589Y004606D02*
X008246Y004606D01*
X008246Y004635D02*
X011589Y004635D01*
X011589Y004663D02*
X008246Y004663D01*
X008246Y004692D02*
X011589Y004692D01*
X011599Y004720D02*
X008246Y004720D01*
X008246Y004749D02*
X011627Y004749D01*
X011656Y004777D02*
X008246Y004777D01*
X008246Y004806D02*
X011684Y004806D01*
X011741Y004707D02*
X011699Y004665D01*
X011699Y004046D01*
X011842Y004179D02*
X015660Y004179D01*
X015664Y004207D02*
X011814Y004207D01*
X011809Y004236D02*
X015692Y004236D01*
X015721Y004264D02*
X013776Y004264D01*
X013805Y004293D02*
X015743Y004293D01*
X015743Y004287D02*
X015739Y004631D01*
X015674Y004697D01*
X015674Y004564D01*
X015560Y004450D01*
X015398Y004450D01*
X015284Y004564D01*
X015284Y004726D01*
X015368Y004810D01*
X015368Y004815D01*
X015240Y004936D01*
X015238Y004936D01*
X015207Y004967D01*
X015175Y004997D01*
X015175Y004999D01*
X015173Y005000D01*
X015173Y005044D01*
X015172Y005088D01*
X015173Y005090D01*
X015173Y005247D01*
X015088Y005332D01*
X015088Y005370D01*
X014980Y005370D01*
X014872Y005478D01*
X014761Y005367D01*
X014600Y005367D01*
X014515Y005452D01*
X013769Y005452D01*
X013684Y005367D01*
X013522Y005367D01*
X013408Y005481D01*
X013408Y005643D01*
X013522Y005757D01*
X013684Y005757D01*
X013769Y005672D01*
X014515Y005672D01*
X014600Y005757D01*
X014761Y005757D01*
X014869Y005649D01*
X014923Y005703D01*
X014923Y005709D01*
X014563Y006069D01*
X014442Y006069D01*
X014328Y006183D01*
X014328Y006345D01*
X008246Y006345D01*
X008246Y006373D02*
X014357Y006373D01*
X014385Y006402D02*
X008246Y006402D01*
X008246Y006430D02*
X014414Y006430D01*
X014442Y006459D02*
X014328Y006345D01*
X014328Y006316D02*
X008246Y006316D01*
X008246Y006288D02*
X014328Y006288D01*
X014328Y006259D02*
X008246Y006259D01*
X008246Y006231D02*
X014328Y006231D01*
X014328Y006202D02*
X008246Y006202D01*
X008246Y006174D02*
X014338Y006174D01*
X014366Y006145D02*
X008246Y006145D01*
X008246Y006117D02*
X014395Y006117D01*
X014423Y006088D02*
X008246Y006088D01*
X008246Y006060D02*
X014572Y006060D01*
X014600Y006031D02*
X008246Y006031D01*
X008246Y006003D02*
X014629Y006003D01*
X014657Y005974D02*
X008246Y005974D01*
X008246Y005946D02*
X014686Y005946D01*
X014714Y005917D02*
X008246Y005917D01*
X008246Y005889D02*
X014743Y005889D01*
X014771Y005860D02*
X008246Y005860D01*
X008246Y005832D02*
X014800Y005832D01*
X014828Y005803D02*
X008246Y005803D01*
X008246Y005775D02*
X014857Y005775D01*
X014885Y005746D02*
X014772Y005746D01*
X014800Y005718D02*
X014914Y005718D01*
X014910Y005689D02*
X014829Y005689D01*
X014857Y005661D02*
X014881Y005661D01*
X015033Y005593D02*
X015033Y005754D01*
X014523Y006264D01*
X014639Y006495D02*
X015452Y005682D01*
X015562Y005661D02*
X015864Y005661D01*
X015835Y005632D02*
X015561Y005632D01*
X015561Y005604D02*
X015807Y005604D01*
X015778Y005575D02*
X015560Y005575D01*
X015560Y005547D02*
X015762Y005547D01*
X015762Y005518D02*
X015560Y005518D01*
X015560Y005490D02*
X015762Y005490D01*
X015762Y005461D02*
X015559Y005461D01*
X015559Y005433D02*
X015762Y005433D01*
X015762Y005404D02*
X015559Y005404D01*
X015558Y005376D02*
X015784Y005376D01*
X015812Y005347D02*
X015558Y005347D01*
X015558Y005319D02*
X015841Y005319D01*
X015869Y005290D02*
X015736Y005290D01*
X015765Y005262D02*
X016648Y005262D01*
X016677Y005290D02*
X016045Y005290D01*
X016073Y005319D02*
X016705Y005319D01*
X016793Y005347D02*
X016102Y005347D01*
X015957Y005478D02*
X016944Y005472D01*
X016801Y005604D02*
X016107Y005604D01*
X016079Y005632D02*
X016829Y005632D01*
X016858Y005661D02*
X016050Y005661D01*
X015752Y005718D02*
X017269Y005718D01*
X017269Y005746D02*
X016429Y005746D01*
X016458Y005775D02*
X017269Y005775D01*
X017269Y005803D02*
X016486Y005803D01*
X016515Y005832D02*
X017269Y005832D01*
X017269Y005860D02*
X016543Y005860D01*
X016572Y005889D02*
X017269Y005889D01*
X017269Y005917D02*
X016600Y005917D01*
X016629Y005946D02*
X017269Y005946D01*
X017269Y005974D02*
X016657Y005974D01*
X016686Y006003D02*
X017269Y006003D01*
X017269Y006031D02*
X016714Y006031D01*
X016743Y006060D02*
X017269Y006060D01*
X017269Y006088D02*
X016771Y006088D01*
X016800Y006117D02*
X017269Y006117D01*
X017269Y006145D02*
X016828Y006145D01*
X016857Y006174D02*
X017269Y006174D01*
X017269Y006202D02*
X016885Y006202D01*
X016914Y006231D02*
X017269Y006231D01*
X017269Y006259D02*
X016942Y006259D01*
X016971Y006288D02*
X017247Y006288D01*
X017218Y006316D02*
X016999Y006316D01*
X017028Y006345D02*
X017199Y006345D01*
X017199Y006373D02*
X017056Y006373D01*
X017085Y006402D02*
X017199Y006402D01*
X017199Y006430D02*
X017113Y006430D01*
X017142Y006459D02*
X017199Y006459D01*
X017199Y006487D02*
X017170Y006487D01*
X017199Y006516D02*
X017219Y006516D01*
X017227Y006544D02*
X017247Y006544D01*
X017256Y006573D02*
X017276Y006573D01*
X017284Y006601D02*
X017304Y006601D01*
X017519Y006031D02*
X019611Y006031D01*
X019610Y006031D02*
X019542Y005996D01*
X019480Y005951D01*
X019426Y005897D01*
X019381Y005835D01*
X019347Y005767D01*
X019323Y005695D01*
X019311Y005619D01*
X019311Y005596D01*
X019781Y005596D01*
X019781Y006066D01*
X019758Y006066D01*
X019682Y006054D01*
X019610Y006031D01*
X019555Y006003D02*
X017519Y006003D01*
X017519Y005974D02*
X019512Y005974D01*
X019475Y005946D02*
X017519Y005946D01*
X017519Y005917D02*
X019446Y005917D01*
X019420Y005889D02*
X017519Y005889D01*
X017519Y005860D02*
X019399Y005860D01*
X019379Y005832D02*
X017519Y005832D01*
X017519Y005803D02*
X019365Y005803D01*
X019350Y005775D02*
X017519Y005775D01*
X017519Y005746D02*
X019340Y005746D01*
X019330Y005718D02*
X017519Y005718D01*
X017519Y005689D02*
X019322Y005689D01*
X019318Y005661D02*
X017519Y005661D01*
X017519Y005632D02*
X019313Y005632D01*
X019311Y005604D02*
X017519Y005604D01*
X017269Y005604D02*
X017088Y005604D01*
X017060Y005632D02*
X017269Y005632D01*
X017269Y005661D02*
X017031Y005661D01*
X017117Y005575D02*
X017269Y005575D01*
X017269Y005547D02*
X017139Y005547D01*
X017139Y005518D02*
X017269Y005518D01*
X017269Y005490D02*
X017139Y005490D01*
X017139Y005461D02*
X017269Y005461D01*
X017269Y005433D02*
X017139Y005433D01*
X017192Y005218D02*
X016760Y005218D01*
X016653Y005111D01*
X015640Y005111D01*
X015793Y005233D02*
X016620Y005233D01*
X016532Y004799D02*
X015963Y004825D01*
X016100Y004677D01*
X016107Y004466D01*
X015741Y004464D02*
X015573Y004464D01*
X015602Y004492D02*
X015741Y004492D01*
X015741Y004521D02*
X015630Y004521D01*
X015659Y004549D02*
X015740Y004549D01*
X015740Y004578D02*
X015674Y004578D01*
X015674Y004606D02*
X015740Y004606D01*
X015736Y004635D02*
X015674Y004635D01*
X015674Y004663D02*
X015707Y004663D01*
X015679Y004692D02*
X015674Y004692D01*
X015479Y004645D02*
X015477Y004863D01*
X015283Y005046D01*
X015283Y005413D01*
X015159Y005262D02*
X014191Y005262D01*
X014162Y005290D02*
X015131Y005290D01*
X015102Y005319D02*
X014134Y005319D01*
X014132Y005320D02*
X013971Y005320D01*
X013886Y005235D01*
X013474Y005235D01*
X013389Y005320D01*
X013227Y005320D01*
X013130Y005223D01*
X009105Y005223D01*
X009020Y005308D01*
X008858Y005308D01*
X008744Y005194D01*
X008744Y005032D01*
X008858Y004918D01*
X009020Y004918D01*
X009105Y005003D01*
X013142Y005003D01*
X013227Y004918D01*
X013389Y004918D01*
X013486Y005015D01*
X013886Y005015D01*
X013971Y004930D01*
X014132Y004930D01*
X014247Y005045D01*
X014247Y005206D01*
X014132Y005320D01*
X014219Y005233D02*
X015173Y005233D01*
X015173Y005205D02*
X014247Y005205D01*
X014247Y005176D02*
X015173Y005176D01*
X015173Y005148D02*
X014247Y005148D01*
X014247Y005119D02*
X015173Y005119D01*
X015173Y005091D02*
X014247Y005091D01*
X014247Y005062D02*
X015173Y005062D01*
X015173Y005034D02*
X014236Y005034D01*
X014207Y005005D02*
X015173Y005005D01*
X015196Y004977D02*
X014179Y004977D01*
X014150Y004948D02*
X015226Y004948D01*
X015257Y004920D02*
X013391Y004920D01*
X013419Y004948D02*
X013953Y004948D01*
X013924Y004977D02*
X013448Y004977D01*
X013476Y005005D02*
X013896Y005005D01*
X014016Y004891D02*
X008246Y004891D01*
X008246Y004863D02*
X013988Y004863D01*
X013959Y004834D02*
X008246Y004834D01*
X008246Y004920D02*
X008856Y004920D01*
X008828Y004948D02*
X008246Y004948D01*
X008246Y004977D02*
X008799Y004977D01*
X008771Y005005D02*
X008246Y005005D01*
X008246Y005034D02*
X008744Y005034D01*
X008744Y005062D02*
X008246Y005062D01*
X008246Y005091D02*
X008744Y005091D01*
X008744Y005119D02*
X008246Y005119D01*
X008246Y005148D02*
X008744Y005148D01*
X008744Y005176D02*
X008246Y005176D01*
X008246Y005205D02*
X008755Y005205D01*
X008784Y005233D02*
X008246Y005233D01*
X008246Y005262D02*
X008812Y005262D01*
X008841Y005290D02*
X008246Y005290D01*
X008246Y005319D02*
X013225Y005319D01*
X013197Y005290D02*
X009037Y005290D01*
X009066Y005262D02*
X013168Y005262D01*
X013140Y005233D02*
X009094Y005233D01*
X008939Y005113D02*
X013308Y005113D01*
X013308Y005125D02*
X014052Y005125D01*
X013912Y005262D02*
X013447Y005262D01*
X013419Y005290D02*
X013941Y005290D01*
X013969Y005319D02*
X013390Y005319D01*
X013485Y005404D02*
X008246Y005404D01*
X008246Y005376D02*
X013513Y005376D01*
X013456Y005433D02*
X008246Y005433D01*
X008246Y005461D02*
X013428Y005461D01*
X013408Y005490D02*
X008246Y005490D01*
X008246Y005518D02*
X013408Y005518D01*
X013408Y005547D02*
X008246Y005547D01*
X008246Y005575D02*
X013408Y005575D01*
X013408Y005604D02*
X008246Y005604D01*
X008246Y005632D02*
X013408Y005632D01*
X013426Y005661D02*
X008246Y005661D01*
X008246Y005689D02*
X013454Y005689D01*
X013483Y005718D02*
X008246Y005718D01*
X008246Y005746D02*
X013511Y005746D01*
X013694Y005746D02*
X014589Y005746D01*
X014560Y005718D02*
X013723Y005718D01*
X013751Y005689D02*
X014532Y005689D01*
X014680Y005562D02*
X013603Y005562D01*
X013749Y005433D02*
X014534Y005433D01*
X014562Y005404D02*
X013721Y005404D01*
X013692Y005376D02*
X014591Y005376D01*
X014770Y005376D02*
X014974Y005376D01*
X014946Y005404D02*
X014798Y005404D01*
X014827Y005433D02*
X014917Y005433D01*
X014889Y005461D02*
X014855Y005461D01*
X015033Y005593D02*
X015061Y005565D01*
X015088Y005347D02*
X008246Y005347D01*
X008015Y005347D02*
X006102Y005347D01*
X006102Y005319D02*
X006411Y005319D01*
X006416Y005324D02*
X006302Y005209D01*
X006302Y005048D01*
X006416Y004934D01*
X006578Y004934D01*
X006653Y005009D01*
X006979Y005009D01*
X007054Y004934D01*
X007215Y004934D01*
X007330Y005048D01*
X007330Y005209D01*
X007215Y005324D01*
X007054Y005324D01*
X006979Y005249D01*
X006653Y005249D01*
X006578Y005324D01*
X006416Y005324D01*
X006383Y005290D02*
X006102Y005290D01*
X006102Y005262D02*
X006354Y005262D01*
X006326Y005233D02*
X006102Y005233D01*
X006102Y005205D02*
X006302Y005205D01*
X006302Y005176D02*
X006102Y005176D01*
X006102Y005148D02*
X006302Y005148D01*
X006302Y005119D02*
X006102Y005119D01*
X006102Y005091D02*
X006302Y005091D01*
X006302Y005062D02*
X006102Y005062D01*
X006102Y005034D02*
X006316Y005034D01*
X006344Y005005D02*
X006102Y005005D01*
X006102Y004977D02*
X006373Y004977D01*
X006401Y004948D02*
X006102Y004948D01*
X006102Y004920D02*
X008015Y004920D01*
X008015Y004948D02*
X007230Y004948D01*
X007259Y004977D02*
X008015Y004977D01*
X008015Y005005D02*
X007287Y005005D01*
X007316Y005034D02*
X008015Y005034D01*
X008015Y005062D02*
X007330Y005062D01*
X007330Y005091D02*
X008015Y005091D01*
X008015Y005119D02*
X007330Y005119D01*
X007330Y005148D02*
X008015Y005148D01*
X008015Y005176D02*
X007330Y005176D01*
X007330Y005205D02*
X008015Y005205D01*
X008015Y005233D02*
X007306Y005233D01*
X007277Y005262D02*
X008015Y005262D01*
X008015Y005290D02*
X007249Y005290D01*
X007220Y005319D02*
X008015Y005319D01*
X008015Y005376D02*
X006102Y005376D01*
X006102Y005404D02*
X008015Y005404D01*
X008015Y005433D02*
X007583Y005433D01*
X007555Y005404D02*
X007669Y005519D01*
X007669Y005680D01*
X007555Y005794D01*
X007393Y005794D01*
X007308Y005709D01*
X006706Y005709D01*
X006621Y005794D01*
X006459Y005794D01*
X006345Y005680D01*
X006345Y005519D01*
X006459Y005404D01*
X006621Y005404D01*
X006706Y005489D01*
X007308Y005489D01*
X007393Y005404D01*
X007555Y005404D01*
X007612Y005461D02*
X008015Y005461D01*
X008015Y005490D02*
X007640Y005490D01*
X007669Y005518D02*
X008015Y005518D01*
X008015Y005547D02*
X007669Y005547D01*
X007669Y005575D02*
X008015Y005575D01*
X008015Y005604D02*
X007669Y005604D01*
X007669Y005632D02*
X008015Y005632D01*
X008015Y005661D02*
X007669Y005661D01*
X007660Y005689D02*
X008015Y005689D01*
X008015Y005718D02*
X007631Y005718D01*
X007603Y005746D02*
X008015Y005746D01*
X008015Y005775D02*
X007574Y005775D01*
X007374Y005775D02*
X006641Y005775D01*
X006669Y005746D02*
X007345Y005746D01*
X007317Y005718D02*
X006698Y005718D01*
X006540Y005599D02*
X007474Y005599D01*
X007336Y005461D02*
X006678Y005461D01*
X006649Y005433D02*
X007365Y005433D01*
X007049Y005319D02*
X006582Y005319D01*
X006611Y005290D02*
X007021Y005290D01*
X006992Y005262D02*
X006639Y005262D01*
X006431Y005433D02*
X006102Y005433D01*
X006102Y005461D02*
X006403Y005461D01*
X006374Y005490D02*
X006096Y005490D01*
X006067Y005518D02*
X006346Y005518D01*
X006345Y005547D02*
X006039Y005547D01*
X006010Y005575D02*
X006345Y005575D01*
X006345Y005604D02*
X005982Y005604D01*
X005953Y005632D02*
X006345Y005632D01*
X006345Y005661D02*
X005925Y005661D01*
X005896Y005689D02*
X006354Y005689D01*
X006383Y005718D02*
X005868Y005718D01*
X005839Y005746D02*
X006411Y005746D01*
X006440Y005775D02*
X005811Y005775D01*
X005782Y005803D02*
X008015Y005803D01*
X008015Y005832D02*
X005754Y005832D01*
X005725Y005860D02*
X008015Y005860D01*
X008015Y005889D02*
X005697Y005889D01*
X005668Y005917D02*
X008015Y005917D01*
X008015Y005946D02*
X005640Y005946D01*
X005611Y005974D02*
X008015Y005974D01*
X008015Y006003D02*
X005583Y006003D01*
X005554Y006031D02*
X008015Y006031D01*
X008015Y006060D02*
X005526Y006060D01*
X005497Y006088D02*
X008015Y006088D01*
X008015Y006117D02*
X005469Y006117D01*
X005440Y006145D02*
X008015Y006145D01*
X008015Y006174D02*
X005412Y006174D01*
X005383Y006202D02*
X008015Y006202D01*
X008015Y006231D02*
X005355Y006231D01*
X005326Y006259D02*
X008015Y006259D01*
X008015Y006288D02*
X005298Y006288D01*
X005269Y006316D02*
X008015Y006316D01*
X008015Y006345D02*
X005241Y006345D01*
X005212Y006373D02*
X008015Y006373D01*
X008015Y006402D02*
X005184Y006402D01*
X005155Y006430D02*
X008015Y006430D01*
X008015Y006459D02*
X005127Y006459D01*
X005098Y006487D02*
X008015Y006487D01*
X008015Y006516D02*
X005070Y006516D01*
X005041Y006544D02*
X008015Y006544D01*
X008015Y006573D02*
X005013Y006573D01*
X004984Y006601D02*
X008015Y006601D01*
X008015Y006630D02*
X004956Y006630D01*
X004927Y006658D02*
X008015Y006658D01*
X008015Y006687D02*
X004899Y006687D01*
X004870Y006715D02*
X008015Y006715D01*
X008015Y006744D02*
X004842Y006744D01*
X004813Y006772D02*
X008015Y006772D01*
X008015Y006801D02*
X004785Y006801D01*
X004756Y006829D02*
X008015Y006829D01*
X008015Y006858D02*
X004728Y006858D01*
X004699Y006886D02*
X008015Y006886D01*
X008015Y006915D02*
X004671Y006915D01*
X004642Y006943D02*
X008015Y006943D01*
X008015Y006972D02*
X004614Y006972D01*
X004585Y007000D02*
X008015Y007000D01*
X008015Y007029D02*
X004557Y007029D01*
X004528Y007057D02*
X008015Y007057D01*
X008015Y007086D02*
X004500Y007086D01*
X004471Y007114D02*
X008015Y007114D01*
X008015Y007143D02*
X004443Y007143D01*
X004414Y007171D02*
X008015Y007171D01*
X008015Y007200D02*
X004386Y007200D01*
X004357Y007228D02*
X008015Y007228D01*
X008015Y007257D02*
X004329Y007257D01*
X004300Y007285D02*
X008015Y007285D01*
X008015Y007314D02*
X004272Y007314D01*
X004243Y007342D02*
X008015Y007342D01*
X008015Y007371D02*
X004215Y007371D01*
X004186Y007399D02*
X008015Y007399D01*
X008015Y007428D02*
X004158Y007428D01*
X004129Y007456D02*
X008015Y007456D01*
X008015Y007485D02*
X004101Y007485D01*
X004072Y007513D02*
X008015Y007513D01*
X008015Y007542D02*
X004044Y007542D01*
X004015Y007570D02*
X008015Y007570D01*
X008015Y007599D02*
X003987Y007599D01*
X003958Y007627D02*
X008015Y007627D01*
X008015Y007656D02*
X003930Y007656D01*
X003901Y007684D02*
X008015Y007684D01*
X008015Y007713D02*
X003873Y007713D01*
X003844Y007741D02*
X008015Y007741D01*
X008015Y007770D02*
X003816Y007770D01*
X003810Y007798D02*
X008015Y007798D01*
X008015Y007827D02*
X003810Y007827D01*
X003810Y007855D02*
X008015Y007855D01*
X008015Y007884D02*
X003801Y007884D01*
X003772Y007912D02*
X008015Y007912D01*
X008015Y007941D02*
X003744Y007941D01*
X003715Y007969D02*
X008015Y007969D01*
X008015Y007998D02*
X001628Y007998D01*
X001628Y008026D02*
X008015Y008026D01*
X008015Y008055D02*
X001628Y008055D01*
X001628Y008083D02*
X008015Y008083D01*
X008015Y008112D02*
X001628Y008112D01*
X001628Y008140D02*
X008015Y008140D01*
X008015Y008169D02*
X001628Y008169D01*
X001628Y008197D02*
X008015Y008197D01*
X008015Y008226D02*
X001628Y008226D01*
X001628Y008254D02*
X008015Y008254D01*
X008015Y008283D02*
X001628Y008283D01*
X001628Y008311D02*
X008015Y008311D01*
X008015Y008340D02*
X001628Y008340D01*
X001628Y008368D02*
X008015Y008368D01*
X008015Y008397D02*
X001628Y008397D01*
X001628Y008425D02*
X008015Y008425D01*
X008015Y008454D02*
X001628Y008454D01*
X001628Y008482D02*
X008015Y008482D01*
X008015Y008511D02*
X001628Y008511D01*
X001628Y008539D02*
X008015Y008539D01*
X008015Y008568D02*
X001628Y008568D01*
X001628Y008596D02*
X008015Y008596D01*
X008015Y008625D02*
X001628Y008625D01*
X001628Y008653D02*
X008015Y008653D01*
X008025Y008682D02*
X001628Y008682D01*
X001628Y008710D02*
X008053Y008710D01*
X008082Y008739D02*
X001628Y008739D01*
X001628Y008767D02*
X008110Y008767D01*
X008139Y008796D02*
X001628Y008796D01*
X001628Y008824D02*
X008167Y008824D01*
X008196Y008853D02*
X001628Y008853D01*
X001628Y008881D02*
X008224Y008881D01*
X008253Y008910D02*
X001628Y008910D01*
X001628Y008938D02*
X008281Y008938D01*
X008310Y008967D02*
X001628Y008967D01*
X001628Y008995D02*
X008338Y008995D01*
X008367Y009024D02*
X001628Y009024D01*
X001628Y009052D02*
X008395Y009052D01*
X008417Y009081D02*
X001628Y009081D01*
X001628Y009109D02*
X008406Y009109D01*
X008402Y009138D02*
X001628Y009138D01*
X001628Y009166D02*
X008402Y009166D01*
X008402Y009195D02*
X001628Y009195D01*
X001628Y009223D02*
X008402Y009223D01*
X008405Y009252D02*
X001628Y009252D01*
X001628Y009280D02*
X008417Y009280D01*
X008429Y009309D02*
X001628Y009309D01*
X001628Y009337D02*
X008440Y009337D01*
X008453Y009366D02*
X001628Y009366D01*
X001628Y009394D02*
X008482Y009394D01*
X008510Y009423D02*
X001628Y009423D01*
X001628Y009451D02*
X008539Y009451D01*
X004289Y006943D02*
X001628Y006943D01*
X001628Y006915D02*
X004317Y006915D01*
X004346Y006886D02*
X001628Y006886D01*
X001628Y006858D02*
X004374Y006858D01*
X004403Y006829D02*
X001628Y006829D01*
X001628Y006801D02*
X004431Y006801D01*
X004460Y006772D02*
X003149Y006772D01*
X003117Y006786D02*
X002885Y006786D01*
X002671Y006697D01*
X002507Y006533D01*
X002418Y006319D01*
X002418Y006087D01*
X002507Y005873D01*
X002671Y005710D01*
X002885Y005621D01*
X003117Y005621D01*
X003331Y005710D01*
X003494Y005873D01*
X003583Y006087D01*
X003583Y006319D01*
X003494Y006533D01*
X003331Y006697D01*
X003117Y006786D01*
X003218Y006744D02*
X004488Y006744D01*
X004517Y006715D02*
X003287Y006715D01*
X003341Y006687D02*
X004545Y006687D01*
X004574Y006658D02*
X003369Y006658D01*
X003398Y006630D02*
X004602Y006630D01*
X004631Y006601D02*
X003426Y006601D01*
X003455Y006573D02*
X004659Y006573D01*
X004688Y006544D02*
X003483Y006544D01*
X003502Y006516D02*
X004716Y006516D01*
X004745Y006487D02*
X003513Y006487D01*
X003525Y006459D02*
X004773Y006459D01*
X004802Y006430D02*
X003537Y006430D01*
X003549Y006402D02*
X004830Y006402D01*
X004859Y006373D02*
X003561Y006373D01*
X003573Y006345D02*
X004887Y006345D01*
X004916Y006316D02*
X003583Y006316D01*
X003583Y006288D02*
X004944Y006288D01*
X004973Y006259D02*
X003583Y006259D01*
X003583Y006231D02*
X005001Y006231D01*
X005030Y006202D02*
X003583Y006202D01*
X003583Y006174D02*
X005058Y006174D01*
X005087Y006145D02*
X003583Y006145D01*
X003583Y006117D02*
X005115Y006117D01*
X005144Y006088D02*
X003583Y006088D01*
X003572Y006060D02*
X005144Y006060D01*
X005144Y006031D02*
X003560Y006031D01*
X003548Y006003D02*
X005144Y006003D01*
X005144Y005974D02*
X003536Y005974D01*
X003524Y005946D02*
X005144Y005946D01*
X005144Y005917D02*
X003513Y005917D01*
X003501Y005889D02*
X005144Y005889D01*
X005144Y005860D02*
X003856Y005860D01*
X003884Y005832D02*
X005144Y005832D01*
X005144Y005803D02*
X003913Y005803D01*
X003941Y005775D02*
X005144Y005775D01*
X005144Y005746D02*
X003967Y005746D01*
X003967Y005718D02*
X005144Y005718D01*
X005144Y005689D02*
X003967Y005689D01*
X003967Y005661D02*
X003997Y005661D01*
X003969Y005632D02*
X003967Y005632D01*
X003909Y005518D02*
X003899Y005518D01*
X003897Y005490D02*
X003909Y005490D01*
X003909Y005461D02*
X003897Y005461D01*
X003897Y005433D02*
X003909Y005433D01*
X003916Y005404D02*
X003897Y005404D01*
X003897Y005376D02*
X003945Y005376D01*
X003973Y005347D02*
X003897Y005347D01*
X003897Y005319D02*
X003960Y005319D01*
X003931Y005290D02*
X003897Y005290D01*
X003897Y005262D02*
X003909Y005262D01*
X003909Y005233D02*
X003897Y005233D01*
X003897Y005205D02*
X003909Y005205D01*
X003909Y005176D02*
X003897Y005176D01*
X003897Y005148D02*
X003909Y005148D01*
X003909Y005119D02*
X003897Y005119D01*
X003897Y005091D02*
X003925Y005091D01*
X003897Y005062D02*
X003954Y005062D01*
X003982Y005034D02*
X003897Y005034D01*
X003897Y005005D02*
X004011Y005005D01*
X003897Y004977D02*
X005852Y004977D01*
X005852Y005005D02*
X005354Y005005D01*
X005383Y005034D02*
X005852Y005034D01*
X005852Y005062D02*
X005411Y005062D01*
X005440Y005091D02*
X005852Y005091D01*
X005852Y005119D02*
X005464Y005119D01*
X005464Y005148D02*
X005852Y005148D01*
X005852Y005176D02*
X005464Y005176D01*
X005464Y005205D02*
X005852Y005205D01*
X005852Y005233D02*
X005464Y005233D01*
X005464Y005262D02*
X005852Y005262D01*
X005852Y005290D02*
X005449Y005290D01*
X005421Y005319D02*
X005852Y005319D01*
X005852Y005347D02*
X005394Y005347D01*
X005394Y005376D02*
X005852Y005376D01*
X005828Y005404D02*
X005394Y005404D01*
X005394Y005433D02*
X005799Y005433D01*
X005771Y005461D02*
X005394Y005461D01*
X005394Y005490D02*
X005742Y005490D01*
X005714Y005518D02*
X005394Y005518D01*
X005394Y005547D02*
X005685Y005547D01*
X005657Y005575D02*
X005394Y005575D01*
X005394Y005604D02*
X005628Y005604D01*
X005600Y005632D02*
X005394Y005632D01*
X005394Y005661D02*
X005571Y005661D01*
X005543Y005689D02*
X005394Y005689D01*
X005394Y005718D02*
X005514Y005718D01*
X005486Y005746D02*
X005394Y005746D01*
X005394Y005775D02*
X005457Y005775D01*
X005429Y005803D02*
X005394Y005803D01*
X005394Y005832D02*
X005400Y005832D01*
X005144Y005661D02*
X004211Y005661D01*
X004240Y005632D02*
X005144Y005632D01*
X005144Y005604D02*
X004268Y005604D01*
X004297Y005575D02*
X005144Y005575D01*
X005144Y005547D02*
X004299Y005547D01*
X004299Y005518D02*
X005144Y005518D01*
X005144Y005490D02*
X004299Y005490D01*
X004299Y005461D02*
X005144Y005461D01*
X005144Y005433D02*
X004299Y005433D01*
X004292Y005404D02*
X005144Y005404D01*
X005144Y005376D02*
X004264Y005376D01*
X004235Y005347D02*
X005144Y005347D01*
X005116Y005319D02*
X004249Y005319D01*
X004277Y005290D02*
X005088Y005290D01*
X005074Y005262D02*
X004299Y005262D01*
X004299Y005233D02*
X005074Y005233D01*
X005074Y005205D02*
X004299Y005205D01*
X004299Y005176D02*
X005074Y005176D01*
X005074Y005148D02*
X004299Y005148D01*
X004299Y005119D02*
X005074Y005119D01*
X005097Y005091D02*
X004283Y005091D01*
X004255Y005062D02*
X005126Y005062D01*
X005154Y005034D02*
X004226Y005034D01*
X004198Y005005D02*
X005183Y005005D01*
X005852Y004948D02*
X003897Y004948D01*
X003897Y004920D02*
X005852Y004920D01*
X005852Y004891D02*
X003897Y004891D01*
X003897Y004863D02*
X005852Y004863D01*
X005852Y004834D02*
X003897Y004834D01*
X003897Y004806D02*
X005852Y004806D01*
X005852Y004777D02*
X003897Y004777D01*
X003897Y004749D02*
X005852Y004749D01*
X005852Y004720D02*
X003897Y004720D01*
X003897Y004692D02*
X005852Y004692D01*
X005852Y004663D02*
X003897Y004663D01*
X003897Y004635D02*
X005852Y004635D01*
X005852Y004606D02*
X003909Y004606D01*
X003937Y004578D02*
X005852Y004578D01*
X005852Y004549D02*
X003966Y004549D01*
X003994Y004521D02*
X005852Y004521D01*
X005852Y004492D02*
X004023Y004492D01*
X004051Y004464D02*
X005852Y004464D01*
X005852Y004435D02*
X004080Y004435D01*
X004108Y004407D02*
X005852Y004407D01*
X005852Y004378D02*
X004137Y004378D01*
X004165Y004350D02*
X005852Y004350D01*
X006102Y004350D02*
X008015Y004350D01*
X008015Y004378D02*
X006102Y004378D01*
X006102Y004407D02*
X008015Y004407D01*
X008015Y004435D02*
X006102Y004435D01*
X006102Y004464D02*
X008015Y004464D01*
X008015Y004492D02*
X006102Y004492D01*
X006102Y004521D02*
X008015Y004521D01*
X008015Y004549D02*
X006102Y004549D01*
X006102Y004578D02*
X008015Y004578D01*
X008015Y004606D02*
X006102Y004606D01*
X006102Y004635D02*
X008015Y004635D01*
X008015Y004663D02*
X006102Y004663D01*
X006102Y004692D02*
X008015Y004692D01*
X008015Y004720D02*
X006102Y004720D01*
X006102Y004749D02*
X008015Y004749D01*
X008015Y004777D02*
X006102Y004777D01*
X006102Y004806D02*
X008015Y004806D01*
X008015Y004834D02*
X006102Y004834D01*
X006102Y004863D02*
X008015Y004863D01*
X008015Y004891D02*
X006102Y004891D01*
X006592Y004948D02*
X007039Y004948D01*
X007011Y004977D02*
X006621Y004977D01*
X006649Y005005D02*
X006982Y005005D01*
X006102Y004321D02*
X008015Y004321D01*
X008015Y004293D02*
X006102Y004293D01*
X006102Y004264D02*
X008015Y004264D01*
X008015Y004236D02*
X006102Y004236D01*
X006102Y004207D02*
X008023Y004207D01*
X008051Y004179D02*
X006102Y004179D01*
X006102Y004150D02*
X008080Y004150D01*
X008108Y004122D02*
X006102Y004122D01*
X006102Y004093D02*
X008137Y004093D01*
X008165Y004065D02*
X006102Y004065D01*
X006102Y004036D02*
X008194Y004036D01*
X008222Y004008D02*
X006102Y004008D01*
X006102Y003979D02*
X008251Y003979D01*
X008279Y003951D02*
X006102Y003951D01*
X004104Y005188D02*
X004104Y005492D01*
X003647Y005490D02*
X001628Y005490D01*
X001628Y005518D02*
X003646Y005518D01*
X003618Y005547D02*
X001628Y005547D01*
X001628Y005575D02*
X003589Y005575D01*
X003577Y005604D02*
X001628Y005604D01*
X001628Y005632D02*
X002858Y005632D01*
X002789Y005661D02*
X001628Y005661D01*
X001628Y005689D02*
X002720Y005689D01*
X002663Y005718D02*
X001628Y005718D01*
X001628Y005746D02*
X002634Y005746D01*
X002606Y005775D02*
X001628Y005775D01*
X001628Y005803D02*
X002577Y005803D01*
X002549Y005832D02*
X001628Y005832D01*
X001628Y005860D02*
X002520Y005860D01*
X002501Y005889D02*
X001628Y005889D01*
X001628Y005917D02*
X002489Y005917D01*
X002477Y005946D02*
X001628Y005946D01*
X001628Y005974D02*
X002465Y005974D01*
X002454Y006003D02*
X001628Y006003D01*
X001628Y006031D02*
X002442Y006031D01*
X002430Y006060D02*
X001628Y006060D01*
X001628Y006088D02*
X002418Y006088D01*
X002418Y006117D02*
X001628Y006117D01*
X001628Y006145D02*
X002418Y006145D01*
X002418Y006174D02*
X001628Y006174D01*
X001628Y006202D02*
X002418Y006202D01*
X002418Y006231D02*
X001628Y006231D01*
X001628Y006259D02*
X002418Y006259D01*
X002418Y006288D02*
X001628Y006288D01*
X001628Y006316D02*
X002418Y006316D01*
X002429Y006345D02*
X001628Y006345D01*
X001628Y006373D02*
X002441Y006373D01*
X002453Y006402D02*
X001628Y006402D01*
X001628Y006430D02*
X002464Y006430D01*
X002476Y006459D02*
X001628Y006459D01*
X001628Y006487D02*
X002488Y006487D01*
X002500Y006516D02*
X001628Y006516D01*
X001628Y006544D02*
X002518Y006544D01*
X002547Y006573D02*
X001628Y006573D01*
X001628Y006601D02*
X002575Y006601D01*
X002604Y006630D02*
X001628Y006630D01*
X001628Y006658D02*
X002632Y006658D01*
X002661Y006687D02*
X001628Y006687D01*
X001628Y006715D02*
X002715Y006715D01*
X002784Y006744D02*
X001628Y006744D01*
X001628Y006772D02*
X002853Y006772D01*
X003833Y007399D02*
X001628Y007399D01*
X001628Y007371D02*
X003861Y007371D01*
X003890Y007342D02*
X001628Y007342D01*
X001628Y007314D02*
X003918Y007314D01*
X003947Y007285D02*
X001628Y007285D01*
X001628Y007257D02*
X003975Y007257D01*
X004004Y007228D02*
X001628Y007228D01*
X001628Y007200D02*
X004032Y007200D01*
X004061Y007171D02*
X001628Y007171D01*
X001628Y007143D02*
X004089Y007143D01*
X004118Y007114D02*
X001628Y007114D01*
X001628Y007086D02*
X004146Y007086D01*
X004175Y007057D02*
X001628Y007057D01*
X001628Y007029D02*
X004203Y007029D01*
X004232Y007000D02*
X001628Y007000D01*
X001628Y006972D02*
X004260Y006972D01*
X003804Y007428D02*
X001628Y007428D01*
X001628Y007456D02*
X003776Y007456D01*
X003747Y007485D02*
X001628Y007485D01*
X001628Y007513D02*
X003719Y007513D01*
X003690Y007542D02*
X001628Y007542D01*
X001628Y007570D02*
X003662Y007570D01*
X003633Y007599D02*
X001628Y007599D01*
X001628Y007627D02*
X003506Y007627D01*
X003477Y007656D02*
X001628Y007656D01*
X001628Y007684D02*
X003449Y007684D01*
X003420Y007713D02*
X001628Y007713D01*
X001628Y007741D02*
X003420Y007741D01*
X003420Y007770D02*
X001628Y007770D01*
X001628Y007798D02*
X003420Y007798D01*
X003420Y007827D02*
X001628Y007827D01*
X001628Y007855D02*
X003420Y007855D01*
X003429Y007884D02*
X001628Y007884D01*
X001628Y007912D02*
X003458Y007912D01*
X003486Y007941D02*
X001628Y007941D01*
X001628Y007969D02*
X003515Y007969D01*
X001628Y009537D02*
X021630Y009537D01*
X021641Y009565D02*
X001628Y009565D01*
X001628Y009594D02*
X021653Y009594D01*
X021665Y009622D02*
X001628Y009622D01*
X001628Y009651D02*
X021677Y009651D01*
X021693Y009679D02*
X001628Y009679D01*
X001628Y009708D02*
X021722Y009708D01*
X021750Y009736D02*
X001628Y009736D01*
X001628Y009765D02*
X021779Y009765D01*
X021807Y009793D02*
X001628Y009793D01*
X001628Y009822D02*
X021863Y009822D01*
X021932Y009850D02*
X001628Y009850D01*
X001628Y009879D02*
X023239Y009879D01*
X023239Y009907D02*
X001628Y009907D01*
X001628Y009936D02*
X023239Y009936D01*
X023239Y009964D02*
X001628Y009964D01*
X001628Y009993D02*
X023239Y009993D01*
X023239Y010021D02*
X001628Y010021D01*
X001628Y010050D02*
X023239Y010050D01*
X023239Y010078D02*
X001628Y010078D01*
X001628Y010107D02*
X023239Y010107D01*
X023239Y010135D02*
X001628Y010135D01*
X001628Y010164D02*
X023239Y010164D01*
X023239Y010192D02*
X001628Y010192D01*
X001628Y010221D02*
X023239Y010221D01*
X023239Y010249D02*
X001628Y010249D01*
X001628Y010278D02*
X023239Y010278D01*
X023239Y010306D02*
X001628Y010306D01*
X001628Y010335D02*
X023239Y010335D01*
X023239Y010363D02*
X001628Y010363D01*
X001628Y010392D02*
X023239Y010392D01*
X023239Y010420D02*
X001628Y010420D01*
X001628Y010449D02*
X023239Y010449D01*
X023239Y010477D02*
X001628Y010477D01*
X003481Y005860D02*
X003689Y005860D01*
X003661Y005832D02*
X003453Y005832D01*
X003424Y005803D02*
X003632Y005803D01*
X003604Y005775D02*
X003396Y005775D01*
X003367Y005746D02*
X003577Y005746D01*
X003577Y005718D02*
X003339Y005718D01*
X003281Y005689D02*
X003577Y005689D01*
X003577Y005661D02*
X003213Y005661D01*
X003144Y005632D02*
X003577Y005632D01*
X003647Y005461D02*
X001628Y005461D01*
X001628Y005433D02*
X003647Y005433D01*
X003647Y005404D02*
X001628Y005404D01*
X001628Y005376D02*
X003647Y005376D01*
X003647Y005347D02*
X001628Y005347D01*
X001628Y005319D02*
X003647Y005319D01*
X009022Y004920D02*
X013225Y004920D01*
X013197Y004948D02*
X009050Y004948D01*
X009079Y004977D02*
X013168Y004977D01*
X013823Y004578D02*
X013961Y004578D01*
X013989Y004549D02*
X013852Y004549D01*
X013876Y004521D02*
X014018Y004521D01*
X013876Y004492D02*
X015356Y004492D01*
X015384Y004464D02*
X013876Y004464D01*
X013876Y004435D02*
X015742Y004435D01*
X015742Y004407D02*
X013876Y004407D01*
X013876Y004378D02*
X015742Y004378D01*
X015743Y004350D02*
X013862Y004350D01*
X013833Y004321D02*
X015743Y004321D01*
X015327Y004521D02*
X014197Y004521D01*
X014226Y004549D02*
X015299Y004549D01*
X015284Y004578D02*
X014254Y004578D01*
X014283Y004606D02*
X015284Y004606D01*
X015284Y004635D02*
X014302Y004635D01*
X014302Y004663D02*
X015284Y004663D01*
X015284Y004692D02*
X014302Y004692D01*
X014302Y004720D02*
X015284Y004720D01*
X015307Y004749D02*
X014302Y004749D01*
X014302Y004777D02*
X015335Y004777D01*
X015364Y004806D02*
X014284Y004806D01*
X014256Y004834D02*
X015348Y004834D01*
X015317Y004863D02*
X014227Y004863D01*
X014199Y004891D02*
X015287Y004891D01*
X014107Y004707D02*
X011741Y004707D01*
X011809Y004578D02*
X012438Y004578D01*
X012409Y004549D02*
X011809Y004549D01*
X011809Y004521D02*
X012385Y004521D01*
X012385Y004492D02*
X011809Y004492D01*
X011809Y004464D02*
X012385Y004464D01*
X012385Y004435D02*
X011809Y004435D01*
X011809Y004407D02*
X012385Y004407D01*
X012385Y004378D02*
X011809Y004378D01*
X011809Y004350D02*
X012399Y004350D01*
X012428Y004321D02*
X011809Y004321D01*
X011809Y004293D02*
X012456Y004293D01*
X012485Y004264D02*
X011809Y004264D01*
X012580Y004445D02*
X013681Y004445D01*
X013557Y004293D02*
X012704Y004293D01*
X012733Y004321D02*
X013528Y004321D01*
X013585Y004264D02*
X012676Y004264D01*
X013849Y003974D02*
X013849Y003295D01*
X013983Y003153D02*
X014859Y003153D01*
X014831Y003124D02*
X013954Y003124D01*
X014011Y003181D02*
X014888Y003181D01*
X014985Y003003D02*
X016473Y002995D01*
X016354Y002758D02*
X016409Y002703D01*
X016354Y002758D02*
X015572Y002758D01*
X014498Y003324D02*
X014044Y003324D01*
X014044Y003352D02*
X014470Y003352D01*
X014441Y003381D02*
X014039Y003381D01*
X014011Y003409D02*
X014424Y003409D01*
X014424Y003438D02*
X013982Y003438D01*
X013959Y003466D02*
X014424Y003466D01*
X014424Y003495D02*
X013959Y003495D01*
X013959Y003523D02*
X014424Y003523D01*
X014424Y003552D02*
X013959Y003552D01*
X013959Y003580D02*
X014444Y003580D01*
X014473Y003609D02*
X013959Y003609D01*
X013959Y003637D02*
X014501Y003637D01*
X014530Y003666D02*
X013959Y003666D01*
X013959Y003694D02*
X017269Y003694D01*
X017269Y003723D02*
X013959Y003723D01*
X013959Y003751D02*
X017269Y003751D01*
X017262Y003837D02*
X017269Y003837D01*
X017519Y004065D02*
X018014Y004065D01*
X017986Y004093D02*
X017519Y004093D01*
X017519Y004122D02*
X017957Y004122D01*
X017929Y004150D02*
X017519Y004150D01*
X017519Y004179D02*
X017909Y004179D01*
X017909Y004207D02*
X017519Y004207D01*
X017519Y004236D02*
X017909Y004236D01*
X017909Y004264D02*
X017519Y004264D01*
X017519Y004293D02*
X017909Y004293D01*
X017909Y004321D02*
X017519Y004321D01*
X017519Y004350D02*
X017928Y004350D01*
X017956Y004378D02*
X017519Y004378D01*
X017519Y004407D02*
X017985Y004407D01*
X018013Y004435D02*
X017519Y004435D01*
X018104Y004251D02*
X018875Y004251D01*
X018727Y004378D02*
X018252Y004378D01*
X018224Y004407D02*
X018755Y004407D01*
X018784Y004435D02*
X018195Y004435D01*
X018251Y004122D02*
X018728Y004122D01*
X018756Y004093D02*
X018223Y004093D01*
X018194Y004065D02*
X018785Y004065D01*
X019077Y003552D02*
X019311Y003552D01*
X019314Y003523D02*
X019049Y003523D01*
X019020Y003495D02*
X019319Y003495D01*
X019323Y003466D02*
X018992Y003466D01*
X018963Y003438D02*
X019333Y003438D01*
X019342Y003409D02*
X018935Y003409D01*
X018906Y003381D02*
X019354Y003381D01*
X019368Y003352D02*
X018878Y003352D01*
X018849Y003324D02*
X019384Y003324D01*
X019404Y003295D02*
X018821Y003295D01*
X018792Y003267D02*
X019425Y003267D01*
X019453Y003238D02*
X018764Y003238D01*
X018735Y003210D02*
X019482Y003210D01*
X019522Y003181D02*
X018707Y003181D01*
X018678Y003153D02*
X019569Y003153D01*
X019633Y003124D02*
X018650Y003124D01*
X017269Y003210D02*
X014040Y003210D01*
X014044Y003238D02*
X017269Y003238D01*
X015992Y003837D02*
X013988Y003837D01*
X011952Y002982D02*
X011774Y002982D01*
X011802Y002953D02*
X011924Y002953D01*
X011895Y002925D02*
X011831Y002925D01*
X011859Y002896D02*
X011885Y002896D01*
X011881Y002868D02*
X011885Y002868D01*
X011881Y002839D02*
X011885Y002839D01*
X011881Y002811D02*
X011885Y002811D01*
X011881Y002782D02*
X011885Y002782D01*
X016873Y000787D02*
X022040Y000787D01*
X022068Y000759D02*
X016873Y000759D01*
X016873Y000730D02*
X022097Y000730D01*
X022185Y000917D02*
X022185Y001971D01*
X021759Y001756D02*
X001628Y001756D01*
X001628Y001728D02*
X021779Y001728D01*
X021808Y001699D02*
X001628Y001699D01*
X001628Y001671D02*
X021836Y001671D01*
X021865Y001642D02*
X001628Y001642D01*
X001628Y001614D02*
X021893Y001614D01*
X021810Y002697D02*
X021348Y002697D01*
X019844Y004065D02*
X023239Y004065D01*
X023239Y004093D02*
X019619Y004093D01*
X019647Y004122D02*
X019690Y004122D01*
X020087Y004948D02*
X021975Y004948D01*
X021906Y004977D02*
X020056Y004977D01*
X019988Y005005D02*
X021837Y005005D01*
X021796Y005034D02*
X019919Y005034D01*
X019811Y005119D02*
X019781Y005119D01*
X019781Y005148D02*
X019811Y005148D01*
X019811Y005176D02*
X019781Y005176D01*
X019781Y005205D02*
X019811Y005205D01*
X019811Y005233D02*
X019781Y005233D01*
X019781Y005262D02*
X019811Y005262D01*
X019811Y005290D02*
X019781Y005290D01*
X019781Y005319D02*
X019811Y005319D01*
X019811Y005347D02*
X019781Y005347D01*
X019781Y005376D02*
X019811Y005376D01*
X019811Y005404D02*
X019781Y005404D01*
X019781Y005433D02*
X019811Y005433D01*
X019811Y005461D02*
X019781Y005461D01*
X019781Y005490D02*
X019811Y005490D01*
X019811Y005518D02*
X019781Y005518D01*
X019781Y005604D02*
X019811Y005604D01*
X019811Y005632D02*
X019781Y005632D01*
X019781Y005661D02*
X019811Y005661D01*
X019811Y005689D02*
X019781Y005689D01*
X019781Y005718D02*
X019811Y005718D01*
X019811Y005746D02*
X019781Y005746D01*
X019781Y005775D02*
X019811Y005775D01*
X019811Y005803D02*
X019781Y005803D01*
X019781Y005832D02*
X019811Y005832D01*
X019811Y005860D02*
X019781Y005860D01*
X019781Y005889D02*
X019811Y005889D01*
X019811Y005917D02*
X019781Y005917D01*
X019781Y005946D02*
X019811Y005946D01*
X019811Y005974D02*
X019781Y005974D01*
X019781Y006003D02*
X019811Y006003D01*
X019811Y006031D02*
X019781Y006031D01*
X019781Y006060D02*
X019811Y006060D01*
X020146Y005917D02*
X023239Y005917D01*
X023239Y005889D02*
X020172Y005889D01*
X018771Y007200D02*
X018607Y007200D01*
X018893Y007354D02*
X018893Y007875D01*
X019035Y007741D02*
X019338Y007741D01*
X019329Y007713D02*
X019006Y007713D01*
X019003Y007684D02*
X019321Y007684D01*
X019317Y007656D02*
X019003Y007656D01*
X019003Y007627D02*
X019312Y007627D01*
X019311Y007599D02*
X019003Y007599D01*
X019063Y007770D02*
X019348Y007770D01*
X019362Y007798D02*
X019088Y007798D01*
X019088Y007827D02*
X019377Y007827D01*
X019396Y007855D02*
X019088Y007855D01*
X019088Y007884D02*
X019416Y007884D01*
X019441Y007912D02*
X019088Y007912D01*
X019088Y007941D02*
X019470Y007941D01*
X019505Y007969D02*
X019075Y007969D01*
X019046Y007998D02*
X019545Y007998D01*
X019601Y008026D02*
X019018Y008026D01*
X018989Y008055D02*
X019685Y008055D01*
X019646Y008140D02*
X018823Y008140D01*
X018795Y008112D02*
X021718Y008112D01*
X021690Y008140D02*
X019946Y008140D01*
X020015Y008169D02*
X021675Y008169D01*
X021664Y008197D02*
X020070Y008197D01*
X020098Y008226D02*
X021652Y008226D01*
X021640Y008254D02*
X020127Y008254D01*
X020155Y008283D02*
X021628Y008283D01*
X021616Y008311D02*
X020184Y008311D01*
X020199Y008340D02*
X021615Y008340D01*
X021615Y008368D02*
X020211Y008368D01*
X020223Y008397D02*
X021615Y008397D01*
X021615Y008425D02*
X020235Y008425D01*
X020247Y008454D02*
X021615Y008454D01*
X021615Y008482D02*
X020258Y008482D01*
X020261Y008511D02*
X021619Y008511D01*
X021631Y008539D02*
X020261Y008539D01*
X020261Y008568D02*
X021642Y008568D01*
X021654Y008596D02*
X020261Y008596D01*
X020261Y008625D02*
X021666Y008625D01*
X021678Y008653D02*
X020261Y008653D01*
X020258Y008682D02*
X021696Y008682D01*
X021724Y008710D02*
X020246Y008710D01*
X020234Y008739D02*
X021753Y008739D01*
X021781Y008767D02*
X020222Y008767D01*
X020211Y008796D02*
X021810Y008796D01*
X021869Y008824D02*
X020199Y008824D01*
X020182Y008853D02*
X021938Y008853D01*
X021930Y008967D02*
X020068Y008967D01*
X020097Y008938D02*
X023239Y008938D01*
X023239Y008910D02*
X020125Y008910D01*
X020154Y008881D02*
X023239Y008881D01*
X023239Y008853D02*
X022221Y008853D01*
X022290Y008824D02*
X023239Y008824D01*
X023239Y008796D02*
X022349Y008796D01*
X022378Y008767D02*
X023239Y008767D01*
X023239Y008739D02*
X022406Y008739D01*
X022435Y008710D02*
X023239Y008710D01*
X023239Y008682D02*
X022463Y008682D01*
X022481Y008653D02*
X023239Y008653D01*
X023239Y008625D02*
X022493Y008625D01*
X022505Y008596D02*
X023239Y008596D01*
X023239Y008568D02*
X022517Y008568D01*
X022528Y008539D02*
X023239Y008539D01*
X023239Y008511D02*
X022540Y008511D01*
X022545Y008482D02*
X023239Y008482D01*
X023239Y008454D02*
X022545Y008454D01*
X022545Y008425D02*
X023239Y008425D01*
X023239Y008397D02*
X022545Y008397D01*
X022545Y008368D02*
X023239Y008368D01*
X023239Y008340D02*
X022545Y008340D01*
X022543Y008311D02*
X023239Y008311D01*
X023239Y008283D02*
X022531Y008283D01*
X022519Y008254D02*
X023239Y008254D01*
X023239Y008226D02*
X022507Y008226D01*
X022496Y008197D02*
X023239Y008197D01*
X023239Y008169D02*
X022484Y008169D01*
X022469Y008140D02*
X023239Y008140D01*
X023239Y008112D02*
X022441Y008112D01*
X022412Y008083D02*
X023239Y008083D01*
X023239Y008055D02*
X022384Y008055D01*
X022355Y008026D02*
X023239Y008026D01*
X023239Y007998D02*
X022304Y007998D01*
X021924Y007969D02*
X020087Y007969D01*
X020047Y007998D02*
X021855Y007998D01*
X021804Y008026D02*
X019991Y008026D01*
X019577Y008169D02*
X018852Y008169D01*
X018880Y008197D02*
X019522Y008197D01*
X019494Y008226D02*
X018909Y008226D01*
X018937Y008254D02*
X019465Y008254D01*
X019437Y008283D02*
X018966Y008283D01*
X018994Y008311D02*
X019408Y008311D01*
X019393Y008340D02*
X019023Y008340D01*
X019051Y008368D02*
X019381Y008368D01*
X019369Y008397D02*
X019080Y008397D01*
X019108Y008425D02*
X019357Y008425D01*
X019346Y008454D02*
X019137Y008454D01*
X019165Y008482D02*
X019334Y008482D01*
X019331Y008511D02*
X019194Y008511D01*
X019222Y008539D02*
X019331Y008539D01*
X019331Y008568D02*
X019251Y008568D01*
X019279Y008596D02*
X019331Y008596D01*
X019331Y008625D02*
X019308Y008625D01*
X019735Y009052D02*
X021778Y009052D01*
X021806Y009024D02*
X019943Y009024D01*
X020012Y008995D02*
X021861Y008995D01*
X021749Y009081D02*
X019764Y009081D01*
X019792Y009109D02*
X021721Y009109D01*
X021692Y009138D02*
X019821Y009138D01*
X019849Y009166D02*
X021676Y009166D01*
X021665Y009195D02*
X019878Y009195D01*
X019906Y009223D02*
X021653Y009223D01*
X021641Y009252D02*
X019935Y009252D01*
X019963Y009280D02*
X021629Y009280D01*
X022229Y008967D02*
X023239Y008967D01*
X023239Y008995D02*
X022298Y008995D01*
X022353Y009024D02*
X023239Y009024D01*
X023239Y009052D02*
X022381Y009052D01*
X022410Y009081D02*
X023239Y009081D01*
X023239Y009109D02*
X022438Y009109D01*
X022467Y009138D02*
X023239Y009138D01*
X023239Y009166D02*
X022483Y009166D01*
X022494Y009195D02*
X023239Y009195D01*
X023239Y009223D02*
X022506Y009223D01*
X022518Y009252D02*
X023239Y009252D01*
X023239Y009280D02*
X022530Y009280D01*
X022542Y009309D02*
X023239Y009309D01*
X023239Y009337D02*
X022545Y009337D01*
X022545Y009366D02*
X023239Y009366D01*
X023239Y009394D02*
X022545Y009394D01*
X022545Y009423D02*
X023239Y009423D01*
X023239Y009451D02*
X022545Y009451D01*
X022545Y009480D02*
X023239Y009480D01*
X023239Y009508D02*
X022541Y009508D01*
X022530Y009537D02*
X023239Y009537D01*
X023239Y009565D02*
X022518Y009565D01*
X022506Y009594D02*
X023239Y009594D01*
X023239Y009622D02*
X022494Y009622D01*
X022482Y009651D02*
X023239Y009651D01*
X023239Y009679D02*
X022466Y009679D01*
X022437Y009708D02*
X023239Y009708D01*
X023239Y009736D02*
X022409Y009736D01*
X022380Y009765D02*
X023239Y009765D01*
X023239Y009793D02*
X022352Y009793D01*
X022296Y009822D02*
X023239Y009822D01*
X023239Y009850D02*
X022227Y009850D01*
X016361Y006031D02*
X015732Y006031D01*
X015761Y006003D02*
X016332Y006003D01*
X015723Y005689D02*
X017269Y005689D01*
D16*
X007135Y005129D02*
X006497Y005129D01*
D17*
X008131Y004262D02*
X008131Y008625D01*
X008678Y009172D01*
X008715Y009172D01*
X008725Y009181D01*
X008131Y004262D02*
X009131Y003262D01*
X012276Y003262D01*
X013217Y002321D01*
X014678Y002321D01*
M02*
