G75*
G70*
%OFA0B0*%
%FSLAX24Y24*%
%IPPOS*%
%LPD*%
%AMOC8*
5,1,8,0,0,1.08239X$1,22.5*
%
%ADD10C,0.0000*%
%ADD11R,0.0480X0.0880*%
%ADD12R,0.1417X0.0866*%
%ADD13C,0.0087*%
%ADD14R,0.0236X0.0866*%
%ADD15R,0.0571X0.0157*%
%ADD16R,0.0591X0.0709*%
%ADD17R,0.0591X0.0984*%
%ADD18R,0.0433X0.0394*%
%ADD19R,0.0394X0.0433*%
%ADD20R,0.0472X0.0315*%
%ADD21R,0.0276X0.0354*%
%ADD22R,0.0354X0.0276*%
%ADD23R,0.2100X0.0760*%
%ADD24C,0.0455*%
%ADD25R,0.0394X0.0315*%
%ADD26R,0.0276X0.0472*%
%ADD27C,0.0118*%
%ADD28R,0.0354X0.0394*%
%ADD29C,0.0740*%
%ADD30C,0.0030*%
%ADD31C,0.0059*%
%ADD32C,0.0039*%
%ADD33C,0.0079*%
%ADD34C,0.0200*%
D10*
X001213Y000274D02*
X001213Y010904D01*
X023654Y010904D01*
X023654Y000274D01*
X001213Y000274D01*
X002834Y004707D02*
X002836Y004732D01*
X002842Y004757D01*
X002851Y004781D01*
X002864Y004803D01*
X002881Y004823D01*
X002900Y004840D01*
X002921Y004854D01*
X002945Y004864D01*
X002969Y004871D01*
X002995Y004874D01*
X003020Y004873D01*
X003045Y004868D01*
X003069Y004859D01*
X003092Y004847D01*
X003112Y004832D01*
X003130Y004813D01*
X003145Y004792D01*
X003156Y004769D01*
X003164Y004745D01*
X003168Y004720D01*
X003168Y004694D01*
X003164Y004669D01*
X003156Y004645D01*
X003145Y004622D01*
X003130Y004601D01*
X003112Y004582D01*
X003092Y004567D01*
X003069Y004555D01*
X003045Y004546D01*
X003020Y004541D01*
X002995Y004540D01*
X002969Y004543D01*
X002945Y004550D01*
X002921Y004560D01*
X002900Y004574D01*
X002881Y004591D01*
X002864Y004611D01*
X002851Y004633D01*
X002842Y004657D01*
X002836Y004682D01*
X002834Y004707D01*
X002834Y006203D02*
X002836Y006228D01*
X002842Y006253D01*
X002851Y006277D01*
X002864Y006299D01*
X002881Y006319D01*
X002900Y006336D01*
X002921Y006350D01*
X002945Y006360D01*
X002969Y006367D01*
X002995Y006370D01*
X003020Y006369D01*
X003045Y006364D01*
X003069Y006355D01*
X003092Y006343D01*
X003112Y006328D01*
X003130Y006309D01*
X003145Y006288D01*
X003156Y006265D01*
X003164Y006241D01*
X003168Y006216D01*
X003168Y006190D01*
X003164Y006165D01*
X003156Y006141D01*
X003145Y006118D01*
X003130Y006097D01*
X003112Y006078D01*
X003092Y006063D01*
X003069Y006051D01*
X003045Y006042D01*
X003020Y006037D01*
X002995Y006036D01*
X002969Y006039D01*
X002945Y006046D01*
X002921Y006056D01*
X002900Y006070D01*
X002881Y006087D01*
X002864Y006107D01*
X002851Y006129D01*
X002842Y006153D01*
X002836Y006178D01*
X002834Y006203D01*
D11*
X005099Y006818D03*
X006009Y006818D03*
X006919Y006818D03*
X006895Y002027D03*
X005985Y002027D03*
X005075Y002027D03*
D12*
X005985Y004467D03*
X006009Y009258D03*
D13*
X014548Y004695D03*
X014548Y004538D03*
X014706Y004538D03*
X014863Y004538D03*
X014863Y004695D03*
X015020Y004695D03*
X015020Y004538D03*
X015020Y004380D03*
X015020Y004223D03*
X014863Y004223D03*
X014863Y004380D03*
X014706Y004380D03*
X014706Y004223D03*
X014706Y004066D03*
X014863Y004066D03*
X015020Y004066D03*
X015178Y004066D03*
X015178Y004223D03*
X015178Y004380D03*
X015178Y004538D03*
X015178Y004695D03*
X014706Y004695D03*
X014548Y004380D03*
X014548Y004223D03*
X014548Y004066D03*
X014548Y003908D03*
X014706Y003908D03*
X014863Y003908D03*
X015020Y003908D03*
X015178Y003908D03*
D14*
X012692Y003514D03*
X012192Y003514D03*
X011692Y003514D03*
X011192Y003514D03*
X011192Y005562D03*
X011692Y005562D03*
X012192Y005562D03*
X012692Y005562D03*
D15*
X003207Y005455D03*
X003207Y005199D03*
X003207Y004943D03*
X003207Y005711D03*
X003207Y005967D03*
D16*
X002135Y006906D03*
X002135Y004004D03*
D17*
X002135Y005455D03*
D18*
X009493Y006723D03*
X010162Y006723D03*
X011245Y006731D03*
X011914Y006731D03*
X015757Y009361D03*
X016426Y009361D03*
D19*
X003359Y002707D03*
X003359Y002038D03*
X012064Y001629D03*
X012064Y000959D03*
X013320Y001022D03*
X013320Y001692D03*
X018784Y001943D03*
X018784Y001274D03*
D20*
X013536Y002506D03*
X013536Y003215D03*
D21*
X004001Y001030D03*
X003489Y001030D03*
X007284Y009198D03*
X007796Y009198D03*
D22*
X003603Y008688D03*
X003603Y008176D03*
X002371Y008235D03*
X002371Y008747D03*
X008186Y003581D03*
X008186Y003069D03*
X009072Y003069D03*
X009072Y003581D03*
X009741Y001928D03*
X010548Y001928D03*
X010548Y001416D03*
X009741Y001416D03*
X014701Y001429D03*
X014701Y001940D03*
X015892Y001948D03*
X015892Y001437D03*
X015816Y006613D03*
X015048Y006613D03*
X015048Y007125D03*
X015816Y007125D03*
X017036Y007282D03*
X017036Y007794D03*
X017843Y007794D03*
X017843Y007282D03*
X013679Y007413D03*
X013679Y006902D03*
D23*
X013614Y009206D03*
X009814Y009206D03*
D24*
X008725Y009181D03*
X014632Y009162D03*
D25*
X017536Y002001D03*
X017536Y001331D03*
D26*
X017375Y004754D03*
X016824Y004754D03*
X016824Y005936D03*
X017375Y005936D03*
D27*
X013218Y006173D02*
X012942Y006173D01*
X012942Y006449D01*
X013218Y006449D01*
X013218Y006173D01*
X013218Y006290D02*
X012942Y006290D01*
X012942Y006407D02*
X013218Y006407D01*
X013218Y006863D02*
X012942Y006863D01*
X012942Y007139D01*
X013218Y007139D01*
X013218Y006863D01*
X013218Y006980D02*
X012942Y006980D01*
X012942Y007097D02*
X013218Y007097D01*
D28*
X016780Y003723D03*
X016780Y003093D03*
X018394Y003093D03*
X018394Y003723D03*
D29*
X019796Y003581D03*
X019796Y004581D03*
X019796Y005581D03*
X019796Y006581D03*
X019796Y007581D03*
X019796Y008581D03*
X022080Y008408D03*
X022080Y007408D03*
X022080Y006408D03*
X022080Y005408D03*
X022158Y003006D03*
X022158Y002006D03*
X022080Y009408D03*
D30*
X021750Y009736D02*
X015549Y009736D01*
X015521Y009765D02*
X021779Y009765D01*
X021807Y009793D02*
X015492Y009793D01*
X015490Y009795D02*
X021809Y009795D01*
X021685Y009671D01*
X021628Y009533D01*
X019863Y009533D01*
X019790Y009460D01*
X019508Y009178D01*
X016758Y009178D01*
X016758Y009346D01*
X016441Y009346D01*
X016441Y009376D01*
X016411Y009376D01*
X016411Y009673D01*
X016194Y009673D01*
X016165Y009665D01*
X016139Y009650D01*
X016117Y009628D01*
X016102Y009602D01*
X016094Y009573D01*
X016094Y009376D01*
X016411Y009376D01*
X016411Y009346D01*
X016094Y009346D01*
X016094Y009149D01*
X016102Y009120D01*
X016117Y009093D01*
X016139Y009072D01*
X016165Y009057D01*
X016194Y009049D01*
X016308Y009049D01*
X014396Y007137D01*
X014396Y006888D01*
X014025Y007259D01*
X014011Y007259D01*
X013951Y007319D01*
X013951Y007591D01*
X013896Y007646D01*
X013779Y007646D01*
X013779Y008731D01*
X014703Y008731D01*
X014759Y008786D01*
X014759Y008865D01*
X014815Y008889D01*
X014906Y008979D01*
X014955Y009098D01*
X014955Y009226D01*
X014906Y009345D01*
X014815Y009435D01*
X014759Y009458D01*
X014759Y009598D01*
X015335Y009598D01*
X015445Y009488D01*
X015445Y009125D01*
X015501Y009069D01*
X016013Y009069D01*
X016068Y009125D01*
X016068Y009597D01*
X016013Y009653D01*
X015633Y009653D01*
X015490Y009795D01*
X015578Y009708D02*
X021722Y009708D01*
X021693Y009679D02*
X015606Y009679D01*
X015425Y009508D02*
X014759Y009508D01*
X014759Y009480D02*
X015445Y009480D01*
X015445Y009451D02*
X014776Y009451D01*
X014827Y009423D02*
X015445Y009423D01*
X015445Y009394D02*
X014856Y009394D01*
X014884Y009366D02*
X015445Y009366D01*
X015445Y009337D02*
X014909Y009337D01*
X014920Y009309D02*
X015445Y009309D01*
X015445Y009280D02*
X014932Y009280D01*
X014944Y009252D02*
X015445Y009252D01*
X015445Y009223D02*
X014955Y009223D01*
X014955Y009195D02*
X015445Y009195D01*
X015445Y009166D02*
X014955Y009166D01*
X014955Y009138D02*
X015445Y009138D01*
X015460Y009109D02*
X014955Y009109D01*
X014948Y009081D02*
X015489Y009081D01*
X016024Y009081D02*
X016130Y009081D01*
X016108Y009109D02*
X016053Y009109D01*
X016068Y009138D02*
X016097Y009138D01*
X016094Y009166D02*
X016068Y009166D01*
X016068Y009195D02*
X016094Y009195D01*
X016094Y009223D02*
X016068Y009223D01*
X016068Y009252D02*
X016094Y009252D01*
X016094Y009280D02*
X016068Y009280D01*
X016068Y009309D02*
X016094Y009309D01*
X016094Y009337D02*
X016068Y009337D01*
X016068Y009366D02*
X016411Y009366D01*
X016411Y009394D02*
X016441Y009394D01*
X016441Y009376D02*
X016441Y009673D01*
X016658Y009673D01*
X016687Y009665D01*
X016713Y009650D01*
X016735Y009628D01*
X016750Y009602D01*
X016758Y009573D01*
X016758Y009376D01*
X016441Y009376D01*
X016441Y009366D02*
X019696Y009366D01*
X019724Y009394D02*
X016758Y009394D01*
X016758Y009423D02*
X019753Y009423D01*
X019781Y009451D02*
X016758Y009451D01*
X016758Y009480D02*
X019810Y009480D01*
X019838Y009508D02*
X016758Y009508D01*
X016758Y009537D02*
X021630Y009537D01*
X021641Y009565D02*
X016758Y009565D01*
X016752Y009594D02*
X021653Y009594D01*
X021665Y009622D02*
X016738Y009622D01*
X016711Y009651D02*
X021677Y009651D01*
X022328Y010044D02*
X007028Y010044D01*
X006999Y010015D01*
X006999Y010119D01*
X006885Y010233D01*
X006723Y010233D01*
X006663Y010172D01*
X003087Y010172D01*
X001630Y008716D01*
X001628Y008714D01*
X001628Y010489D01*
X023239Y010489D01*
X023239Y000689D01*
X012341Y000689D01*
X012356Y000703D01*
X012356Y000858D01*
X013028Y000858D01*
X013028Y000766D01*
X013083Y000711D01*
X013556Y000711D01*
X013612Y000766D01*
X013612Y000888D01*
X016033Y000888D01*
X016824Y001679D01*
X017244Y001258D01*
X017244Y001134D01*
X017300Y001079D01*
X017772Y001079D01*
X017828Y001134D01*
X017828Y001173D01*
X018492Y001173D01*
X018492Y001018D01*
X018548Y000963D01*
X019020Y000963D01*
X019076Y001018D01*
X019076Y001488D01*
X019100Y001488D01*
X019169Y001557D01*
X019182Y001557D01*
X019261Y001636D01*
X019261Y002364D01*
X019361Y002264D01*
X019523Y002264D01*
X019637Y002378D01*
X019637Y002443D01*
X020784Y002443D01*
X020794Y002433D01*
X020872Y002354D01*
X021338Y002354D01*
X021417Y002433D01*
X021753Y002770D01*
X021764Y002743D01*
X021895Y002612D01*
X022066Y002541D01*
X022251Y002541D01*
X022422Y002612D01*
X022552Y002743D01*
X022623Y002914D01*
X022623Y003099D01*
X022552Y003270D01*
X022422Y003401D01*
X022251Y003471D01*
X022066Y003471D01*
X021895Y003401D01*
X021764Y003270D01*
X021693Y003099D01*
X021693Y003090D01*
X021670Y003066D01*
X021227Y002623D01*
X020984Y002623D01*
X020895Y002712D01*
X019504Y002712D01*
X019447Y002654D01*
X019361Y002654D01*
X019261Y002554D01*
X019261Y005239D01*
X019529Y004972D01*
X019402Y004845D01*
X019331Y004674D01*
X019331Y004489D01*
X019402Y004318D01*
X019533Y004187D01*
X019704Y004116D01*
X019889Y004116D01*
X020059Y004187D01*
X020190Y004318D01*
X020261Y004489D01*
X020261Y004674D01*
X020190Y004845D01*
X020059Y004975D01*
X019889Y005046D01*
X019806Y005046D01*
X019756Y005097D01*
X019758Y005096D01*
X019781Y005096D01*
X019781Y005566D01*
X019811Y005566D01*
X019811Y005096D01*
X019834Y005096D01*
X019910Y005108D01*
X019982Y005132D01*
X020050Y005166D01*
X020112Y005211D01*
X020166Y005265D01*
X020211Y005327D01*
X020246Y005395D01*
X020269Y005468D01*
X020281Y005543D01*
X020281Y005566D01*
X019811Y005566D01*
X019811Y005596D01*
X020281Y005596D01*
X020281Y005619D01*
X020269Y005695D01*
X020246Y005767D01*
X020211Y005835D01*
X020166Y005897D01*
X020112Y005951D01*
X020050Y005996D01*
X019982Y006031D01*
X019910Y006054D01*
X019834Y006066D01*
X019811Y006066D01*
X019811Y005596D01*
X019781Y005596D01*
X019781Y006066D01*
X019758Y006066D01*
X019682Y006054D01*
X019610Y006031D01*
X019542Y005996D01*
X019480Y005951D01*
X019426Y005897D01*
X019409Y005873D01*
X019409Y006010D01*
X019428Y006030D01*
X019570Y006171D01*
X019704Y006116D01*
X019889Y006116D01*
X020059Y006187D01*
X020190Y006318D01*
X020261Y006489D01*
X020261Y006674D01*
X020190Y006845D01*
X020059Y006975D01*
X019889Y007046D01*
X019704Y007046D01*
X019533Y006975D01*
X019409Y006852D01*
X019409Y007289D01*
X019426Y007265D01*
X019480Y007211D01*
X019542Y007166D01*
X019610Y007132D01*
X019682Y007108D01*
X019758Y007096D01*
X019781Y007096D01*
X019781Y007566D01*
X019811Y007566D01*
X019811Y007096D01*
X019834Y007096D01*
X019910Y007108D01*
X019982Y007132D01*
X020050Y007166D01*
X020112Y007211D01*
X020166Y007265D01*
X020211Y007327D01*
X020246Y007395D01*
X020269Y007468D01*
X020281Y007543D01*
X020281Y007566D01*
X019811Y007566D01*
X019811Y007596D01*
X020281Y007596D01*
X020281Y007619D01*
X020269Y007695D01*
X020246Y007767D01*
X020211Y007835D01*
X020166Y007897D01*
X020112Y007951D01*
X020050Y007996D01*
X019982Y008031D01*
X019910Y008054D01*
X019834Y008066D01*
X019811Y008066D01*
X019811Y007596D01*
X019781Y007596D01*
X019781Y008066D01*
X019772Y008066D01*
X019822Y008116D01*
X019889Y008116D01*
X020059Y008187D01*
X020190Y008318D01*
X020248Y008457D01*
X021615Y008457D01*
X021615Y008316D01*
X021685Y008145D01*
X021816Y008014D01*
X021987Y007943D01*
X022172Y007943D01*
X022343Y008014D01*
X022474Y008145D01*
X022545Y008316D01*
X022545Y008501D01*
X022474Y008671D01*
X022351Y008794D01*
X022643Y009087D01*
X022716Y009160D01*
X022716Y009656D01*
X022401Y009971D01*
X022328Y010044D01*
X022351Y010021D02*
X023239Y010021D01*
X023239Y009993D02*
X022380Y009993D01*
X022408Y009964D02*
X023239Y009964D01*
X023239Y009936D02*
X022437Y009936D01*
X022465Y009907D02*
X023239Y009907D01*
X023239Y009879D02*
X022494Y009879D01*
X022522Y009850D02*
X023239Y009850D01*
X023239Y009822D02*
X022551Y009822D01*
X022579Y009793D02*
X023239Y009793D01*
X023239Y009765D02*
X022608Y009765D01*
X022636Y009736D02*
X023239Y009736D01*
X023239Y009708D02*
X022665Y009708D01*
X022693Y009679D02*
X023239Y009679D01*
X023239Y009651D02*
X022716Y009651D01*
X022716Y009622D02*
X023239Y009622D01*
X023239Y009594D02*
X022716Y009594D01*
X022716Y009565D02*
X023239Y009565D01*
X023239Y009537D02*
X022716Y009537D01*
X022716Y009508D02*
X023239Y009508D01*
X023239Y009480D02*
X022716Y009480D01*
X022716Y009451D02*
X023239Y009451D01*
X023239Y009423D02*
X022716Y009423D01*
X022716Y009394D02*
X023239Y009394D01*
X023239Y009366D02*
X022716Y009366D01*
X022716Y009337D02*
X023239Y009337D01*
X023239Y009309D02*
X022716Y009309D01*
X022716Y009280D02*
X023239Y009280D01*
X023239Y009252D02*
X022716Y009252D01*
X022716Y009223D02*
X023239Y009223D01*
X023239Y009195D02*
X022716Y009195D01*
X022716Y009166D02*
X023239Y009166D01*
X023239Y009138D02*
X022694Y009138D01*
X022666Y009109D02*
X023239Y009109D01*
X023239Y009081D02*
X022637Y009081D01*
X022609Y009052D02*
X023239Y009052D01*
X023239Y009024D02*
X022580Y009024D01*
X022552Y008995D02*
X023239Y008995D01*
X023239Y008967D02*
X022523Y008967D01*
X022495Y008938D02*
X023239Y008938D01*
X023239Y008910D02*
X022466Y008910D01*
X022438Y008881D02*
X023239Y008881D01*
X023239Y008853D02*
X022409Y008853D01*
X022381Y008824D02*
X023239Y008824D01*
X023239Y008796D02*
X022352Y008796D01*
X022378Y008767D02*
X023239Y008767D01*
X023239Y008739D02*
X022406Y008739D01*
X022435Y008710D02*
X023239Y008710D01*
X023239Y008682D02*
X022463Y008682D01*
X022481Y008653D02*
X023239Y008653D01*
X023239Y008625D02*
X022493Y008625D01*
X022505Y008596D02*
X023239Y008596D01*
X023239Y008568D02*
X022517Y008568D01*
X022528Y008539D02*
X023239Y008539D01*
X023239Y008511D02*
X022540Y008511D01*
X022545Y008482D02*
X023239Y008482D01*
X023239Y008454D02*
X022545Y008454D01*
X022545Y008425D02*
X023239Y008425D01*
X023239Y008397D02*
X022545Y008397D01*
X022545Y008368D02*
X023239Y008368D01*
X023239Y008340D02*
X022545Y008340D01*
X022543Y008311D02*
X023239Y008311D01*
X023239Y008283D02*
X022531Y008283D01*
X022519Y008254D02*
X023239Y008254D01*
X023239Y008226D02*
X022507Y008226D01*
X022496Y008197D02*
X023239Y008197D01*
X023239Y008169D02*
X022484Y008169D01*
X022469Y008140D02*
X023239Y008140D01*
X023239Y008112D02*
X022441Y008112D01*
X022412Y008083D02*
X023239Y008083D01*
X023239Y008055D02*
X022384Y008055D01*
X022355Y008026D02*
X023239Y008026D01*
X023239Y007998D02*
X022304Y007998D01*
X022235Y007969D02*
X023239Y007969D01*
X023239Y007941D02*
X020122Y007941D01*
X020151Y007912D02*
X023239Y007912D01*
X023239Y007884D02*
X020176Y007884D01*
X020196Y007855D02*
X021944Y007855D01*
X021987Y007873D02*
X021816Y007802D01*
X021685Y007671D01*
X021615Y007501D01*
X021615Y007485D01*
X021146Y007485D01*
X020506Y006846D01*
X020439Y006778D01*
X020439Y006286D01*
X020385Y006286D01*
X020270Y006172D01*
X020270Y006010D01*
X020385Y005896D01*
X020546Y005896D01*
X020660Y006010D01*
X020660Y006124D01*
X020669Y006132D01*
X020669Y006683D01*
X021241Y007256D01*
X021639Y007256D01*
X021685Y007145D01*
X021816Y007014D01*
X021987Y006943D01*
X022172Y006943D01*
X022343Y007014D01*
X022474Y007145D01*
X022545Y007316D01*
X022545Y007501D01*
X022474Y007671D01*
X022343Y007802D01*
X022172Y007873D01*
X021987Y007873D01*
X021924Y007969D02*
X020087Y007969D01*
X020047Y007998D02*
X021855Y007998D01*
X021804Y008026D02*
X019991Y008026D01*
X019907Y008055D02*
X021775Y008055D01*
X021747Y008083D02*
X019789Y008083D01*
X019781Y008055D02*
X019811Y008055D01*
X019811Y008026D02*
X019781Y008026D01*
X019781Y007998D02*
X019811Y007998D01*
X019811Y007969D02*
X019781Y007969D01*
X019781Y007941D02*
X019811Y007941D01*
X019811Y007912D02*
X019781Y007912D01*
X019781Y007884D02*
X019811Y007884D01*
X019811Y007855D02*
X019781Y007855D01*
X019781Y007827D02*
X019811Y007827D01*
X019811Y007798D02*
X019781Y007798D01*
X019781Y007770D02*
X019811Y007770D01*
X019811Y007741D02*
X019781Y007741D01*
X019781Y007713D02*
X019811Y007713D01*
X019811Y007684D02*
X019781Y007684D01*
X019781Y007656D02*
X019811Y007656D01*
X019811Y007627D02*
X019781Y007627D01*
X019781Y007599D02*
X019811Y007599D01*
X019811Y007570D02*
X021643Y007570D01*
X021632Y007542D02*
X020281Y007542D01*
X020276Y007513D02*
X021620Y007513D01*
X021655Y007599D02*
X020281Y007599D01*
X020280Y007627D02*
X021667Y007627D01*
X021679Y007656D02*
X020275Y007656D01*
X020271Y007684D02*
X021698Y007684D01*
X021727Y007713D02*
X020263Y007713D01*
X020254Y007741D02*
X021755Y007741D01*
X021784Y007770D02*
X020244Y007770D01*
X020230Y007798D02*
X021812Y007798D01*
X021875Y007827D02*
X020215Y007827D01*
X020272Y007485D02*
X021146Y007485D01*
X021117Y007456D02*
X020265Y007456D01*
X020256Y007428D02*
X021089Y007428D01*
X021060Y007399D02*
X020247Y007399D01*
X020233Y007371D02*
X021032Y007371D01*
X021003Y007342D02*
X020219Y007342D01*
X020201Y007314D02*
X020975Y007314D01*
X020946Y007285D02*
X020180Y007285D01*
X020157Y007257D02*
X020918Y007257D01*
X020889Y007228D02*
X020129Y007228D01*
X020096Y007200D02*
X020861Y007200D01*
X020832Y007171D02*
X020057Y007171D01*
X020004Y007143D02*
X020804Y007143D01*
X020775Y007114D02*
X019928Y007114D01*
X019931Y007029D02*
X020690Y007029D01*
X020718Y007057D02*
X019409Y007057D01*
X019409Y007029D02*
X019661Y007029D01*
X019592Y007000D02*
X019409Y007000D01*
X019409Y006972D02*
X019529Y006972D01*
X019500Y006943D02*
X019409Y006943D01*
X019409Y006915D02*
X019472Y006915D01*
X019443Y006886D02*
X019409Y006886D01*
X019409Y006858D02*
X019415Y006858D01*
X019409Y007086D02*
X020747Y007086D01*
X020661Y007000D02*
X020000Y007000D01*
X020063Y006972D02*
X020633Y006972D01*
X020604Y006943D02*
X020092Y006943D01*
X020120Y006915D02*
X020576Y006915D01*
X020547Y006886D02*
X020149Y006886D01*
X020177Y006858D02*
X020519Y006858D01*
X020490Y006829D02*
X020197Y006829D01*
X020208Y006801D02*
X020462Y006801D01*
X020439Y006772D02*
X020220Y006772D01*
X020232Y006744D02*
X020439Y006744D01*
X020439Y006715D02*
X020244Y006715D01*
X020256Y006687D02*
X020439Y006687D01*
X020439Y006658D02*
X020261Y006658D01*
X020261Y006630D02*
X020439Y006630D01*
X020439Y006601D02*
X020261Y006601D01*
X020261Y006573D02*
X020439Y006573D01*
X020439Y006544D02*
X020261Y006544D01*
X020261Y006516D02*
X020439Y006516D01*
X020439Y006487D02*
X020260Y006487D01*
X020249Y006459D02*
X020439Y006459D01*
X020439Y006430D02*
X020237Y006430D01*
X020225Y006402D02*
X020439Y006402D01*
X020439Y006373D02*
X020213Y006373D01*
X020201Y006345D02*
X020439Y006345D01*
X020439Y006316D02*
X020189Y006316D01*
X020160Y006288D02*
X020439Y006288D01*
X020358Y006259D02*
X020132Y006259D01*
X020103Y006231D02*
X020329Y006231D01*
X020301Y006202D02*
X020075Y006202D01*
X020027Y006174D02*
X020272Y006174D01*
X020270Y006145D02*
X019958Y006145D01*
X019890Y006117D02*
X020270Y006117D01*
X020270Y006088D02*
X019487Y006088D01*
X019459Y006060D02*
X019717Y006060D01*
X019702Y006117D02*
X019516Y006117D01*
X019544Y006145D02*
X019634Y006145D01*
X019611Y006031D02*
X019430Y006031D01*
X019428Y006030D02*
X019428Y006030D01*
X019409Y006003D02*
X019555Y006003D01*
X019512Y005974D02*
X019409Y005974D01*
X019409Y005946D02*
X019475Y005946D01*
X019446Y005917D02*
X019409Y005917D01*
X019409Y005889D02*
X019420Y005889D01*
X019160Y005889D02*
X018633Y005889D01*
X018605Y005917D02*
X018995Y005917D01*
X019016Y005896D02*
X019160Y005896D01*
X019160Y005362D01*
X018505Y006017D01*
X018505Y006103D01*
X018391Y006217D01*
X018229Y006217D01*
X018115Y006103D01*
X018115Y005941D01*
X018229Y005827D01*
X018315Y005827D01*
X018992Y005150D01*
X018992Y002255D01*
X018661Y002255D01*
X017931Y002984D01*
X018122Y002984D01*
X018122Y002857D01*
X018178Y002801D01*
X018611Y002801D01*
X018667Y002857D01*
X018667Y003329D01*
X018611Y003385D01*
X018178Y003385D01*
X018122Y003329D01*
X018122Y003233D01*
X017066Y003233D01*
X017056Y003243D01*
X017052Y003243D01*
X017052Y003329D01*
X016997Y003385D01*
X016564Y003385D01*
X016515Y003336D01*
X016515Y003388D01*
X016551Y003424D01*
X016559Y003419D01*
X016588Y003411D01*
X016765Y003411D01*
X016765Y003708D01*
X016795Y003708D01*
X016795Y003411D01*
X016973Y003411D01*
X017002Y003419D01*
X017028Y003434D01*
X017050Y003456D01*
X017065Y003482D01*
X017072Y003511D01*
X017072Y003708D01*
X016795Y003708D01*
X016795Y003738D01*
X017072Y003738D01*
X017072Y003935D01*
X017065Y003964D01*
X017050Y003990D01*
X017028Y004012D01*
X017002Y004027D01*
X016973Y004035D01*
X016867Y004035D01*
X017255Y004423D01*
X017552Y004423D01*
X017608Y004479D01*
X017608Y005030D01*
X017552Y005086D01*
X017208Y005086D01*
X016689Y005604D01*
X017001Y005604D01*
X017056Y005660D01*
X017056Y006092D01*
X017142Y006006D01*
X017142Y005660D01*
X017198Y005604D01*
X017552Y005604D01*
X017608Y005660D01*
X017608Y006211D01*
X017552Y006267D01*
X017261Y006267D01*
X017169Y006359D01*
X017229Y006359D01*
X017310Y006439D01*
X018587Y006439D01*
X018902Y006124D01*
X018902Y006010D01*
X019016Y005896D01*
X018967Y005946D02*
X018576Y005946D01*
X018548Y005974D02*
X018938Y005974D01*
X018910Y006003D02*
X018519Y006003D01*
X018505Y006031D02*
X018902Y006031D01*
X018902Y006060D02*
X018505Y006060D01*
X018505Y006088D02*
X018902Y006088D01*
X018902Y006117D02*
X018491Y006117D01*
X018463Y006145D02*
X018881Y006145D01*
X018852Y006174D02*
X018434Y006174D01*
X018406Y006202D02*
X018824Y006202D01*
X018795Y006231D02*
X017588Y006231D01*
X017608Y006202D02*
X018214Y006202D01*
X018186Y006174D02*
X017608Y006174D01*
X017608Y006145D02*
X018157Y006145D01*
X018129Y006117D02*
X017608Y006117D01*
X017608Y006088D02*
X018115Y006088D01*
X018115Y006060D02*
X017608Y006060D01*
X017608Y006031D02*
X018115Y006031D01*
X018115Y006003D02*
X017608Y006003D01*
X017608Y005974D02*
X018115Y005974D01*
X018115Y005946D02*
X017608Y005946D01*
X017608Y005917D02*
X018139Y005917D01*
X018168Y005889D02*
X017608Y005889D01*
X017608Y005860D02*
X018196Y005860D01*
X018225Y005832D02*
X017608Y005832D01*
X017608Y005803D02*
X018339Y005803D01*
X018367Y005775D02*
X017608Y005775D01*
X017608Y005746D02*
X018396Y005746D01*
X018424Y005718D02*
X017608Y005718D01*
X017608Y005689D02*
X018453Y005689D01*
X018481Y005661D02*
X017608Y005661D01*
X017580Y005632D02*
X018510Y005632D01*
X018538Y005604D02*
X016690Y005604D01*
X016718Y005575D02*
X018567Y005575D01*
X018595Y005547D02*
X016747Y005547D01*
X016775Y005518D02*
X018624Y005518D01*
X018652Y005490D02*
X016804Y005490D01*
X016832Y005461D02*
X018681Y005461D01*
X018709Y005433D02*
X016861Y005433D01*
X016889Y005404D02*
X018738Y005404D01*
X018766Y005376D02*
X016918Y005376D01*
X016946Y005347D02*
X018795Y005347D01*
X018823Y005319D02*
X016975Y005319D01*
X017003Y005290D02*
X018852Y005290D01*
X018880Y005262D02*
X017032Y005262D01*
X017060Y005233D02*
X018909Y005233D01*
X018937Y005205D02*
X017089Y005205D01*
X017117Y005176D02*
X018966Y005176D01*
X018992Y005148D02*
X017146Y005148D01*
X017174Y005119D02*
X018992Y005119D01*
X018992Y005091D02*
X017203Y005091D01*
X016856Y005086D02*
X016646Y005086D01*
X016591Y005030D01*
X016591Y004700D01*
X016551Y004661D01*
X015818Y004661D01*
X015808Y004670D01*
X015713Y004670D01*
X015708Y004665D01*
X015680Y004665D01*
X015602Y004587D01*
X015602Y004559D01*
X015538Y004495D01*
X015330Y004495D01*
X015336Y004517D01*
X015336Y004531D01*
X015185Y004531D01*
X015185Y004537D01*
X015199Y004537D01*
X015227Y004545D01*
X015336Y004545D01*
X015336Y004559D01*
X015325Y004599D01*
X015315Y004617D01*
X015325Y004634D01*
X015336Y004675D01*
X015336Y004689D01*
X015227Y004689D01*
X015199Y004696D01*
X015185Y004696D01*
X015185Y004697D01*
X015385Y004697D01*
X015542Y004854D01*
X015570Y004854D01*
X015649Y004933D01*
X015649Y004953D01*
X016130Y005434D01*
X016255Y005434D01*
X016369Y005548D01*
X016369Y005572D01*
X016856Y005086D01*
X016851Y005091D02*
X015787Y005091D01*
X015815Y005119D02*
X016822Y005119D01*
X016794Y005148D02*
X015844Y005148D01*
X015872Y005176D02*
X016765Y005176D01*
X016737Y005205D02*
X015901Y005205D01*
X015929Y005233D02*
X016708Y005233D01*
X016680Y005262D02*
X015958Y005262D01*
X015986Y005290D02*
X016651Y005290D01*
X016623Y005319D02*
X016015Y005319D01*
X016043Y005347D02*
X016594Y005347D01*
X016566Y005376D02*
X016072Y005376D01*
X016100Y005404D02*
X016537Y005404D01*
X016509Y005433D02*
X016129Y005433D01*
X016283Y005461D02*
X016480Y005461D01*
X016452Y005490D02*
X016311Y005490D01*
X016340Y005518D02*
X016423Y005518D01*
X016395Y005547D02*
X016368Y005547D01*
X017029Y005632D02*
X017170Y005632D01*
X017142Y005661D02*
X017056Y005661D01*
X017056Y005689D02*
X017142Y005689D01*
X017142Y005718D02*
X017056Y005718D01*
X017056Y005746D02*
X017142Y005746D01*
X017142Y005775D02*
X017056Y005775D01*
X017056Y005803D02*
X017142Y005803D01*
X017142Y005832D02*
X017056Y005832D01*
X017056Y005860D02*
X017142Y005860D01*
X017142Y005889D02*
X017056Y005889D01*
X017056Y005917D02*
X017142Y005917D01*
X017142Y005946D02*
X017056Y005946D01*
X017056Y005974D02*
X017142Y005974D01*
X017142Y006003D02*
X017056Y006003D01*
X017056Y006031D02*
X017117Y006031D01*
X017088Y006060D02*
X017056Y006060D01*
X017056Y006088D02*
X017060Y006088D01*
X017240Y006288D02*
X018738Y006288D01*
X018710Y006316D02*
X017212Y006316D01*
X017183Y006345D02*
X018681Y006345D01*
X018653Y006373D02*
X017244Y006373D01*
X017272Y006402D02*
X018624Y006402D01*
X018596Y006430D02*
X017301Y006430D01*
X016994Y006432D02*
X016953Y006473D01*
X016953Y006634D01*
X017068Y006749D01*
X017229Y006749D01*
X017310Y006668D01*
X018205Y006668D01*
X018115Y006758D01*
X018115Y006844D01*
X017910Y007049D01*
X017627Y007049D01*
X017571Y007105D01*
X017571Y007158D01*
X017308Y007158D01*
X017308Y007105D01*
X017253Y007049D01*
X016820Y007049D01*
X016764Y007105D01*
X016764Y007459D01*
X016820Y007515D01*
X017253Y007515D01*
X017308Y007459D01*
X017308Y007407D01*
X017571Y007407D01*
X017571Y007459D01*
X017627Y007515D01*
X018060Y007515D01*
X018115Y007459D01*
X018115Y007224D01*
X018305Y007034D01*
X018391Y007034D01*
X018505Y006920D01*
X018505Y006758D01*
X018415Y006668D01*
X018682Y006668D01*
X018749Y006601D01*
X019160Y006601D01*
X019160Y006573D02*
X018778Y006573D01*
X018749Y006601D02*
X019064Y006286D01*
X019160Y006286D01*
X019160Y007806D01*
X019233Y007879D01*
X019538Y008185D01*
X019533Y008187D01*
X019402Y008318D01*
X019331Y008489D01*
X019331Y008674D01*
X019402Y008845D01*
X019486Y008929D01*
X016541Y008929D01*
X014989Y007377D01*
X015033Y007377D01*
X015033Y007140D01*
X015063Y007140D01*
X015063Y007377D01*
X015240Y007377D01*
X015270Y007370D01*
X015296Y007354D01*
X015317Y007333D01*
X015332Y007307D01*
X015340Y007278D01*
X015340Y007140D01*
X015063Y007140D01*
X015063Y007110D01*
X015340Y007110D01*
X015340Y006972D01*
X015524Y006972D01*
X015531Y006942D01*
X015547Y006916D01*
X015568Y006895D01*
X015594Y006880D01*
X015623Y006872D01*
X015801Y006872D01*
X015801Y007110D01*
X015524Y007110D01*
X015524Y006972D01*
X015524Y007000D02*
X015340Y007000D01*
X015340Y006972D02*
X015332Y006942D01*
X015317Y006916D01*
X015296Y006895D01*
X015270Y006880D01*
X015240Y006872D01*
X015063Y006872D01*
X015063Y007110D01*
X015033Y007110D01*
X014756Y007110D01*
X014756Y006972D01*
X014645Y006972D01*
X014645Y007000D02*
X014756Y007000D01*
X014756Y006972D02*
X014764Y006942D01*
X014779Y006916D01*
X014800Y006895D01*
X014826Y006880D01*
X014856Y006872D01*
X015033Y006872D01*
X015033Y007110D01*
X015033Y007140D01*
X014756Y007140D01*
X014756Y007144D01*
X014645Y007034D01*
X014645Y005950D01*
X014755Y006060D01*
X014916Y006060D01*
X015030Y005946D01*
X015625Y005946D01*
X015625Y005938D02*
X014793Y005106D01*
X014793Y005660D01*
X014803Y005670D01*
X014916Y005670D01*
X015030Y005784D01*
X015030Y005946D01*
X015030Y005917D02*
X015603Y005917D01*
X015625Y005938D02*
X015625Y006024D01*
X015739Y006138D01*
X015803Y006138D01*
X015453Y006488D01*
X015320Y006488D01*
X015320Y006436D01*
X015265Y006380D01*
X014832Y006380D01*
X014776Y006436D01*
X014776Y006790D01*
X014832Y006846D01*
X015265Y006846D01*
X015320Y006790D01*
X015320Y006737D01*
X015544Y006737D01*
X015544Y006790D01*
X015599Y006846D01*
X016032Y006846D01*
X016088Y006790D01*
X016088Y006487D01*
X016093Y006493D01*
X016255Y006493D01*
X016315Y006432D01*
X016994Y006432D01*
X016968Y006459D02*
X016289Y006459D01*
X016260Y006487D02*
X016953Y006487D01*
X016953Y006516D02*
X016088Y006516D01*
X016088Y006544D02*
X016953Y006544D01*
X016953Y006573D02*
X016088Y006573D01*
X016088Y006601D02*
X016953Y006601D01*
X016953Y006630D02*
X016088Y006630D01*
X016088Y006658D02*
X016977Y006658D01*
X017006Y006687D02*
X016088Y006687D01*
X016088Y006715D02*
X017034Y006715D01*
X017063Y006744D02*
X016088Y006744D01*
X016088Y006772D02*
X018115Y006772D01*
X018115Y006801D02*
X016077Y006801D01*
X016049Y006829D02*
X018115Y006829D01*
X018101Y006858D02*
X014645Y006858D01*
X014645Y006886D02*
X014815Y006886D01*
X014780Y006915D02*
X014645Y006915D01*
X014645Y006943D02*
X014763Y006943D01*
X014756Y007029D02*
X014645Y007029D01*
X014669Y007057D02*
X014756Y007057D01*
X014756Y007086D02*
X014697Y007086D01*
X014726Y007114D02*
X015033Y007114D01*
X015033Y007086D02*
X015063Y007086D01*
X015063Y007114D02*
X015801Y007114D01*
X015801Y007110D02*
X015801Y007140D01*
X015801Y007377D01*
X015623Y007377D01*
X015594Y007370D01*
X015568Y007354D01*
X015547Y007333D01*
X015531Y007307D01*
X015524Y007278D01*
X015524Y007140D01*
X015801Y007140D01*
X015831Y007140D01*
X015831Y007377D01*
X016008Y007377D01*
X016037Y007370D01*
X016064Y007354D01*
X016085Y007333D01*
X016100Y007307D01*
X016108Y007278D01*
X016108Y007140D01*
X015831Y007140D01*
X015831Y007110D01*
X016108Y007110D01*
X016108Y006972D01*
X017987Y006972D01*
X017959Y007000D02*
X016108Y007000D01*
X016108Y006972D02*
X016100Y006942D01*
X016085Y006916D01*
X016064Y006895D01*
X016037Y006880D01*
X016008Y006872D01*
X015831Y006872D01*
X015831Y007110D01*
X015801Y007110D01*
X015801Y007086D02*
X015831Y007086D01*
X015831Y007114D02*
X016764Y007114D01*
X016764Y007143D02*
X016108Y007143D01*
X016108Y007171D02*
X016764Y007171D01*
X016764Y007200D02*
X016108Y007200D01*
X016108Y007228D02*
X016764Y007228D01*
X016764Y007257D02*
X016108Y007257D01*
X016106Y007285D02*
X016764Y007285D01*
X016764Y007314D02*
X016096Y007314D01*
X016076Y007342D02*
X016764Y007342D01*
X016764Y007371D02*
X016033Y007371D01*
X015831Y007371D02*
X015801Y007371D01*
X015801Y007342D02*
X015831Y007342D01*
X015831Y007314D02*
X015801Y007314D01*
X015801Y007285D02*
X015831Y007285D01*
X015831Y007257D02*
X015801Y007257D01*
X015801Y007228D02*
X015831Y007228D01*
X015831Y007200D02*
X015801Y007200D01*
X015801Y007171D02*
X015831Y007171D01*
X015831Y007143D02*
X015801Y007143D01*
X015801Y007057D02*
X015831Y007057D01*
X015831Y007029D02*
X015801Y007029D01*
X015801Y007000D02*
X015831Y007000D01*
X015831Y006972D02*
X015801Y006972D01*
X015801Y006943D02*
X015831Y006943D01*
X015831Y006915D02*
X015801Y006915D01*
X015801Y006886D02*
X015831Y006886D01*
X016049Y006886D02*
X018073Y006886D01*
X018044Y006915D02*
X016084Y006915D01*
X016100Y006943D02*
X018016Y006943D01*
X017930Y007029D02*
X016108Y007029D01*
X016108Y007057D02*
X016812Y007057D01*
X016783Y007086D02*
X016108Y007086D01*
X015583Y006886D02*
X015281Y006886D01*
X015316Y006915D02*
X015548Y006915D01*
X015531Y006943D02*
X015333Y006943D01*
X015340Y007029D02*
X015524Y007029D01*
X015524Y007057D02*
X015340Y007057D01*
X015340Y007086D02*
X015524Y007086D01*
X015524Y007143D02*
X015340Y007143D01*
X015340Y007171D02*
X015524Y007171D01*
X015524Y007200D02*
X015340Y007200D01*
X015340Y007228D02*
X015524Y007228D01*
X015524Y007257D02*
X015340Y007257D01*
X015338Y007285D02*
X015526Y007285D01*
X015535Y007314D02*
X015328Y007314D01*
X015308Y007342D02*
X015556Y007342D01*
X015599Y007371D02*
X015265Y007371D01*
X015125Y007513D02*
X016818Y007513D01*
X016815Y007549D02*
X016844Y007541D01*
X017021Y007541D01*
X017021Y007779D01*
X016744Y007779D01*
X016744Y007641D01*
X016752Y007612D01*
X016767Y007585D01*
X016788Y007564D01*
X016815Y007549D01*
X016841Y007542D02*
X015153Y007542D01*
X015182Y007570D02*
X016782Y007570D01*
X016759Y007599D02*
X015210Y007599D01*
X015239Y007627D02*
X016748Y007627D01*
X016744Y007656D02*
X015267Y007656D01*
X015296Y007684D02*
X016744Y007684D01*
X016744Y007713D02*
X015324Y007713D01*
X015353Y007741D02*
X016744Y007741D01*
X016744Y007770D02*
X015381Y007770D01*
X015410Y007798D02*
X017021Y007798D01*
X017021Y007809D02*
X017021Y007779D01*
X017051Y007779D01*
X017051Y007541D01*
X017229Y007541D01*
X017258Y007549D01*
X017284Y007564D01*
X017305Y007585D01*
X017321Y007612D01*
X017328Y007641D01*
X017328Y007779D01*
X017051Y007779D01*
X017051Y007809D01*
X017021Y007809D01*
X016744Y007809D01*
X016744Y007947D01*
X016752Y007976D01*
X016767Y008002D01*
X016788Y008024D01*
X016815Y008039D01*
X016844Y008047D01*
X017021Y008047D01*
X017021Y007809D01*
X017021Y007827D02*
X017051Y007827D01*
X017051Y007809D02*
X017051Y008047D01*
X017229Y008047D01*
X017258Y008039D01*
X017284Y008024D01*
X017305Y008002D01*
X017321Y007976D01*
X017328Y007947D01*
X017328Y007809D01*
X017051Y007809D01*
X017051Y007798D02*
X017828Y007798D01*
X017828Y007809D02*
X017828Y007779D01*
X017551Y007779D01*
X017551Y007641D01*
X017559Y007612D01*
X017574Y007585D01*
X017596Y007564D01*
X017622Y007549D01*
X017651Y007541D01*
X017828Y007541D01*
X017828Y007779D01*
X017858Y007779D01*
X017858Y007541D01*
X018036Y007541D01*
X018065Y007549D01*
X018091Y007564D01*
X018112Y007585D01*
X018128Y007612D01*
X018135Y007641D01*
X018135Y007779D01*
X017858Y007779D01*
X017858Y007809D01*
X017828Y007809D01*
X017551Y007809D01*
X017551Y007947D01*
X017559Y007976D01*
X017574Y008002D01*
X017596Y008024D01*
X017622Y008039D01*
X017651Y008047D01*
X017828Y008047D01*
X017828Y007809D01*
X017828Y007827D02*
X017858Y007827D01*
X017858Y007809D02*
X017858Y008047D01*
X018036Y008047D01*
X018065Y008039D01*
X018091Y008024D01*
X018112Y008002D01*
X018128Y007976D01*
X018135Y007947D01*
X018135Y007809D01*
X017858Y007809D01*
X017858Y007798D02*
X019160Y007798D01*
X019160Y007770D02*
X018135Y007770D01*
X018135Y007741D02*
X019160Y007741D01*
X019160Y007713D02*
X018135Y007713D01*
X018135Y007684D02*
X019160Y007684D01*
X019160Y007656D02*
X018135Y007656D01*
X018132Y007627D02*
X019160Y007627D01*
X019160Y007599D02*
X018120Y007599D01*
X018097Y007570D02*
X019160Y007570D01*
X019160Y007542D02*
X018038Y007542D01*
X018061Y007513D02*
X019160Y007513D01*
X019160Y007485D02*
X018090Y007485D01*
X018115Y007456D02*
X019160Y007456D01*
X019160Y007428D02*
X018115Y007428D01*
X018115Y007399D02*
X019160Y007399D01*
X019160Y007371D02*
X018115Y007371D01*
X018115Y007342D02*
X019160Y007342D01*
X019160Y007314D02*
X018115Y007314D01*
X018115Y007285D02*
X019160Y007285D01*
X019160Y007257D02*
X018115Y007257D01*
X018115Y007228D02*
X019160Y007228D01*
X019160Y007200D02*
X018139Y007200D01*
X018168Y007171D02*
X019160Y007171D01*
X019160Y007143D02*
X018196Y007143D01*
X018225Y007114D02*
X019160Y007114D01*
X019160Y007086D02*
X018253Y007086D01*
X018282Y007057D02*
X019160Y007057D01*
X019160Y007029D02*
X018396Y007029D01*
X018425Y007000D02*
X019160Y007000D01*
X019160Y006972D02*
X018453Y006972D01*
X018482Y006943D02*
X019160Y006943D01*
X019160Y006915D02*
X018505Y006915D01*
X018505Y006886D02*
X019160Y006886D01*
X019160Y006858D02*
X018505Y006858D01*
X018505Y006829D02*
X019160Y006829D01*
X019160Y006801D02*
X018505Y006801D01*
X018505Y006772D02*
X019160Y006772D01*
X019160Y006744D02*
X018490Y006744D01*
X018462Y006715D02*
X019160Y006715D01*
X019160Y006687D02*
X018433Y006687D01*
X018186Y006687D02*
X017291Y006687D01*
X017263Y006715D02*
X018158Y006715D01*
X018129Y006744D02*
X017234Y006744D01*
X017261Y007057D02*
X017619Y007057D01*
X017590Y007086D02*
X017289Y007086D01*
X017308Y007114D02*
X017571Y007114D01*
X017571Y007143D02*
X017308Y007143D01*
X017308Y007428D02*
X017571Y007428D01*
X017571Y007456D02*
X017308Y007456D01*
X017283Y007485D02*
X017597Y007485D01*
X017625Y007513D02*
X017254Y007513D01*
X017231Y007542D02*
X017648Y007542D01*
X017589Y007570D02*
X017290Y007570D01*
X017313Y007599D02*
X017566Y007599D01*
X017555Y007627D02*
X017325Y007627D01*
X017328Y007656D02*
X017551Y007656D01*
X017551Y007684D02*
X017328Y007684D01*
X017328Y007713D02*
X017551Y007713D01*
X017551Y007741D02*
X017328Y007741D01*
X017328Y007770D02*
X017551Y007770D01*
X017551Y007827D02*
X017328Y007827D01*
X017328Y007855D02*
X017551Y007855D01*
X017551Y007884D02*
X017328Y007884D01*
X017328Y007912D02*
X017551Y007912D01*
X017551Y007941D02*
X017328Y007941D01*
X017322Y007969D02*
X017557Y007969D01*
X017572Y007998D02*
X017308Y007998D01*
X017280Y008026D02*
X017600Y008026D01*
X017828Y008026D02*
X017858Y008026D01*
X017858Y007998D02*
X017828Y007998D01*
X017828Y007969D02*
X017858Y007969D01*
X017858Y007941D02*
X017828Y007941D01*
X017828Y007912D02*
X017858Y007912D01*
X017858Y007884D02*
X017828Y007884D01*
X017828Y007855D02*
X017858Y007855D01*
X017858Y007770D02*
X017828Y007770D01*
X017828Y007741D02*
X017858Y007741D01*
X017858Y007713D02*
X017828Y007713D01*
X017828Y007684D02*
X017858Y007684D01*
X017858Y007656D02*
X017828Y007656D01*
X017828Y007627D02*
X017858Y007627D01*
X017858Y007599D02*
X017828Y007599D01*
X017828Y007570D02*
X017858Y007570D01*
X017858Y007542D02*
X017828Y007542D01*
X018135Y007827D02*
X019180Y007827D01*
X019209Y007855D02*
X018135Y007855D01*
X018135Y007884D02*
X019237Y007884D01*
X019266Y007912D02*
X018135Y007912D01*
X018135Y007941D02*
X019294Y007941D01*
X019323Y007969D02*
X018129Y007969D01*
X018115Y007998D02*
X019351Y007998D01*
X019380Y008026D02*
X018087Y008026D01*
X017051Y008026D02*
X017021Y008026D01*
X017021Y007998D02*
X017051Y007998D01*
X017051Y007969D02*
X017021Y007969D01*
X017021Y007941D02*
X017051Y007941D01*
X017051Y007912D02*
X017021Y007912D01*
X017021Y007884D02*
X017051Y007884D01*
X017051Y007855D02*
X017021Y007855D01*
X017021Y007770D02*
X017051Y007770D01*
X017051Y007741D02*
X017021Y007741D01*
X017021Y007713D02*
X017051Y007713D01*
X017051Y007684D02*
X017021Y007684D01*
X017021Y007656D02*
X017051Y007656D01*
X017051Y007627D02*
X017021Y007627D01*
X017021Y007599D02*
X017051Y007599D01*
X017051Y007570D02*
X017021Y007570D01*
X017021Y007542D02*
X017051Y007542D01*
X016790Y007485D02*
X015096Y007485D01*
X015068Y007456D02*
X016764Y007456D01*
X016764Y007428D02*
X015039Y007428D01*
X015011Y007399D02*
X016764Y007399D01*
X016744Y007827D02*
X015438Y007827D01*
X015467Y007855D02*
X016744Y007855D01*
X016744Y007884D02*
X015495Y007884D01*
X015524Y007912D02*
X016744Y007912D01*
X016744Y007941D02*
X015552Y007941D01*
X015581Y007969D02*
X016750Y007969D01*
X016764Y007998D02*
X015609Y007998D01*
X015638Y008026D02*
X016793Y008026D01*
X015951Y008340D02*
X019393Y008340D01*
X019381Y008368D02*
X015980Y008368D01*
X016008Y008397D02*
X019369Y008397D01*
X019357Y008425D02*
X016037Y008425D01*
X016065Y008454D02*
X019346Y008454D01*
X019334Y008482D02*
X016094Y008482D01*
X016122Y008511D02*
X019331Y008511D01*
X019331Y008539D02*
X016151Y008539D01*
X016179Y008568D02*
X019331Y008568D01*
X019331Y008596D02*
X016208Y008596D01*
X016236Y008625D02*
X019331Y008625D01*
X019331Y008653D02*
X016265Y008653D01*
X016293Y008682D02*
X019334Y008682D01*
X019346Y008710D02*
X016322Y008710D01*
X016350Y008739D02*
X019358Y008739D01*
X019370Y008767D02*
X016379Y008767D01*
X016407Y008796D02*
X019382Y008796D01*
X019393Y008824D02*
X016436Y008824D01*
X016464Y008853D02*
X019410Y008853D01*
X019438Y008881D02*
X016493Y008881D01*
X016521Y008910D02*
X019467Y008910D01*
X019525Y009195D02*
X016758Y009195D01*
X016758Y009223D02*
X019553Y009223D01*
X019582Y009252D02*
X016758Y009252D01*
X016758Y009280D02*
X019610Y009280D01*
X019639Y009309D02*
X016758Y009309D01*
X016758Y009337D02*
X019667Y009337D01*
X020247Y008454D02*
X021615Y008454D01*
X021615Y008425D02*
X020235Y008425D01*
X020223Y008397D02*
X021615Y008397D01*
X021615Y008368D02*
X020211Y008368D01*
X020199Y008340D02*
X021615Y008340D01*
X021616Y008311D02*
X020184Y008311D01*
X020155Y008283D02*
X021628Y008283D01*
X021640Y008254D02*
X020127Y008254D01*
X020098Y008226D02*
X021652Y008226D01*
X021664Y008197D02*
X020070Y008197D01*
X020015Y008169D02*
X021675Y008169D01*
X021690Y008140D02*
X019946Y008140D01*
X019818Y008112D02*
X021718Y008112D01*
X022215Y007855D02*
X023239Y007855D01*
X023239Y007827D02*
X022284Y007827D01*
X022347Y007798D02*
X023239Y007798D01*
X023239Y007770D02*
X022375Y007770D01*
X022404Y007741D02*
X023239Y007741D01*
X023239Y007713D02*
X022432Y007713D01*
X022461Y007684D02*
X023239Y007684D01*
X023239Y007656D02*
X022480Y007656D01*
X022492Y007627D02*
X023239Y007627D01*
X023239Y007599D02*
X022504Y007599D01*
X022516Y007570D02*
X023239Y007570D01*
X023239Y007542D02*
X022527Y007542D01*
X022539Y007513D02*
X023239Y007513D01*
X023239Y007485D02*
X022545Y007485D01*
X022545Y007456D02*
X023239Y007456D01*
X023239Y007428D02*
X022545Y007428D01*
X022545Y007399D02*
X023239Y007399D01*
X023239Y007371D02*
X022545Y007371D01*
X022545Y007342D02*
X023239Y007342D01*
X023239Y007314D02*
X022544Y007314D01*
X022532Y007285D02*
X023239Y007285D01*
X023239Y007257D02*
X022520Y007257D01*
X022508Y007228D02*
X023239Y007228D01*
X023239Y007200D02*
X022497Y007200D01*
X022485Y007171D02*
X023239Y007171D01*
X023239Y007143D02*
X022472Y007143D01*
X022443Y007114D02*
X023239Y007114D01*
X023239Y007086D02*
X022415Y007086D01*
X022386Y007057D02*
X023239Y007057D01*
X023239Y007029D02*
X022358Y007029D01*
X022310Y007000D02*
X023239Y007000D01*
X023239Y006972D02*
X022241Y006972D01*
X022173Y006943D02*
X023239Y006943D01*
X023239Y006915D02*
X020900Y006915D01*
X020928Y006943D02*
X021987Y006943D01*
X021987Y006873D02*
X021816Y006802D01*
X021685Y006671D01*
X021615Y006501D01*
X021615Y006316D01*
X020669Y006316D01*
X020669Y006288D02*
X021626Y006288D01*
X021615Y006316D02*
X021685Y006145D01*
X020669Y006145D01*
X020669Y006174D02*
X021673Y006174D01*
X021661Y006202D02*
X020669Y006202D01*
X020669Y006231D02*
X021650Y006231D01*
X021638Y006259D02*
X020669Y006259D01*
X020669Y006345D02*
X021615Y006345D01*
X021615Y006373D02*
X020669Y006373D01*
X020669Y006402D02*
X021615Y006402D01*
X021615Y006430D02*
X020669Y006430D01*
X020669Y006459D02*
X021615Y006459D01*
X021615Y006487D02*
X020669Y006487D01*
X020669Y006516D02*
X021621Y006516D01*
X021633Y006544D02*
X020669Y006544D01*
X020669Y006573D02*
X021644Y006573D01*
X021656Y006601D02*
X020669Y006601D01*
X020669Y006630D02*
X021668Y006630D01*
X021680Y006658D02*
X020669Y006658D01*
X020672Y006687D02*
X021701Y006687D01*
X021729Y006715D02*
X020700Y006715D01*
X020729Y006744D02*
X021758Y006744D01*
X021786Y006772D02*
X020757Y006772D01*
X020786Y006801D02*
X021815Y006801D01*
X021881Y006829D02*
X020814Y006829D01*
X020843Y006858D02*
X021950Y006858D01*
X021987Y006873D02*
X022172Y006873D01*
X022343Y006802D01*
X022474Y006671D01*
X022545Y006501D01*
X022545Y006316D01*
X023239Y006316D01*
X023239Y006288D02*
X022533Y006288D01*
X022545Y006316D02*
X022474Y006145D01*
X023239Y006145D01*
X023239Y006117D02*
X022446Y006117D01*
X022474Y006145D02*
X022343Y006014D01*
X022172Y005943D01*
X021987Y005943D01*
X021816Y006014D01*
X021685Y006145D01*
X021713Y006117D02*
X020660Y006117D01*
X020660Y006088D02*
X021742Y006088D01*
X021770Y006060D02*
X020660Y006060D01*
X020660Y006031D02*
X021799Y006031D01*
X021843Y006003D02*
X020653Y006003D01*
X020624Y005974D02*
X021912Y005974D01*
X021981Y005946D02*
X020596Y005946D01*
X020567Y005917D02*
X023239Y005917D01*
X023239Y005889D02*
X020172Y005889D01*
X020193Y005860D02*
X021956Y005860D01*
X021987Y005873D02*
X021816Y005802D01*
X021685Y005671D01*
X021615Y005501D01*
X021615Y005316D01*
X021685Y005145D01*
X021816Y005014D01*
X021987Y004943D01*
X022172Y004943D01*
X022343Y005014D01*
X022474Y005145D01*
X022545Y005316D01*
X022545Y005501D01*
X022474Y005671D01*
X022343Y005802D01*
X022172Y005873D01*
X021987Y005873D01*
X021887Y005832D02*
X020213Y005832D01*
X020227Y005803D02*
X021818Y005803D01*
X021789Y005775D02*
X020242Y005775D01*
X020252Y005746D02*
X021760Y005746D01*
X021732Y005718D02*
X020262Y005718D01*
X020270Y005689D02*
X021703Y005689D01*
X021681Y005661D02*
X020275Y005661D01*
X020279Y005632D02*
X021669Y005632D01*
X021657Y005604D02*
X020281Y005604D01*
X020281Y005547D02*
X021634Y005547D01*
X021645Y005575D02*
X019811Y005575D01*
X019811Y005547D02*
X019781Y005547D01*
X019781Y005518D02*
X019811Y005518D01*
X019811Y005490D02*
X019781Y005490D01*
X019781Y005461D02*
X019811Y005461D01*
X019811Y005433D02*
X019781Y005433D01*
X019781Y005404D02*
X019811Y005404D01*
X019811Y005376D02*
X019781Y005376D01*
X019781Y005347D02*
X019811Y005347D01*
X019811Y005319D02*
X019781Y005319D01*
X019781Y005290D02*
X019811Y005290D01*
X019811Y005262D02*
X019781Y005262D01*
X019781Y005233D02*
X019811Y005233D01*
X019811Y005205D02*
X019781Y005205D01*
X019781Y005176D02*
X019811Y005176D01*
X019811Y005148D02*
X019781Y005148D01*
X019781Y005119D02*
X019811Y005119D01*
X019762Y005091D02*
X021739Y005091D01*
X021711Y005119D02*
X019944Y005119D01*
X020013Y005148D02*
X021684Y005148D01*
X021672Y005176D02*
X020064Y005176D01*
X020103Y005205D02*
X021660Y005205D01*
X021649Y005233D02*
X020134Y005233D01*
X020162Y005262D02*
X021637Y005262D01*
X021625Y005290D02*
X020184Y005290D01*
X020205Y005319D02*
X021615Y005319D01*
X021615Y005347D02*
X020221Y005347D01*
X020236Y005376D02*
X021615Y005376D01*
X021615Y005404D02*
X020248Y005404D01*
X020258Y005433D02*
X021615Y005433D01*
X021615Y005461D02*
X020267Y005461D01*
X020273Y005490D02*
X021615Y005490D01*
X021622Y005518D02*
X020277Y005518D01*
X019811Y005604D02*
X019781Y005604D01*
X019781Y005632D02*
X019811Y005632D01*
X019811Y005661D02*
X019781Y005661D01*
X019781Y005689D02*
X019811Y005689D01*
X019811Y005718D02*
X019781Y005718D01*
X019781Y005746D02*
X019811Y005746D01*
X019811Y005775D02*
X019781Y005775D01*
X019781Y005803D02*
X019811Y005803D01*
X019811Y005832D02*
X019781Y005832D01*
X019781Y005860D02*
X019811Y005860D01*
X019811Y005889D02*
X019781Y005889D01*
X019781Y005917D02*
X019811Y005917D01*
X019811Y005946D02*
X019781Y005946D01*
X019781Y005974D02*
X019811Y005974D01*
X019811Y006003D02*
X019781Y006003D01*
X019781Y006031D02*
X019811Y006031D01*
X019811Y006060D02*
X019781Y006060D01*
X019875Y006060D02*
X020270Y006060D01*
X020270Y006031D02*
X019981Y006031D01*
X020037Y006003D02*
X020278Y006003D01*
X020306Y005974D02*
X020080Y005974D01*
X020117Y005946D02*
X020335Y005946D01*
X020363Y005917D02*
X020146Y005917D01*
X019160Y005860D02*
X018662Y005860D01*
X018690Y005832D02*
X019160Y005832D01*
X019160Y005803D02*
X018719Y005803D01*
X018747Y005775D02*
X019160Y005775D01*
X019160Y005746D02*
X018776Y005746D01*
X018804Y005718D02*
X019160Y005718D01*
X019160Y005689D02*
X018833Y005689D01*
X018861Y005661D02*
X019160Y005661D01*
X019160Y005632D02*
X018890Y005632D01*
X018918Y005604D02*
X019160Y005604D01*
X019160Y005575D02*
X018947Y005575D01*
X018975Y005547D02*
X019160Y005547D01*
X019160Y005518D02*
X019004Y005518D01*
X019032Y005490D02*
X019160Y005490D01*
X019160Y005461D02*
X019061Y005461D01*
X019089Y005433D02*
X019160Y005433D01*
X019160Y005404D02*
X019118Y005404D01*
X019146Y005376D02*
X019160Y005376D01*
X019261Y005233D02*
X019267Y005233D01*
X019261Y005205D02*
X019296Y005205D01*
X019324Y005176D02*
X019261Y005176D01*
X019261Y005148D02*
X019353Y005148D01*
X019381Y005119D02*
X019261Y005119D01*
X019261Y005091D02*
X019410Y005091D01*
X019438Y005062D02*
X019261Y005062D01*
X019261Y005034D02*
X019467Y005034D01*
X019495Y005005D02*
X019261Y005005D01*
X019261Y004977D02*
X019524Y004977D01*
X019505Y004948D02*
X019261Y004948D01*
X019261Y004920D02*
X019477Y004920D01*
X019448Y004891D02*
X019261Y004891D01*
X019261Y004863D02*
X019420Y004863D01*
X019398Y004834D02*
X019261Y004834D01*
X019261Y004806D02*
X019386Y004806D01*
X019374Y004777D02*
X019261Y004777D01*
X019261Y004749D02*
X019362Y004749D01*
X019350Y004720D02*
X019261Y004720D01*
X019261Y004692D02*
X019339Y004692D01*
X019331Y004663D02*
X019261Y004663D01*
X019261Y004635D02*
X019331Y004635D01*
X019331Y004606D02*
X019261Y004606D01*
X019261Y004578D02*
X019331Y004578D01*
X019331Y004549D02*
X019261Y004549D01*
X019261Y004521D02*
X019331Y004521D01*
X019331Y004492D02*
X019261Y004492D01*
X019261Y004464D02*
X019341Y004464D01*
X019353Y004435D02*
X019261Y004435D01*
X019261Y004407D02*
X019365Y004407D01*
X019377Y004378D02*
X019261Y004378D01*
X019261Y004350D02*
X019389Y004350D01*
X019400Y004321D02*
X019261Y004321D01*
X019261Y004293D02*
X019427Y004293D01*
X019456Y004264D02*
X019261Y004264D01*
X019261Y004236D02*
X019484Y004236D01*
X019513Y004207D02*
X019261Y004207D01*
X019261Y004179D02*
X019553Y004179D01*
X019622Y004150D02*
X019261Y004150D01*
X019261Y004122D02*
X019690Y004122D01*
X019682Y004054D02*
X019610Y004031D01*
X019542Y003996D01*
X019480Y003951D01*
X019426Y003897D01*
X019381Y003835D01*
X019347Y003767D01*
X019323Y003695D01*
X019311Y003619D01*
X019311Y003596D01*
X019781Y003596D01*
X019781Y003566D01*
X019811Y003566D01*
X019811Y003096D01*
X019834Y003096D01*
X019910Y003108D01*
X019982Y003132D01*
X020050Y003166D01*
X020112Y003211D01*
X020166Y003265D01*
X020211Y003327D01*
X020246Y003395D01*
X020269Y003468D01*
X020281Y003543D01*
X020281Y003566D01*
X019811Y003566D01*
X019811Y003596D01*
X020281Y003596D01*
X020281Y003619D01*
X020269Y003695D01*
X020246Y003767D01*
X020211Y003835D01*
X020166Y003897D01*
X020112Y003951D01*
X020050Y003996D01*
X019982Y004031D01*
X019910Y004054D01*
X019834Y004066D01*
X019811Y004066D01*
X019811Y003596D01*
X019781Y003596D01*
X019781Y004066D01*
X019758Y004066D01*
X019682Y004054D01*
X019627Y004036D02*
X019261Y004036D01*
X019261Y004008D02*
X019565Y004008D01*
X019519Y003979D02*
X019261Y003979D01*
X019261Y003951D02*
X019480Y003951D01*
X019451Y003922D02*
X019261Y003922D01*
X019261Y003894D02*
X019424Y003894D01*
X019403Y003865D02*
X019261Y003865D01*
X019261Y003837D02*
X019382Y003837D01*
X019367Y003808D02*
X019261Y003808D01*
X019261Y003780D02*
X019353Y003780D01*
X019341Y003751D02*
X019261Y003751D01*
X019261Y003723D02*
X019332Y003723D01*
X019323Y003694D02*
X019261Y003694D01*
X019261Y003666D02*
X019318Y003666D01*
X019314Y003637D02*
X019261Y003637D01*
X019261Y003609D02*
X019311Y003609D01*
X019311Y003566D02*
X019311Y003543D01*
X019323Y003468D01*
X019347Y003395D01*
X019381Y003327D01*
X019426Y003265D01*
X019480Y003211D01*
X019542Y003166D01*
X019610Y003132D01*
X019682Y003108D01*
X019758Y003096D01*
X019781Y003096D01*
X019781Y003566D01*
X019311Y003566D01*
X019311Y003552D02*
X019261Y003552D01*
X019261Y003580D02*
X019781Y003580D01*
X019781Y003552D02*
X019811Y003552D01*
X019811Y003580D02*
X023239Y003580D01*
X023239Y003552D02*
X020281Y003552D01*
X020278Y003523D02*
X023239Y003523D01*
X023239Y003495D02*
X020273Y003495D01*
X020269Y003466D02*
X022053Y003466D01*
X021984Y003438D02*
X020259Y003438D01*
X020250Y003409D02*
X021915Y003409D01*
X021875Y003381D02*
X020238Y003381D01*
X020224Y003352D02*
X021846Y003352D01*
X021818Y003324D02*
X020208Y003324D01*
X020188Y003295D02*
X021789Y003295D01*
X021763Y003267D02*
X020167Y003267D01*
X020139Y003238D02*
X021751Y003238D01*
X021739Y003210D02*
X020110Y003210D01*
X020071Y003181D02*
X021727Y003181D01*
X021716Y003153D02*
X020023Y003153D01*
X019959Y003124D02*
X021704Y003124D01*
X021693Y003096D02*
X019261Y003096D01*
X019261Y003124D02*
X019633Y003124D01*
X019569Y003153D02*
X019261Y003153D01*
X019261Y003181D02*
X019522Y003181D01*
X019482Y003210D02*
X019261Y003210D01*
X019261Y003238D02*
X019453Y003238D01*
X019425Y003267D02*
X019261Y003267D01*
X019261Y003295D02*
X019404Y003295D01*
X019384Y003324D02*
X019261Y003324D01*
X019261Y003352D02*
X019368Y003352D01*
X019354Y003381D02*
X019261Y003381D01*
X019261Y003409D02*
X019342Y003409D01*
X019333Y003438D02*
X019261Y003438D01*
X019261Y003466D02*
X019323Y003466D01*
X019319Y003495D02*
X019261Y003495D01*
X019261Y003523D02*
X019314Y003523D01*
X018992Y003523D02*
X018687Y003523D01*
X018687Y003511D02*
X018687Y003708D01*
X018409Y003708D01*
X018409Y003411D01*
X018587Y003411D01*
X018616Y003419D01*
X018642Y003434D01*
X018664Y003456D01*
X018679Y003482D01*
X018687Y003511D01*
X018682Y003495D02*
X018992Y003495D01*
X018992Y003466D02*
X018670Y003466D01*
X018646Y003438D02*
X018992Y003438D01*
X018992Y003409D02*
X016536Y003409D01*
X016515Y003381D02*
X016560Y003381D01*
X016531Y003352D02*
X016515Y003352D01*
X016765Y003438D02*
X016795Y003438D01*
X016795Y003466D02*
X016765Y003466D01*
X016765Y003495D02*
X016795Y003495D01*
X016795Y003523D02*
X016765Y003523D01*
X016765Y003552D02*
X016795Y003552D01*
X016795Y003580D02*
X016765Y003580D01*
X016765Y003609D02*
X016795Y003609D01*
X016795Y003637D02*
X016765Y003637D01*
X016765Y003666D02*
X016795Y003666D01*
X016795Y003694D02*
X016765Y003694D01*
X016795Y003723D02*
X018379Y003723D01*
X018379Y003738D02*
X018379Y003708D01*
X018102Y003708D01*
X018102Y003511D01*
X018110Y003482D01*
X018125Y003456D01*
X018147Y003434D01*
X018173Y003419D01*
X018202Y003411D01*
X018379Y003411D01*
X018379Y003708D01*
X018409Y003708D01*
X018409Y003738D01*
X018379Y003738D01*
X018102Y003738D01*
X018102Y003935D01*
X018110Y003964D01*
X018125Y003990D01*
X018147Y004012D01*
X018173Y004027D01*
X018202Y004035D01*
X018379Y004035D01*
X018379Y003738D01*
X018379Y003751D02*
X018409Y003751D01*
X018409Y003738D02*
X018409Y004035D01*
X018587Y004035D01*
X018616Y004027D01*
X018642Y004012D01*
X018664Y003990D01*
X018679Y003964D01*
X018687Y003935D01*
X018687Y003738D01*
X018409Y003738D01*
X018409Y003723D02*
X018992Y003723D01*
X018992Y003751D02*
X018687Y003751D01*
X018687Y003780D02*
X018992Y003780D01*
X018992Y003808D02*
X018687Y003808D01*
X018687Y003837D02*
X018992Y003837D01*
X018992Y003865D02*
X018687Y003865D01*
X018687Y003894D02*
X018992Y003894D01*
X018992Y003922D02*
X018687Y003922D01*
X018682Y003951D02*
X018992Y003951D01*
X018992Y003979D02*
X018670Y003979D01*
X018646Y004008D02*
X018992Y004008D01*
X018992Y004036D02*
X016868Y004036D01*
X016897Y004065D02*
X018992Y004065D01*
X018992Y004093D02*
X016925Y004093D01*
X016954Y004122D02*
X018992Y004122D01*
X018992Y004150D02*
X016982Y004150D01*
X017011Y004179D02*
X018992Y004179D01*
X018992Y004207D02*
X017039Y004207D01*
X017068Y004236D02*
X018992Y004236D01*
X018992Y004264D02*
X017096Y004264D01*
X017125Y004293D02*
X018992Y004293D01*
X018992Y004321D02*
X017153Y004321D01*
X017182Y004350D02*
X018992Y004350D01*
X018992Y004378D02*
X017210Y004378D01*
X017239Y004407D02*
X018992Y004407D01*
X018992Y004435D02*
X017564Y004435D01*
X017592Y004464D02*
X018992Y004464D01*
X018992Y004492D02*
X017608Y004492D01*
X017608Y004521D02*
X018992Y004521D01*
X018992Y004549D02*
X017608Y004549D01*
X017608Y004578D02*
X018992Y004578D01*
X018992Y004606D02*
X017608Y004606D01*
X017608Y004635D02*
X018992Y004635D01*
X018992Y004663D02*
X017608Y004663D01*
X017608Y004692D02*
X018992Y004692D01*
X018992Y004720D02*
X017608Y004720D01*
X017608Y004749D02*
X018992Y004749D01*
X018992Y004777D02*
X017608Y004777D01*
X017608Y004806D02*
X018992Y004806D01*
X018992Y004834D02*
X017608Y004834D01*
X017608Y004863D02*
X018992Y004863D01*
X018992Y004891D02*
X017608Y004891D01*
X017608Y004920D02*
X018992Y004920D01*
X018992Y004948D02*
X017608Y004948D01*
X017608Y004977D02*
X018992Y004977D01*
X018992Y005005D02*
X017608Y005005D01*
X017604Y005034D02*
X018992Y005034D01*
X018992Y005062D02*
X017575Y005062D01*
X016623Y005062D02*
X015758Y005062D01*
X015730Y005034D02*
X016594Y005034D01*
X016591Y005005D02*
X015701Y005005D01*
X015673Y004977D02*
X016591Y004977D01*
X016591Y004948D02*
X015649Y004948D01*
X015636Y004920D02*
X016591Y004920D01*
X016591Y004891D02*
X015607Y004891D01*
X015579Y004863D02*
X016591Y004863D01*
X016591Y004834D02*
X015522Y004834D01*
X015494Y004806D02*
X016591Y004806D01*
X016591Y004777D02*
X015465Y004777D01*
X015437Y004749D02*
X016591Y004749D01*
X016591Y004720D02*
X015408Y004720D01*
X015333Y004663D02*
X015678Y004663D01*
X015650Y004635D02*
X015326Y004635D01*
X015321Y004606D02*
X015621Y004606D01*
X015602Y004578D02*
X015331Y004578D01*
X015336Y004549D02*
X015592Y004549D01*
X015563Y004521D02*
X015336Y004521D01*
X015185Y004545D02*
X015179Y004545D01*
X015179Y004559D01*
X015171Y004587D01*
X015171Y004689D01*
X015185Y004689D01*
X015185Y004545D01*
X015185Y004549D02*
X015179Y004549D01*
X015171Y004537D02*
X015171Y004531D01*
X015058Y004531D01*
X015058Y004545D01*
X015129Y004545D01*
X015157Y004537D01*
X015171Y004537D01*
X015174Y004578D02*
X015185Y004578D01*
X015185Y004606D02*
X015171Y004606D01*
X015171Y004635D02*
X015185Y004635D01*
X015185Y004663D02*
X015171Y004663D01*
X015216Y004692D02*
X016583Y004692D01*
X016554Y004663D02*
X015815Y004663D01*
X014862Y005176D02*
X014793Y005176D01*
X014793Y005148D02*
X014834Y005148D01*
X014805Y005119D02*
X014793Y005119D01*
X014793Y005205D02*
X014891Y005205D01*
X014919Y005233D02*
X014793Y005233D01*
X014793Y005262D02*
X014948Y005262D01*
X014976Y005290D02*
X014793Y005290D01*
X014793Y005319D02*
X015005Y005319D01*
X015033Y005347D02*
X014793Y005347D01*
X014793Y005376D02*
X015062Y005376D01*
X015090Y005404D02*
X014793Y005404D01*
X014793Y005433D02*
X015119Y005433D01*
X015147Y005461D02*
X014793Y005461D01*
X014793Y005490D02*
X015176Y005490D01*
X015204Y005518D02*
X014793Y005518D01*
X014793Y005547D02*
X015233Y005547D01*
X015261Y005575D02*
X014793Y005575D01*
X014793Y005604D02*
X015290Y005604D01*
X015318Y005632D02*
X014793Y005632D01*
X014794Y005661D02*
X015347Y005661D01*
X015375Y005689D02*
X014936Y005689D01*
X014964Y005718D02*
X015404Y005718D01*
X015432Y005746D02*
X014993Y005746D01*
X015021Y005775D02*
X015461Y005775D01*
X015489Y005803D02*
X015030Y005803D01*
X015030Y005832D02*
X015518Y005832D01*
X015546Y005860D02*
X015030Y005860D01*
X015030Y005889D02*
X015575Y005889D01*
X015625Y005974D02*
X015002Y005974D01*
X014973Y006003D02*
X015625Y006003D01*
X015632Y006031D02*
X014945Y006031D01*
X014726Y006031D02*
X014645Y006031D01*
X014645Y006003D02*
X014698Y006003D01*
X014669Y005974D02*
X014645Y005974D01*
X014645Y006060D02*
X015660Y006060D01*
X015689Y006088D02*
X014645Y006088D01*
X014645Y006117D02*
X015717Y006117D01*
X015768Y006174D02*
X014645Y006174D01*
X014645Y006202D02*
X015739Y006202D01*
X015711Y006231D02*
X014645Y006231D01*
X014645Y006259D02*
X015682Y006259D01*
X015654Y006288D02*
X014645Y006288D01*
X014645Y006316D02*
X015625Y006316D01*
X015597Y006345D02*
X014645Y006345D01*
X014645Y006373D02*
X015568Y006373D01*
X015540Y006402D02*
X015286Y006402D01*
X015315Y006430D02*
X015511Y006430D01*
X015483Y006459D02*
X015320Y006459D01*
X015320Y006487D02*
X015454Y006487D01*
X015544Y006744D02*
X015320Y006744D01*
X015320Y006772D02*
X015544Y006772D01*
X015554Y006801D02*
X015309Y006801D01*
X015281Y006829D02*
X015583Y006829D01*
X015063Y006886D02*
X015033Y006886D01*
X015033Y006915D02*
X015063Y006915D01*
X015063Y006943D02*
X015033Y006943D01*
X015033Y006972D02*
X015063Y006972D01*
X015063Y007000D02*
X015033Y007000D01*
X015033Y007029D02*
X015063Y007029D01*
X015063Y007057D02*
X015033Y007057D01*
X015033Y007143D02*
X015063Y007143D01*
X015063Y007171D02*
X015033Y007171D01*
X015033Y007200D02*
X015063Y007200D01*
X015063Y007228D02*
X015033Y007228D01*
X015033Y007257D02*
X015063Y007257D01*
X015063Y007285D02*
X015033Y007285D01*
X015033Y007314D02*
X015063Y007314D01*
X015063Y007342D02*
X015033Y007342D01*
X015033Y007371D02*
X015063Y007371D01*
X014801Y007542D02*
X013951Y007542D01*
X013951Y007570D02*
X014829Y007570D01*
X014858Y007599D02*
X013943Y007599D01*
X013915Y007627D02*
X014886Y007627D01*
X014915Y007656D02*
X013779Y007656D01*
X013779Y007684D02*
X014943Y007684D01*
X014972Y007713D02*
X013779Y007713D01*
X013779Y007741D02*
X015000Y007741D01*
X015029Y007770D02*
X013779Y007770D01*
X013779Y007798D02*
X015057Y007798D01*
X015086Y007827D02*
X013779Y007827D01*
X013779Y007855D02*
X015114Y007855D01*
X015143Y007884D02*
X013779Y007884D01*
X013779Y007912D02*
X015171Y007912D01*
X015200Y007941D02*
X013779Y007941D01*
X013779Y007969D02*
X015228Y007969D01*
X015257Y007998D02*
X013779Y007998D01*
X013779Y008026D02*
X015285Y008026D01*
X015314Y008055D02*
X013779Y008055D01*
X013779Y008083D02*
X015342Y008083D01*
X015371Y008112D02*
X013779Y008112D01*
X013779Y008140D02*
X015399Y008140D01*
X015428Y008169D02*
X013779Y008169D01*
X013779Y008197D02*
X015456Y008197D01*
X015485Y008226D02*
X013779Y008226D01*
X013779Y008254D02*
X015513Y008254D01*
X015542Y008283D02*
X013779Y008283D01*
X013779Y008311D02*
X015570Y008311D01*
X015599Y008340D02*
X013779Y008340D01*
X013779Y008368D02*
X015627Y008368D01*
X015656Y008397D02*
X013779Y008397D01*
X013779Y008425D02*
X015684Y008425D01*
X015713Y008454D02*
X013779Y008454D01*
X013779Y008482D02*
X015741Y008482D01*
X015770Y008511D02*
X013779Y008511D01*
X013779Y008539D02*
X015798Y008539D01*
X015827Y008568D02*
X013779Y008568D01*
X013779Y008596D02*
X015855Y008596D01*
X015884Y008625D02*
X013779Y008625D01*
X013779Y008653D02*
X015912Y008653D01*
X015941Y008682D02*
X013779Y008682D01*
X013779Y008710D02*
X015969Y008710D01*
X015998Y008739D02*
X014711Y008739D01*
X014740Y008767D02*
X016026Y008767D01*
X016055Y008796D02*
X014759Y008796D01*
X014759Y008824D02*
X016083Y008824D01*
X016112Y008853D02*
X014759Y008853D01*
X014797Y008881D02*
X016140Y008881D01*
X016169Y008910D02*
X014836Y008910D01*
X014865Y008938D02*
X016197Y008938D01*
X016226Y008967D02*
X014893Y008967D01*
X014912Y008995D02*
X016254Y008995D01*
X016283Y009024D02*
X014924Y009024D01*
X014936Y009052D02*
X016182Y009052D01*
X016094Y009394D02*
X016068Y009394D01*
X016068Y009423D02*
X016094Y009423D01*
X016094Y009451D02*
X016068Y009451D01*
X016068Y009480D02*
X016094Y009480D01*
X016094Y009508D02*
X016068Y009508D01*
X016068Y009537D02*
X016094Y009537D01*
X016094Y009565D02*
X016068Y009565D01*
X016068Y009594D02*
X016100Y009594D01*
X016114Y009622D02*
X016043Y009622D01*
X016014Y009651D02*
X016141Y009651D01*
X016411Y009651D02*
X016441Y009651D01*
X016441Y009622D02*
X016411Y009622D01*
X016411Y009594D02*
X016441Y009594D01*
X016441Y009565D02*
X016411Y009565D01*
X016411Y009537D02*
X016441Y009537D01*
X016441Y009508D02*
X016411Y009508D01*
X016411Y009480D02*
X016441Y009480D01*
X016441Y009451D02*
X016411Y009451D01*
X016411Y009423D02*
X016441Y009423D01*
X015397Y009537D02*
X014759Y009537D01*
X014759Y009565D02*
X015368Y009565D01*
X015340Y009594D02*
X014759Y009594D01*
X013530Y008731D02*
X012657Y008731D01*
X013188Y008200D01*
X013188Y007293D01*
X013281Y007293D01*
X013371Y007203D01*
X013371Y006800D01*
X013357Y006785D01*
X013387Y006755D01*
X013387Y006887D01*
X013664Y006887D01*
X013664Y006917D01*
X013664Y007154D01*
X013487Y007154D01*
X013457Y007147D01*
X013431Y007131D01*
X013410Y007110D01*
X013395Y007084D01*
X013387Y007055D01*
X013387Y006917D01*
X013664Y006917D01*
X013694Y006917D01*
X013694Y007154D01*
X013763Y007154D01*
X013737Y007181D01*
X013462Y007181D01*
X013407Y007236D01*
X013407Y007591D01*
X013462Y007646D01*
X013530Y007646D01*
X013530Y008731D01*
X013530Y008710D02*
X012678Y008710D01*
X012706Y008682D02*
X013530Y008682D01*
X013530Y008653D02*
X012735Y008653D01*
X012763Y008625D02*
X013530Y008625D01*
X013530Y008596D02*
X012792Y008596D01*
X012820Y008568D02*
X013530Y008568D01*
X013530Y008539D02*
X012849Y008539D01*
X012877Y008511D02*
X013530Y008511D01*
X013530Y008482D02*
X012906Y008482D01*
X012934Y008454D02*
X013530Y008454D01*
X013530Y008425D02*
X012963Y008425D01*
X012991Y008397D02*
X013530Y008397D01*
X013530Y008368D02*
X013020Y008368D01*
X013048Y008340D02*
X013530Y008340D01*
X013530Y008311D02*
X013077Y008311D01*
X013105Y008283D02*
X013530Y008283D01*
X013530Y008254D02*
X013134Y008254D01*
X013162Y008226D02*
X013530Y008226D01*
X013530Y008197D02*
X013188Y008197D01*
X013188Y008169D02*
X013530Y008169D01*
X013530Y008140D02*
X013188Y008140D01*
X013188Y008112D02*
X013530Y008112D01*
X013530Y008083D02*
X013188Y008083D01*
X013188Y008055D02*
X013530Y008055D01*
X013530Y008026D02*
X013188Y008026D01*
X013188Y007998D02*
X013530Y007998D01*
X013530Y007969D02*
X013188Y007969D01*
X013188Y007941D02*
X013530Y007941D01*
X013530Y007912D02*
X013188Y007912D01*
X013188Y007884D02*
X013530Y007884D01*
X013530Y007855D02*
X013188Y007855D01*
X013188Y007827D02*
X013530Y007827D01*
X013530Y007798D02*
X013188Y007798D01*
X013188Y007770D02*
X013530Y007770D01*
X013530Y007741D02*
X013188Y007741D01*
X013188Y007713D02*
X013530Y007713D01*
X013530Y007684D02*
X013188Y007684D01*
X013188Y007656D02*
X013530Y007656D01*
X013443Y007627D02*
X013188Y007627D01*
X013188Y007599D02*
X013415Y007599D01*
X013407Y007570D02*
X013188Y007570D01*
X013188Y007542D02*
X013407Y007542D01*
X013407Y007513D02*
X013188Y007513D01*
X013188Y007485D02*
X013407Y007485D01*
X013407Y007456D02*
X013188Y007456D01*
X013188Y007428D02*
X013407Y007428D01*
X013407Y007399D02*
X013188Y007399D01*
X013188Y007371D02*
X013407Y007371D01*
X013407Y007342D02*
X013188Y007342D01*
X013188Y007314D02*
X013407Y007314D01*
X013407Y007285D02*
X013289Y007285D01*
X013318Y007257D02*
X013407Y007257D01*
X013415Y007228D02*
X013346Y007228D01*
X013371Y007200D02*
X013443Y007200D01*
X013451Y007143D02*
X013371Y007143D01*
X013371Y007171D02*
X013747Y007171D01*
X013694Y007143D02*
X013664Y007143D01*
X013664Y007114D02*
X013694Y007114D01*
X013694Y007086D02*
X013664Y007086D01*
X013664Y007057D02*
X013694Y007057D01*
X013694Y007029D02*
X013664Y007029D01*
X013664Y007000D02*
X013694Y007000D01*
X013694Y006972D02*
X013664Y006972D01*
X013664Y006943D02*
X013694Y006943D01*
X013694Y006917D02*
X013971Y006917D01*
X013971Y006933D01*
X014229Y006675D01*
X014229Y006275D01*
X014208Y006296D01*
X014046Y006296D01*
X013932Y006182D01*
X013932Y006096D01*
X013914Y006078D01*
X013914Y005100D01*
X013956Y005059D01*
X013960Y005042D01*
X013992Y005021D01*
X013921Y004950D01*
X013867Y005010D01*
X013867Y006275D01*
X013493Y006649D01*
X013664Y006649D01*
X013664Y006887D01*
X013694Y006887D01*
X013694Y006917D01*
X013694Y006915D02*
X013989Y006915D01*
X013971Y006887D02*
X013694Y006887D01*
X013694Y006649D01*
X013871Y006649D01*
X013901Y006657D01*
X013927Y006672D01*
X013948Y006693D01*
X013963Y006719D01*
X013971Y006749D01*
X013971Y006887D01*
X013971Y006886D02*
X014018Y006886D01*
X014046Y006858D02*
X013971Y006858D01*
X013971Y006829D02*
X014075Y006829D01*
X014103Y006801D02*
X013971Y006801D01*
X013971Y006772D02*
X014132Y006772D01*
X014160Y006744D02*
X013970Y006744D01*
X013961Y006715D02*
X014189Y006715D01*
X014217Y006687D02*
X013942Y006687D01*
X013903Y006658D02*
X014229Y006658D01*
X014229Y006630D02*
X013512Y006630D01*
X013541Y006601D02*
X014229Y006601D01*
X014229Y006573D02*
X013569Y006573D01*
X013598Y006544D02*
X014229Y006544D01*
X014229Y006516D02*
X013626Y006516D01*
X013655Y006487D02*
X014229Y006487D01*
X014229Y006459D02*
X013683Y006459D01*
X013712Y006430D02*
X014229Y006430D01*
X014229Y006402D02*
X013740Y006402D01*
X013769Y006373D02*
X014229Y006373D01*
X014229Y006345D02*
X013797Y006345D01*
X013826Y006316D02*
X014229Y006316D01*
X014229Y006288D02*
X014216Y006288D01*
X014038Y006288D02*
X013854Y006288D01*
X013867Y006259D02*
X014009Y006259D01*
X013981Y006231D02*
X013867Y006231D01*
X013867Y006202D02*
X013952Y006202D01*
X013932Y006174D02*
X013867Y006174D01*
X013867Y006145D02*
X013932Y006145D01*
X013932Y006117D02*
X013867Y006117D01*
X013867Y006088D02*
X013924Y006088D01*
X013914Y006060D02*
X013867Y006060D01*
X013867Y006031D02*
X013914Y006031D01*
X013914Y006003D02*
X013867Y006003D01*
X013867Y005974D02*
X013914Y005974D01*
X013914Y005946D02*
X013867Y005946D01*
X013867Y005917D02*
X013914Y005917D01*
X013914Y005889D02*
X013867Y005889D01*
X013867Y005860D02*
X013914Y005860D01*
X013914Y005832D02*
X013867Y005832D01*
X013867Y005803D02*
X013914Y005803D01*
X013914Y005775D02*
X013867Y005775D01*
X013867Y005746D02*
X013914Y005746D01*
X013914Y005718D02*
X013867Y005718D01*
X013867Y005689D02*
X013914Y005689D01*
X013914Y005661D02*
X013867Y005661D01*
X013867Y005632D02*
X013914Y005632D01*
X013914Y005604D02*
X013867Y005604D01*
X013867Y005575D02*
X013914Y005575D01*
X013914Y005547D02*
X013867Y005547D01*
X013867Y005518D02*
X013914Y005518D01*
X013914Y005490D02*
X013867Y005490D01*
X013867Y005461D02*
X013914Y005461D01*
X013914Y005433D02*
X013867Y005433D01*
X013867Y005404D02*
X013914Y005404D01*
X013914Y005376D02*
X013867Y005376D01*
X013867Y005347D02*
X013914Y005347D01*
X013914Y005319D02*
X013867Y005319D01*
X013867Y005290D02*
X013914Y005290D01*
X013914Y005262D02*
X013867Y005262D01*
X013867Y005233D02*
X013914Y005233D01*
X013914Y005205D02*
X013867Y005205D01*
X013867Y005176D02*
X013914Y005176D01*
X013914Y005148D02*
X013867Y005148D01*
X013867Y005119D02*
X013914Y005119D01*
X013923Y005091D02*
X013867Y005091D01*
X013867Y005062D02*
X013952Y005062D01*
X013972Y005034D02*
X013867Y005034D01*
X013872Y005005D02*
X013976Y005005D01*
X013947Y004977D02*
X013897Y004977D01*
X013008Y003959D02*
X013381Y003586D01*
X013381Y003500D01*
X013413Y003468D01*
X013261Y003468D01*
X013205Y003412D01*
X013205Y003037D01*
X012917Y003037D01*
X012917Y003037D01*
X012925Y003066D01*
X012925Y003499D01*
X012707Y003499D01*
X012707Y003529D01*
X012925Y003529D01*
X012925Y003959D01*
X013008Y003959D01*
X013016Y003951D02*
X012925Y003951D01*
X012925Y003922D02*
X013045Y003922D01*
X013073Y003894D02*
X012925Y003894D01*
X012925Y003865D02*
X013102Y003865D01*
X013130Y003837D02*
X012925Y003837D01*
X012925Y003808D02*
X013159Y003808D01*
X013187Y003780D02*
X012925Y003780D01*
X012925Y003751D02*
X013216Y003751D01*
X013244Y003723D02*
X012925Y003723D01*
X012925Y003694D02*
X013273Y003694D01*
X013301Y003666D02*
X012925Y003666D01*
X012925Y003637D02*
X013330Y003637D01*
X013358Y003609D02*
X012925Y003609D01*
X012925Y003580D02*
X013381Y003580D01*
X013381Y003552D02*
X012925Y003552D01*
X012925Y003495D02*
X013386Y003495D01*
X013381Y003523D02*
X012707Y003523D01*
X012677Y003523D02*
X012405Y003523D01*
X012405Y003495D02*
X012459Y003495D01*
X012459Y003499D02*
X012459Y003066D01*
X012466Y003037D01*
X012467Y003037D01*
X012399Y003037D01*
X012405Y003042D01*
X012405Y003756D01*
X012459Y003810D01*
X012459Y003529D01*
X012677Y003529D01*
X012677Y003499D01*
X012459Y003499D01*
X012459Y003466D02*
X012405Y003466D01*
X012405Y003438D02*
X012459Y003438D01*
X012459Y003409D02*
X012405Y003409D01*
X012405Y003381D02*
X012459Y003381D01*
X012459Y003352D02*
X012405Y003352D01*
X012405Y003324D02*
X012459Y003324D01*
X012459Y003295D02*
X012405Y003295D01*
X012405Y003267D02*
X012459Y003267D01*
X012459Y003238D02*
X012405Y003238D01*
X012405Y003210D02*
X012459Y003210D01*
X012459Y003181D02*
X012405Y003181D01*
X012405Y003153D02*
X012459Y003153D01*
X012459Y003124D02*
X012405Y003124D01*
X012405Y003096D02*
X012459Y003096D01*
X012459Y003067D02*
X012405Y003067D01*
X012402Y003039D02*
X012466Y003039D01*
X012917Y003039D02*
X013205Y003039D01*
X013205Y003067D02*
X012925Y003067D01*
X012925Y003096D02*
X013205Y003096D01*
X013205Y003124D02*
X012925Y003124D01*
X012925Y003153D02*
X013205Y003153D01*
X013205Y003181D02*
X012925Y003181D01*
X012925Y003210D02*
X013205Y003210D01*
X013205Y003238D02*
X012925Y003238D01*
X012925Y003267D02*
X013205Y003267D01*
X013205Y003295D02*
X012925Y003295D01*
X012925Y003324D02*
X013205Y003324D01*
X013205Y003352D02*
X012925Y003352D01*
X012925Y003381D02*
X013205Y003381D01*
X013205Y003409D02*
X012925Y003409D01*
X012925Y003438D02*
X013231Y003438D01*
X013259Y003466D02*
X012925Y003466D01*
X012459Y003552D02*
X012405Y003552D01*
X012405Y003580D02*
X012459Y003580D01*
X012459Y003609D02*
X012405Y003609D01*
X012405Y003637D02*
X012459Y003637D01*
X012459Y003666D02*
X012405Y003666D01*
X012405Y003694D02*
X012459Y003694D01*
X012459Y003723D02*
X012405Y003723D01*
X012405Y003751D02*
X012459Y003751D01*
X012459Y003780D02*
X012429Y003780D01*
X012457Y003808D02*
X012459Y003808D01*
X010370Y003808D02*
X010143Y003808D01*
X010172Y003780D02*
X010370Y003780D01*
X010370Y003751D02*
X010200Y003751D01*
X010196Y003755D02*
X009635Y004316D01*
X008198Y004316D01*
X006820Y005694D01*
X005479Y005694D01*
X005418Y005755D01*
X005257Y005755D01*
X005142Y005640D01*
X005142Y005498D01*
X003739Y006901D01*
X003739Y007943D01*
X003820Y007943D01*
X003875Y007999D01*
X003875Y008353D01*
X003820Y008409D01*
X003387Y008409D01*
X003331Y008353D01*
X003331Y007999D01*
X003387Y007943D01*
X003490Y007943D01*
X003490Y006797D01*
X005293Y004995D01*
X005237Y004995D01*
X005181Y004939D01*
X005181Y004120D01*
X004556Y004745D01*
X004556Y004943D01*
X004566Y004953D01*
X004566Y005074D01*
X004488Y005153D01*
X003657Y005983D01*
X003720Y006045D01*
X003720Y006550D01*
X003641Y006629D01*
X003444Y006826D01*
X003224Y006826D01*
X002519Y007530D01*
X002519Y008002D01*
X002587Y008002D01*
X002643Y008058D01*
X002643Y008339D01*
X003982Y009677D01*
X005205Y009677D01*
X005205Y008786D01*
X005261Y008730D01*
X005892Y008730D01*
X005892Y007353D01*
X005729Y007353D01*
X005674Y007297D01*
X005674Y006339D01*
X005729Y006283D01*
X006288Y006283D01*
X006328Y006322D01*
X006516Y006134D01*
X007249Y006134D01*
X007322Y006207D01*
X007682Y006567D01*
X009181Y006567D01*
X009181Y006487D01*
X009237Y006431D01*
X009630Y006431D01*
X010310Y005752D01*
X010310Y005666D01*
X010370Y005605D01*
X010370Y002423D01*
X010633Y002161D01*
X010332Y002161D01*
X010276Y002105D01*
X010276Y002052D01*
X010013Y002052D01*
X010013Y002105D01*
X009957Y002161D01*
X009842Y002161D01*
X009842Y003003D01*
X009512Y003333D01*
X009517Y003339D01*
X009643Y003465D01*
X009729Y003465D01*
X009843Y003579D01*
X009843Y003728D01*
X010006Y003565D01*
X010006Y002837D01*
X009946Y002776D01*
X009946Y002615D01*
X010060Y002500D01*
X010221Y002500D01*
X010336Y002615D01*
X010336Y002776D01*
X010275Y002837D01*
X010275Y003676D01*
X010196Y003755D01*
X010229Y003723D02*
X010370Y003723D01*
X010370Y003694D02*
X010257Y003694D01*
X010275Y003666D02*
X010370Y003666D01*
X010370Y003637D02*
X010275Y003637D01*
X010275Y003609D02*
X010370Y003609D01*
X010370Y003580D02*
X010275Y003580D01*
X010275Y003552D02*
X010370Y003552D01*
X010370Y003523D02*
X010275Y003523D01*
X010275Y003495D02*
X010370Y003495D01*
X010370Y003466D02*
X010275Y003466D01*
X010275Y003438D02*
X010370Y003438D01*
X010370Y003409D02*
X010275Y003409D01*
X010275Y003381D02*
X010370Y003381D01*
X010370Y003352D02*
X010275Y003352D01*
X010275Y003324D02*
X010370Y003324D01*
X010370Y003295D02*
X010275Y003295D01*
X010275Y003267D02*
X010370Y003267D01*
X010370Y003238D02*
X010275Y003238D01*
X010275Y003210D02*
X010370Y003210D01*
X010370Y003181D02*
X010275Y003181D01*
X010275Y003153D02*
X010370Y003153D01*
X010370Y003124D02*
X010275Y003124D01*
X010275Y003096D02*
X010370Y003096D01*
X010370Y003067D02*
X010275Y003067D01*
X010275Y003039D02*
X010370Y003039D01*
X010370Y003010D02*
X010275Y003010D01*
X010275Y002982D02*
X010370Y002982D01*
X010370Y002953D02*
X010275Y002953D01*
X010275Y002925D02*
X010370Y002925D01*
X010370Y002896D02*
X010275Y002896D01*
X010275Y002868D02*
X010370Y002868D01*
X010370Y002839D02*
X010275Y002839D01*
X010301Y002811D02*
X010370Y002811D01*
X010370Y002782D02*
X010330Y002782D01*
X010336Y002754D02*
X010370Y002754D01*
X010370Y002725D02*
X010336Y002725D01*
X010336Y002697D02*
X010370Y002697D01*
X010370Y002668D02*
X010336Y002668D01*
X010336Y002640D02*
X010370Y002640D01*
X010370Y002611D02*
X010332Y002611D01*
X010304Y002583D02*
X010370Y002583D01*
X010370Y002554D02*
X010275Y002554D01*
X010247Y002526D02*
X010370Y002526D01*
X010370Y002497D02*
X009842Y002497D01*
X009842Y002469D02*
X010370Y002469D01*
X010370Y002440D02*
X009842Y002440D01*
X009842Y002412D02*
X010382Y002412D01*
X010410Y002383D02*
X009842Y002383D01*
X009842Y002355D02*
X010439Y002355D01*
X010467Y002326D02*
X009842Y002326D01*
X009842Y002298D02*
X010496Y002298D01*
X010524Y002269D02*
X009842Y002269D01*
X009842Y002241D02*
X010553Y002241D01*
X010581Y002212D02*
X009842Y002212D01*
X009842Y002184D02*
X010610Y002184D01*
X010326Y002155D02*
X009963Y002155D01*
X009991Y002127D02*
X010298Y002127D01*
X010276Y002098D02*
X010013Y002098D01*
X010013Y002070D02*
X010276Y002070D01*
X010276Y001803D02*
X010013Y001803D01*
X010013Y001751D01*
X009957Y001695D01*
X009524Y001695D01*
X009469Y001751D01*
X009469Y001754D01*
X007972Y001754D01*
X007627Y001409D01*
X007627Y001409D01*
X007549Y001331D01*
X006633Y001331D01*
X006623Y001321D01*
X006512Y001321D01*
X006433Y001400D01*
X006433Y001414D01*
X004094Y001414D01*
X004094Y001386D02*
X006447Y001386D01*
X006433Y001414D02*
X006310Y001537D01*
X006264Y001492D01*
X005706Y001492D01*
X005650Y001547D01*
X005650Y002506D01*
X005706Y002562D01*
X006264Y002562D01*
X006320Y002506D01*
X006320Y001879D01*
X006560Y001639D01*
X006560Y002389D01*
X004380Y004569D01*
X004307Y004642D01*
X004307Y004943D01*
X004298Y004953D01*
X004298Y004963D01*
X004271Y004989D01*
X004271Y004500D01*
X004332Y004440D01*
X004332Y004278D01*
X004217Y004164D01*
X004056Y004164D01*
X003942Y004278D01*
X003942Y004358D01*
X003917Y004333D01*
X003917Y003043D01*
X003651Y002778D01*
X003651Y002451D01*
X003595Y002396D01*
X003123Y002396D01*
X003067Y002451D01*
X003067Y002963D01*
X003123Y003019D01*
X003512Y003019D01*
X003648Y003155D01*
X003648Y004444D01*
X003727Y004523D01*
X003776Y004572D01*
X003776Y004923D01*
X003638Y005061D01*
X003602Y005061D01*
X003608Y005037D01*
X003608Y004958D01*
X003527Y004958D01*
X003539Y004928D01*
X003608Y004928D01*
X003608Y004850D01*
X003600Y004820D01*
X003585Y004794D01*
X003583Y004792D01*
X003583Y004591D01*
X003494Y004377D01*
X003331Y004214D01*
X003117Y004125D01*
X002885Y004125D01*
X002671Y004214D01*
X002525Y004360D01*
X002525Y003611D01*
X002469Y003555D01*
X001800Y003555D01*
X001744Y003611D01*
X001744Y004398D01*
X001800Y004454D01*
X002469Y004454D01*
X002480Y004443D01*
X002418Y004591D01*
X002418Y004823D01*
X002437Y004868D01*
X001800Y004868D01*
X001744Y004924D01*
X001744Y005987D01*
X001800Y006042D01*
X001987Y006042D01*
X001985Y006045D01*
X001628Y006401D01*
X001628Y000689D01*
X011786Y000689D01*
X011772Y000703D01*
X011772Y000888D01*
X004234Y000888D01*
X004234Y000814D01*
X004178Y000758D01*
X003824Y000758D01*
X003768Y000814D01*
X003768Y001247D01*
X003824Y001302D01*
X003845Y001302D01*
X003845Y001364D01*
X003483Y001726D01*
X003123Y001726D01*
X003067Y001782D01*
X003067Y002294D01*
X003123Y002349D01*
X003595Y002349D01*
X003651Y002294D01*
X003651Y001910D01*
X004094Y001467D01*
X004094Y001302D01*
X004178Y001302D01*
X004234Y001247D01*
X004234Y001157D01*
X010725Y001157D01*
X010725Y001163D01*
X010563Y001163D01*
X010563Y001401D01*
X010533Y001401D01*
X010256Y001401D01*
X010256Y001263D01*
X010264Y001234D01*
X010279Y001208D01*
X010300Y001186D01*
X009989Y001186D01*
X010010Y001208D01*
X010025Y001234D01*
X010033Y001263D01*
X010033Y001401D01*
X009756Y001401D01*
X009756Y001431D01*
X009726Y001431D01*
X009726Y001669D01*
X009549Y001669D01*
X009519Y001661D01*
X009493Y001646D01*
X009472Y001624D01*
X009457Y001598D01*
X009449Y001569D01*
X009449Y001431D01*
X009726Y001431D01*
X009726Y001401D01*
X009449Y001401D01*
X009449Y001263D01*
X009457Y001234D01*
X009472Y001208D01*
X009493Y001186D01*
X009519Y001171D01*
X009549Y001163D01*
X009726Y001163D01*
X009726Y001401D01*
X009756Y001401D01*
X009756Y001163D01*
X009933Y001163D01*
X009962Y001171D01*
X009989Y001186D01*
X010014Y001215D02*
X010275Y001215D01*
X010261Y001243D02*
X010028Y001243D01*
X010033Y001272D02*
X010256Y001272D01*
X010256Y001300D02*
X010033Y001300D01*
X010033Y001329D02*
X010256Y001329D01*
X010256Y001357D02*
X010033Y001357D01*
X010033Y001386D02*
X010256Y001386D01*
X010256Y001431D02*
X010533Y001431D01*
X010533Y001669D01*
X010356Y001669D01*
X010326Y001661D01*
X010300Y001646D01*
X010279Y001624D01*
X010264Y001598D01*
X010256Y001569D01*
X010256Y001431D01*
X010256Y001443D02*
X010033Y001443D01*
X010033Y001431D02*
X010033Y001569D01*
X010025Y001598D01*
X010010Y001624D01*
X009989Y001646D01*
X009962Y001661D01*
X009933Y001669D01*
X009756Y001669D01*
X009756Y001431D01*
X010033Y001431D01*
X010033Y001471D02*
X010256Y001471D01*
X010256Y001500D02*
X010033Y001500D01*
X010033Y001528D02*
X010256Y001528D01*
X010256Y001557D02*
X010033Y001557D01*
X010029Y001585D02*
X010260Y001585D01*
X010273Y001614D02*
X010016Y001614D01*
X009992Y001642D02*
X010297Y001642D01*
X010332Y001695D02*
X010725Y001695D01*
X010725Y001669D01*
X010563Y001669D01*
X010563Y001431D01*
X010533Y001431D01*
X010533Y001401D01*
X010533Y001163D01*
X010356Y001163D01*
X010326Y001171D01*
X010300Y001186D01*
X010533Y001186D02*
X010563Y001186D01*
X010563Y001215D02*
X010533Y001215D01*
X010533Y001243D02*
X010563Y001243D01*
X010563Y001272D02*
X010533Y001272D01*
X010533Y001300D02*
X010563Y001300D01*
X010563Y001329D02*
X010533Y001329D01*
X010533Y001357D02*
X010563Y001357D01*
X010563Y001386D02*
X010533Y001386D01*
X010533Y001414D02*
X009756Y001414D01*
X009756Y001386D02*
X009726Y001386D01*
X009726Y001414D02*
X007632Y001414D01*
X007604Y001386D02*
X009449Y001386D01*
X009449Y001357D02*
X007575Y001357D01*
X007661Y001443D02*
X009449Y001443D01*
X009449Y001471D02*
X007689Y001471D01*
X007718Y001500D02*
X009449Y001500D01*
X009449Y001528D02*
X007746Y001528D01*
X007775Y001557D02*
X009449Y001557D01*
X009453Y001585D02*
X007803Y001585D01*
X007832Y001614D02*
X009466Y001614D01*
X009490Y001642D02*
X007860Y001642D01*
X007889Y001671D02*
X010725Y001671D01*
X010563Y001642D02*
X010533Y001642D01*
X010533Y001614D02*
X010563Y001614D01*
X010563Y001585D02*
X010533Y001585D01*
X010533Y001557D02*
X010563Y001557D01*
X010563Y001528D02*
X010533Y001528D01*
X010533Y001500D02*
X010563Y001500D01*
X010563Y001471D02*
X010533Y001471D01*
X010533Y001443D02*
X010563Y001443D01*
X010332Y001695D02*
X010276Y001751D01*
X010276Y001803D01*
X010276Y001785D02*
X010013Y001785D01*
X010013Y001756D02*
X010276Y001756D01*
X010299Y001728D02*
X009990Y001728D01*
X009962Y001699D02*
X010327Y001699D01*
X009756Y001642D02*
X009726Y001642D01*
X009726Y001614D02*
X009756Y001614D01*
X009756Y001585D02*
X009726Y001585D01*
X009726Y001557D02*
X009756Y001557D01*
X009756Y001528D02*
X009726Y001528D01*
X009726Y001500D02*
X009756Y001500D01*
X009756Y001471D02*
X009726Y001471D01*
X009726Y001443D02*
X009756Y001443D01*
X009756Y001357D02*
X009726Y001357D01*
X009726Y001329D02*
X009756Y001329D01*
X009756Y001300D02*
X009726Y001300D01*
X009726Y001272D02*
X009756Y001272D01*
X009756Y001243D02*
X009726Y001243D01*
X009726Y001215D02*
X009756Y001215D01*
X009756Y001186D02*
X009726Y001186D01*
X009493Y001186D02*
X004234Y001186D01*
X004234Y001158D02*
X010725Y001158D01*
X011772Y000873D02*
X004234Y000873D01*
X004234Y000844D02*
X011772Y000844D01*
X011772Y000816D02*
X004234Y000816D01*
X004207Y000787D02*
X011772Y000787D01*
X011772Y000759D02*
X004179Y000759D01*
X003823Y000759D02*
X003694Y000759D01*
X003697Y000761D02*
X003719Y000782D01*
X003734Y000809D01*
X003742Y000838D01*
X003742Y001015D01*
X003504Y001015D01*
X003504Y000738D01*
X003642Y000738D01*
X003671Y000746D01*
X003697Y000761D01*
X003722Y000787D02*
X003794Y000787D01*
X003768Y000816D02*
X003736Y000816D01*
X003742Y000844D02*
X003768Y000844D01*
X003768Y000873D02*
X003742Y000873D01*
X003742Y000901D02*
X003768Y000901D01*
X003768Y000930D02*
X003742Y000930D01*
X003742Y000958D02*
X003768Y000958D01*
X003768Y000987D02*
X003742Y000987D01*
X003768Y001015D02*
X003504Y001015D01*
X003474Y001015D01*
X003474Y000738D01*
X003336Y000738D01*
X003307Y000746D01*
X003281Y000761D01*
X003259Y000782D01*
X003244Y000809D01*
X003236Y000838D01*
X003236Y001015D01*
X003474Y001015D01*
X003474Y001045D01*
X003236Y001045D01*
X003236Y001222D01*
X003244Y001252D01*
X003259Y001278D01*
X003281Y001299D01*
X003307Y001314D01*
X003336Y001322D01*
X003474Y001322D01*
X003474Y001045D01*
X003504Y001045D01*
X003742Y001045D01*
X003742Y001222D01*
X003734Y001252D01*
X003719Y001278D01*
X003697Y001299D01*
X003671Y001314D01*
X003642Y001322D01*
X003504Y001322D01*
X003504Y001045D01*
X003504Y001015D01*
X003504Y000987D02*
X003474Y000987D01*
X003474Y001015D02*
X001628Y001015D01*
X001628Y000987D02*
X003236Y000987D01*
X003236Y000958D02*
X001628Y000958D01*
X001628Y000930D02*
X003236Y000930D01*
X003236Y000901D02*
X001628Y000901D01*
X001628Y000873D02*
X003236Y000873D01*
X003236Y000844D02*
X001628Y000844D01*
X001628Y000816D02*
X003242Y000816D01*
X003256Y000787D02*
X001628Y000787D01*
X001628Y000759D02*
X003284Y000759D01*
X003474Y000759D02*
X003504Y000759D01*
X003504Y000787D02*
X003474Y000787D01*
X003474Y000816D02*
X003504Y000816D01*
X003504Y000844D02*
X003474Y000844D01*
X003474Y000873D02*
X003504Y000873D01*
X003504Y000901D02*
X003474Y000901D01*
X003474Y000930D02*
X003504Y000930D01*
X003504Y000958D02*
X003474Y000958D01*
X003474Y001044D02*
X001628Y001044D01*
X001628Y001072D02*
X003236Y001072D01*
X003236Y001101D02*
X001628Y001101D01*
X001628Y001129D02*
X003236Y001129D01*
X003236Y001158D02*
X001628Y001158D01*
X001628Y001186D02*
X003236Y001186D01*
X003236Y001215D02*
X001628Y001215D01*
X001628Y001243D02*
X003242Y001243D01*
X003256Y001272D02*
X001628Y001272D01*
X001628Y001300D02*
X003282Y001300D01*
X003474Y001300D02*
X003504Y001300D01*
X003504Y001272D02*
X003474Y001272D01*
X003474Y001243D02*
X003504Y001243D01*
X003504Y001215D02*
X003474Y001215D01*
X003474Y001186D02*
X003504Y001186D01*
X003504Y001158D02*
X003474Y001158D01*
X003474Y001129D02*
X003504Y001129D01*
X003504Y001101D02*
X003474Y001101D01*
X003474Y001072D02*
X003504Y001072D01*
X003504Y001044D02*
X003768Y001044D01*
X003768Y001072D02*
X003742Y001072D01*
X003742Y001101D02*
X003768Y001101D01*
X003768Y001129D02*
X003742Y001129D01*
X003742Y001158D02*
X003768Y001158D01*
X003768Y001186D02*
X003742Y001186D01*
X003742Y001215D02*
X003768Y001215D01*
X003768Y001243D02*
X003736Y001243D01*
X003722Y001272D02*
X003793Y001272D01*
X003822Y001300D02*
X003696Y001300D01*
X003795Y001414D02*
X001628Y001414D01*
X001628Y001386D02*
X003823Y001386D01*
X003845Y001357D02*
X001628Y001357D01*
X001628Y001329D02*
X003845Y001329D01*
X003766Y001443D02*
X001628Y001443D01*
X001628Y001471D02*
X003738Y001471D01*
X003709Y001500D02*
X001628Y001500D01*
X001628Y001528D02*
X003681Y001528D01*
X003652Y001557D02*
X001628Y001557D01*
X001628Y001585D02*
X003624Y001585D01*
X003595Y001614D02*
X001628Y001614D01*
X001628Y001642D02*
X003567Y001642D01*
X003538Y001671D02*
X001628Y001671D01*
X001628Y001699D02*
X003510Y001699D01*
X003691Y001870D02*
X004720Y001870D01*
X004720Y001842D02*
X003720Y001842D01*
X003748Y001813D02*
X004720Y001813D01*
X004720Y001785D02*
X003777Y001785D01*
X003805Y001756D02*
X004720Y001756D01*
X004720Y001728D02*
X003834Y001728D01*
X003862Y001699D02*
X004720Y001699D01*
X004720Y001671D02*
X003891Y001671D01*
X003919Y001642D02*
X004720Y001642D01*
X004720Y001614D02*
X003948Y001614D01*
X003976Y001585D02*
X004720Y001585D01*
X004720Y001571D02*
X004728Y001542D01*
X004743Y001516D01*
X004764Y001495D01*
X004791Y001479D01*
X004820Y001472D01*
X005060Y001472D01*
X005060Y002012D01*
X004720Y002012D01*
X004720Y001571D01*
X004724Y001557D02*
X004005Y001557D01*
X004033Y001528D02*
X004736Y001528D01*
X004759Y001500D02*
X004062Y001500D01*
X004090Y001471D02*
X006376Y001471D01*
X006404Y001443D02*
X004094Y001443D01*
X004094Y001357D02*
X006476Y001357D01*
X006504Y001329D02*
X004094Y001329D01*
X004180Y001300D02*
X009449Y001300D01*
X009449Y001272D02*
X004208Y001272D01*
X004234Y001243D02*
X009454Y001243D01*
X009468Y001215D02*
X004234Y001215D01*
X005060Y001500D02*
X005090Y001500D01*
X005090Y001528D02*
X005060Y001528D01*
X005060Y001557D02*
X005090Y001557D01*
X005090Y001585D02*
X005060Y001585D01*
X005060Y001614D02*
X005090Y001614D01*
X005090Y001642D02*
X005060Y001642D01*
X005060Y001671D02*
X005090Y001671D01*
X005090Y001699D02*
X005060Y001699D01*
X005060Y001728D02*
X005090Y001728D01*
X005090Y001756D02*
X005060Y001756D01*
X005060Y001785D02*
X005090Y001785D01*
X005090Y001813D02*
X005060Y001813D01*
X005060Y001842D02*
X005090Y001842D01*
X005090Y001870D02*
X005060Y001870D01*
X005060Y001899D02*
X005090Y001899D01*
X005090Y001927D02*
X005060Y001927D01*
X005060Y001956D02*
X005090Y001956D01*
X005090Y001984D02*
X005060Y001984D01*
X005060Y002012D02*
X005090Y002012D01*
X005090Y002042D01*
X005060Y002042D01*
X005060Y002582D01*
X004820Y002582D01*
X004791Y002574D01*
X004764Y002559D01*
X004743Y002537D01*
X004728Y002511D01*
X004720Y002482D01*
X004720Y002042D01*
X005060Y002042D01*
X005060Y002012D01*
X005060Y002013D02*
X003651Y002013D01*
X003651Y002041D02*
X005060Y002041D01*
X005060Y002070D02*
X005090Y002070D01*
X005090Y002098D02*
X005060Y002098D01*
X005060Y002127D02*
X005090Y002127D01*
X005090Y002155D02*
X005060Y002155D01*
X005060Y002184D02*
X005090Y002184D01*
X005090Y002212D02*
X005060Y002212D01*
X005060Y002241D02*
X005090Y002241D01*
X005090Y002269D02*
X005060Y002269D01*
X005060Y002298D02*
X005090Y002298D01*
X005090Y002326D02*
X005060Y002326D01*
X005060Y002355D02*
X005090Y002355D01*
X005090Y002383D02*
X005060Y002383D01*
X005060Y002412D02*
X005090Y002412D01*
X005090Y002440D02*
X005060Y002440D01*
X005060Y002469D02*
X005090Y002469D01*
X005090Y002497D02*
X005060Y002497D01*
X005060Y002526D02*
X005090Y002526D01*
X005090Y002554D02*
X005060Y002554D01*
X005090Y002582D02*
X005330Y002582D01*
X005359Y002574D01*
X005386Y002559D01*
X005407Y002537D01*
X005422Y002511D01*
X005430Y002482D01*
X005430Y002042D01*
X005090Y002042D01*
X005090Y002582D01*
X005390Y002554D02*
X005698Y002554D01*
X005670Y002526D02*
X005414Y002526D01*
X005426Y002497D02*
X005650Y002497D01*
X005650Y002469D02*
X005430Y002469D01*
X005430Y002440D02*
X005650Y002440D01*
X005650Y002412D02*
X005430Y002412D01*
X005430Y002383D02*
X005650Y002383D01*
X005650Y002355D02*
X005430Y002355D01*
X005430Y002326D02*
X005650Y002326D01*
X005650Y002298D02*
X005430Y002298D01*
X005430Y002269D02*
X005650Y002269D01*
X005650Y002241D02*
X005430Y002241D01*
X005430Y002212D02*
X005650Y002212D01*
X005650Y002184D02*
X005430Y002184D01*
X005430Y002155D02*
X005650Y002155D01*
X005650Y002127D02*
X005430Y002127D01*
X005430Y002098D02*
X005650Y002098D01*
X005650Y002070D02*
X005430Y002070D01*
X005430Y002012D02*
X005090Y002012D01*
X005090Y001472D01*
X005330Y001472D01*
X005359Y001479D01*
X005386Y001495D01*
X005407Y001516D01*
X005422Y001542D01*
X005430Y001571D01*
X005430Y002012D01*
X005430Y001984D02*
X005650Y001984D01*
X005650Y001956D02*
X005430Y001956D01*
X005430Y001927D02*
X005650Y001927D01*
X005650Y001899D02*
X005430Y001899D01*
X005430Y001870D02*
X005650Y001870D01*
X005650Y001842D02*
X005430Y001842D01*
X005430Y001813D02*
X005650Y001813D01*
X005650Y001785D02*
X005430Y001785D01*
X005430Y001756D02*
X005650Y001756D01*
X005650Y001728D02*
X005430Y001728D01*
X005430Y001699D02*
X005650Y001699D01*
X005650Y001671D02*
X005430Y001671D01*
X005430Y001642D02*
X005650Y001642D01*
X005650Y001614D02*
X005430Y001614D01*
X005430Y001585D02*
X005650Y001585D01*
X005650Y001557D02*
X005426Y001557D01*
X005414Y001528D02*
X005669Y001528D01*
X005698Y001500D02*
X005391Y001500D01*
X005650Y002013D02*
X005090Y002013D01*
X005090Y002041D02*
X005650Y002041D01*
X006320Y002041D02*
X006560Y002041D01*
X006560Y002013D02*
X006320Y002013D01*
X006320Y001984D02*
X006560Y001984D01*
X006560Y001956D02*
X006320Y001956D01*
X006320Y001927D02*
X006560Y001927D01*
X006560Y001899D02*
X006320Y001899D01*
X006329Y001870D02*
X006560Y001870D01*
X006560Y001842D02*
X006357Y001842D01*
X006386Y001813D02*
X006560Y001813D01*
X006560Y001785D02*
X006414Y001785D01*
X006443Y001756D02*
X006560Y001756D01*
X006560Y001728D02*
X006471Y001728D01*
X006500Y001699D02*
X006560Y001699D01*
X006560Y001671D02*
X006528Y001671D01*
X006557Y001642D02*
X006560Y001642D01*
X006347Y001500D02*
X006272Y001500D01*
X006301Y001528D02*
X006319Y001528D01*
X006631Y001329D02*
X009449Y001329D01*
X009520Y001699D02*
X007917Y001699D01*
X007946Y001728D02*
X009492Y001728D01*
X009469Y002023D02*
X007860Y002023D01*
X007437Y001599D01*
X007230Y001599D01*
X007230Y002506D01*
X007174Y002562D01*
X006740Y002562D01*
X005363Y003939D01*
X006349Y003939D01*
X006831Y003457D01*
X006934Y003457D01*
X007914Y003457D01*
X007914Y003404D01*
X007969Y003348D01*
X008402Y003348D01*
X008458Y003404D01*
X008458Y003457D01*
X008799Y003457D01*
X008799Y003404D01*
X008855Y003348D01*
X009140Y003348D01*
X009140Y003339D01*
X009156Y003322D01*
X009087Y003322D01*
X009087Y003084D01*
X009364Y003084D01*
X009364Y003129D01*
X009593Y002900D01*
X009593Y002161D01*
X009524Y002161D01*
X009469Y002105D01*
X009469Y002023D01*
X009469Y002041D02*
X007230Y002041D01*
X007230Y002013D02*
X007850Y002013D01*
X007822Y001984D02*
X007230Y001984D01*
X007230Y001956D02*
X007793Y001956D01*
X007765Y001927D02*
X007230Y001927D01*
X007230Y001899D02*
X007736Y001899D01*
X007708Y001870D02*
X007230Y001870D01*
X007230Y001842D02*
X007679Y001842D01*
X007651Y001813D02*
X007230Y001813D01*
X007230Y001785D02*
X007622Y001785D01*
X007594Y001756D02*
X007230Y001756D01*
X007230Y001728D02*
X007565Y001728D01*
X007537Y001699D02*
X007230Y001699D01*
X007230Y001671D02*
X007508Y001671D01*
X007480Y001642D02*
X007230Y001642D01*
X007230Y001614D02*
X007451Y001614D01*
X007230Y002070D02*
X009469Y002070D01*
X009469Y002098D02*
X007230Y002098D01*
X007230Y002127D02*
X009491Y002127D01*
X009519Y002155D02*
X007230Y002155D01*
X007230Y002184D02*
X009593Y002184D01*
X009593Y002212D02*
X007230Y002212D01*
X007230Y002241D02*
X009593Y002241D01*
X009593Y002269D02*
X007230Y002269D01*
X007230Y002298D02*
X009593Y002298D01*
X009593Y002326D02*
X007230Y002326D01*
X007230Y002355D02*
X009593Y002355D01*
X009593Y002383D02*
X007230Y002383D01*
X007230Y002412D02*
X009593Y002412D01*
X009593Y002440D02*
X007230Y002440D01*
X007230Y002469D02*
X009593Y002469D01*
X009593Y002497D02*
X007230Y002497D01*
X007210Y002526D02*
X009593Y002526D01*
X009593Y002554D02*
X007182Y002554D01*
X006719Y002583D02*
X009593Y002583D01*
X009593Y002611D02*
X006690Y002611D01*
X006662Y002640D02*
X009593Y002640D01*
X009593Y002668D02*
X006633Y002668D01*
X006605Y002697D02*
X009593Y002697D01*
X009593Y002725D02*
X006576Y002725D01*
X006548Y002754D02*
X009593Y002754D01*
X009593Y002782D02*
X006519Y002782D01*
X006491Y002811D02*
X009593Y002811D01*
X009593Y002839D02*
X009319Y002839D01*
X009319Y002840D02*
X009341Y002861D01*
X009356Y002887D01*
X009364Y002917D01*
X009364Y003054D01*
X009087Y003054D01*
X009087Y002817D01*
X009264Y002817D01*
X009293Y002824D01*
X009319Y002840D01*
X009345Y002868D02*
X009593Y002868D01*
X009593Y002896D02*
X009358Y002896D01*
X009364Y002925D02*
X009568Y002925D01*
X009539Y002953D02*
X009364Y002953D01*
X009364Y002982D02*
X009511Y002982D01*
X009482Y003010D02*
X009364Y003010D01*
X009364Y003039D02*
X009454Y003039D01*
X009425Y003067D02*
X009087Y003067D01*
X009087Y003054D02*
X009087Y003084D01*
X009057Y003084D01*
X009057Y003054D01*
X009087Y003054D01*
X009087Y003039D02*
X009057Y003039D01*
X009057Y003054D02*
X009057Y002817D01*
X008879Y002817D01*
X008850Y002824D01*
X008824Y002840D01*
X008802Y002861D01*
X008787Y002887D01*
X008779Y002917D01*
X008779Y003054D01*
X009057Y003054D01*
X009057Y003067D02*
X008201Y003067D01*
X008201Y003054D02*
X008201Y003084D01*
X008478Y003084D01*
X008478Y003222D01*
X008470Y003252D01*
X008455Y003278D01*
X008434Y003299D01*
X008407Y003314D01*
X008378Y003322D01*
X008201Y003322D01*
X008201Y003084D01*
X008171Y003084D01*
X008171Y003054D01*
X008201Y003054D01*
X008201Y002817D01*
X008378Y002817D01*
X008407Y002824D01*
X008434Y002840D01*
X008455Y002861D01*
X008470Y002887D01*
X008478Y002917D01*
X008478Y003054D01*
X008201Y003054D01*
X008201Y003039D02*
X008171Y003039D01*
X008171Y003054D02*
X008171Y002817D01*
X007994Y002817D01*
X007964Y002824D01*
X007938Y002840D01*
X007917Y002861D01*
X007901Y002887D01*
X007894Y002917D01*
X007894Y003054D01*
X008171Y003054D01*
X008171Y003067D02*
X006234Y003067D01*
X006206Y003096D02*
X007894Y003096D01*
X007894Y003084D02*
X008171Y003084D01*
X008171Y003322D01*
X007994Y003322D01*
X007964Y003314D01*
X007938Y003299D01*
X007917Y003278D01*
X007901Y003252D01*
X007894Y003222D01*
X007894Y003084D01*
X007894Y003124D02*
X006177Y003124D01*
X006149Y003153D02*
X007894Y003153D01*
X007894Y003181D02*
X006120Y003181D01*
X006092Y003210D02*
X007894Y003210D01*
X007898Y003238D02*
X006063Y003238D01*
X006035Y003267D02*
X007910Y003267D01*
X007934Y003295D02*
X006006Y003295D01*
X005978Y003324D02*
X009155Y003324D01*
X009087Y003295D02*
X009057Y003295D01*
X009057Y003322D02*
X008879Y003322D01*
X008850Y003314D01*
X008824Y003299D01*
X008802Y003278D01*
X008787Y003252D01*
X008779Y003222D01*
X008779Y003084D01*
X009057Y003084D01*
X009057Y003322D01*
X009057Y003267D02*
X009087Y003267D01*
X009087Y003238D02*
X009057Y003238D01*
X009057Y003210D02*
X009087Y003210D01*
X009087Y003181D02*
X009057Y003181D01*
X009057Y003153D02*
X009087Y003153D01*
X009087Y003124D02*
X009057Y003124D01*
X009057Y003096D02*
X009087Y003096D01*
X009087Y003010D02*
X009057Y003010D01*
X009057Y002982D02*
X009087Y002982D01*
X009087Y002953D02*
X009057Y002953D01*
X009057Y002925D02*
X009087Y002925D01*
X009087Y002896D02*
X009057Y002896D01*
X009057Y002868D02*
X009087Y002868D01*
X009087Y002839D02*
X009057Y002839D01*
X008825Y002839D02*
X008433Y002839D01*
X008459Y002868D02*
X008799Y002868D01*
X008785Y002896D02*
X008473Y002896D01*
X008478Y002925D02*
X008779Y002925D01*
X008779Y002953D02*
X008478Y002953D01*
X008478Y002982D02*
X008779Y002982D01*
X008779Y003010D02*
X008478Y003010D01*
X008478Y003039D02*
X008779Y003039D01*
X008779Y003096D02*
X008478Y003096D01*
X008478Y003124D02*
X008779Y003124D01*
X008779Y003153D02*
X008478Y003153D01*
X008478Y003181D02*
X008779Y003181D01*
X008779Y003210D02*
X008478Y003210D01*
X008474Y003238D02*
X008784Y003238D01*
X008796Y003267D02*
X008461Y003267D01*
X008438Y003295D02*
X008820Y003295D01*
X008851Y003352D02*
X008406Y003352D01*
X008435Y003381D02*
X008823Y003381D01*
X008799Y003409D02*
X008458Y003409D01*
X008458Y003438D02*
X008799Y003438D01*
X008201Y003295D02*
X008171Y003295D01*
X008171Y003267D02*
X008201Y003267D01*
X008201Y003238D02*
X008171Y003238D01*
X008171Y003210D02*
X008201Y003210D01*
X008201Y003181D02*
X008171Y003181D01*
X008171Y003153D02*
X008201Y003153D01*
X008201Y003124D02*
X008171Y003124D01*
X008171Y003096D02*
X008201Y003096D01*
X008201Y003010D02*
X008171Y003010D01*
X008171Y002982D02*
X008201Y002982D01*
X008201Y002953D02*
X008171Y002953D01*
X008171Y002925D02*
X008201Y002925D01*
X008201Y002896D02*
X008171Y002896D01*
X008171Y002868D02*
X008201Y002868D01*
X008201Y002839D02*
X008171Y002839D01*
X007939Y002839D02*
X006462Y002839D01*
X006434Y002868D02*
X007913Y002868D01*
X007899Y002896D02*
X006405Y002896D01*
X006377Y002925D02*
X007894Y002925D01*
X007894Y002953D02*
X006348Y002953D01*
X006320Y002982D02*
X007894Y002982D01*
X007894Y003010D02*
X006291Y003010D01*
X006263Y003039D02*
X007894Y003039D01*
X007966Y003352D02*
X005949Y003352D01*
X005921Y003381D02*
X007937Y003381D01*
X007914Y003409D02*
X005892Y003409D01*
X005864Y003438D02*
X007914Y003438D01*
X006822Y003466D02*
X005835Y003466D01*
X005807Y003495D02*
X006793Y003495D01*
X006765Y003523D02*
X005778Y003523D01*
X005750Y003552D02*
X006736Y003552D01*
X006708Y003580D02*
X005721Y003580D01*
X005693Y003609D02*
X006679Y003609D01*
X006651Y003637D02*
X005664Y003637D01*
X005636Y003666D02*
X006622Y003666D01*
X006594Y003694D02*
X005607Y003694D01*
X005579Y003723D02*
X006565Y003723D01*
X006537Y003751D02*
X005550Y003751D01*
X005522Y003780D02*
X006508Y003780D01*
X006480Y003808D02*
X005493Y003808D01*
X005465Y003837D02*
X006451Y003837D01*
X006423Y003865D02*
X005436Y003865D01*
X005408Y003894D02*
X006394Y003894D01*
X006366Y003922D02*
X005379Y003922D01*
X005198Y003751D02*
X003917Y003751D01*
X003917Y003723D02*
X005227Y003723D01*
X005255Y003694D02*
X003917Y003694D01*
X003917Y003666D02*
X005284Y003666D01*
X005312Y003637D02*
X003917Y003637D01*
X003917Y003609D02*
X005341Y003609D01*
X005369Y003580D02*
X003917Y003580D01*
X003917Y003552D02*
X005398Y003552D01*
X005426Y003523D02*
X003917Y003523D01*
X003917Y003495D02*
X005455Y003495D01*
X005483Y003466D02*
X003917Y003466D01*
X003917Y003438D02*
X005512Y003438D01*
X005540Y003409D02*
X003917Y003409D01*
X003917Y003381D02*
X005569Y003381D01*
X005597Y003352D02*
X003917Y003352D01*
X003917Y003324D02*
X005626Y003324D01*
X005654Y003295D02*
X003917Y003295D01*
X003917Y003267D02*
X005683Y003267D01*
X005711Y003238D02*
X003917Y003238D01*
X003917Y003210D02*
X005740Y003210D01*
X005768Y003181D02*
X003917Y003181D01*
X003917Y003153D02*
X005797Y003153D01*
X005825Y003124D02*
X003917Y003124D01*
X003917Y003096D02*
X005854Y003096D01*
X005882Y003067D02*
X003917Y003067D01*
X003912Y003039D02*
X005911Y003039D01*
X005939Y003010D02*
X003884Y003010D01*
X003855Y002982D02*
X005968Y002982D01*
X005996Y002953D02*
X003827Y002953D01*
X003798Y002925D02*
X006025Y002925D01*
X006053Y002896D02*
X003770Y002896D01*
X003741Y002868D02*
X006082Y002868D01*
X006110Y002839D02*
X003713Y002839D01*
X003684Y002811D02*
X006139Y002811D01*
X006167Y002782D02*
X003656Y002782D01*
X003651Y002754D02*
X006196Y002754D01*
X006224Y002725D02*
X003651Y002725D01*
X003651Y002697D02*
X006253Y002697D01*
X006281Y002668D02*
X003651Y002668D01*
X003651Y002640D02*
X006310Y002640D01*
X006338Y002611D02*
X003651Y002611D01*
X003651Y002583D02*
X006367Y002583D01*
X006395Y002554D02*
X006272Y002554D01*
X006300Y002526D02*
X006424Y002526D01*
X006452Y002497D02*
X006320Y002497D01*
X006320Y002469D02*
X006481Y002469D01*
X006509Y002440D02*
X006320Y002440D01*
X006320Y002412D02*
X006538Y002412D01*
X006560Y002383D02*
X006320Y002383D01*
X006320Y002355D02*
X006560Y002355D01*
X006560Y002326D02*
X006320Y002326D01*
X006320Y002298D02*
X006560Y002298D01*
X006560Y002269D02*
X006320Y002269D01*
X006320Y002241D02*
X006560Y002241D01*
X006560Y002212D02*
X006320Y002212D01*
X006320Y002184D02*
X006560Y002184D01*
X006560Y002155D02*
X006320Y002155D01*
X006320Y002127D02*
X006560Y002127D01*
X006560Y002098D02*
X006320Y002098D01*
X006320Y002070D02*
X006560Y002070D01*
X004720Y002070D02*
X003651Y002070D01*
X003651Y002098D02*
X004720Y002098D01*
X004720Y002127D02*
X003651Y002127D01*
X003651Y002155D02*
X004720Y002155D01*
X004720Y002184D02*
X003651Y002184D01*
X003651Y002212D02*
X004720Y002212D01*
X004720Y002241D02*
X003651Y002241D01*
X003651Y002269D02*
X004720Y002269D01*
X004720Y002298D02*
X003647Y002298D01*
X003619Y002326D02*
X004720Y002326D01*
X004720Y002355D02*
X001628Y002355D01*
X001628Y002383D02*
X004720Y002383D01*
X004720Y002412D02*
X003611Y002412D01*
X003640Y002440D02*
X004720Y002440D01*
X004720Y002469D02*
X003651Y002469D01*
X003651Y002497D02*
X004724Y002497D01*
X004736Y002526D02*
X003651Y002526D01*
X003651Y002554D02*
X004760Y002554D01*
X004720Y001984D02*
X003651Y001984D01*
X003651Y001956D02*
X004720Y001956D01*
X004720Y001927D02*
X003651Y001927D01*
X003663Y001899D02*
X004720Y001899D01*
X003122Y001728D02*
X001628Y001728D01*
X001628Y001756D02*
X003093Y001756D01*
X003067Y001785D02*
X001628Y001785D01*
X001628Y001813D02*
X003067Y001813D01*
X003067Y001842D02*
X001628Y001842D01*
X001628Y001870D02*
X003067Y001870D01*
X003067Y001899D02*
X001628Y001899D01*
X001628Y001927D02*
X003067Y001927D01*
X003067Y001956D02*
X001628Y001956D01*
X001628Y001984D02*
X003067Y001984D01*
X003067Y002013D02*
X001628Y002013D01*
X001628Y002041D02*
X003067Y002041D01*
X003067Y002070D02*
X001628Y002070D01*
X001628Y002098D02*
X003067Y002098D01*
X003067Y002127D02*
X001628Y002127D01*
X001628Y002155D02*
X003067Y002155D01*
X003067Y002184D02*
X001628Y002184D01*
X001628Y002212D02*
X003067Y002212D01*
X003067Y002241D02*
X001628Y002241D01*
X001628Y002269D02*
X003067Y002269D01*
X003071Y002298D02*
X001628Y002298D01*
X001628Y002326D02*
X003100Y002326D01*
X003107Y002412D02*
X001628Y002412D01*
X001628Y002440D02*
X003078Y002440D01*
X003067Y002469D02*
X001628Y002469D01*
X001628Y002497D02*
X003067Y002497D01*
X003067Y002526D02*
X001628Y002526D01*
X001628Y002554D02*
X003067Y002554D01*
X003067Y002583D02*
X001628Y002583D01*
X001628Y002611D02*
X003067Y002611D01*
X003067Y002640D02*
X001628Y002640D01*
X001628Y002668D02*
X003067Y002668D01*
X003067Y002697D02*
X001628Y002697D01*
X001628Y002725D02*
X003067Y002725D01*
X003067Y002754D02*
X001628Y002754D01*
X001628Y002782D02*
X003067Y002782D01*
X003067Y002811D02*
X001628Y002811D01*
X001628Y002839D02*
X003067Y002839D01*
X003067Y002868D02*
X001628Y002868D01*
X001628Y002896D02*
X003067Y002896D01*
X003067Y002925D02*
X001628Y002925D01*
X001628Y002953D02*
X003067Y002953D01*
X003086Y002982D02*
X001628Y002982D01*
X001628Y003010D02*
X003114Y003010D01*
X003532Y003039D02*
X001628Y003039D01*
X001628Y003067D02*
X003560Y003067D01*
X003589Y003096D02*
X001628Y003096D01*
X001628Y003124D02*
X003617Y003124D01*
X003646Y003153D02*
X001628Y003153D01*
X001628Y003181D02*
X003648Y003181D01*
X003648Y003210D02*
X001628Y003210D01*
X001628Y003238D02*
X003648Y003238D01*
X003648Y003267D02*
X001628Y003267D01*
X001628Y003295D02*
X003648Y003295D01*
X003648Y003324D02*
X001628Y003324D01*
X001628Y003352D02*
X003648Y003352D01*
X003648Y003381D02*
X001628Y003381D01*
X001628Y003409D02*
X003648Y003409D01*
X003648Y003438D02*
X001628Y003438D01*
X001628Y003466D02*
X003648Y003466D01*
X003648Y003495D02*
X001628Y003495D01*
X001628Y003523D02*
X003648Y003523D01*
X003648Y003552D02*
X001628Y003552D01*
X001628Y003580D02*
X001775Y003580D01*
X001746Y003609D02*
X001628Y003609D01*
X001628Y003637D02*
X001744Y003637D01*
X001744Y003666D02*
X001628Y003666D01*
X001628Y003694D02*
X001744Y003694D01*
X001744Y003723D02*
X001628Y003723D01*
X001628Y003751D02*
X001744Y003751D01*
X001744Y003780D02*
X001628Y003780D01*
X001628Y003808D02*
X001744Y003808D01*
X001744Y003837D02*
X001628Y003837D01*
X001628Y003865D02*
X001744Y003865D01*
X001744Y003894D02*
X001628Y003894D01*
X001628Y003922D02*
X001744Y003922D01*
X001744Y003951D02*
X001628Y003951D01*
X001628Y003979D02*
X001744Y003979D01*
X001744Y004008D02*
X001628Y004008D01*
X001628Y004036D02*
X001744Y004036D01*
X001744Y004065D02*
X001628Y004065D01*
X001628Y004093D02*
X001744Y004093D01*
X001744Y004122D02*
X001628Y004122D01*
X001628Y004150D02*
X001744Y004150D01*
X001744Y004179D02*
X001628Y004179D01*
X001628Y004207D02*
X001744Y004207D01*
X001744Y004236D02*
X001628Y004236D01*
X001628Y004264D02*
X001744Y004264D01*
X001744Y004293D02*
X001628Y004293D01*
X001628Y004321D02*
X001744Y004321D01*
X001744Y004350D02*
X001628Y004350D01*
X001628Y004378D02*
X001744Y004378D01*
X001753Y004407D02*
X001628Y004407D01*
X001628Y004435D02*
X001781Y004435D01*
X001628Y004464D02*
X002471Y004464D01*
X002460Y004492D02*
X001628Y004492D01*
X001628Y004521D02*
X002448Y004521D01*
X002436Y004549D02*
X001628Y004549D01*
X001628Y004578D02*
X002424Y004578D01*
X002418Y004606D02*
X001628Y004606D01*
X001628Y004635D02*
X002418Y004635D01*
X002418Y004663D02*
X001628Y004663D01*
X001628Y004692D02*
X002418Y004692D01*
X002418Y004720D02*
X001628Y004720D01*
X001628Y004749D02*
X002418Y004749D01*
X002418Y004777D02*
X001628Y004777D01*
X001628Y004806D02*
X002418Y004806D01*
X002423Y004834D02*
X001628Y004834D01*
X001628Y004863D02*
X002435Y004863D01*
X001777Y004891D02*
X001628Y004891D01*
X001628Y004920D02*
X001748Y004920D01*
X001744Y004948D02*
X001628Y004948D01*
X001628Y004977D02*
X001744Y004977D01*
X001744Y005005D02*
X001628Y005005D01*
X001628Y005034D02*
X001744Y005034D01*
X001744Y005062D02*
X001628Y005062D01*
X001628Y005091D02*
X001744Y005091D01*
X001744Y005119D02*
X001628Y005119D01*
X001628Y005148D02*
X001744Y005148D01*
X001744Y005176D02*
X001628Y005176D01*
X001628Y005205D02*
X001744Y005205D01*
X001744Y005233D02*
X001628Y005233D01*
X001628Y005262D02*
X001744Y005262D01*
X001744Y005290D02*
X001628Y005290D01*
X001628Y005319D02*
X001744Y005319D01*
X001744Y005347D02*
X001628Y005347D01*
X001628Y005376D02*
X001744Y005376D01*
X001744Y005404D02*
X001628Y005404D01*
X001628Y005433D02*
X001744Y005433D01*
X001744Y005461D02*
X001628Y005461D01*
X001628Y005490D02*
X001744Y005490D01*
X001744Y005518D02*
X001628Y005518D01*
X001628Y005547D02*
X001744Y005547D01*
X001744Y005575D02*
X001628Y005575D01*
X001628Y005604D02*
X001744Y005604D01*
X001744Y005632D02*
X001628Y005632D01*
X001628Y005661D02*
X001744Y005661D01*
X001744Y005689D02*
X001628Y005689D01*
X001628Y005718D02*
X001744Y005718D01*
X001744Y005746D02*
X001628Y005746D01*
X001628Y005775D02*
X001744Y005775D01*
X001744Y005803D02*
X001628Y005803D01*
X001628Y005832D02*
X001744Y005832D01*
X001744Y005860D02*
X001628Y005860D01*
X001628Y005889D02*
X001744Y005889D01*
X001744Y005917D02*
X001628Y005917D01*
X001628Y005946D02*
X001744Y005946D01*
X001744Y005974D02*
X001628Y005974D01*
X001628Y006003D02*
X001760Y006003D01*
X001789Y006031D02*
X001628Y006031D01*
X001628Y006060D02*
X001970Y006060D01*
X001942Y006088D02*
X001628Y006088D01*
X001628Y006117D02*
X001913Y006117D01*
X001885Y006145D02*
X001628Y006145D01*
X001628Y006174D02*
X001856Y006174D01*
X001828Y006202D02*
X001628Y006202D01*
X001628Y006231D02*
X001799Y006231D01*
X001771Y006259D02*
X001628Y006259D01*
X001628Y006288D02*
X001742Y006288D01*
X001714Y006316D02*
X001628Y006316D01*
X001628Y006345D02*
X001685Y006345D01*
X001657Y006373D02*
X001628Y006373D01*
X002821Y007228D02*
X003490Y007228D01*
X003490Y007200D02*
X002850Y007200D01*
X002878Y007171D02*
X003490Y007171D01*
X003490Y007143D02*
X002907Y007143D01*
X002935Y007114D02*
X003490Y007114D01*
X003490Y007086D02*
X002964Y007086D01*
X002992Y007057D02*
X003490Y007057D01*
X003490Y007029D02*
X003021Y007029D01*
X003049Y007000D02*
X003490Y007000D01*
X003490Y006972D02*
X003078Y006972D01*
X003106Y006943D02*
X003490Y006943D01*
X003490Y006915D02*
X003135Y006915D01*
X003163Y006886D02*
X003490Y006886D01*
X003490Y006858D02*
X003192Y006858D01*
X003220Y006829D02*
X003490Y006829D01*
X003490Y006801D02*
X003469Y006801D01*
X003498Y006772D02*
X003516Y006772D01*
X003526Y006744D02*
X003544Y006744D01*
X003555Y006715D02*
X003573Y006715D01*
X003583Y006687D02*
X003601Y006687D01*
X003612Y006658D02*
X003630Y006658D01*
X003640Y006630D02*
X003658Y006630D01*
X003641Y006629D02*
X003641Y006629D01*
X003669Y006601D02*
X003687Y006601D01*
X003697Y006573D02*
X003715Y006573D01*
X003720Y006544D02*
X003744Y006544D01*
X003720Y006516D02*
X003772Y006516D01*
X003801Y006487D02*
X003720Y006487D01*
X003720Y006459D02*
X003829Y006459D01*
X003858Y006430D02*
X003720Y006430D01*
X003720Y006402D02*
X003886Y006402D01*
X003915Y006373D02*
X003720Y006373D01*
X003720Y006345D02*
X003943Y006345D01*
X003972Y006316D02*
X003720Y006316D01*
X003720Y006288D02*
X004000Y006288D01*
X004029Y006259D02*
X003720Y006259D01*
X003720Y006231D02*
X004057Y006231D01*
X004086Y006202D02*
X003720Y006202D01*
X003720Y006174D02*
X004114Y006174D01*
X004143Y006145D02*
X003720Y006145D01*
X003720Y006117D02*
X004171Y006117D01*
X004200Y006088D02*
X003720Y006088D01*
X003720Y006060D02*
X004228Y006060D01*
X004257Y006031D02*
X003706Y006031D01*
X003677Y006003D02*
X004285Y006003D01*
X004314Y005974D02*
X003666Y005974D01*
X003694Y005946D02*
X004342Y005946D01*
X004371Y005917D02*
X003723Y005917D01*
X003751Y005889D02*
X004399Y005889D01*
X004428Y005860D02*
X003780Y005860D01*
X003808Y005832D02*
X004456Y005832D01*
X004485Y005803D02*
X003837Y005803D01*
X003865Y005775D02*
X004513Y005775D01*
X004542Y005746D02*
X003894Y005746D01*
X003922Y005718D02*
X004570Y005718D01*
X004599Y005689D02*
X003951Y005689D01*
X003979Y005661D02*
X004627Y005661D01*
X004656Y005632D02*
X004008Y005632D01*
X004036Y005604D02*
X004684Y005604D01*
X004713Y005575D02*
X004065Y005575D01*
X004093Y005547D02*
X004741Y005547D01*
X004770Y005518D02*
X004122Y005518D01*
X004150Y005490D02*
X004798Y005490D01*
X004827Y005461D02*
X004179Y005461D01*
X004207Y005433D02*
X004855Y005433D01*
X004884Y005404D02*
X004236Y005404D01*
X004264Y005376D02*
X004912Y005376D01*
X004941Y005347D02*
X004293Y005347D01*
X004321Y005319D02*
X004969Y005319D01*
X004998Y005290D02*
X004350Y005290D01*
X004378Y005262D02*
X005026Y005262D01*
X005055Y005233D02*
X004407Y005233D01*
X004435Y005205D02*
X005083Y005205D01*
X005112Y005176D02*
X004464Y005176D01*
X004492Y005148D02*
X005140Y005148D01*
X005169Y005119D02*
X004521Y005119D01*
X004549Y005091D02*
X005197Y005091D01*
X005226Y005062D02*
X004566Y005062D01*
X004566Y005034D02*
X005254Y005034D01*
X005283Y005005D02*
X004566Y005005D01*
X004566Y004977D02*
X005219Y004977D01*
X005190Y004948D02*
X004562Y004948D01*
X004556Y004920D02*
X005181Y004920D01*
X005181Y004891D02*
X004556Y004891D01*
X004556Y004863D02*
X005181Y004863D01*
X005181Y004834D02*
X004556Y004834D01*
X004556Y004806D02*
X005181Y004806D01*
X005181Y004777D02*
X004556Y004777D01*
X004556Y004749D02*
X005181Y004749D01*
X005181Y004720D02*
X004581Y004720D01*
X004610Y004692D02*
X005181Y004692D01*
X005181Y004663D02*
X004638Y004663D01*
X004667Y004635D02*
X005181Y004635D01*
X005181Y004606D02*
X004695Y004606D01*
X004724Y004578D02*
X005181Y004578D01*
X005181Y004549D02*
X004752Y004549D01*
X004781Y004521D02*
X005181Y004521D01*
X005181Y004492D02*
X004809Y004492D01*
X004838Y004464D02*
X005181Y004464D01*
X005181Y004435D02*
X004866Y004435D01*
X004895Y004407D02*
X005181Y004407D01*
X005181Y004378D02*
X004923Y004378D01*
X004952Y004350D02*
X005181Y004350D01*
X005181Y004321D02*
X004980Y004321D01*
X005009Y004293D02*
X005181Y004293D01*
X005181Y004264D02*
X005037Y004264D01*
X005066Y004236D02*
X005181Y004236D01*
X005181Y004207D02*
X005094Y004207D01*
X005123Y004179D02*
X005181Y004179D01*
X005181Y004150D02*
X005151Y004150D01*
X005180Y004122D02*
X005181Y004122D01*
X004999Y003951D02*
X003917Y003951D01*
X003917Y003979D02*
X004970Y003979D01*
X004942Y004008D02*
X003917Y004008D01*
X003917Y004036D02*
X004913Y004036D01*
X004885Y004065D02*
X003917Y004065D01*
X003917Y004093D02*
X004856Y004093D01*
X004828Y004122D02*
X003917Y004122D01*
X003917Y004150D02*
X004799Y004150D01*
X004771Y004179D02*
X004232Y004179D01*
X004261Y004207D02*
X004742Y004207D01*
X004714Y004236D02*
X004289Y004236D01*
X004318Y004264D02*
X004685Y004264D01*
X004657Y004293D02*
X004332Y004293D01*
X004332Y004321D02*
X004628Y004321D01*
X004600Y004350D02*
X004332Y004350D01*
X004332Y004378D02*
X004571Y004378D01*
X004543Y004407D02*
X004332Y004407D01*
X004332Y004435D02*
X004514Y004435D01*
X004486Y004464D02*
X004307Y004464D01*
X004279Y004492D02*
X004457Y004492D01*
X004429Y004521D02*
X004271Y004521D01*
X004271Y004549D02*
X004400Y004549D01*
X004372Y004578D02*
X004271Y004578D01*
X004271Y004606D02*
X004343Y004606D01*
X004315Y004635D02*
X004271Y004635D01*
X004271Y004663D02*
X004307Y004663D01*
X004307Y004692D02*
X004271Y004692D01*
X004271Y004720D02*
X004307Y004720D01*
X004307Y004749D02*
X004271Y004749D01*
X004271Y004777D02*
X004307Y004777D01*
X004307Y004806D02*
X004271Y004806D01*
X004271Y004834D02*
X004307Y004834D01*
X004307Y004863D02*
X004271Y004863D01*
X004271Y004891D02*
X004307Y004891D01*
X004307Y004920D02*
X004271Y004920D01*
X004271Y004948D02*
X004302Y004948D01*
X004283Y004977D02*
X004271Y004977D01*
X003776Y004920D02*
X003608Y004920D01*
X003608Y004891D02*
X003776Y004891D01*
X003776Y004863D02*
X003608Y004863D01*
X003604Y004834D02*
X003776Y004834D01*
X003776Y004806D02*
X003592Y004806D01*
X003583Y004777D02*
X003776Y004777D01*
X003776Y004749D02*
X003583Y004749D01*
X003583Y004720D02*
X003776Y004720D01*
X003776Y004692D02*
X003583Y004692D01*
X003583Y004663D02*
X003776Y004663D01*
X003776Y004635D02*
X003583Y004635D01*
X003583Y004606D02*
X003776Y004606D01*
X003776Y004578D02*
X003577Y004578D01*
X003566Y004549D02*
X003753Y004549D01*
X003725Y004521D02*
X003554Y004521D01*
X003542Y004492D02*
X003696Y004492D01*
X003668Y004464D02*
X003530Y004464D01*
X003518Y004435D02*
X003648Y004435D01*
X003648Y004407D02*
X003507Y004407D01*
X003495Y004378D02*
X003648Y004378D01*
X003648Y004350D02*
X003467Y004350D01*
X003438Y004321D02*
X003648Y004321D01*
X003648Y004293D02*
X003410Y004293D01*
X003381Y004264D02*
X003648Y004264D01*
X003648Y004236D02*
X003353Y004236D01*
X003315Y004207D02*
X003648Y004207D01*
X003648Y004179D02*
X003246Y004179D01*
X003178Y004150D02*
X003648Y004150D01*
X003648Y004122D02*
X002525Y004122D01*
X002525Y004150D02*
X002824Y004150D01*
X002755Y004179D02*
X002525Y004179D01*
X002525Y004207D02*
X002686Y004207D01*
X002649Y004236D02*
X002525Y004236D01*
X002525Y004264D02*
X002620Y004264D01*
X002592Y004293D02*
X002525Y004293D01*
X002525Y004321D02*
X002563Y004321D01*
X002535Y004350D02*
X002525Y004350D01*
X002525Y004093D02*
X003648Y004093D01*
X003648Y004065D02*
X002525Y004065D01*
X002525Y004036D02*
X003648Y004036D01*
X003648Y004008D02*
X002525Y004008D01*
X002525Y003979D02*
X003648Y003979D01*
X003648Y003951D02*
X002525Y003951D01*
X002525Y003922D02*
X003648Y003922D01*
X003648Y003894D02*
X002525Y003894D01*
X002525Y003865D02*
X003648Y003865D01*
X003648Y003837D02*
X002525Y003837D01*
X002525Y003808D02*
X003648Y003808D01*
X003648Y003780D02*
X002525Y003780D01*
X002525Y003751D02*
X003648Y003751D01*
X003648Y003723D02*
X002525Y003723D01*
X002525Y003694D02*
X003648Y003694D01*
X003648Y003666D02*
X002525Y003666D01*
X002525Y003637D02*
X003648Y003637D01*
X003648Y003609D02*
X002523Y003609D01*
X002494Y003580D02*
X003648Y003580D01*
X003917Y003780D02*
X005170Y003780D01*
X005141Y003808D02*
X003917Y003808D01*
X003917Y003837D02*
X005113Y003837D01*
X005084Y003865D02*
X003917Y003865D01*
X003917Y003894D02*
X005056Y003894D01*
X005027Y003922D02*
X003917Y003922D01*
X003917Y004179D02*
X004041Y004179D01*
X004012Y004207D02*
X003917Y004207D01*
X003917Y004236D02*
X003984Y004236D01*
X003955Y004264D02*
X003917Y004264D01*
X003917Y004293D02*
X003942Y004293D01*
X003942Y004321D02*
X003917Y004321D01*
X003934Y004350D02*
X003942Y004350D01*
X003751Y004948D02*
X003531Y004948D01*
X003608Y004977D02*
X003722Y004977D01*
X003694Y005005D02*
X003608Y005005D01*
X003608Y005034D02*
X003665Y005034D01*
X004837Y005803D02*
X010258Y005803D01*
X010287Y005775D02*
X004865Y005775D01*
X004894Y005746D02*
X005248Y005746D01*
X005220Y005718D02*
X004922Y005718D01*
X004951Y005689D02*
X005191Y005689D01*
X005163Y005661D02*
X004979Y005661D01*
X005008Y005632D02*
X005142Y005632D01*
X005142Y005604D02*
X005036Y005604D01*
X005065Y005575D02*
X005142Y005575D01*
X005142Y005547D02*
X005093Y005547D01*
X005122Y005518D02*
X005142Y005518D01*
X005427Y005746D02*
X010310Y005746D01*
X010310Y005718D02*
X005455Y005718D01*
X004808Y005832D02*
X010230Y005832D01*
X010201Y005860D02*
X004780Y005860D01*
X004751Y005889D02*
X010173Y005889D01*
X010144Y005917D02*
X004723Y005917D01*
X004694Y005946D02*
X010116Y005946D01*
X010087Y005974D02*
X004666Y005974D01*
X004637Y006003D02*
X010059Y006003D01*
X010030Y006031D02*
X004609Y006031D01*
X004580Y006060D02*
X010002Y006060D01*
X009973Y006088D02*
X004552Y006088D01*
X004523Y006117D02*
X009945Y006117D01*
X009916Y006145D02*
X007261Y006145D01*
X007289Y006174D02*
X009888Y006174D01*
X009859Y006202D02*
X007318Y006202D01*
X007346Y006231D02*
X009831Y006231D01*
X009802Y006259D02*
X007375Y006259D01*
X007403Y006288D02*
X009774Y006288D01*
X009745Y006316D02*
X007432Y006316D01*
X007460Y006345D02*
X009717Y006345D01*
X009688Y006373D02*
X007489Y006373D01*
X007517Y006402D02*
X009660Y006402D01*
X009631Y006430D02*
X007546Y006430D01*
X007574Y006459D02*
X009209Y006459D01*
X009181Y006487D02*
X007603Y006487D01*
X007631Y006516D02*
X009181Y006516D01*
X009181Y006544D02*
X007660Y006544D01*
X007478Y006715D02*
X007254Y006715D01*
X007254Y006687D02*
X007450Y006687D01*
X007421Y006658D02*
X007254Y006658D01*
X007254Y006630D02*
X007393Y006630D01*
X007364Y006601D02*
X007254Y006601D01*
X007254Y006573D02*
X007336Y006573D01*
X007307Y006544D02*
X007254Y006544D01*
X007254Y006516D02*
X007279Y006516D01*
X007254Y006491D02*
X007254Y007297D01*
X007198Y007353D01*
X007007Y007353D01*
X007007Y009559D01*
X007077Y009489D01*
X007124Y009489D01*
X007102Y009483D01*
X007076Y009468D01*
X007054Y009446D01*
X007039Y009420D01*
X007031Y009391D01*
X007031Y009213D01*
X007269Y009213D01*
X007269Y009183D01*
X007299Y009183D01*
X007299Y008906D01*
X007437Y008906D01*
X007466Y008914D01*
X007492Y008929D01*
X007514Y008951D01*
X007529Y008977D01*
X007537Y009006D01*
X007537Y009183D01*
X007299Y009183D01*
X007299Y009213D01*
X007537Y009213D01*
X007537Y009391D01*
X007529Y009420D01*
X007514Y009446D01*
X007492Y009468D01*
X007466Y009483D01*
X007437Y009491D01*
X007299Y009491D01*
X007299Y009213D01*
X007269Y009213D01*
X007269Y009491D01*
X007241Y009491D01*
X007339Y009589D01*
X008669Y009589D01*
X008669Y009504D01*
X008661Y009504D01*
X008542Y009455D01*
X008451Y009364D01*
X008440Y009336D01*
X008029Y009336D01*
X008029Y009415D01*
X007973Y009471D01*
X007619Y009471D01*
X007563Y009415D01*
X007563Y008982D01*
X007619Y008926D01*
X007973Y008926D01*
X008029Y008982D01*
X008029Y009087D01*
X008415Y009087D01*
X008451Y008999D01*
X008542Y008908D01*
X008661Y008859D01*
X008669Y008859D01*
X008669Y008786D01*
X008725Y008731D01*
X010100Y008731D01*
X010616Y008215D01*
X010616Y007249D01*
X010585Y007280D01*
X010424Y007280D01*
X010310Y007166D01*
X010310Y007041D01*
X010284Y007015D01*
X009906Y007015D01*
X009851Y006959D01*
X009851Y006591D01*
X009804Y006637D01*
X009804Y006959D01*
X009749Y007015D01*
X009237Y007015D01*
X009181Y006959D01*
X009181Y006816D01*
X007579Y006816D01*
X007254Y006491D01*
X007254Y006744D02*
X007507Y006744D01*
X007535Y006772D02*
X007254Y006772D01*
X007254Y006801D02*
X007564Y006801D01*
X007254Y006829D02*
X009181Y006829D01*
X009181Y006858D02*
X007254Y006858D01*
X007254Y006886D02*
X009181Y006886D01*
X009181Y006915D02*
X007254Y006915D01*
X007254Y006943D02*
X009181Y006943D01*
X009194Y006972D02*
X007254Y006972D01*
X007254Y007000D02*
X009222Y007000D01*
X009763Y007000D02*
X009892Y007000D01*
X009863Y006972D02*
X009792Y006972D01*
X009804Y006943D02*
X009851Y006943D01*
X009851Y006915D02*
X009804Y006915D01*
X009804Y006886D02*
X009851Y006886D01*
X009851Y006858D02*
X009804Y006858D01*
X009804Y006829D02*
X009851Y006829D01*
X009851Y006801D02*
X009804Y006801D01*
X009804Y006772D02*
X009851Y006772D01*
X009851Y006744D02*
X009804Y006744D01*
X009804Y006715D02*
X009851Y006715D01*
X009851Y006687D02*
X009804Y006687D01*
X009804Y006658D02*
X009851Y006658D01*
X009851Y006630D02*
X009812Y006630D01*
X009840Y006601D02*
X009851Y006601D01*
X010298Y007029D02*
X007254Y007029D01*
X007254Y007057D02*
X010310Y007057D01*
X010310Y007086D02*
X007254Y007086D01*
X007254Y007114D02*
X010310Y007114D01*
X010310Y007143D02*
X007254Y007143D01*
X007254Y007171D02*
X010315Y007171D01*
X010343Y007200D02*
X007254Y007200D01*
X007254Y007228D02*
X010372Y007228D01*
X010400Y007257D02*
X007254Y007257D01*
X007254Y007285D02*
X010616Y007285D01*
X010609Y007257D02*
X010616Y007257D01*
X010616Y007314D02*
X007237Y007314D01*
X007209Y007342D02*
X010616Y007342D01*
X010616Y007371D02*
X007007Y007371D01*
X007007Y007399D02*
X010616Y007399D01*
X010616Y007428D02*
X007007Y007428D01*
X007007Y007456D02*
X010616Y007456D01*
X010616Y007485D02*
X007007Y007485D01*
X007007Y007513D02*
X010616Y007513D01*
X010616Y007542D02*
X007007Y007542D01*
X007007Y007570D02*
X010616Y007570D01*
X010616Y007599D02*
X007007Y007599D01*
X007007Y007627D02*
X010616Y007627D01*
X010616Y007656D02*
X007007Y007656D01*
X007007Y007684D02*
X010616Y007684D01*
X010616Y007713D02*
X007007Y007713D01*
X007007Y007741D02*
X010616Y007741D01*
X010616Y007770D02*
X007007Y007770D01*
X007007Y007798D02*
X010616Y007798D01*
X010616Y007827D02*
X007007Y007827D01*
X007007Y007855D02*
X010616Y007855D01*
X010616Y007884D02*
X007007Y007884D01*
X007007Y007912D02*
X010616Y007912D01*
X010616Y007941D02*
X007007Y007941D01*
X007007Y007969D02*
X010616Y007969D01*
X010616Y007998D02*
X007007Y007998D01*
X007007Y008026D02*
X010616Y008026D01*
X010616Y008055D02*
X007007Y008055D01*
X007007Y008083D02*
X010616Y008083D01*
X010616Y008112D02*
X007007Y008112D01*
X007007Y008140D02*
X010616Y008140D01*
X010616Y008169D02*
X007007Y008169D01*
X007007Y008197D02*
X010616Y008197D01*
X010605Y008226D02*
X007007Y008226D01*
X007007Y008254D02*
X010577Y008254D01*
X010548Y008283D02*
X007007Y008283D01*
X007007Y008311D02*
X010520Y008311D01*
X010491Y008340D02*
X007007Y008340D01*
X007007Y008368D02*
X010463Y008368D01*
X010434Y008397D02*
X007007Y008397D01*
X007007Y008425D02*
X010406Y008425D01*
X010377Y008454D02*
X007007Y008454D01*
X007007Y008482D02*
X010349Y008482D01*
X010320Y008511D02*
X007007Y008511D01*
X007007Y008539D02*
X010292Y008539D01*
X010263Y008568D02*
X007007Y008568D01*
X007007Y008596D02*
X010235Y008596D01*
X010206Y008625D02*
X007007Y008625D01*
X007007Y008653D02*
X010178Y008653D01*
X010149Y008682D02*
X007007Y008682D01*
X007007Y008710D02*
X010121Y008710D01*
X008717Y008739D02*
X007007Y008739D01*
X007007Y008767D02*
X008688Y008767D01*
X008669Y008796D02*
X007007Y008796D01*
X007007Y008824D02*
X008669Y008824D01*
X008669Y008853D02*
X007007Y008853D01*
X007007Y008881D02*
X008607Y008881D01*
X008540Y008910D02*
X007450Y008910D01*
X007501Y008938D02*
X007607Y008938D01*
X007578Y008967D02*
X007523Y008967D01*
X007534Y008995D02*
X007563Y008995D01*
X007563Y009024D02*
X007537Y009024D01*
X007537Y009052D02*
X007563Y009052D01*
X007563Y009081D02*
X007537Y009081D01*
X007537Y009109D02*
X007563Y009109D01*
X007563Y009138D02*
X007537Y009138D01*
X007537Y009166D02*
X007563Y009166D01*
X007563Y009195D02*
X007299Y009195D01*
X007299Y009223D02*
X007269Y009223D01*
X007269Y009195D02*
X007007Y009195D01*
X007031Y009183D02*
X007031Y009006D01*
X007039Y008977D01*
X007054Y008951D01*
X007076Y008929D01*
X007102Y008914D01*
X007131Y008906D01*
X007269Y008906D01*
X007269Y009183D01*
X007031Y009183D01*
X007031Y009166D02*
X007007Y009166D01*
X007007Y009138D02*
X007031Y009138D01*
X007031Y009109D02*
X007007Y009109D01*
X007007Y009081D02*
X007031Y009081D01*
X007031Y009052D02*
X007007Y009052D01*
X007007Y009024D02*
X007031Y009024D01*
X007034Y008995D02*
X007007Y008995D01*
X007007Y008967D02*
X007045Y008967D01*
X007067Y008938D02*
X007007Y008938D01*
X007007Y008910D02*
X007118Y008910D01*
X007269Y008910D02*
X007299Y008910D01*
X007299Y008938D02*
X007269Y008938D01*
X007269Y008967D02*
X007299Y008967D01*
X007299Y008995D02*
X007269Y008995D01*
X007269Y009024D02*
X007299Y009024D01*
X007299Y009052D02*
X007269Y009052D01*
X007269Y009081D02*
X007299Y009081D01*
X007299Y009109D02*
X007269Y009109D01*
X007269Y009138D02*
X007299Y009138D01*
X007299Y009166D02*
X007269Y009166D01*
X007269Y009252D02*
X007299Y009252D01*
X007299Y009280D02*
X007269Y009280D01*
X007269Y009309D02*
X007299Y009309D01*
X007299Y009337D02*
X007269Y009337D01*
X007269Y009366D02*
X007299Y009366D01*
X007299Y009394D02*
X007269Y009394D01*
X007269Y009423D02*
X007299Y009423D01*
X007299Y009451D02*
X007269Y009451D01*
X007269Y009480D02*
X007299Y009480D01*
X007259Y009508D02*
X008669Y009508D01*
X008669Y009537D02*
X007287Y009537D01*
X007316Y009565D02*
X008669Y009565D01*
X008603Y009480D02*
X007471Y009480D01*
X007509Y009451D02*
X007599Y009451D01*
X007571Y009423D02*
X007527Y009423D01*
X007536Y009394D02*
X007563Y009394D01*
X007563Y009366D02*
X007537Y009366D01*
X007537Y009337D02*
X007563Y009337D01*
X007563Y009309D02*
X007537Y009309D01*
X007537Y009280D02*
X007563Y009280D01*
X007563Y009252D02*
X007537Y009252D01*
X007537Y009223D02*
X007563Y009223D01*
X008029Y009337D02*
X008440Y009337D01*
X008453Y009366D02*
X008029Y009366D01*
X008029Y009394D02*
X008482Y009394D01*
X008510Y009423D02*
X008021Y009423D01*
X007992Y009451D02*
X008539Y009451D01*
X008417Y009081D02*
X008029Y009081D01*
X008029Y009052D02*
X008429Y009052D01*
X008441Y009024D02*
X008029Y009024D01*
X008029Y008995D02*
X008455Y008995D01*
X008483Y008967D02*
X008013Y008967D01*
X007985Y008938D02*
X008512Y008938D01*
X007031Y009223D02*
X007007Y009223D01*
X007007Y009252D02*
X007031Y009252D01*
X007031Y009280D02*
X007007Y009280D01*
X007007Y009309D02*
X007031Y009309D01*
X007031Y009337D02*
X007007Y009337D01*
X007007Y009366D02*
X007031Y009366D01*
X007032Y009394D02*
X007007Y009394D01*
X007007Y009423D02*
X007041Y009423D01*
X007059Y009451D02*
X007007Y009451D01*
X007007Y009480D02*
X007097Y009480D01*
X007058Y009508D02*
X007007Y009508D01*
X007007Y009537D02*
X007029Y009537D01*
X006999Y010021D02*
X007005Y010021D01*
X006999Y010050D02*
X023239Y010050D01*
X023239Y010078D02*
X006999Y010078D01*
X006999Y010107D02*
X023239Y010107D01*
X023239Y010135D02*
X006982Y010135D01*
X006954Y010164D02*
X023239Y010164D01*
X023239Y010192D02*
X006925Y010192D01*
X006897Y010221D02*
X023239Y010221D01*
X023239Y010249D02*
X001628Y010249D01*
X001628Y010221D02*
X006711Y010221D01*
X006682Y010192D02*
X001628Y010192D01*
X001628Y010164D02*
X003078Y010164D01*
X003050Y010135D02*
X001628Y010135D01*
X001628Y010107D02*
X003021Y010107D01*
X002993Y010078D02*
X001628Y010078D01*
X001628Y010050D02*
X002964Y010050D01*
X002936Y010021D02*
X001628Y010021D01*
X001628Y009993D02*
X002907Y009993D01*
X002879Y009964D02*
X001628Y009964D01*
X001628Y009936D02*
X002850Y009936D01*
X002822Y009907D02*
X001628Y009907D01*
X001628Y009879D02*
X002793Y009879D01*
X002765Y009850D02*
X001628Y009850D01*
X001628Y009822D02*
X002736Y009822D01*
X002708Y009793D02*
X001628Y009793D01*
X001628Y009765D02*
X002679Y009765D01*
X002651Y009736D02*
X001628Y009736D01*
X001628Y009708D02*
X002622Y009708D01*
X002594Y009679D02*
X001628Y009679D01*
X001628Y009651D02*
X002565Y009651D01*
X002537Y009622D02*
X001628Y009622D01*
X001628Y009594D02*
X002508Y009594D01*
X002480Y009565D02*
X001628Y009565D01*
X001628Y009537D02*
X002451Y009537D01*
X002423Y009508D02*
X001628Y009508D01*
X001628Y009480D02*
X002394Y009480D01*
X002366Y009451D02*
X001628Y009451D01*
X001628Y009423D02*
X002337Y009423D01*
X002309Y009394D02*
X001628Y009394D01*
X001628Y009366D02*
X002280Y009366D01*
X002252Y009337D02*
X001628Y009337D01*
X001628Y009309D02*
X002223Y009309D01*
X002195Y009280D02*
X001628Y009280D01*
X001628Y009252D02*
X002166Y009252D01*
X002138Y009223D02*
X001628Y009223D01*
X001628Y009195D02*
X002109Y009195D01*
X002081Y009166D02*
X001628Y009166D01*
X001628Y009138D02*
X002052Y009138D01*
X002024Y009109D02*
X001628Y009109D01*
X001628Y009081D02*
X001995Y009081D01*
X001967Y009052D02*
X001628Y009052D01*
X001628Y009024D02*
X001938Y009024D01*
X001910Y008995D02*
X001628Y008995D01*
X001628Y008967D02*
X001881Y008967D01*
X001853Y008938D02*
X001628Y008938D01*
X001628Y008910D02*
X001824Y008910D01*
X001796Y008881D02*
X001628Y008881D01*
X001628Y008853D02*
X001767Y008853D01*
X001739Y008824D02*
X001628Y008824D01*
X001628Y008796D02*
X001710Y008796D01*
X001682Y008767D02*
X001628Y008767D01*
X001628Y008739D02*
X001653Y008739D01*
X001834Y008539D02*
X002101Y008539D01*
X002102Y008538D02*
X002123Y008517D01*
X002149Y008502D01*
X002179Y008494D01*
X002356Y008494D01*
X002356Y008732D01*
X002079Y008732D01*
X002079Y008594D01*
X002087Y008564D01*
X002102Y008538D01*
X002086Y008568D02*
X001862Y008568D01*
X001891Y008596D02*
X002079Y008596D01*
X002079Y008625D02*
X001919Y008625D01*
X001948Y008653D02*
X002079Y008653D01*
X002079Y008682D02*
X001976Y008682D01*
X002005Y008710D02*
X002079Y008710D01*
X002079Y008762D02*
X002356Y008762D01*
X002356Y008999D01*
X002294Y008999D01*
X003198Y009904D01*
X003856Y009904D01*
X002663Y008711D01*
X002663Y008732D01*
X002386Y008732D01*
X002386Y008762D01*
X002356Y008762D01*
X002356Y008732D01*
X002386Y008732D01*
X002386Y008494D01*
X002446Y008494D01*
X002420Y008468D01*
X002154Y008468D01*
X002099Y008412D01*
X002099Y008058D01*
X002154Y008002D01*
X002270Y008002D01*
X002270Y007427D01*
X002342Y007355D01*
X001820Y007355D01*
X001820Y008526D01*
X002079Y008784D01*
X002079Y008762D01*
X002079Y008767D02*
X002062Y008767D01*
X002033Y008739D02*
X002356Y008739D01*
X002356Y008767D02*
X002386Y008767D01*
X002386Y008762D02*
X002386Y008999D01*
X002563Y008999D01*
X002592Y008992D01*
X002619Y008976D01*
X002640Y008955D01*
X002655Y008929D01*
X002663Y008900D01*
X002663Y008762D01*
X002386Y008762D01*
X002386Y008739D02*
X002691Y008739D01*
X002663Y008767D02*
X002719Y008767D01*
X002748Y008796D02*
X002663Y008796D01*
X002663Y008824D02*
X002776Y008824D01*
X002805Y008853D02*
X002663Y008853D01*
X002663Y008881D02*
X002833Y008881D01*
X002862Y008910D02*
X002660Y008910D01*
X002650Y008938D02*
X002890Y008938D01*
X002919Y008967D02*
X002628Y008967D01*
X002579Y008995D02*
X002947Y008995D01*
X002976Y009024D02*
X002318Y009024D01*
X002347Y009052D02*
X003004Y009052D01*
X003033Y009081D02*
X002375Y009081D01*
X002404Y009109D02*
X003061Y009109D01*
X003090Y009138D02*
X002432Y009138D01*
X002461Y009166D02*
X003118Y009166D01*
X003147Y009195D02*
X002489Y009195D01*
X002518Y009223D02*
X003175Y009223D01*
X003204Y009252D02*
X002546Y009252D01*
X002575Y009280D02*
X003232Y009280D01*
X003261Y009309D02*
X002603Y009309D01*
X002632Y009337D02*
X003289Y009337D01*
X003318Y009366D02*
X002660Y009366D01*
X002689Y009394D02*
X003346Y009394D01*
X003375Y009423D02*
X002717Y009423D01*
X002746Y009451D02*
X003403Y009451D01*
X003432Y009480D02*
X002774Y009480D01*
X002803Y009508D02*
X003460Y009508D01*
X003489Y009537D02*
X002831Y009537D01*
X002860Y009565D02*
X003517Y009565D01*
X003546Y009594D02*
X002888Y009594D01*
X002917Y009622D02*
X003574Y009622D01*
X003603Y009651D02*
X002945Y009651D01*
X002974Y009679D02*
X003631Y009679D01*
X003660Y009708D02*
X003002Y009708D01*
X003031Y009736D02*
X003688Y009736D01*
X003717Y009765D02*
X003059Y009765D01*
X003088Y009793D02*
X003745Y009793D01*
X003774Y009822D02*
X003116Y009822D01*
X003145Y009850D02*
X003802Y009850D01*
X003831Y009879D02*
X003173Y009879D01*
X003670Y009366D02*
X005205Y009366D01*
X005205Y009394D02*
X003699Y009394D01*
X003727Y009423D02*
X005205Y009423D01*
X005205Y009451D02*
X003756Y009451D01*
X003784Y009480D02*
X005205Y009480D01*
X005205Y009508D02*
X003813Y009508D01*
X003841Y009537D02*
X005205Y009537D01*
X005205Y009565D02*
X003870Y009565D01*
X003898Y009594D02*
X005205Y009594D01*
X005205Y009622D02*
X003927Y009622D01*
X003955Y009651D02*
X005205Y009651D01*
X005205Y009337D02*
X003642Y009337D01*
X003613Y009309D02*
X005205Y009309D01*
X005205Y009280D02*
X003585Y009280D01*
X003556Y009252D02*
X005205Y009252D01*
X005205Y009223D02*
X003528Y009223D01*
X003499Y009195D02*
X005205Y009195D01*
X005205Y009166D02*
X003471Y009166D01*
X003442Y009138D02*
X005205Y009138D01*
X005205Y009109D02*
X003414Y009109D01*
X003385Y009081D02*
X005205Y009081D01*
X005205Y009052D02*
X003357Y009052D01*
X003328Y009024D02*
X005205Y009024D01*
X005205Y008995D02*
X003300Y008995D01*
X003271Y008967D02*
X005205Y008967D01*
X005205Y008938D02*
X003803Y008938D01*
X003795Y008940D02*
X003618Y008940D01*
X003618Y008703D01*
X003588Y008703D01*
X003588Y008940D01*
X003411Y008940D01*
X003382Y008933D01*
X003355Y008917D01*
X003334Y008896D01*
X003319Y008870D01*
X003311Y008841D01*
X003311Y008703D01*
X003588Y008703D01*
X003588Y008673D01*
X003311Y008673D01*
X003311Y008535D01*
X003319Y008505D01*
X003334Y008479D01*
X003355Y008458D01*
X003382Y008443D01*
X003411Y008435D01*
X003588Y008435D01*
X003588Y008673D01*
X003618Y008673D01*
X003618Y008703D01*
X003895Y008703D01*
X003895Y008841D01*
X003887Y008870D01*
X003872Y008896D01*
X003851Y008917D01*
X003825Y008933D01*
X003795Y008940D01*
X003859Y008910D02*
X005205Y008910D01*
X005205Y008881D02*
X003881Y008881D01*
X003892Y008853D02*
X005205Y008853D01*
X005205Y008824D02*
X003895Y008824D01*
X003895Y008796D02*
X005205Y008796D01*
X005223Y008767D02*
X003895Y008767D01*
X003895Y008739D02*
X005252Y008739D01*
X005892Y008710D02*
X003895Y008710D01*
X003895Y008673D02*
X003618Y008673D01*
X003618Y008435D01*
X003795Y008435D01*
X003825Y008443D01*
X003851Y008458D01*
X003872Y008479D01*
X003887Y008505D01*
X003895Y008535D01*
X003895Y008673D01*
X003895Y008653D02*
X005892Y008653D01*
X005892Y008625D02*
X003895Y008625D01*
X003895Y008596D02*
X005892Y008596D01*
X005892Y008568D02*
X003895Y008568D01*
X003895Y008539D02*
X005892Y008539D01*
X005892Y008511D02*
X003889Y008511D01*
X003874Y008482D02*
X005892Y008482D01*
X005892Y008454D02*
X003844Y008454D01*
X003831Y008397D02*
X005892Y008397D01*
X005892Y008425D02*
X002730Y008425D01*
X002758Y008454D02*
X003362Y008454D01*
X003332Y008482D02*
X002787Y008482D01*
X002815Y008511D02*
X003317Y008511D01*
X003311Y008539D02*
X002844Y008539D01*
X002872Y008568D02*
X003311Y008568D01*
X003311Y008596D02*
X002901Y008596D01*
X002929Y008625D02*
X003311Y008625D01*
X003311Y008653D02*
X002958Y008653D01*
X002986Y008682D02*
X003588Y008682D01*
X003588Y008710D02*
X003618Y008710D01*
X003618Y008682D02*
X005892Y008682D01*
X005892Y008368D02*
X003860Y008368D01*
X003875Y008340D02*
X005892Y008340D01*
X005892Y008311D02*
X003875Y008311D01*
X003875Y008283D02*
X005892Y008283D01*
X005892Y008254D02*
X003875Y008254D01*
X003875Y008226D02*
X005892Y008226D01*
X005892Y008197D02*
X003875Y008197D01*
X003875Y008169D02*
X005892Y008169D01*
X005892Y008140D02*
X003875Y008140D01*
X003875Y008112D02*
X005892Y008112D01*
X005892Y008083D02*
X003875Y008083D01*
X003875Y008055D02*
X005892Y008055D01*
X005892Y008026D02*
X003875Y008026D01*
X003874Y007998D02*
X005892Y007998D01*
X005892Y007969D02*
X003846Y007969D01*
X003739Y007941D02*
X005892Y007941D01*
X005892Y007912D02*
X003739Y007912D01*
X003739Y007884D02*
X005892Y007884D01*
X005892Y007855D02*
X003739Y007855D01*
X003739Y007827D02*
X005892Y007827D01*
X005892Y007798D02*
X003739Y007798D01*
X003739Y007770D02*
X005892Y007770D01*
X005892Y007741D02*
X003739Y007741D01*
X003739Y007713D02*
X005892Y007713D01*
X005892Y007684D02*
X003739Y007684D01*
X003739Y007656D02*
X005892Y007656D01*
X005892Y007627D02*
X003739Y007627D01*
X003739Y007599D02*
X005892Y007599D01*
X005892Y007570D02*
X003739Y007570D01*
X003739Y007542D02*
X005892Y007542D01*
X005892Y007513D02*
X003739Y007513D01*
X003739Y007485D02*
X005892Y007485D01*
X005892Y007456D02*
X003739Y007456D01*
X003739Y007428D02*
X005892Y007428D01*
X005892Y007399D02*
X003739Y007399D01*
X003739Y007371D02*
X004835Y007371D01*
X004844Y007373D02*
X004814Y007365D01*
X004788Y007350D01*
X004767Y007329D01*
X004751Y007302D01*
X004744Y007273D01*
X004744Y006833D01*
X005084Y006833D01*
X005084Y007373D01*
X004844Y007373D01*
X004780Y007342D02*
X003739Y007342D01*
X003739Y007314D02*
X004758Y007314D01*
X004747Y007285D02*
X003739Y007285D01*
X003739Y007257D02*
X004744Y007257D01*
X004744Y007228D02*
X003739Y007228D01*
X003739Y007200D02*
X004744Y007200D01*
X004744Y007171D02*
X003739Y007171D01*
X003739Y007143D02*
X004744Y007143D01*
X004744Y007114D02*
X003739Y007114D01*
X003739Y007086D02*
X004744Y007086D01*
X004744Y007057D02*
X003739Y007057D01*
X003739Y007029D02*
X004744Y007029D01*
X004744Y007000D02*
X003739Y007000D01*
X003739Y006972D02*
X004744Y006972D01*
X004744Y006943D02*
X003739Y006943D01*
X003739Y006915D02*
X004744Y006915D01*
X004744Y006886D02*
X003754Y006886D01*
X003782Y006858D02*
X004744Y006858D01*
X004744Y006803D02*
X004744Y006363D01*
X004751Y006334D01*
X004767Y006307D01*
X004788Y006286D01*
X004814Y006271D01*
X004844Y006263D01*
X005084Y006263D01*
X005084Y006803D01*
X005114Y006803D01*
X005114Y006833D01*
X005454Y006833D01*
X005454Y007273D01*
X005446Y007302D01*
X005431Y007329D01*
X005409Y007350D01*
X005383Y007365D01*
X005354Y007373D01*
X005114Y007373D01*
X005114Y006833D01*
X005084Y006833D01*
X005084Y006803D01*
X004744Y006803D01*
X004744Y006801D02*
X003839Y006801D01*
X003811Y006829D02*
X005084Y006829D01*
X005084Y006801D02*
X005114Y006801D01*
X005114Y006803D02*
X005114Y006263D01*
X005354Y006263D01*
X005383Y006271D01*
X005409Y006286D01*
X005431Y006307D01*
X005446Y006334D01*
X005454Y006363D01*
X005454Y006803D01*
X005114Y006803D01*
X005114Y006829D02*
X005674Y006829D01*
X005674Y006801D02*
X005454Y006801D01*
X005454Y006772D02*
X005674Y006772D01*
X005674Y006744D02*
X005454Y006744D01*
X005454Y006715D02*
X005674Y006715D01*
X005674Y006687D02*
X005454Y006687D01*
X005454Y006658D02*
X005674Y006658D01*
X005674Y006630D02*
X005454Y006630D01*
X005454Y006601D02*
X005674Y006601D01*
X005674Y006573D02*
X005454Y006573D01*
X005454Y006544D02*
X005674Y006544D01*
X005674Y006516D02*
X005454Y006516D01*
X005454Y006487D02*
X005674Y006487D01*
X005674Y006459D02*
X005454Y006459D01*
X005454Y006430D02*
X005674Y006430D01*
X005674Y006402D02*
X005454Y006402D01*
X005454Y006373D02*
X005674Y006373D01*
X005674Y006345D02*
X005449Y006345D01*
X005436Y006316D02*
X005696Y006316D01*
X005725Y006288D02*
X005411Y006288D01*
X005114Y006288D02*
X005084Y006288D01*
X005084Y006316D02*
X005114Y006316D01*
X005114Y006345D02*
X005084Y006345D01*
X005084Y006373D02*
X005114Y006373D01*
X005114Y006402D02*
X005084Y006402D01*
X005084Y006430D02*
X005114Y006430D01*
X005114Y006459D02*
X005084Y006459D01*
X005084Y006487D02*
X005114Y006487D01*
X005114Y006516D02*
X005084Y006516D01*
X005084Y006544D02*
X005114Y006544D01*
X005114Y006573D02*
X005084Y006573D01*
X005084Y006601D02*
X005114Y006601D01*
X005114Y006630D02*
X005084Y006630D01*
X005084Y006658D02*
X005114Y006658D01*
X005114Y006687D02*
X005084Y006687D01*
X005084Y006715D02*
X005114Y006715D01*
X005114Y006744D02*
X005084Y006744D01*
X005084Y006772D02*
X005114Y006772D01*
X005114Y006858D02*
X005084Y006858D01*
X005084Y006886D02*
X005114Y006886D01*
X005114Y006915D02*
X005084Y006915D01*
X005084Y006943D02*
X005114Y006943D01*
X005114Y006972D02*
X005084Y006972D01*
X005084Y007000D02*
X005114Y007000D01*
X005114Y007029D02*
X005084Y007029D01*
X005084Y007057D02*
X005114Y007057D01*
X005114Y007086D02*
X005084Y007086D01*
X005084Y007114D02*
X005114Y007114D01*
X005114Y007143D02*
X005084Y007143D01*
X005084Y007171D02*
X005114Y007171D01*
X005114Y007200D02*
X005084Y007200D01*
X005084Y007228D02*
X005114Y007228D01*
X005114Y007257D02*
X005084Y007257D01*
X005084Y007285D02*
X005114Y007285D01*
X005114Y007314D02*
X005084Y007314D01*
X005084Y007342D02*
X005114Y007342D01*
X005114Y007371D02*
X005084Y007371D01*
X005362Y007371D02*
X005892Y007371D01*
X005719Y007342D02*
X005417Y007342D01*
X005439Y007314D02*
X005690Y007314D01*
X005674Y007285D02*
X005450Y007285D01*
X005454Y007257D02*
X005674Y007257D01*
X005674Y007228D02*
X005454Y007228D01*
X005454Y007200D02*
X005674Y007200D01*
X005674Y007171D02*
X005454Y007171D01*
X005454Y007143D02*
X005674Y007143D01*
X005674Y007114D02*
X005454Y007114D01*
X005454Y007086D02*
X005674Y007086D01*
X005674Y007057D02*
X005454Y007057D01*
X005454Y007029D02*
X005674Y007029D01*
X005674Y007000D02*
X005454Y007000D01*
X005454Y006972D02*
X005674Y006972D01*
X005674Y006943D02*
X005454Y006943D01*
X005454Y006915D02*
X005674Y006915D01*
X005674Y006886D02*
X005454Y006886D01*
X005454Y006858D02*
X005674Y006858D01*
X006321Y006316D02*
X006334Y006316D01*
X006362Y006288D02*
X006293Y006288D01*
X006391Y006259D02*
X004381Y006259D01*
X004409Y006231D02*
X006419Y006231D01*
X006448Y006202D02*
X004438Y006202D01*
X004466Y006174D02*
X006476Y006174D01*
X006505Y006145D02*
X004495Y006145D01*
X004352Y006288D02*
X004786Y006288D01*
X004762Y006316D02*
X004324Y006316D01*
X004295Y006345D02*
X004749Y006345D01*
X004744Y006373D02*
X004267Y006373D01*
X004238Y006402D02*
X004744Y006402D01*
X004744Y006430D02*
X004210Y006430D01*
X004181Y006459D02*
X004744Y006459D01*
X004744Y006487D02*
X004153Y006487D01*
X004124Y006516D02*
X004744Y006516D01*
X004744Y006544D02*
X004096Y006544D01*
X004067Y006573D02*
X004744Y006573D01*
X004744Y006601D02*
X004039Y006601D01*
X004010Y006630D02*
X004744Y006630D01*
X004744Y006658D02*
X003982Y006658D01*
X003953Y006687D02*
X004744Y006687D01*
X004744Y006715D02*
X003925Y006715D01*
X003896Y006744D02*
X004744Y006744D01*
X004744Y006772D02*
X003868Y006772D01*
X003490Y007257D02*
X002793Y007257D01*
X002764Y007285D02*
X003490Y007285D01*
X003490Y007314D02*
X002736Y007314D01*
X002707Y007342D02*
X003490Y007342D01*
X003490Y007371D02*
X002679Y007371D01*
X002650Y007399D02*
X003490Y007399D01*
X003490Y007428D02*
X002622Y007428D01*
X002593Y007456D02*
X003490Y007456D01*
X003490Y007485D02*
X002565Y007485D01*
X002536Y007513D02*
X003490Y007513D01*
X003490Y007542D02*
X002519Y007542D01*
X002519Y007570D02*
X003490Y007570D01*
X003490Y007599D02*
X002519Y007599D01*
X002519Y007627D02*
X003490Y007627D01*
X003490Y007656D02*
X002519Y007656D01*
X002519Y007684D02*
X003490Y007684D01*
X003490Y007713D02*
X002519Y007713D01*
X002519Y007741D02*
X003490Y007741D01*
X003490Y007770D02*
X002519Y007770D01*
X002519Y007798D02*
X003490Y007798D01*
X003490Y007827D02*
X002519Y007827D01*
X002519Y007855D02*
X003490Y007855D01*
X003490Y007884D02*
X002519Y007884D01*
X002519Y007912D02*
X003490Y007912D01*
X003490Y007941D02*
X002519Y007941D01*
X002519Y007969D02*
X003360Y007969D01*
X003332Y007998D02*
X002519Y007998D01*
X002612Y008026D02*
X003331Y008026D01*
X003331Y008055D02*
X002640Y008055D01*
X002643Y008083D02*
X003331Y008083D01*
X003331Y008112D02*
X002643Y008112D01*
X002643Y008140D02*
X003331Y008140D01*
X003331Y008169D02*
X002643Y008169D01*
X002643Y008197D02*
X003331Y008197D01*
X003331Y008226D02*
X002643Y008226D01*
X002643Y008254D02*
X003331Y008254D01*
X003331Y008283D02*
X002643Y008283D01*
X002643Y008311D02*
X003331Y008311D01*
X003331Y008340D02*
X002644Y008340D01*
X002673Y008368D02*
X003346Y008368D01*
X003375Y008397D02*
X002701Y008397D01*
X002434Y008482D02*
X001820Y008482D01*
X001820Y008454D02*
X002140Y008454D01*
X002112Y008425D02*
X001820Y008425D01*
X001820Y008397D02*
X002099Y008397D01*
X002099Y008368D02*
X001820Y008368D01*
X001820Y008340D02*
X002099Y008340D01*
X002099Y008311D02*
X001820Y008311D01*
X001820Y008283D02*
X002099Y008283D01*
X002099Y008254D02*
X001820Y008254D01*
X001820Y008226D02*
X002099Y008226D01*
X002099Y008197D02*
X001820Y008197D01*
X001820Y008169D02*
X002099Y008169D01*
X002099Y008140D02*
X001820Y008140D01*
X001820Y008112D02*
X002099Y008112D01*
X002099Y008083D02*
X001820Y008083D01*
X001820Y008055D02*
X002102Y008055D01*
X002130Y008026D02*
X001820Y008026D01*
X001820Y007998D02*
X002270Y007998D01*
X002270Y007969D02*
X001820Y007969D01*
X001820Y007941D02*
X002270Y007941D01*
X002270Y007912D02*
X001820Y007912D01*
X001820Y007884D02*
X002270Y007884D01*
X002270Y007855D02*
X001820Y007855D01*
X001820Y007827D02*
X002270Y007827D01*
X002270Y007798D02*
X001820Y007798D01*
X001820Y007770D02*
X002270Y007770D01*
X002270Y007741D02*
X001820Y007741D01*
X001820Y007713D02*
X002270Y007713D01*
X002270Y007684D02*
X001820Y007684D01*
X001820Y007656D02*
X002270Y007656D01*
X002270Y007627D02*
X001820Y007627D01*
X001820Y007599D02*
X002270Y007599D01*
X002270Y007570D02*
X001820Y007570D01*
X001820Y007542D02*
X002270Y007542D01*
X002270Y007513D02*
X001820Y007513D01*
X001820Y007485D02*
X002270Y007485D01*
X002270Y007456D02*
X001820Y007456D01*
X001820Y007428D02*
X002270Y007428D01*
X002298Y007399D02*
X001820Y007399D01*
X001820Y007371D02*
X002327Y007371D01*
X003588Y008454D02*
X003618Y008454D01*
X003618Y008482D02*
X003588Y008482D01*
X003588Y008511D02*
X003618Y008511D01*
X003618Y008539D02*
X003588Y008539D01*
X003588Y008568D02*
X003618Y008568D01*
X003618Y008596D02*
X003588Y008596D01*
X003588Y008625D02*
X003618Y008625D01*
X003618Y008653D02*
X003588Y008653D01*
X003588Y008739D02*
X003618Y008739D01*
X003618Y008767D02*
X003588Y008767D01*
X003588Y008796D02*
X003618Y008796D01*
X003618Y008824D02*
X003588Y008824D01*
X003588Y008853D02*
X003618Y008853D01*
X003618Y008881D02*
X003588Y008881D01*
X003588Y008910D02*
X003618Y008910D01*
X003618Y008938D02*
X003588Y008938D01*
X003403Y008938D02*
X003243Y008938D01*
X003214Y008910D02*
X003348Y008910D01*
X003325Y008881D02*
X003186Y008881D01*
X003157Y008853D02*
X003314Y008853D01*
X003311Y008824D02*
X003129Y008824D01*
X003100Y008796D02*
X003311Y008796D01*
X003311Y008767D02*
X003072Y008767D01*
X003043Y008739D02*
X003311Y008739D01*
X003311Y008710D02*
X003015Y008710D01*
X002386Y008710D02*
X002356Y008710D01*
X002356Y008682D02*
X002386Y008682D01*
X002386Y008653D02*
X002356Y008653D01*
X002356Y008625D02*
X002386Y008625D01*
X002386Y008596D02*
X002356Y008596D01*
X002356Y008568D02*
X002386Y008568D01*
X002386Y008539D02*
X002356Y008539D01*
X002356Y008511D02*
X002386Y008511D01*
X002134Y008511D02*
X001820Y008511D01*
X002356Y008796D02*
X002386Y008796D01*
X002386Y008824D02*
X002356Y008824D01*
X002356Y008853D02*
X002386Y008853D01*
X002386Y008881D02*
X002356Y008881D01*
X002356Y008910D02*
X002386Y008910D01*
X002386Y008938D02*
X002356Y008938D01*
X002356Y008967D02*
X002386Y008967D01*
X002386Y008995D02*
X002356Y008995D01*
X001628Y010278D02*
X023239Y010278D01*
X023239Y010306D02*
X001628Y010306D01*
X001628Y010335D02*
X023239Y010335D01*
X023239Y010363D02*
X001628Y010363D01*
X001628Y010392D02*
X023239Y010392D01*
X023239Y010420D02*
X001628Y010420D01*
X001628Y010449D02*
X023239Y010449D01*
X023239Y010477D02*
X001628Y010477D01*
X006825Y005689D02*
X010310Y005689D01*
X010315Y005661D02*
X006853Y005661D01*
X006882Y005632D02*
X010343Y005632D01*
X010370Y005604D02*
X006910Y005604D01*
X006939Y005575D02*
X010370Y005575D01*
X010370Y005547D02*
X006967Y005547D01*
X006996Y005518D02*
X010370Y005518D01*
X010370Y005490D02*
X007024Y005490D01*
X007053Y005461D02*
X010370Y005461D01*
X010370Y005433D02*
X007081Y005433D01*
X007110Y005404D02*
X010370Y005404D01*
X010370Y005376D02*
X007138Y005376D01*
X007167Y005347D02*
X010370Y005347D01*
X010370Y005319D02*
X007195Y005319D01*
X007224Y005290D02*
X010370Y005290D01*
X010370Y005262D02*
X007252Y005262D01*
X007281Y005233D02*
X010370Y005233D01*
X010370Y005205D02*
X007309Y005205D01*
X007338Y005176D02*
X010370Y005176D01*
X010370Y005148D02*
X007366Y005148D01*
X007395Y005119D02*
X010370Y005119D01*
X010370Y005091D02*
X007423Y005091D01*
X007452Y005062D02*
X010370Y005062D01*
X010370Y005034D02*
X007480Y005034D01*
X007509Y005005D02*
X010370Y005005D01*
X010370Y004977D02*
X007537Y004977D01*
X007566Y004948D02*
X010370Y004948D01*
X010370Y004920D02*
X007594Y004920D01*
X007623Y004891D02*
X010370Y004891D01*
X010370Y004863D02*
X007651Y004863D01*
X007680Y004834D02*
X010370Y004834D01*
X010370Y004806D02*
X007708Y004806D01*
X007737Y004777D02*
X010370Y004777D01*
X010370Y004749D02*
X007765Y004749D01*
X007794Y004720D02*
X010370Y004720D01*
X010370Y004692D02*
X007822Y004692D01*
X007851Y004663D02*
X010370Y004663D01*
X010370Y004635D02*
X007879Y004635D01*
X007908Y004606D02*
X010370Y004606D01*
X010370Y004578D02*
X007936Y004578D01*
X007965Y004549D02*
X010370Y004549D01*
X010370Y004521D02*
X007993Y004521D01*
X008022Y004492D02*
X010370Y004492D01*
X010370Y004464D02*
X008050Y004464D01*
X008079Y004435D02*
X010370Y004435D01*
X010370Y004407D02*
X008107Y004407D01*
X008136Y004378D02*
X010370Y004378D01*
X010370Y004350D02*
X008164Y004350D01*
X008193Y004321D02*
X010370Y004321D01*
X010370Y004293D02*
X009658Y004293D01*
X009687Y004264D02*
X010370Y004264D01*
X010370Y004236D02*
X009715Y004236D01*
X009744Y004207D02*
X010370Y004207D01*
X010370Y004179D02*
X009773Y004179D01*
X009801Y004150D02*
X010370Y004150D01*
X010370Y004122D02*
X009830Y004122D01*
X009858Y004093D02*
X010370Y004093D01*
X010370Y004065D02*
X009887Y004065D01*
X009915Y004036D02*
X010370Y004036D01*
X010370Y004008D02*
X009944Y004008D01*
X009972Y003979D02*
X010370Y003979D01*
X010370Y003951D02*
X010001Y003951D01*
X010029Y003922D02*
X010370Y003922D01*
X010370Y003894D02*
X010058Y003894D01*
X010086Y003865D02*
X010370Y003865D01*
X010370Y003837D02*
X010115Y003837D01*
X009934Y003637D02*
X009843Y003637D01*
X009843Y003609D02*
X009962Y003609D01*
X009991Y003580D02*
X009843Y003580D01*
X009816Y003552D02*
X010006Y003552D01*
X010006Y003523D02*
X009787Y003523D01*
X009759Y003495D02*
X010006Y003495D01*
X010006Y003466D02*
X009730Y003466D01*
X009616Y003438D02*
X010006Y003438D01*
X010006Y003409D02*
X009588Y003409D01*
X009559Y003381D02*
X010006Y003381D01*
X010006Y003352D02*
X009531Y003352D01*
X009521Y003324D02*
X010006Y003324D01*
X010006Y003295D02*
X009550Y003295D01*
X009578Y003267D02*
X010006Y003267D01*
X010006Y003238D02*
X009607Y003238D01*
X009635Y003210D02*
X010006Y003210D01*
X010006Y003181D02*
X009664Y003181D01*
X009692Y003153D02*
X010006Y003153D01*
X010006Y003124D02*
X009721Y003124D01*
X009749Y003096D02*
X010006Y003096D01*
X010006Y003067D02*
X009778Y003067D01*
X009806Y003039D02*
X010006Y003039D01*
X010006Y003010D02*
X009835Y003010D01*
X009842Y002982D02*
X010006Y002982D01*
X010006Y002953D02*
X009842Y002953D01*
X009842Y002925D02*
X010006Y002925D01*
X010006Y002896D02*
X009842Y002896D01*
X009842Y002868D02*
X010006Y002868D01*
X010006Y002839D02*
X009842Y002839D01*
X009842Y002811D02*
X009980Y002811D01*
X009952Y002782D02*
X009842Y002782D01*
X009842Y002754D02*
X009946Y002754D01*
X009946Y002725D02*
X009842Y002725D01*
X009842Y002697D02*
X009946Y002697D01*
X009946Y002668D02*
X009842Y002668D01*
X009842Y002640D02*
X009946Y002640D01*
X009949Y002611D02*
X009842Y002611D01*
X009842Y002583D02*
X009978Y002583D01*
X010006Y002554D02*
X009842Y002554D01*
X009842Y002526D02*
X010035Y002526D01*
X009397Y003096D02*
X009364Y003096D01*
X009364Y003124D02*
X009368Y003124D01*
X009843Y003666D02*
X009905Y003666D01*
X009877Y003694D02*
X009843Y003694D01*
X009843Y003723D02*
X009848Y003723D01*
X014645Y006145D02*
X015796Y006145D01*
X014810Y006402D02*
X014645Y006402D01*
X014645Y006430D02*
X014781Y006430D01*
X014776Y006459D02*
X014645Y006459D01*
X014645Y006487D02*
X014776Y006487D01*
X014776Y006516D02*
X014645Y006516D01*
X014645Y006544D02*
X014776Y006544D01*
X014776Y006573D02*
X014645Y006573D01*
X014645Y006601D02*
X014776Y006601D01*
X014776Y006630D02*
X014645Y006630D01*
X014645Y006658D02*
X014776Y006658D01*
X014776Y006687D02*
X014645Y006687D01*
X014645Y006715D02*
X014776Y006715D01*
X014776Y006744D02*
X014645Y006744D01*
X014645Y006772D02*
X014776Y006772D01*
X014787Y006801D02*
X014645Y006801D01*
X014645Y006829D02*
X014815Y006829D01*
X014754Y007143D02*
X014756Y007143D01*
X014573Y007314D02*
X013956Y007314D01*
X013951Y007342D02*
X014601Y007342D01*
X014630Y007371D02*
X013951Y007371D01*
X013951Y007399D02*
X014658Y007399D01*
X014687Y007428D02*
X013951Y007428D01*
X013951Y007456D02*
X014715Y007456D01*
X014744Y007485D02*
X013951Y007485D01*
X013951Y007513D02*
X014772Y007513D01*
X014544Y007285D02*
X013985Y007285D01*
X014027Y007257D02*
X014516Y007257D01*
X014487Y007228D02*
X014056Y007228D01*
X014084Y007200D02*
X014459Y007200D01*
X014430Y007171D02*
X014113Y007171D01*
X014141Y007143D02*
X014402Y007143D01*
X014396Y007114D02*
X014170Y007114D01*
X014198Y007086D02*
X014396Y007086D01*
X014396Y007057D02*
X014227Y007057D01*
X014255Y007029D02*
X014396Y007029D01*
X014396Y007000D02*
X014284Y007000D01*
X014312Y006972D02*
X014396Y006972D01*
X014396Y006943D02*
X014341Y006943D01*
X014369Y006915D02*
X014396Y006915D01*
X013694Y006886D02*
X013664Y006886D01*
X013664Y006858D02*
X013694Y006858D01*
X013694Y006829D02*
X013664Y006829D01*
X013664Y006801D02*
X013694Y006801D01*
X013694Y006772D02*
X013664Y006772D01*
X013664Y006744D02*
X013694Y006744D01*
X013694Y006715D02*
X013664Y006715D01*
X013664Y006687D02*
X013694Y006687D01*
X013694Y006658D02*
X013664Y006658D01*
X013664Y006915D02*
X013371Y006915D01*
X013371Y006943D02*
X013387Y006943D01*
X013387Y006972D02*
X013371Y006972D01*
X013371Y007000D02*
X013387Y007000D01*
X013387Y007029D02*
X013371Y007029D01*
X013371Y007057D02*
X013388Y007057D01*
X013396Y007086D02*
X013371Y007086D01*
X013371Y007114D02*
X013414Y007114D01*
X013387Y006886D02*
X013371Y006886D01*
X013371Y006858D02*
X013387Y006858D01*
X013387Y006829D02*
X013371Y006829D01*
X013371Y006801D02*
X013387Y006801D01*
X013387Y006772D02*
X013370Y006772D01*
X015666Y008055D02*
X019408Y008055D01*
X019437Y008083D02*
X015695Y008083D01*
X015723Y008112D02*
X019465Y008112D01*
X019494Y008140D02*
X015752Y008140D01*
X015780Y008169D02*
X019522Y008169D01*
X019522Y008197D02*
X015809Y008197D01*
X015837Y008226D02*
X019494Y008226D01*
X019465Y008254D02*
X015866Y008254D01*
X015894Y008283D02*
X019437Y008283D01*
X019408Y008311D02*
X015923Y008311D01*
X018692Y006658D02*
X019160Y006658D01*
X019160Y006630D02*
X018721Y006630D01*
X018806Y006544D02*
X019160Y006544D01*
X019160Y006516D02*
X018835Y006516D01*
X018863Y006487D02*
X019160Y006487D01*
X019160Y006459D02*
X018892Y006459D01*
X018920Y006430D02*
X019160Y006430D01*
X019160Y006402D02*
X018949Y006402D01*
X018977Y006373D02*
X019160Y006373D01*
X019160Y006345D02*
X019006Y006345D01*
X019034Y006316D02*
X019160Y006316D01*
X019160Y006288D02*
X019063Y006288D01*
X018767Y006259D02*
X017560Y006259D01*
X019409Y007114D02*
X019664Y007114D01*
X019588Y007143D02*
X019409Y007143D01*
X019409Y007171D02*
X019535Y007171D01*
X019496Y007200D02*
X019409Y007200D01*
X019409Y007228D02*
X019463Y007228D01*
X019435Y007257D02*
X019409Y007257D01*
X019409Y007285D02*
X019412Y007285D01*
X019781Y007285D02*
X019811Y007285D01*
X019811Y007257D02*
X019781Y007257D01*
X019781Y007228D02*
X019811Y007228D01*
X019811Y007200D02*
X019781Y007200D01*
X019781Y007171D02*
X019811Y007171D01*
X019811Y007143D02*
X019781Y007143D01*
X019781Y007114D02*
X019811Y007114D01*
X019811Y007314D02*
X019781Y007314D01*
X019781Y007342D02*
X019811Y007342D01*
X019811Y007371D02*
X019781Y007371D01*
X019781Y007399D02*
X019811Y007399D01*
X019811Y007428D02*
X019781Y007428D01*
X019781Y007456D02*
X019811Y007456D01*
X019811Y007485D02*
X019781Y007485D01*
X019781Y007513D02*
X019811Y007513D01*
X019811Y007542D02*
X019781Y007542D01*
X020871Y006886D02*
X023239Y006886D01*
X023239Y006858D02*
X022209Y006858D01*
X022278Y006829D02*
X023239Y006829D01*
X023239Y006801D02*
X022344Y006801D01*
X022373Y006772D02*
X023239Y006772D01*
X023239Y006744D02*
X022401Y006744D01*
X022430Y006715D02*
X023239Y006715D01*
X023239Y006687D02*
X022458Y006687D01*
X022479Y006658D02*
X023239Y006658D01*
X023239Y006630D02*
X022491Y006630D01*
X022503Y006601D02*
X023239Y006601D01*
X023239Y006573D02*
X022515Y006573D01*
X022526Y006544D02*
X023239Y006544D01*
X023239Y006516D02*
X022538Y006516D01*
X022545Y006487D02*
X023239Y006487D01*
X023239Y006459D02*
X022545Y006459D01*
X022545Y006430D02*
X023239Y006430D01*
X023239Y006402D02*
X022545Y006402D01*
X022545Y006373D02*
X023239Y006373D01*
X023239Y006345D02*
X022545Y006345D01*
X022521Y006259D02*
X023239Y006259D01*
X023239Y006231D02*
X022509Y006231D01*
X022498Y006202D02*
X023239Y006202D01*
X023239Y006174D02*
X022486Y006174D01*
X022417Y006088D02*
X023239Y006088D01*
X023239Y006060D02*
X022389Y006060D01*
X022360Y006031D02*
X023239Y006031D01*
X023239Y006003D02*
X022316Y006003D01*
X022247Y005974D02*
X023239Y005974D01*
X023239Y005946D02*
X022179Y005946D01*
X022203Y005860D02*
X023239Y005860D01*
X023239Y005832D02*
X022272Y005832D01*
X022341Y005803D02*
X023239Y005803D01*
X023239Y005775D02*
X022370Y005775D01*
X022399Y005746D02*
X023239Y005746D01*
X023239Y005718D02*
X022427Y005718D01*
X022456Y005689D02*
X023239Y005689D01*
X023239Y005661D02*
X022478Y005661D01*
X022490Y005632D02*
X023239Y005632D01*
X023239Y005604D02*
X022502Y005604D01*
X022514Y005575D02*
X023239Y005575D01*
X023239Y005547D02*
X022525Y005547D01*
X022537Y005518D02*
X023239Y005518D01*
X023239Y005490D02*
X022545Y005490D01*
X022545Y005461D02*
X023239Y005461D01*
X023239Y005433D02*
X022545Y005433D01*
X022545Y005404D02*
X023239Y005404D01*
X023239Y005376D02*
X022545Y005376D01*
X022545Y005347D02*
X023239Y005347D01*
X023239Y005319D02*
X022545Y005319D01*
X022534Y005290D02*
X023239Y005290D01*
X023239Y005262D02*
X022522Y005262D01*
X022510Y005233D02*
X023239Y005233D01*
X023239Y005205D02*
X022499Y005205D01*
X022487Y005176D02*
X023239Y005176D01*
X023239Y005148D02*
X022475Y005148D01*
X022448Y005119D02*
X023239Y005119D01*
X023239Y005091D02*
X022420Y005091D01*
X022391Y005062D02*
X023239Y005062D01*
X023239Y005034D02*
X022363Y005034D01*
X022322Y005005D02*
X023239Y005005D01*
X023239Y004977D02*
X022253Y004977D01*
X022185Y004948D02*
X023239Y004948D01*
X023239Y004920D02*
X020115Y004920D01*
X020087Y004948D02*
X021975Y004948D01*
X021906Y004977D02*
X020056Y004977D01*
X019988Y005005D02*
X021837Y005005D01*
X021796Y005034D02*
X019919Y005034D01*
X019790Y005062D02*
X021768Y005062D01*
X023239Y004891D02*
X020144Y004891D01*
X020172Y004863D02*
X023239Y004863D01*
X023239Y004834D02*
X020195Y004834D01*
X020206Y004806D02*
X023239Y004806D01*
X023239Y004777D02*
X020218Y004777D01*
X020230Y004749D02*
X023239Y004749D01*
X023239Y004720D02*
X020242Y004720D01*
X020254Y004692D02*
X023239Y004692D01*
X023239Y004663D02*
X020261Y004663D01*
X020261Y004635D02*
X023239Y004635D01*
X023239Y004606D02*
X020261Y004606D01*
X020261Y004578D02*
X023239Y004578D01*
X023239Y004549D02*
X020261Y004549D01*
X020261Y004521D02*
X023239Y004521D01*
X023239Y004492D02*
X020261Y004492D01*
X020251Y004464D02*
X023239Y004464D01*
X023239Y004435D02*
X020239Y004435D01*
X020227Y004407D02*
X023239Y004407D01*
X023239Y004378D02*
X020215Y004378D01*
X020203Y004350D02*
X023239Y004350D01*
X023239Y004321D02*
X020192Y004321D01*
X020165Y004293D02*
X023239Y004293D01*
X023239Y004264D02*
X020137Y004264D01*
X020108Y004236D02*
X023239Y004236D01*
X023239Y004207D02*
X020080Y004207D01*
X020039Y004179D02*
X023239Y004179D01*
X023239Y004150D02*
X019971Y004150D01*
X019902Y004122D02*
X023239Y004122D01*
X023239Y004093D02*
X019261Y004093D01*
X019261Y004065D02*
X019748Y004065D01*
X019781Y004065D02*
X019811Y004065D01*
X019811Y004036D02*
X019781Y004036D01*
X019781Y004008D02*
X019811Y004008D01*
X019811Y003979D02*
X019781Y003979D01*
X019781Y003951D02*
X019811Y003951D01*
X019811Y003922D02*
X019781Y003922D01*
X019781Y003894D02*
X019811Y003894D01*
X019811Y003865D02*
X019781Y003865D01*
X019781Y003837D02*
X019811Y003837D01*
X019811Y003808D02*
X019781Y003808D01*
X019781Y003780D02*
X019811Y003780D01*
X019811Y003751D02*
X019781Y003751D01*
X019781Y003723D02*
X019811Y003723D01*
X019811Y003694D02*
X019781Y003694D01*
X019781Y003666D02*
X019811Y003666D01*
X019811Y003637D02*
X019781Y003637D01*
X019781Y003609D02*
X019811Y003609D01*
X019811Y003523D02*
X019781Y003523D01*
X019781Y003495D02*
X019811Y003495D01*
X019811Y003466D02*
X019781Y003466D01*
X019781Y003438D02*
X019811Y003438D01*
X019811Y003409D02*
X019781Y003409D01*
X019781Y003381D02*
X019811Y003381D01*
X019811Y003352D02*
X019781Y003352D01*
X019781Y003324D02*
X019811Y003324D01*
X019811Y003295D02*
X019781Y003295D01*
X019781Y003267D02*
X019811Y003267D01*
X019811Y003238D02*
X019781Y003238D01*
X019781Y003210D02*
X019811Y003210D01*
X019811Y003181D02*
X019781Y003181D01*
X019781Y003153D02*
X019811Y003153D01*
X019811Y003124D02*
X019781Y003124D01*
X019489Y002697D02*
X019261Y002697D01*
X019261Y002725D02*
X021329Y002725D01*
X021357Y002754D02*
X019261Y002754D01*
X019261Y002782D02*
X021386Y002782D01*
X021414Y002811D02*
X019261Y002811D01*
X019261Y002839D02*
X021443Y002839D01*
X021471Y002868D02*
X019261Y002868D01*
X019261Y002896D02*
X021500Y002896D01*
X021528Y002925D02*
X019261Y002925D01*
X019261Y002953D02*
X021557Y002953D01*
X021585Y002982D02*
X019261Y002982D01*
X019261Y003010D02*
X021614Y003010D01*
X021642Y003039D02*
X019261Y003039D01*
X019261Y003067D02*
X021671Y003067D01*
X021737Y002754D02*
X021760Y002754D01*
X021782Y002725D02*
X021709Y002725D01*
X021680Y002697D02*
X021810Y002697D01*
X021839Y002668D02*
X021652Y002668D01*
X021623Y002640D02*
X021867Y002640D01*
X021897Y002611D02*
X021595Y002611D01*
X021566Y002583D02*
X021966Y002583D01*
X022035Y002554D02*
X021538Y002554D01*
X021509Y002526D02*
X023239Y002526D01*
X023239Y002554D02*
X022282Y002554D01*
X022350Y002583D02*
X023239Y002583D01*
X023239Y002611D02*
X022419Y002611D01*
X022449Y002640D02*
X023239Y002640D01*
X023239Y002668D02*
X022478Y002668D01*
X022506Y002697D02*
X023239Y002697D01*
X023239Y002725D02*
X022535Y002725D01*
X022557Y002754D02*
X023239Y002754D01*
X023239Y002782D02*
X022569Y002782D01*
X022580Y002811D02*
X023239Y002811D01*
X023239Y002839D02*
X022592Y002839D01*
X022604Y002868D02*
X023239Y002868D01*
X023239Y002896D02*
X022616Y002896D01*
X022623Y002925D02*
X023239Y002925D01*
X023239Y002953D02*
X022623Y002953D01*
X022623Y002982D02*
X023239Y002982D01*
X023239Y003010D02*
X022623Y003010D01*
X022623Y003039D02*
X023239Y003039D01*
X023239Y003067D02*
X022623Y003067D01*
X022623Y003096D02*
X023239Y003096D01*
X023239Y003124D02*
X022613Y003124D01*
X022601Y003153D02*
X023239Y003153D01*
X023239Y003181D02*
X022589Y003181D01*
X022577Y003210D02*
X023239Y003210D01*
X023239Y003238D02*
X022566Y003238D01*
X022554Y003267D02*
X023239Y003267D01*
X023239Y003295D02*
X022527Y003295D01*
X022499Y003324D02*
X023239Y003324D01*
X023239Y003352D02*
X022470Y003352D01*
X022442Y003381D02*
X023239Y003381D01*
X023239Y003409D02*
X022401Y003409D01*
X022332Y003438D02*
X023239Y003438D01*
X023239Y003466D02*
X022263Y003466D01*
X023239Y003609D02*
X020281Y003609D01*
X020278Y003637D02*
X023239Y003637D01*
X023239Y003666D02*
X020274Y003666D01*
X020269Y003694D02*
X023239Y003694D01*
X023239Y003723D02*
X020260Y003723D01*
X020251Y003751D02*
X023239Y003751D01*
X023239Y003780D02*
X020239Y003780D01*
X020225Y003808D02*
X023239Y003808D01*
X023239Y003837D02*
X020210Y003837D01*
X020189Y003865D02*
X023239Y003865D01*
X023239Y003894D02*
X020169Y003894D01*
X020141Y003922D02*
X023239Y003922D01*
X023239Y003951D02*
X020113Y003951D01*
X020073Y003979D02*
X023239Y003979D01*
X023239Y004008D02*
X020027Y004008D01*
X019965Y004036D02*
X023239Y004036D01*
X023239Y004065D02*
X019844Y004065D01*
X018992Y003694D02*
X018687Y003694D01*
X018687Y003666D02*
X018992Y003666D01*
X018992Y003637D02*
X018687Y003637D01*
X018687Y003609D02*
X018992Y003609D01*
X018992Y003580D02*
X018687Y003580D01*
X018687Y003552D02*
X018992Y003552D01*
X018992Y003381D02*
X018615Y003381D01*
X018644Y003352D02*
X018992Y003352D01*
X018992Y003324D02*
X018667Y003324D01*
X018667Y003295D02*
X018992Y003295D01*
X018992Y003267D02*
X018667Y003267D01*
X018667Y003238D02*
X018992Y003238D01*
X018992Y003210D02*
X018667Y003210D01*
X018667Y003181D02*
X018992Y003181D01*
X018992Y003153D02*
X018667Y003153D01*
X018667Y003124D02*
X018992Y003124D01*
X018992Y003096D02*
X018667Y003096D01*
X018667Y003067D02*
X018992Y003067D01*
X018992Y003039D02*
X018667Y003039D01*
X018667Y003010D02*
X018992Y003010D01*
X018992Y002982D02*
X018667Y002982D01*
X018667Y002953D02*
X018992Y002953D01*
X018992Y002925D02*
X018667Y002925D01*
X018667Y002896D02*
X018992Y002896D01*
X018992Y002868D02*
X018667Y002868D01*
X018649Y002839D02*
X018992Y002839D01*
X018992Y002811D02*
X018620Y002811D01*
X018361Y002554D02*
X018992Y002554D01*
X018992Y002526D02*
X018390Y002526D01*
X018418Y002497D02*
X018992Y002497D01*
X018992Y002469D02*
X018447Y002469D01*
X018475Y002440D02*
X018992Y002440D01*
X018992Y002412D02*
X018504Y002412D01*
X018532Y002383D02*
X018992Y002383D01*
X018992Y002355D02*
X018561Y002355D01*
X018589Y002326D02*
X018992Y002326D01*
X018992Y002298D02*
X018618Y002298D01*
X018646Y002269D02*
X018992Y002269D01*
X019261Y002269D02*
X019356Y002269D01*
X019327Y002298D02*
X019261Y002298D01*
X019261Y002326D02*
X019299Y002326D01*
X019270Y002355D02*
X019261Y002355D01*
X019261Y002241D02*
X021752Y002241D01*
X021764Y002269D02*
X019527Y002269D01*
X019556Y002298D02*
X021792Y002298D01*
X021764Y002270D02*
X021693Y002099D01*
X021693Y001914D01*
X021764Y001743D01*
X021895Y001612D01*
X022066Y001541D01*
X022251Y001541D01*
X022422Y001612D01*
X022552Y001743D01*
X022623Y001914D01*
X022623Y002099D01*
X022552Y002270D01*
X022422Y002401D01*
X022251Y002471D01*
X022066Y002471D01*
X021895Y002401D01*
X021764Y002270D01*
X021740Y002212D02*
X019261Y002212D01*
X019261Y002184D02*
X021728Y002184D01*
X021717Y002155D02*
X019261Y002155D01*
X019261Y002127D02*
X021705Y002127D01*
X021693Y002098D02*
X019261Y002098D01*
X019261Y002070D02*
X021693Y002070D01*
X021693Y002041D02*
X019261Y002041D01*
X019261Y002013D02*
X021693Y002013D01*
X021693Y001984D02*
X019261Y001984D01*
X019261Y001956D02*
X021693Y001956D01*
X021693Y001927D02*
X019261Y001927D01*
X019261Y001899D02*
X021700Y001899D01*
X021711Y001870D02*
X019261Y001870D01*
X019261Y001842D02*
X021723Y001842D01*
X021735Y001813D02*
X019261Y001813D01*
X019261Y001785D02*
X021747Y001785D01*
X021759Y001756D02*
X019261Y001756D01*
X019261Y001728D02*
X021779Y001728D01*
X021808Y001699D02*
X019261Y001699D01*
X019261Y001671D02*
X021836Y001671D01*
X021865Y001642D02*
X019261Y001642D01*
X019239Y001614D02*
X021893Y001614D01*
X021960Y001585D02*
X019210Y001585D01*
X019168Y001557D02*
X022029Y001557D01*
X022288Y001557D02*
X023239Y001557D01*
X023239Y001585D02*
X022356Y001585D01*
X022423Y001614D02*
X023239Y001614D01*
X023239Y001642D02*
X022452Y001642D01*
X022480Y001671D02*
X023239Y001671D01*
X023239Y001699D02*
X022509Y001699D01*
X022537Y001728D02*
X023239Y001728D01*
X023239Y001756D02*
X022558Y001756D01*
X022570Y001785D02*
X023239Y001785D01*
X023239Y001813D02*
X022582Y001813D01*
X022593Y001842D02*
X023239Y001842D01*
X023239Y001870D02*
X022605Y001870D01*
X022617Y001899D02*
X023239Y001899D01*
X023239Y001927D02*
X022623Y001927D01*
X022623Y001956D02*
X023239Y001956D01*
X023239Y001984D02*
X022623Y001984D01*
X022623Y002013D02*
X023239Y002013D01*
X023239Y002041D02*
X022623Y002041D01*
X022623Y002070D02*
X023239Y002070D01*
X023239Y002098D02*
X022623Y002098D01*
X022612Y002127D02*
X023239Y002127D01*
X023239Y002155D02*
X022600Y002155D01*
X022588Y002184D02*
X023239Y002184D01*
X023239Y002212D02*
X022576Y002212D01*
X022565Y002241D02*
X023239Y002241D01*
X023239Y002269D02*
X022553Y002269D01*
X022525Y002298D02*
X023239Y002298D01*
X023239Y002326D02*
X022496Y002326D01*
X022468Y002355D02*
X023239Y002355D01*
X023239Y002383D02*
X022439Y002383D01*
X022395Y002412D02*
X023239Y002412D01*
X023239Y002440D02*
X022326Y002440D01*
X022257Y002469D02*
X023239Y002469D01*
X023239Y002497D02*
X021481Y002497D01*
X021452Y002469D02*
X022059Y002469D01*
X021990Y002440D02*
X021424Y002440D01*
X021417Y002433D02*
X021417Y002433D01*
X021395Y002412D02*
X021921Y002412D01*
X021877Y002383D02*
X021367Y002383D01*
X021338Y002355D02*
X021849Y002355D01*
X021820Y002326D02*
X019584Y002326D01*
X019613Y002355D02*
X020872Y002355D01*
X020843Y002383D02*
X019637Y002383D01*
X019637Y002412D02*
X020815Y002412D01*
X020786Y002440D02*
X019637Y002440D01*
X019461Y002668D02*
X019261Y002668D01*
X019261Y002640D02*
X019346Y002640D01*
X019318Y002611D02*
X019261Y002611D01*
X019261Y002583D02*
X019289Y002583D01*
X018992Y002583D02*
X018333Y002583D01*
X018304Y002611D02*
X018992Y002611D01*
X018992Y002640D02*
X018276Y002640D01*
X018247Y002668D02*
X018992Y002668D01*
X018992Y002697D02*
X018219Y002697D01*
X018190Y002725D02*
X018992Y002725D01*
X018992Y002754D02*
X018162Y002754D01*
X018133Y002782D02*
X018992Y002782D01*
X018168Y002811D02*
X018105Y002811D01*
X018076Y002839D02*
X018140Y002839D01*
X018122Y002868D02*
X018048Y002868D01*
X018019Y002896D02*
X018122Y002896D01*
X018122Y002925D02*
X017991Y002925D01*
X017962Y002953D02*
X018122Y002953D01*
X018122Y002982D02*
X017934Y002982D01*
X018122Y003238D02*
X017061Y003238D01*
X017052Y003267D02*
X018122Y003267D01*
X018122Y003295D02*
X017052Y003295D01*
X017052Y003324D02*
X018122Y003324D01*
X018145Y003352D02*
X017030Y003352D01*
X017001Y003381D02*
X018174Y003381D01*
X018143Y003438D02*
X017032Y003438D01*
X017056Y003466D02*
X018119Y003466D01*
X018107Y003495D02*
X017068Y003495D01*
X017072Y003523D02*
X018102Y003523D01*
X018102Y003552D02*
X017072Y003552D01*
X017072Y003580D02*
X018102Y003580D01*
X018102Y003609D02*
X017072Y003609D01*
X017072Y003637D02*
X018102Y003637D01*
X018102Y003666D02*
X017072Y003666D01*
X017072Y003694D02*
X018102Y003694D01*
X018102Y003751D02*
X017072Y003751D01*
X017072Y003780D02*
X018102Y003780D01*
X018102Y003808D02*
X017072Y003808D01*
X017072Y003837D02*
X018102Y003837D01*
X018102Y003865D02*
X017072Y003865D01*
X017072Y003894D02*
X018102Y003894D01*
X018102Y003922D02*
X017072Y003922D01*
X017068Y003951D02*
X018107Y003951D01*
X018119Y003979D02*
X017056Y003979D01*
X017032Y004008D02*
X018143Y004008D01*
X018379Y004008D02*
X018409Y004008D01*
X018409Y003979D02*
X018379Y003979D01*
X018379Y003951D02*
X018409Y003951D01*
X018409Y003922D02*
X018379Y003922D01*
X018379Y003894D02*
X018409Y003894D01*
X018409Y003865D02*
X018379Y003865D01*
X018379Y003837D02*
X018409Y003837D01*
X018409Y003808D02*
X018379Y003808D01*
X018379Y003780D02*
X018409Y003780D01*
X018409Y003694D02*
X018379Y003694D01*
X018379Y003666D02*
X018409Y003666D01*
X018409Y003637D02*
X018379Y003637D01*
X018379Y003609D02*
X018409Y003609D01*
X018409Y003580D02*
X018379Y003580D01*
X018379Y003552D02*
X018409Y003552D01*
X018409Y003523D02*
X018379Y003523D01*
X018379Y003495D02*
X018409Y003495D01*
X018409Y003466D02*
X018379Y003466D01*
X018379Y003438D02*
X018409Y003438D01*
X020910Y002697D02*
X021300Y002697D01*
X021272Y002668D02*
X020939Y002668D01*
X020967Y002640D02*
X021243Y002640D01*
X023239Y001528D02*
X019140Y001528D01*
X019111Y001500D02*
X023239Y001500D01*
X023239Y001471D02*
X019076Y001471D01*
X019076Y001443D02*
X023239Y001443D01*
X023239Y001414D02*
X019076Y001414D01*
X019076Y001386D02*
X023239Y001386D01*
X023239Y001357D02*
X019076Y001357D01*
X019076Y001329D02*
X023239Y001329D01*
X023239Y001300D02*
X019076Y001300D01*
X019076Y001272D02*
X023239Y001272D01*
X023239Y001243D02*
X019076Y001243D01*
X019076Y001215D02*
X023239Y001215D01*
X023239Y001186D02*
X019076Y001186D01*
X019076Y001158D02*
X023239Y001158D01*
X023239Y001129D02*
X019076Y001129D01*
X019076Y001101D02*
X023239Y001101D01*
X023239Y001072D02*
X019076Y001072D01*
X019076Y001044D02*
X023239Y001044D01*
X023239Y001015D02*
X019073Y001015D01*
X019044Y000987D02*
X023239Y000987D01*
X023239Y000958D02*
X016103Y000958D01*
X016075Y000930D02*
X023239Y000930D01*
X023239Y000901D02*
X016046Y000901D01*
X016132Y000987D02*
X018524Y000987D01*
X018496Y001015D02*
X016160Y001015D01*
X016189Y001044D02*
X018492Y001044D01*
X018492Y001072D02*
X016217Y001072D01*
X016246Y001101D02*
X017278Y001101D01*
X017250Y001129D02*
X016274Y001129D01*
X016303Y001158D02*
X017244Y001158D01*
X017244Y001186D02*
X016331Y001186D01*
X016360Y001215D02*
X017244Y001215D01*
X017244Y001243D02*
X016388Y001243D01*
X016417Y001272D02*
X017231Y001272D01*
X017202Y001300D02*
X016445Y001300D01*
X016474Y001329D02*
X017174Y001329D01*
X017145Y001357D02*
X016502Y001357D01*
X016531Y001386D02*
X017117Y001386D01*
X017088Y001414D02*
X016559Y001414D01*
X016588Y001443D02*
X017060Y001443D01*
X017031Y001471D02*
X016616Y001471D01*
X016645Y001500D02*
X017003Y001500D01*
X016974Y001528D02*
X016673Y001528D01*
X016702Y001557D02*
X016946Y001557D01*
X016917Y001585D02*
X016730Y001585D01*
X016759Y001614D02*
X016889Y001614D01*
X016860Y001642D02*
X016787Y001642D01*
X016816Y001671D02*
X016832Y001671D01*
X017828Y001158D02*
X018492Y001158D01*
X018492Y001129D02*
X017823Y001129D01*
X017794Y001101D02*
X018492Y001101D01*
X023239Y000873D02*
X013612Y000873D01*
X013612Y000844D02*
X023239Y000844D01*
X023239Y000816D02*
X013612Y000816D01*
X013612Y000787D02*
X023239Y000787D01*
X023239Y000759D02*
X013604Y000759D01*
X013575Y000730D02*
X023239Y000730D01*
X023239Y000702D02*
X012354Y000702D01*
X012356Y000730D02*
X013064Y000730D01*
X013035Y000759D02*
X012356Y000759D01*
X012356Y000787D02*
X013028Y000787D01*
X013028Y000816D02*
X012356Y000816D01*
X012356Y000844D02*
X013028Y000844D01*
X011772Y000730D02*
X001628Y000730D01*
X001628Y000702D02*
X011774Y000702D01*
X020957Y006972D02*
X021918Y006972D01*
X021849Y007000D02*
X020985Y007000D01*
X021014Y007029D02*
X021801Y007029D01*
X021773Y007057D02*
X021042Y007057D01*
X021071Y007086D02*
X021744Y007086D01*
X021716Y007114D02*
X021099Y007114D01*
X021128Y007143D02*
X021687Y007143D01*
X021674Y007171D02*
X021156Y007171D01*
X021185Y007200D02*
X021662Y007200D01*
X021651Y007228D02*
X021213Y007228D01*
D31*
X019796Y006581D02*
X019796Y006573D01*
X019304Y006081D01*
X019284Y006101D01*
X019284Y007754D01*
X019796Y008266D01*
X019796Y008581D01*
X021568Y008581D01*
X021883Y008896D01*
X022276Y008896D01*
X022591Y009211D01*
X022591Y009605D01*
X022276Y009920D01*
X007080Y009920D01*
X006863Y009703D01*
X006883Y009684D01*
X006883Y006849D01*
X006919Y006818D01*
X007198Y006258D02*
X007631Y006692D01*
X009481Y006692D01*
X009493Y006723D01*
X007198Y006258D02*
X006568Y006258D01*
X006017Y006810D01*
X006009Y006818D01*
X006017Y006849D01*
X006017Y009251D01*
X006009Y009258D01*
X006765Y009802D02*
X006863Y009703D01*
X006765Y009802D02*
X003930Y009802D01*
X002394Y008266D01*
X002371Y008235D01*
X002394Y008227D01*
X002394Y007479D01*
X003182Y006692D01*
X003615Y006849D02*
X005977Y004487D01*
X005985Y004467D01*
X006017Y004447D01*
X006883Y003581D01*
X008186Y003581D01*
X009072Y003581D01*
X009087Y003581D01*
X009274Y003394D01*
X009717Y002951D01*
X009717Y001928D01*
X009741Y001928D01*
X010548Y001928D01*
X011213Y002479D02*
X012064Y001629D01*
X012080Y001652D01*
X012709Y001652D01*
X013536Y002479D01*
X013536Y002506D01*
X013733Y002912D02*
X011568Y002912D01*
X011450Y003030D01*
X011450Y004566D01*
X010741Y005274D01*
X010741Y008266D01*
X009835Y009172D01*
X009814Y009206D01*
X009796Y009172D01*
X008733Y009172D01*
X008725Y009181D01*
X008694Y009211D01*
X007828Y009211D01*
X007796Y009198D01*
X003615Y008148D02*
X003603Y008176D01*
X003615Y008148D02*
X003615Y006849D01*
X003182Y005983D02*
X003207Y005967D01*
X003207Y005199D02*
X003221Y005195D01*
X003497Y005195D01*
X003207Y004943D02*
X003182Y004920D01*
X004432Y005008D02*
X004432Y004693D01*
X006883Y002243D01*
X006883Y002046D01*
X006895Y002027D01*
X006568Y001455D02*
X006017Y002006D01*
X005985Y002027D01*
X003969Y001416D02*
X003969Y001062D01*
X004001Y001030D01*
X003489Y001030D02*
X003024Y001495D01*
X003024Y002951D01*
X003182Y003109D01*
X003359Y002707D02*
X003379Y002715D01*
X003359Y002038D02*
X003379Y002006D01*
X003969Y001416D01*
X011213Y002479D02*
X011213Y003503D01*
X011192Y003514D01*
X012192Y003514D02*
X012198Y003542D01*
X012198Y003739D01*
X013733Y002912D02*
X014678Y001967D01*
X014701Y001940D01*
X014993Y001731D02*
X014993Y002164D01*
X014993Y002321D01*
X014993Y001731D02*
X014954Y001692D01*
X013320Y001692D01*
X013300Y001022D02*
X013320Y001022D01*
X013300Y001022D02*
X013261Y000983D01*
X012080Y000983D01*
X012064Y000959D01*
X014701Y001429D02*
X014717Y001455D01*
X015859Y001455D01*
X015892Y001437D01*
X015898Y001455D01*
X016213Y001770D01*
X016213Y002125D01*
X015190Y003148D01*
X015190Y003896D01*
X015178Y003908D01*
X014548Y004695D02*
X014520Y004723D01*
X014520Y007085D01*
X016489Y009054D01*
X019560Y009054D01*
X019914Y009408D01*
X022080Y009408D01*
X017867Y007282D02*
X017843Y007282D01*
X017036Y007282D01*
X015816Y006613D02*
X015505Y006613D01*
X016174Y005943D01*
X017355Y004762D01*
X017375Y004754D01*
X019284Y005392D02*
X019284Y006062D01*
X019304Y006081D01*
X019284Y005392D02*
X019796Y004880D01*
X019796Y004581D01*
X018379Y003109D02*
X017631Y003109D01*
X018772Y001967D01*
X018784Y001943D01*
X018536Y001613D02*
X019048Y001613D01*
X019127Y001692D01*
X018772Y001298D02*
X018784Y001274D01*
X018772Y001298D02*
X017394Y001298D01*
X017536Y001331D01*
X018182Y001967D02*
X018536Y001613D01*
X018182Y001967D02*
X017394Y001967D01*
X017536Y002001D01*
X017631Y003109D02*
X017001Y003109D01*
X016804Y003109D01*
X016780Y003093D01*
X018379Y003109D02*
X018394Y003093D01*
X012192Y005562D02*
X012158Y005589D01*
X011922Y005825D01*
X011922Y006731D01*
X011914Y006731D01*
X013064Y007006D02*
X013080Y007001D01*
X013064Y007006D02*
X013064Y008148D01*
X012434Y008778D01*
X012434Y009644D01*
X012513Y009723D01*
X015387Y009723D01*
X015741Y009369D01*
X015757Y009361D01*
X014632Y009162D02*
X014599Y009172D01*
X013654Y009172D01*
X013614Y009206D01*
X013615Y009172D01*
X013654Y009132D01*
X013654Y007440D01*
X013679Y007413D01*
X013694Y007400D01*
X013969Y007125D01*
X015048Y006613D02*
X015505Y006613D01*
D32*
X014835Y005865D02*
X014678Y005707D01*
X014678Y004695D01*
X014706Y004695D01*
X014629Y004615D02*
X014333Y004615D01*
X014294Y004654D01*
X014294Y004979D01*
X014279Y004994D01*
X014265Y005008D01*
X014107Y004861D02*
X014206Y004753D01*
X014206Y004556D01*
X014225Y004536D01*
X014546Y004536D01*
X014548Y004538D01*
X014629Y004615D02*
X014706Y004538D01*
X014786Y004615D02*
X014786Y004910D01*
X014904Y005028D01*
X015003Y004910D02*
X015141Y004910D01*
X015229Y004999D01*
X015249Y005018D01*
X015337Y004812D02*
X015515Y004989D01*
X015524Y004999D01*
X015337Y004812D02*
X015072Y004812D01*
X015013Y004753D01*
X015013Y004703D01*
X015020Y004695D01*
X014944Y004615D02*
X014863Y004695D01*
X014865Y004772D01*
X015003Y004910D01*
X015178Y004695D02*
X015178Y004538D01*
X015487Y004538D01*
X015761Y004812D01*
X015761Y004556D02*
X015736Y004531D01*
X015585Y004380D01*
X015178Y004380D01*
X015091Y004300D02*
X015692Y004300D01*
X015800Y004408D01*
X015977Y004408D01*
X016017Y004447D01*
X016430Y004447D01*
X016519Y004359D01*
X016519Y004211D01*
X016331Y004024D01*
X016331Y003729D01*
X016135Y003532D01*
X016135Y002361D01*
X016420Y002075D01*
X016420Y001947D01*
X016440Y001928D01*
X017080Y002006D02*
X017343Y002006D01*
X017536Y002001D01*
X015081Y003335D02*
X014963Y003217D01*
X015081Y003335D02*
X015081Y003503D01*
X015062Y003522D01*
X015062Y003867D01*
X015020Y003908D01*
X014944Y003985D02*
X014944Y003483D01*
X014963Y003463D01*
X014845Y003601D02*
X014752Y003507D01*
X014727Y003483D01*
X014609Y003591D02*
X014540Y003591D01*
X014525Y003576D01*
X014481Y003532D01*
X014609Y003591D02*
X014698Y003680D01*
X014698Y003900D01*
X014706Y003908D01*
X014845Y003890D02*
X014845Y003601D01*
X014845Y003890D02*
X014863Y003908D01*
X014944Y003985D02*
X014863Y004066D01*
X014944Y004142D02*
X015583Y004142D01*
X015711Y004014D01*
X015761Y004014D01*
X015623Y003975D02*
X015623Y003857D01*
X015633Y003847D01*
X015770Y003847D01*
X015662Y003699D02*
X015633Y003699D01*
X015544Y003788D01*
X015544Y003936D01*
X015495Y003985D01*
X015101Y003985D01*
X015020Y004066D01*
X014944Y004142D02*
X014863Y004223D01*
X014940Y004300D02*
X014776Y004300D01*
X014706Y004229D01*
X014706Y004223D01*
X014706Y004380D02*
X014548Y004223D01*
X014706Y004066D01*
X014548Y004066D02*
X014442Y004172D01*
X013969Y004172D01*
X013930Y004132D01*
X013920Y004123D01*
X013871Y004300D02*
X014471Y004300D01*
X014548Y004223D01*
X014546Y004379D02*
X013999Y004379D01*
X013900Y004477D01*
X013900Y004546D01*
X013457Y005038D01*
X013457Y005550D01*
X013467Y005560D01*
X013497Y005865D02*
X013103Y006258D01*
X013103Y006287D01*
X013080Y006311D01*
X014048Y004605D02*
X014117Y004536D01*
X014117Y004497D01*
X014156Y004457D01*
X014786Y004457D01*
X014863Y004380D01*
X014944Y004418D02*
X014981Y004380D01*
X015020Y004380D01*
X014940Y004300D01*
X015020Y004229D02*
X015091Y004300D01*
X015020Y004229D02*
X015020Y004223D01*
X015178Y004223D02*
X015709Y004223D01*
X015859Y004221D01*
X015623Y003975D02*
X015534Y004064D01*
X015180Y004064D01*
X015178Y004066D01*
X014548Y003908D02*
X014532Y003908D01*
X014402Y003778D01*
X014206Y003778D01*
X014127Y003699D01*
X014107Y003680D01*
X014546Y004379D02*
X014548Y004380D01*
X014786Y004615D02*
X014863Y004538D01*
X014944Y004615D02*
X014944Y004418D01*
X015020Y004538D02*
X015178Y004538D01*
X017139Y006554D02*
X017148Y006554D01*
X018635Y006554D01*
X019097Y006091D01*
X020465Y006091D02*
X020554Y006180D01*
X020554Y006731D01*
X021194Y007371D01*
X022080Y007371D01*
X022080Y007408D01*
D33*
X019127Y005205D02*
X018310Y006022D01*
X017394Y005943D02*
X017375Y005936D01*
X017394Y005943D02*
X017040Y006298D01*
X016174Y006298D01*
X016174Y005943D02*
X015229Y004999D01*
X015505Y004999D02*
X015515Y004989D01*
X015505Y004999D02*
X016135Y005629D01*
X016174Y005629D01*
X016489Y005943D02*
X016804Y005943D01*
X016824Y005936D01*
X015820Y005943D02*
X014904Y005028D01*
X014284Y004999D02*
X014279Y004994D01*
X014284Y004999D02*
X014078Y005127D01*
X014048Y005156D01*
X014048Y006022D01*
X014127Y006101D01*
X014284Y005943D02*
X014363Y006022D01*
X014363Y006731D01*
X013969Y007125D01*
X013300Y006652D02*
X012867Y006652D01*
X011017Y008503D01*
X011017Y009605D01*
X010898Y009723D01*
X007198Y009723D01*
X007158Y009684D01*
X006804Y010038D02*
X003143Y010038D01*
X001686Y008581D01*
X001686Y006534D01*
X002119Y006101D01*
X002473Y006101D01*
X002788Y005786D01*
X002788Y005589D01*
X002906Y005471D01*
X003182Y005471D01*
X003207Y005455D01*
X003207Y005711D02*
X003483Y005711D01*
X004137Y005058D01*
X004137Y004359D01*
X003910Y004516D02*
X003782Y004388D01*
X003782Y003099D01*
X003379Y002695D01*
X003371Y002695D01*
X003359Y002707D01*
X003182Y003109D02*
X003182Y004004D01*
X003625Y004447D01*
X003625Y004910D01*
X003591Y004943D01*
X003207Y004943D01*
X003497Y005195D02*
X003694Y005195D01*
X003910Y004979D01*
X003910Y004516D01*
X004432Y005008D02*
X004432Y005018D01*
X003467Y005983D01*
X003585Y006101D01*
X003585Y006495D01*
X003389Y006692D01*
X003182Y006692D01*
X003182Y005983D02*
X003467Y005983D01*
X005099Y006818D02*
X005099Y007919D01*
X005150Y007971D01*
X007284Y009198D02*
X007788Y008694D01*
X010190Y006731D02*
X010505Y007046D01*
X010505Y007085D01*
X010190Y006731D02*
X010162Y006723D01*
X009520Y006731D02*
X009493Y006723D01*
X009520Y006731D02*
X010505Y005747D01*
X010505Y002479D01*
X010859Y002125D01*
X010859Y001022D01*
X004009Y001022D01*
X004001Y001030D01*
X006568Y001455D02*
X006568Y001465D01*
X007493Y001465D01*
X007916Y001888D01*
X009678Y001888D01*
X009717Y001928D01*
X009721Y001436D02*
X009019Y001436D01*
X008871Y001583D01*
X009721Y001436D02*
X009741Y001416D01*
X010859Y001022D02*
X012001Y001022D01*
X012064Y000959D01*
X013320Y001022D02*
X015977Y001022D01*
X016824Y001869D01*
X016824Y002036D01*
X016381Y002479D01*
X016381Y003443D01*
X016509Y003571D01*
X016509Y003965D01*
X016607Y004064D01*
X016706Y004064D01*
X017365Y004723D01*
X017365Y004745D01*
X017375Y004754D01*
X017355Y004723D01*
X016824Y004754D02*
X016804Y004723D01*
X016607Y004526D01*
X015741Y004526D01*
X015736Y004531D01*
X016144Y004231D02*
X015928Y004014D01*
X015761Y004014D01*
X015780Y003857D02*
X015770Y003847D01*
X015780Y003857D02*
X016135Y003857D01*
X015662Y003699D02*
X015662Y002991D01*
X015347Y002676D02*
X015859Y002164D01*
X015859Y001967D01*
X015892Y001948D01*
X015505Y002203D02*
X014757Y002951D01*
X014757Y003503D01*
X014752Y003507D01*
X014944Y003443D02*
X014963Y003463D01*
X014963Y003217D02*
X014963Y003099D01*
X014983Y003079D01*
X014983Y002961D01*
X014993Y002164D02*
X014048Y003109D01*
X013812Y003503D02*
X013536Y003227D01*
X013536Y003215D01*
X013576Y003581D02*
X013064Y004093D01*
X012513Y004093D01*
X012434Y004014D01*
X012434Y003975D01*
X012198Y003739D01*
X012192Y003514D01*
X011692Y003514D02*
X011646Y003560D01*
X011646Y004861D01*
X011715Y004851D01*
X011893Y004388D02*
X012522Y004388D01*
X012670Y004241D01*
X013261Y004241D01*
X013369Y004132D01*
X013704Y004132D01*
X013871Y004300D01*
X013930Y004132D02*
X013812Y004014D01*
X013812Y003503D01*
X014048Y003699D02*
X014127Y003699D01*
X014520Y003581D02*
X014525Y003576D01*
X013694Y004408D02*
X013694Y004566D01*
X012709Y005550D01*
X012692Y005562D01*
X012198Y005550D02*
X012192Y005562D01*
X012198Y005550D02*
X012198Y005314D01*
X013143Y004369D01*
X013379Y004369D01*
X013733Y004959D02*
X014048Y004605D01*
X013733Y004959D02*
X013733Y006219D01*
X013300Y006652D01*
X014284Y005943D02*
X014284Y005235D01*
X011692Y005562D02*
X011686Y005589D01*
X011686Y005825D01*
X011292Y006219D01*
X011292Y006298D01*
X011056Y006377D02*
X011213Y006534D01*
X011213Y006731D01*
X011245Y006731D01*
X011056Y006377D02*
X011056Y006219D01*
X010977Y006219D01*
X011056Y006219D02*
X011056Y005707D01*
X011174Y005589D01*
X011192Y005562D01*
X009580Y004182D02*
X010141Y003621D01*
X010141Y002695D01*
X009072Y002630D02*
X009072Y003069D01*
X009274Y003394D02*
X009383Y003394D01*
X009648Y003660D01*
X009580Y004182D02*
X008143Y004182D01*
X006765Y005560D01*
X005337Y005560D01*
X008871Y002430D02*
X009072Y002630D01*
X016607Y002715D02*
X017001Y003109D01*
X017887Y004231D02*
X018394Y003723D01*
X017887Y004231D02*
X017887Y004723D01*
X017798Y004812D01*
X019127Y005205D02*
X019127Y001692D01*
X019442Y002459D02*
X019560Y002577D01*
X020839Y002577D01*
X020928Y002489D01*
X021282Y002489D01*
X021804Y003010D01*
X022158Y003010D01*
X022158Y003006D01*
X017536Y001331D02*
X017355Y001337D01*
X016824Y001869D01*
X018310Y006839D02*
X017867Y007282D01*
D34*
X018310Y006839D03*
X017148Y006554D03*
X016459Y007085D03*
X016174Y006298D03*
X016489Y005943D03*
X016174Y005629D03*
X015820Y005943D03*
X014835Y005865D03*
X014127Y006101D03*
X013497Y005865D03*
X013467Y005560D03*
X014284Y005235D03*
X014107Y004861D03*
X013694Y004408D03*
X013379Y004369D03*
X014048Y003699D03*
X013576Y003581D03*
X013083Y003601D03*
X014048Y003109D03*
X014520Y003581D03*
X014944Y003443D03*
X014983Y002961D03*
X015347Y002676D03*
X015662Y002991D03*
X016607Y002715D03*
X015505Y002203D03*
X016440Y001928D03*
X017080Y002006D03*
X019442Y002459D03*
X016135Y003857D03*
X016144Y004231D03*
X015859Y004221D03*
X015761Y004812D03*
X017798Y004812D03*
X018310Y006022D03*
X019097Y006091D03*
X020465Y006091D03*
X017011Y009556D03*
X013999Y006485D03*
X011292Y006298D03*
X010977Y006219D03*
X010505Y005747D03*
X011715Y004851D03*
X011893Y004388D03*
X009648Y003660D03*
X010141Y002695D03*
X008871Y002430D03*
X008871Y001583D03*
X004274Y003542D03*
X004137Y004359D03*
X002581Y003178D03*
X005337Y005560D03*
X005150Y007971D03*
X004038Y009236D03*
X002975Y009354D03*
X006804Y010038D03*
X007158Y009684D03*
X007788Y008694D03*
X010505Y007085D03*
M02*
