%
M48
M72
T01C0.0120
T02C0.0335
T03C0.0400
%
T01
X2581Y3178
X4274Y3542
X4137Y4359
X5337Y5560
X5150Y7971
X4038Y9236
X2975Y9354
X6804Y10038
X7158Y9684
X7788Y8694
X10505Y7085
X10977Y6219
X11292Y6298
X10505Y5747
X11715Y4851
X11893Y4388
X13083Y3601
X13576Y3581
X14048Y3699
X14520Y3581
X14944Y3443
X14983Y2961
X15347Y2676
X15662Y2991
X16607Y2715
X15505Y2203
X16440Y1928
X17080Y2006
X19442Y2459
X16135Y3857
X16144Y4231
X15859Y4221
X15761Y4812
X16174Y5629
X16489Y5943
X16174Y6298
X15820Y5943
X14835Y5865
X14127Y6101
X13497Y5865
X13467Y5560
X14284Y5235
X14107Y4861
X13694Y4408
X13379Y4369
X14048Y3109
X17798Y4812
X18310Y6022
X19097Y6091
X18310Y6839
X17148Y6554
X16459Y7085
X13999Y6485
X9648Y3660
X10141Y2695
X8871Y2430
X8871Y1583
X20465Y6091
X17011Y9556
T02
X8725Y9181
X14632Y9162
X3001Y6203
X3001Y4707
T03
X19796Y6581
X19796Y5581
X19796Y4581
X19796Y3581
X22158Y3006
X22158Y2006
X22080Y5408
X22080Y6408
X22080Y7408
X22080Y8408
X22080Y9408
X19796Y8581
X19796Y7581
M30
