G75*
G70*
%OFA0B0*%
%FSLAX24Y24*%
%IPPOS*%
%LPD*%
%AMOC8*
5,1,8,0,0,1.08239X$1,22.5*
%
%ADD10C,0.0000*%
%ADD11C,0.0415*%
%ADD12C,0.0535*%
%ADD13C,0.0820*%
%ADD14C,0.0280*%
D10*
X001213Y000274D02*
X001213Y010904D01*
X023654Y010904D01*
X023654Y000274D01*
X001213Y000274D01*
X002834Y004707D02*
X002836Y004732D01*
X002842Y004757D01*
X002851Y004781D01*
X002864Y004803D01*
X002881Y004823D01*
X002900Y004840D01*
X002921Y004854D01*
X002945Y004864D01*
X002969Y004871D01*
X002995Y004874D01*
X003020Y004873D01*
X003045Y004868D01*
X003069Y004859D01*
X003092Y004847D01*
X003112Y004832D01*
X003130Y004813D01*
X003145Y004792D01*
X003156Y004769D01*
X003164Y004745D01*
X003168Y004720D01*
X003168Y004694D01*
X003164Y004669D01*
X003156Y004645D01*
X003145Y004622D01*
X003130Y004601D01*
X003112Y004582D01*
X003092Y004567D01*
X003069Y004555D01*
X003045Y004546D01*
X003020Y004541D01*
X002995Y004540D01*
X002969Y004543D01*
X002945Y004550D01*
X002921Y004560D01*
X002900Y004574D01*
X002881Y004591D01*
X002864Y004611D01*
X002851Y004633D01*
X002842Y004657D01*
X002836Y004682D01*
X002834Y004707D01*
X002834Y006203D02*
X002836Y006228D01*
X002842Y006253D01*
X002851Y006277D01*
X002864Y006299D01*
X002881Y006319D01*
X002900Y006336D01*
X002921Y006350D01*
X002945Y006360D01*
X002969Y006367D01*
X002995Y006370D01*
X003020Y006369D01*
X003045Y006364D01*
X003069Y006355D01*
X003092Y006343D01*
X003112Y006328D01*
X003130Y006309D01*
X003145Y006288D01*
X003156Y006265D01*
X003164Y006241D01*
X003168Y006216D01*
X003168Y006190D01*
X003164Y006165D01*
X003156Y006141D01*
X003145Y006118D01*
X003130Y006097D01*
X003112Y006078D01*
X003092Y006063D01*
X003069Y006051D01*
X003045Y006042D01*
X003020Y006037D01*
X002995Y006036D01*
X002969Y006039D01*
X002945Y006046D01*
X002921Y006056D01*
X002900Y006070D01*
X002881Y006087D01*
X002864Y006107D01*
X002851Y006129D01*
X002842Y006153D01*
X002836Y006178D01*
X002834Y006203D01*
D11*
X003001Y006203D03*
X003001Y004707D03*
D12*
X008725Y009181D03*
X014632Y009162D03*
D13*
X019796Y008581D03*
X019796Y007581D03*
X019796Y006581D03*
X019796Y005581D03*
X019796Y004581D03*
X019796Y003581D03*
X022158Y003006D03*
X022158Y002006D03*
X022080Y005408D03*
X022080Y006408D03*
X022080Y007408D03*
X022080Y008408D03*
X022080Y009408D03*
D14*
X018893Y007875D03*
X018893Y007354D03*
X018511Y007021D03*
X017394Y006416D03*
X016944Y005472D03*
X017192Y005218D03*
X016532Y004799D03*
X016107Y004466D03*
X015963Y004825D03*
X015640Y005111D03*
X015283Y005413D03*
X015061Y005565D03*
X014680Y005562D03*
X014052Y005125D03*
X014107Y004707D03*
X013681Y004445D03*
X013849Y003974D03*
X014619Y003479D03*
X015013Y003479D03*
X014985Y003003D03*
X015572Y002758D03*
X015423Y002525D03*
X015022Y002371D03*
X014678Y002321D03*
X013103Y002164D03*
X012237Y002243D03*
X012080Y002833D03*
X011686Y002794D03*
X013849Y003295D03*
X015855Y004123D03*
X016089Y004016D03*
X016152Y003478D03*
X016473Y002995D03*
X016409Y002703D03*
X016770Y002528D03*
X016818Y002169D03*
X017394Y002400D03*
X018071Y002315D03*
X019673Y002315D03*
X021246Y002871D03*
X020401Y003717D03*
X018875Y004251D03*
X018104Y004251D03*
X017161Y004012D03*
X015479Y004645D03*
X015957Y005478D03*
X015623Y005865D03*
X014523Y006264D03*
X013603Y005562D03*
X013308Y005125D03*
X013308Y005113D03*
X012580Y004445D03*
X011699Y004046D03*
X008939Y005113D03*
X007474Y005599D03*
X007135Y005129D03*
X006497Y005129D03*
X006540Y005599D03*
X005269Y005195D03*
X004402Y004951D03*
X004104Y005188D03*
X004104Y005492D03*
X003772Y005668D03*
X004402Y005825D03*
X003615Y007794D03*
X007788Y003581D03*
X006883Y002715D03*
X006292Y003306D03*
X005977Y002715D03*
X016502Y001385D03*
X016678Y000810D03*
X022185Y000917D03*
X022185Y001971D03*
X021109Y007021D03*
M02*
