G75*
G70*
%OFA0B0*%
%FSLAX24Y24*%
%IPPOS*%
%LPD*%
%AMOC8*
5,1,8,0,0,1.08239X$1,22.5*
%
%ADD10C,0.0000*%
%ADD11R,0.0480X0.0880*%
%ADD12R,0.1417X0.0866*%
%ADD13C,0.0087*%
%ADD14R,0.0236X0.0866*%
%ADD15R,0.0571X0.0157*%
%ADD16R,0.0591X0.0709*%
%ADD17R,0.0276X0.0591*%
%ADD18R,0.0433X0.0394*%
%ADD19R,0.0394X0.0433*%
%ADD20R,0.0472X0.0315*%
%ADD21R,0.0276X0.0354*%
%ADD22R,0.0354X0.0276*%
%ADD23R,0.2100X0.0760*%
%ADD24R,0.0394X0.0315*%
%ADD25R,0.0276X0.0472*%
%ADD26C,0.0118*%
%ADD27R,0.0354X0.0394*%
D10*
X001213Y000274D02*
X001213Y010904D01*
X023654Y010904D01*
X023654Y000274D01*
X001213Y000274D01*
X002834Y004707D02*
X002836Y004732D01*
X002842Y004757D01*
X002851Y004781D01*
X002864Y004803D01*
X002881Y004823D01*
X002900Y004840D01*
X002921Y004854D01*
X002945Y004864D01*
X002969Y004871D01*
X002995Y004874D01*
X003020Y004873D01*
X003045Y004868D01*
X003069Y004859D01*
X003092Y004847D01*
X003112Y004832D01*
X003130Y004813D01*
X003145Y004792D01*
X003156Y004769D01*
X003164Y004745D01*
X003168Y004720D01*
X003168Y004694D01*
X003164Y004669D01*
X003156Y004645D01*
X003145Y004622D01*
X003130Y004601D01*
X003112Y004582D01*
X003092Y004567D01*
X003069Y004555D01*
X003045Y004546D01*
X003020Y004541D01*
X002995Y004540D01*
X002969Y004543D01*
X002945Y004550D01*
X002921Y004560D01*
X002900Y004574D01*
X002881Y004591D01*
X002864Y004611D01*
X002851Y004633D01*
X002842Y004657D01*
X002836Y004682D01*
X002834Y004707D01*
X002834Y006203D02*
X002836Y006228D01*
X002842Y006253D01*
X002851Y006277D01*
X002864Y006299D01*
X002881Y006319D01*
X002900Y006336D01*
X002921Y006350D01*
X002945Y006360D01*
X002969Y006367D01*
X002995Y006370D01*
X003020Y006369D01*
X003045Y006364D01*
X003069Y006355D01*
X003092Y006343D01*
X003112Y006328D01*
X003130Y006309D01*
X003145Y006288D01*
X003156Y006265D01*
X003164Y006241D01*
X003168Y006216D01*
X003168Y006190D01*
X003164Y006165D01*
X003156Y006141D01*
X003145Y006118D01*
X003130Y006097D01*
X003112Y006078D01*
X003092Y006063D01*
X003069Y006051D01*
X003045Y006042D01*
X003020Y006037D01*
X002995Y006036D01*
X002969Y006039D01*
X002945Y006046D01*
X002921Y006056D01*
X002900Y006070D01*
X002881Y006087D01*
X002864Y006107D01*
X002851Y006129D01*
X002842Y006153D01*
X002836Y006178D01*
X002834Y006203D01*
D11*
X005099Y006818D03*
X006009Y006818D03*
X006919Y006818D03*
X006895Y002027D03*
X005985Y002027D03*
X005075Y002027D03*
D12*
X005985Y004467D03*
X006009Y009258D03*
D13*
X014548Y004695D03*
X014548Y004538D03*
X014706Y004538D03*
X014863Y004538D03*
X014863Y004695D03*
X015020Y004695D03*
X015020Y004538D03*
X015020Y004380D03*
X015020Y004223D03*
X014863Y004223D03*
X014863Y004380D03*
X014706Y004380D03*
X014706Y004223D03*
X014706Y004066D03*
X014863Y004066D03*
X015020Y004066D03*
X015178Y004066D03*
X015178Y004223D03*
X015178Y004380D03*
X015178Y004538D03*
X015178Y004695D03*
X014706Y004695D03*
X014548Y004380D03*
X014548Y004223D03*
X014548Y004066D03*
X014548Y003908D03*
X014706Y003908D03*
X014863Y003908D03*
X015020Y003908D03*
X015178Y003908D03*
D14*
X012692Y003514D03*
X012192Y003514D03*
X011692Y003514D03*
X011192Y003514D03*
X011192Y005562D03*
X011692Y005562D03*
X012192Y005562D03*
X012692Y005562D03*
D15*
X003207Y005455D03*
X003207Y005199D03*
X003207Y004943D03*
X003207Y005711D03*
X003207Y005967D03*
D16*
X002135Y006906D03*
X002135Y004005D03*
D17*
X002135Y005455D03*
D18*
X009493Y006723D03*
X010162Y006723D03*
X011245Y006731D03*
X011914Y006731D03*
X015757Y009361D03*
X016426Y009361D03*
D19*
X003359Y002707D03*
X003359Y002038D03*
X012064Y001629D03*
X012064Y000959D03*
X013320Y001022D03*
X013320Y001692D03*
X018784Y001943D03*
X018784Y001274D03*
D20*
X013536Y002506D03*
X013536Y003215D03*
D21*
X004001Y001030D03*
X003489Y001030D03*
X007284Y009198D03*
X007796Y009198D03*
D22*
X003603Y008688D03*
X003603Y008176D03*
X002371Y008235D03*
X002371Y008747D03*
X008186Y003581D03*
X008186Y003069D03*
X009072Y003069D03*
X009072Y003581D03*
X009741Y001928D03*
X010548Y001928D03*
X010548Y001416D03*
X009741Y001416D03*
X014701Y001429D03*
X014701Y001940D03*
X015892Y001948D03*
X015892Y001437D03*
X015816Y006613D03*
X015048Y006613D03*
X015048Y007125D03*
X015816Y007125D03*
X017036Y007282D03*
X017036Y007794D03*
X017843Y007794D03*
X017843Y007282D03*
X013679Y007413D03*
X013679Y006902D03*
D23*
X013614Y009206D03*
X009814Y009206D03*
D24*
X017536Y002001D03*
X017536Y001331D03*
D25*
X017375Y004754D03*
X016824Y004754D03*
X016824Y005936D03*
X017375Y005936D03*
D26*
X013218Y006173D02*
X012942Y006173D01*
X012942Y006449D01*
X013218Y006449D01*
X013218Y006173D01*
X013218Y006290D02*
X012942Y006290D01*
X012942Y006407D02*
X013218Y006407D01*
X013218Y006863D02*
X012942Y006863D01*
X012942Y007139D01*
X013218Y007139D01*
X013218Y006863D01*
X013218Y006980D02*
X012942Y006980D01*
X012942Y007097D02*
X013218Y007097D01*
D27*
X016780Y003723D03*
X016780Y003093D03*
X018394Y003093D03*
X018394Y003723D03*
M02*
